<svg xmlns="http://www.w3.org/2000/svg" width="1100" height="6750" viewBox="0 0 1100 6750" style="background:#0b0d12">
<polygon points="532.7,1046.2 532.9,1152.5 533.1,1259.3 532.7,1365.0 531.8,1470.7 531.0,1577.4 530.1,1683.8 529.3,1789.0 528.5,1898.7 527.8,2009.8 527.0,2112.4 526.3,2212.7 525.6,2322.7 525.4,2435.4 525.5,2532.2 526.0,2632.0 526.9,2736.6 528.2,2842.2 530.0,2947.6 532.2,3052.9 534.6,3158.4 537.3,3263.9 540.2,3369.3 543.3,3476.0 546.5,3584.4 549.7,3687.4 552.4,3774.0 555.1,3861.4 558.0,3961.0 562.0,4103.0 564.6,4200.9 567.3,4304.9 570.1,4413.0 573.0,4523.3 575.8,4634.0 578.6,4743.0 581.4,4853.9 584.5,4971.7 587.2,5076.6 589.8,5179.5 592.3,5280.9 594.9,5381.2 597.4,5482.6 600.1,5587.2 602.7,5692.4 605.4,5798.6 608.1,5904.9 610.8,6011.2 613.4,6116.1 616.1,6220.3 618.7,6324.6 413.7,6329.8 411.1,6225.5 408.4,6121.3 405.8,6016.4 403.1,5910.1 400.4,5803.8 397.7,5697.6 395.1,5592.3 392.4,5487.8 389.9,5386.4 387.3,5286.0 384.8,5184.7 382.2,5081.8 379.5,4976.9 376.4,4859.2 373.6,4748.3 370.8,4639.2 368.0,4528.6 365.1,4418.3 362.3,4310.3 359.6,4206.4 357.0,4108.5 353.0,3966.8 350.1,3867.6 347.4,3780.4 344.7,3693.9 341.5,3590.5 338.3,3482.1 335.2,3375.2 332.3,3269.3 329.6,3163.4 327.1,3057.5 324.9,2951.5 323.1,2845.2 321.8,2738.7 320.9,2633.3 320.4,2532.8 320.3,2435.4 320.6,2321.8 321.2,2211.3 321.9,2110.9 322.7,2008.4 323.5,1897.2 324.3,1787.4 325.1,1682.2 325.9,1575.8 326.8,1469.1 327.6,1363.5 328.0,1259.2 327.8,1153.0 327.6,1046.3" fill="#3b82f6" fill-opacity="0.25"/>
<polygon points="596.4,422.9 598.3,527.3 602.8,630.8 611.7,733.8 624.1,837.3 638.7,941.1 654.2,1045.6 669.3,1150.9 682.7,1257.1 692.9,1364.3 700.4,1470.6 706.4,1576.9 711.1,1683.1 714.9,1789.2 718.0,1895.1 720.9,2000.8 723.7,2106.4 726.7,2212.0 729.6,2317.8 732.1,2423.8 733.9,2530.0 734.8,2636.3 734.4,2742.7 732.4,2849.3 729.0,2955.6 724.5,3061.8 718.9,3168.0 712.1,3274.1 704.2,3380.1 695.3,3486.0 685.2,3592.2 672.1,3698.9 656.5,3804.4 640.0,3909.1 623.7,4013.0 609.1,4116.5 597.3,4219.7 589.6,4322.5 585.9,4426.2 585.3,4530.5 586.9,4635.2 590.0,4740.2 594.0,4845.5 598.3,4951.2 602.0,5057.4 604.5,5163.5 607.0,5269.1 609.6,5374.7 612.4,5480.3 615.2,5585.9 618.0,5691.6 502.8,5694.6 500.1,5589.0 497.2,5483.3 494.4,5377.6 491.8,5271.9 489.3,5166.1 486.8,5060.8 483.1,4955.7 478.9,4850.2 474.9,4744.2 471.7,4637.9 470.1,4531.2 470.7,4424.0 474.5,4316.4 482.6,4208.6 494.8,4101.7 509.8,3995.8 526.2,3890.9 542.7,3786.8 557.9,3683.2 570.6,3580.0 580.5,3475.8 589.4,3371.0 597.1,3266.1 603.8,3161.2 609.4,3056.3 613.9,2951.3 617.2,2846.3 619.2,2741.5 619.6,2636.6 618.7,2531.5 616.9,2426.2 614.4,2320.8 611.6,2215.3 608.6,2109.6 605.7,2003.9 602.9,1898.3 599.7,1792.9 596.0,1687.6 591.3,1582.6 585.4,1477.8 578.1,1373.3 568.2,1270.0 555.2,1166.5 540.2,1062.5 524.7,957.8 509.9,852.4 497.1,745.9 487.8,638.3 483.1,530.6 481.2,423.7" fill="#22c55e" fill-opacity="0.25"/>
<path d="M430.1,1046.2 L430.4,1152.8 L430.6,1259.2 L430.1,1364.3 L429.3,1469.9 L428.5,1576.6 L427.6,1683.0 L426.8,1788.2 L426.0,1897.9 L425.2,2009.1 L424.4,2111.7 L423.7,2212.0 L423.1,2322.2 L422.8,2435.4 L423.0,2532.5 L423.4,2632.7 L424.3,2737.6 L425.6,2843.7 L427.4,2949.5 L429.6,3055.2 L432.1,3160.9 L434.8,3266.6 L437.7,3372.3 L440.8,3479.0 L444.0,3587.4 L447.2,3690.6 L449.9,3777.2 L452.6,3864.5 L455.5,3963.9 L459.5,4105.8 L462.1,4203.6 L464.8,4307.6 L467.6,4415.7 L470.5,4526.0 L473.3,4636.6 L476.1,4745.6 L478.9,4856.6 L482.0,4974.3 L484.7,5079.2 L487.3,5182.1 L489.8,5283.5 L492.4,5383.8 L494.9,5485.2 L497.6,5589.8 L500.2,5695.0 L502.9,5801.2 L505.6,5907.5 L508.3,6013.8 L510.9,6118.7 L513.6,6222.9 L516.2,6327.2" stroke="#3b82f6" stroke-width="2" fill="none"/>
<path d="M538.8,423.3 L540.7,529.0 L545.3,634.5 L554.4,739.9 L567.0,844.8 L581.7,949.5 L597.2,1054.1 L612.2,1158.7 L625.5,1263.6 L635.5,1368.8 L642.9,1474.2 L648.9,1579.8 L653.5,1685.4 L657.3,1791.0 L660.5,1896.7 L663.3,2002.3 L666.2,2108.0 L669.1,2213.7 L672.0,2319.3 L674.5,2425.0 L676.3,2530.7 L677.2,2636.4 L676.8,2742.1 L674.8,2847.8 L671.5,2953.5 L667.0,3059.1 L661.4,3164.6 L654.6,3270.1 L646.8,3375.5 L637.9,3480.9 L627.9,3586.1 L615.0,3691.0 L599.6,3795.6 L583.1,3900.0 L566.8,4004.4 L552.0,4109.1 L540.0,4214.1 L532.0,4319.5 L528.3,4425.1 L527.7,4530.8 L529.3,4636.6 L532.4,4742.2 L536.5,4847.9 L540.7,4953.5 L544.4,5059.1 L546.9,5164.8 L549.4,5270.5 L552.0,5376.1 L554.8,5481.8 L557.6,5587.5 L560.4,5693.1" stroke="#22c55e" stroke-width="2" fill="none"/>
<path d="M467.7,1046.2 L467.9,1152.7 L468.1,1259.2 L467.6,1364.5 L466.8,1470.2 L466.0,1576.9 L465.1,1683.3 L464.3,1788.5 L463.5,1898.2 L462.7,2009.4 L462.0,2111.9 L461.2,2212.3 L460.6,2322.4 L460.4,2435.4 L460.5,2532.4 L461.0,2632.4 L461.9,2737.2 L463.2,2843.1 L465.0,2948.8 L467.2,3054.4 L469.6,3160.0 L472.3,3265.6 L475.2,3371.2 L478.3,3477.9 L481.5,3586.3 L484.7,3689.5 L487.4,3776.0 L490.1,3863.3 L493.1,3962.8 L497.0,4104.8 L499.6,4202.6 L502.3,4306.6 L505.1,4414.7 L508.0,4525.0 L510.8,4635.7 L513.6,4744.7 L516.5,4855.6 L519.5,4973.3 L522.2,5078.3 L524.8,5181.2 L527.4,5282.5 L529.9,5382.9 L532.4,5484.3 L535.1,5588.8 L537.7,5694.0 L540.4,5800.2 L543.1,5906.5 L545.8,6012.8 L548.5,6117.7 L551.1,6222.0 L553.7,6326.2" stroke="#eab308" stroke-width="1.6" stroke-dasharray="8 5" fill="none"/>
<path d="M516.8,1046.2 L517.1,1152.5 L517.2,1259.3 L516.8,1364.9 L516.0,1470.6 L515.1,1577.3 L514.3,1683.7 L513.5,1788.9 L512.7,1898.5 L511.9,2009.7 L511.1,2112.3 L510.4,2212.6 L509.8,2322.6 L509.5,2435.4 L509.7,2532.2 L510.1,2632.1 L511.0,2736.7 L512.3,2842.4 L514.1,2947.9 L516.3,3053.3 L518.8,3158.8 L521.4,3264.3 L524.3,3369.8 L527.5,3476.4 L530.7,3584.9 L533.8,3687.9 L536.6,3774.5 L539.3,3861.9 L542.2,3961.4 L546.1,4103.4 L548.7,4201.3 L551.5,4305.3 L554.3,4413.4 L557.1,4523.8 L560.0,4634.4 L562.8,4743.4 L565.6,4854.3 L568.6,4972.1 L571.3,5077.0 L573.9,5179.9 L576.5,5281.3 L579.0,5381.6 L581.6,5483.0 L584.2,5587.6 L586.9,5692.8 L589.6,5799.0 L592.2,5905.3 L594.9,6011.6 L597.6,6116.5 L600.2,6220.7 L602.9,6325.0" stroke="#e2e8f0" stroke-width="1.2" fill="none"/>
<circle cx="523.8" cy="1046.2" r="1.6" fill="#f97316"/>
<circle cx="524.0" cy="1152.5" r="1.6" fill="#f97316"/>
<circle cx="524.2" cy="1259.3" r="1.6" fill="#f97316"/>
<circle cx="523.8" cy="1364.9" r="1.6" fill="#f97316"/>
<circle cx="523.0" cy="1470.7" r="1.6" fill="#f97316"/>
<circle cx="522.1" cy="1577.3" r="1.6" fill="#f97316"/>
<circle cx="521.3" cy="1683.8" r="1.6" fill="#f97316"/>
<circle cx="520.4" cy="1788.9" r="1.6" fill="#f97316"/>
<circle cx="519.6" cy="1898.6" r="1.6" fill="#f97316"/>
<circle cx="518.9" cy="2009.8" r="1.6" fill="#f97316"/>
<circle cx="518.1" cy="2112.4" r="1.6" fill="#f97316"/>
<circle cx="517.4" cy="2212.6" r="1.6" fill="#f97316"/>
<circle cx="516.7" cy="2322.6" r="1.6" fill="#f97316"/>
<circle cx="516.5" cy="2435.4" r="1.6" fill="#f97316"/>
<circle cx="516.6" cy="2532.2" r="1.6" fill="#f97316"/>
<circle cx="517.1" cy="2632.1" r="1.6" fill="#f97316"/>
<circle cx="518.0" cy="2736.7" r="1.6" fill="#f97316"/>
<circle cx="519.3" cy="2842.3" r="1.6" fill="#f97316"/>
<circle cx="521.1" cy="2947.8" r="1.6" fill="#f97316"/>
<circle cx="523.3" cy="3053.1" r="1.6" fill="#f97316"/>
<circle cx="525.7" cy="3158.7" r="1.6" fill="#f97316"/>
<circle cx="528.4" cy="3264.1" r="1.6" fill="#f97316"/>
<circle cx="531.3" cy="3369.6" r="1.6" fill="#f97316"/>
<circle cx="534.4" cy="3476.2" r="1.6" fill="#f97316"/>
<circle cx="537.6" cy="3584.7" r="1.6" fill="#f97316"/>
<circle cx="540.8" cy="3687.7" r="1.6" fill="#f97316"/>
<circle cx="543.5" cy="3774.3" r="1.6" fill="#f97316"/>
<circle cx="596.5" cy="5798.8" r="1.6" fill="#f97316"/>
<circle cx="599.2" cy="5905.1" r="1.6" fill="#f97316"/>
<circle cx="601.9" cy="6011.4" r="1.6" fill="#f97316"/>
<circle cx="604.6" cy="6116.3" r="1.6" fill="#f97316"/>
<circle cx="607.2" cy="6220.6" r="1.6" fill="#f97316"/>
<circle cx="609.9" cy="6324.8" r="1.6" fill="#f97316"/>
<circle cx="336.5" cy="1046.2" r="1.6" fill="#f97316"/>
<circle cx="336.7" cy="1153.0" r="1.6" fill="#f97316"/>
<circle cx="336.9" cy="1259.2" r="1.6" fill="#f97316"/>
<circle cx="336.5" cy="1363.6" r="1.6" fill="#f97316"/>
<circle cx="335.7" cy="1469.2" r="1.6" fill="#f97316"/>
<circle cx="334.8" cy="1575.8" r="1.6" fill="#f97316"/>
<circle cx="334.0" cy="1682.3" r="1.6" fill="#f97316"/>
<circle cx="333.1" cy="1787.5" r="1.6" fill="#f97316"/>
<circle cx="332.3" cy="1897.3" r="1.6" fill="#f97316"/>
<circle cx="331.6" cy="2008.4" r="1.6" fill="#f97316"/>
<circle cx="330.8" cy="2111.0" r="1.6" fill="#f97316"/>
<circle cx="330.1" cy="2211.4" r="1.6" fill="#f97316"/>
<circle cx="329.4" cy="2321.8" r="1.6" fill="#f97316"/>
<circle cx="329.2" cy="2435.4" r="1.6" fill="#f97316"/>
<circle cx="329.3" cy="2532.8" r="1.6" fill="#f97316"/>
<circle cx="329.8" cy="2633.3" r="1.6" fill="#f97316"/>
<circle cx="330.7" cy="2738.6" r="1.6" fill="#f97316"/>
<circle cx="332.0" cy="2845.0" r="1.6" fill="#f97316"/>
<circle cx="333.8" cy="2951.3" r="1.6" fill="#f97316"/>
<circle cx="336.0" cy="3057.3" r="1.6" fill="#f97316"/>
<circle cx="338.5" cy="3163.2" r="1.6" fill="#f97316"/>
<circle cx="341.1" cy="3269.1" r="1.6" fill="#f97316"/>
<circle cx="344.1" cy="3374.9" r="1.6" fill="#f97316"/>
<circle cx="347.2" cy="3481.8" r="1.6" fill="#f97316"/>
<circle cx="350.4" cy="3590.2" r="1.6" fill="#f97316"/>
<circle cx="353.6" cy="3693.6" r="1.6" fill="#f97316"/>
<circle cx="356.3" cy="3780.2" r="1.6" fill="#f97316"/>
<circle cx="359.0" cy="3867.3" r="1.6" fill="#f97316"/>
<circle cx="361.9" cy="3966.5" r="1.6" fill="#f97316"/>
<circle cx="365.8" cy="4108.3" r="1.6" fill="#f97316"/>
<circle cx="368.5" cy="4206.1" r="1.6" fill="#f97316"/>
<circle cx="371.2" cy="4310.0" r="1.6" fill="#f97316"/>
<circle cx="374.0" cy="4418.1" r="1.6" fill="#f97316"/>
<circle cx="376.8" cy="4528.4" r="1.6" fill="#f97316"/>
<circle cx="379.7" cy="4639.0" r="1.6" fill="#f97316"/>
<circle cx="382.5" cy="4748.0" r="1.6" fill="#f97316"/>
<circle cx="385.3" cy="4859.0" r="1.6" fill="#f97316"/>
<circle cx="388.3" cy="4976.7" r="1.6" fill="#f97316"/>
<circle cx="391.0" cy="5081.6" r="1.6" fill="#f97316"/>
<circle cx="393.6" cy="5184.5" r="1.6" fill="#f97316"/>
<circle cx="396.2" cy="5285.8" r="1.6" fill="#f97316"/>
<circle cx="398.7" cy="5386.2" r="1.6" fill="#f97316"/>
<circle cx="401.3" cy="5487.6" r="1.6" fill="#f97316"/>
<circle cx="403.9" cy="5592.1" r="1.6" fill="#f97316"/>
<circle cx="406.6" cy="5697.3" r="1.6" fill="#f97316"/>
<circle cx="409.3" cy="5803.5" r="1.6" fill="#f97316"/>
<circle cx="412.0" cy="5909.8" r="1.6" fill="#f97316"/>
<circle cx="414.7" cy="6016.1" r="1.6" fill="#f97316"/>
<circle cx="417.3" cy="6121.0" r="1.6" fill="#f97316"/>
<circle cx="420.0" cy="6225.3" r="1.6" fill="#f97316"/>
<circle cx="422.6" cy="6329.5" r="1.6" fill="#f97316"/>
<circle cx="587.6" cy="422.9" r="1.6" fill="#f43f5e"/>
<circle cx="589.4" cy="527.6" r="1.6" fill="#f43f5e"/>
<circle cx="593.9" cy="631.4" r="1.6" fill="#f43f5e"/>
<circle cx="602.9" cy="734.7" r="1.6" fill="#f43f5e"/>
<circle cx="615.3" cy="838.4" r="1.6" fill="#f43f5e"/>
<circle cx="629.9" cy="942.4" r="1.6" fill="#f43f5e"/>
<circle cx="645.4" cy="1046.9" r="1.6" fill="#f43f5e"/>
<circle cx="660.5" cy="1152.1" r="1.6" fill="#f43f5e"/>
<circle cx="673.9" cy="1258.1" r="1.6" fill="#f43f5e"/>
<circle cx="684.1" cy="1365.0" r="1.6" fill="#f43f5e"/>
<circle cx="691.6" cy="1471.2" r="1.6" fill="#f43f5e"/>
<circle cx="697.5" cy="1577.3" r="1.6" fill="#f43f5e"/>
<circle cx="702.2" cy="1683.4" r="1.6" fill="#f43f5e"/>
<circle cx="706.0" cy="1789.4" r="1.6" fill="#f43f5e"/>
<circle cx="709.2" cy="1895.3" r="1.6" fill="#f43f5e"/>
<circle cx="712.0" cy="2001.0" r="1.6" fill="#f43f5e"/>
<circle cx="714.9" cy="2106.6" r="1.6" fill="#f43f5e"/>
<circle cx="717.9" cy="2212.3" r="1.6" fill="#f43f5e"/>
<circle cx="720.7" cy="2318.1" r="1.6" fill="#f43f5e"/>
<circle cx="723.2" cy="2424.0" r="1.6" fill="#f43f5e"/>
<circle cx="725.1" cy="2530.1" r="1.6" fill="#f43f5e"/>
<circle cx="725.9" cy="2636.3" r="1.6" fill="#f43f5e"/>
<circle cx="725.5" cy="2742.6" r="1.6" fill="#f43f5e"/>
<circle cx="723.5" cy="2849.1" r="1.6" fill="#f43f5e"/>
<circle cx="720.2" cy="2955.3" r="1.6" fill="#f43f5e"/>
<circle cx="715.7" cy="3061.4" r="1.6" fill="#f43f5e"/>
<circle cx="710.0" cy="3167.5" r="1.6" fill="#f43f5e"/>
<circle cx="703.2" cy="3273.5" r="1.6" fill="#f43f5e"/>
<circle cx="695.4" cy="3379.4" r="1.6" fill="#f43f5e"/>
<circle cx="686.5" cy="3485.2" r="1.6" fill="#f43f5e"/>
<circle cx="676.4" cy="3591.3" r="1.6" fill="#f43f5e"/>
<circle cx="663.3" cy="3697.6" r="1.6" fill="#f43f5e"/>
<circle cx="647.7" cy="3803.0" r="1.6" fill="#f43f5e"/>
<circle cx="631.2" cy="3907.7" r="1.6" fill="#f43f5e"/>
<circle cx="615.0" cy="4011.7" r="1.6" fill="#f43f5e"/>
<circle cx="600.3" cy="4115.4" r="1.6" fill="#f43f5e"/>
<circle cx="563.9" cy="1165.3" r="1.6" fill="#f43f5e"/>
<circle cx="577.0" cy="1269.0" r="1.6" fill="#f43f5e"/>
<circle cx="586.9" cy="1372.6" r="1.6" fill="#f43f5e"/>
<circle cx="594.3" cy="1477.3" r="1.6" fill="#f43f5e"/>
<circle cx="600.2" cy="1582.2" r="1.6" fill="#f43f5e"/>
<circle cx="604.9" cy="1687.3" r="1.6" fill="#f43f5e"/>
<circle cx="608.6" cy="1792.6" r="1.6" fill="#f43f5e"/>
<circle cx="611.7" cy="1898.0" r="1.6" fill="#f43f5e"/>
<circle cx="614.6" cy="2003.6" r="1.6" fill="#f43f5e"/>
<circle cx="617.4" cy="2109.4" r="1.6" fill="#f43f5e"/>
<circle cx="620.4" cy="2215.0" r="1.6" fill="#f43f5e"/>
<circle cx="623.3" cy="2320.6" r="1.6" fill="#f43f5e"/>
<circle cx="625.8" cy="2426.0" r="1.6" fill="#f43f5e"/>
<circle cx="627.6" cy="2531.3" r="1.6" fill="#f43f5e"/>
<circle cx="628.4" cy="2636.5" r="1.6" fill="#f43f5e"/>
<circle cx="628.0" cy="2741.6" r="1.6" fill="#f43f5e"/>
<circle cx="626.1" cy="2846.5" r="1.6" fill="#f43f5e"/>
<circle cx="622.8" cy="2951.7" r="1.6" fill="#f43f5e"/>
<circle cx="618.3" cy="3056.7" r="1.6" fill="#f43f5e"/>
<circle cx="612.7" cy="3161.8" r="1.6" fill="#f43f5e"/>
<circle cx="606.0" cy="3266.8" r="1.6" fill="#f43f5e"/>
<circle cx="598.2" cy="3371.7" r="1.6" fill="#f43f5e"/>
<circle cx="589.4" cy="3476.5" r="1.6" fill="#f43f5e"/>
<circle cx="579.5" cy="3580.9" r="1.6" fill="#f43f5e"/>
<text x="12" y="20" fill="#cbd5e1" font-size="14">left-merge-k1_0-ramp_42 — blue=host, green=branch, yellow-dash=outer lane centre (merge target), white=host edge line, orange/red=rail present</text>
</svg>