<svg xmlns="http://www.w3.org/2000/svg" width="1100" height="7005" viewBox="0 0 1100 7005" style="background:#0b0d12">
<polygon points="535.3,1171.9 534.4,1282.5 534.4,1388.4 534.7,1495.4 534.7,1602.3 534.0,1707.9 533.1,1814.6 532.3,1921.6 531.4,2027.9 530.6,2132.5 529.8,2249.1 529.0,2353.9 528.3,2455.7 527.6,2557.3 527.1,2672.5 527.0,2779.0 527.3,2873.2 528.0,2978.7 529.0,3083.7 530.6,3189.9 532.6,3295.5 534.9,3401.3 537.4,3507.2 540.2,3612.9 543.2,3718.7 546.5,3827.0 549.7,3934.4 552.7,4031.7 555.3,4115.4 558.1,4207.8 562.1,4346.4 564.9,4450.4 567.6,4551.6 570.3,4658.0 573.2,4767.7 576.0,4878.8 578.9,4989.3 581.6,5097.3 584.7,5216.2 587.5,5326.2 590.2,5430.5 592.8,5532.9 595.3,5634.1 597.9,5734.5 600.5,5838.3 603.1,5943.4 605.8,6049.4 608.5,6156.0 611.2,6262.7 613.9,6369.1 616.6,6473.6 619.2,6578.2 413.5,6583.4 410.9,6478.8 408.2,6374.3 405.6,6267.9 402.9,6161.3 400.2,6054.6 397.5,5948.6 394.8,5843.4 392.2,5739.7 389.7,5639.3 387.1,5538.1 384.5,5435.7 381.9,5331.5 379.0,5221.5 376.0,5102.6 373.2,4994.6 370.4,4884.1 367.5,4773.1 364.7,4663.4 361.9,4557.0 359.2,4455.9 356.4,4352.1 352.5,4213.8 349.7,4121.8 347.1,4038.2 344.0,3940.6 340.8,3833.1 337.6,3724.7 334.6,3618.6 331.8,3512.3 329.2,3406.1 326.9,3299.8 324.9,3193.4 323.3,3086.2 322.2,2980.4 321.6,2874.1 321.3,2779.3 321.4,2672.0 321.9,2556.0 322.6,2454.2 323.3,2352.3 324.1,2247.7 324.9,2131.0 325.7,2026.3 326.5,1920.0 327.4,1812.9 328.2,1706.3 328.9,1601.5 329.0,1495.8 328.7,1388.8 328.7,1281.9 329.6,1168.9" fill="#3b82f6" fill-opacity="0.25"/>
<polygon points="580.1,429.3 571.9,533.9 566.1,638.3 563.1,742.6 563.6,846.5 568.7,949.3 579.2,1052.2 593.5,1155.6 610.4,1259.3 628.2,1363.8 645.7,1469.1 661.2,1575.5 673.5,1682.4 684.1,1788.4 693.9,1894.4 702.8,2000.6 710.7,2107.0 717.4,2213.5 722.8,2320.1 726.9,2426.7 730.2,2533.1 732.5,2639.7 733.6,2746.5 733.2,2853.4 731.0,2960.5 726.6,3067.7 719.5,3175.3 708.6,3282.7 694.8,3389.2 679.3,3494.8 663.3,3599.6 647.8,3703.9 634.0,3807.8 622.4,3912.6 610.9,4017.9 599.8,4123.1 589.4,4228.1 580.2,4333.0 572.5,4437.9 566.7,4542.6 563.1,4647.1 562.3,4751.8 563.4,4857.0 565.9,4962.4 569.4,5068.0 573.5,5173.8 577.7,5279.8 581.6,5386.3 584.3,5492.6 586.9,5598.5 589.7,5704.5 592.4,5810.5 595.0,5916.5 597.7,6022.5 482.2,6025.5 479.5,5919.4 476.8,5813.4 474.1,5707.4 471.4,5601.5 468.7,5495.4 466.0,5389.9 462.2,5284.3 458.0,5178.4 453.9,5072.2 450.4,4965.8 447.8,4859.1 446.7,4752.1 447.6,4644.8 451.2,4537.4 457.1,4430.3 465.0,4323.7 474.4,4217.3 484.8,4111.3 496.0,4005.5 507.5,3900.0 519.3,3794.0 533.4,3687.7 549.0,3582.2 565.0,3477.4 580.4,3373.1 593.8,3269.3 604.3,3165.7 611.1,3061.7 615.4,2957.0 617.6,2852.0 618.0,2746.9 616.9,2641.6 614.6,2536.2 611.4,2430.6 607.4,2325.2 602.0,2220.1 595.4,2114.9 587.6,2009.7 578.7,1904.6 569.0,1799.5 558.5,1694.3 546.6,1590.6 531.5,1487.2 514.3,1383.2 496.4,1278.6 479.3,1173.0 464.4,1066.3 453.5,958.2 448.1,849.3 447.5,741.1 450.6,633.4 456.5,526.0 465.0,419.1" fill="#22c55e" fill-opacity="0.25"/>
<path d="M432.5,1170.4 L431.5,1282.2 L431.6,1388.6 L431.8,1495.6 L431.8,1601.9 L431.1,1707.1 L430.3,1813.8 L429.4,1920.8 L428.6,2027.1 L427.8,2131.8 L426.9,2248.4 L426.2,2353.1 L425.4,2455.0 L424.7,2556.6 L424.2,2672.2 L424.2,2779.2 L424.4,2873.6 L425.1,2979.5 L426.2,3084.9 L427.7,3191.7 L429.7,3297.7 L432.1,3403.7 L434.6,3509.7 L437.4,3615.7 L440.4,3721.7 L443.6,3830.1 L446.8,3937.5 L449.9,4034.9 L452.5,4118.6 L455.3,4210.8 L459.2,4349.2 L462.1,4453.2 L464.7,4554.3 L467.5,4660.7 L470.4,4770.4 L473.2,4881.4 L476.1,4991.9 L478.8,5099.9 L481.9,5218.8 L484.7,5328.8 L487.4,5433.1 L490.0,5535.5 L492.5,5636.7 L495.0,5737.1 L497.7,5840.8 L500.3,5946.0 L503.0,6052.0 L505.7,6158.7 L508.4,6265.3 L511.1,6371.7 L513.7,6476.2 L516.4,6580.8" stroke="#3b82f6" stroke-width="2" fill="none"/>
<path d="M522.5,424.2 L514.2,529.9 L508.3,635.8 L505.3,741.8 L505.9,847.9 L511.1,953.8 L521.8,1059.3 L536.4,1164.3 L553.4,1269.0 L571.2,1373.5 L588.6,1478.1 L603.9,1583.0 L616.0,1688.4 L626.5,1793.9 L636.3,1899.5 L645.2,2005.2 L653.0,2110.9 L659.7,2216.8 L665.1,2322.7 L669.1,2428.6 L672.4,2534.6 L674.7,2640.6 L675.8,2746.7 L675.4,2852.7 L673.2,2958.7 L668.9,3064.7 L661.9,3170.5 L651.2,3276.0 L637.6,3381.2 L622.2,3486.1 L606.1,3590.9 L590.6,3695.8 L576.7,3800.9 L564.9,3906.3 L553.5,4011.7 L542.3,4117.2 L531.9,4222.7 L522.6,4328.3 L514.8,4434.1 L508.9,4540.0 L505.3,4645.9 L504.5,4751.9 L505.6,4858.0 L508.2,4964.1 L511.7,5070.1 L515.8,5176.1 L520.0,5282.0 L523.8,5388.1 L526.5,5494.0 L529.2,5600.0 L531.9,5705.9 L534.6,5812.0 L537.3,5918.0 L539.9,6024.0" stroke="#22c55e" stroke-width="2" fill="none"/>
<path d="M470.1,1171.0 L469.2,1282.3 L469.2,1388.5 L469.5,1495.5 L469.4,1602.1 L468.7,1707.4 L467.9,1814.0 L467.0,1921.1 L466.2,2027.4 L465.4,2132.0 L464.6,2248.7 L463.8,2353.4 L463.1,2455.3 L462.4,2556.9 L461.9,2672.3 L461.8,2779.1 L462.1,2873.5 L462.7,2979.2 L463.8,3084.5 L465.4,3191.0 L467.4,3296.9 L469.7,3402.8 L472.3,3508.8 L475.0,3614.7 L478.1,3720.6 L481.3,3829.0 L484.5,3936.3 L487.5,4033.7 L490.1,4117.4 L492.9,4209.7 L496.9,4348.2 L499.7,4452.2 L502.4,4553.3 L505.2,4659.7 L508.0,4769.4 L510.9,4880.5 L513.7,4991.0 L516.4,5099.0 L519.5,5217.9 L522.3,5327.9 L525.0,5432.1 L527.6,5534.6 L530.1,5635.7 L532.7,5736.1 L535.3,5839.9 L537.9,5945.0 L540.6,6051.1 L543.3,6157.7 L546.0,6264.3 L548.7,6370.7 L551.4,6475.3 L554.0,6579.9" stroke="#eab308" stroke-width="1.6" stroke-dasharray="8 5" fill="none"/>
<path d="M519.4,1171.7 L518.5,1282.5 L518.5,1388.4 L518.8,1495.5 L518.8,1602.2 L518.0,1707.7 L517.2,1814.4 L516.4,1921.5 L515.5,2027.8 L514.7,2132.4 L513.9,2249.0 L513.1,2353.7 L512.4,2455.6 L511.7,2557.2 L511.2,2672.4 L511.1,2779.0 L511.4,2873.3 L512.1,2978.8 L513.1,3083.9 L514.7,3190.2 L516.7,3295.9 L519.0,3401.7 L521.5,3507.6 L524.3,3613.3 L527.3,3719.2 L530.6,3827.5 L533.8,3934.8 L536.8,4032.2 L539.4,4115.9 L542.2,4208.2 L546.2,4346.8 L549.0,4450.8 L551.7,4552.0 L554.4,4658.5 L557.3,4768.2 L560.1,4879.2 L563.0,4989.7 L565.7,5097.7 L568.8,5216.6 L571.6,5326.6 L574.3,5430.9 L576.9,5533.3 L579.4,5634.5 L582.0,5734.9 L584.6,5838.7 L587.2,5943.8 L589.9,6049.8 L592.6,6156.5 L595.3,6263.1 L598.0,6369.5 L600.7,6474.0 L603.3,6578.6" stroke="#e2e8f0" stroke-width="1.2" fill="none"/>
<circle cx="525.8" cy="1495.4" r="1.6" fill="#f97316"/>
<circle cx="525.8" cy="1602.3" r="1.6" fill="#f97316"/>
<circle cx="525.0" cy="1707.8" r="1.6" fill="#f97316"/>
<circle cx="524.2" cy="1814.5" r="1.6" fill="#f97316"/>
<circle cx="523.4" cy="1921.5" r="1.6" fill="#f97316"/>
<circle cx="522.5" cy="2027.9" r="1.6" fill="#f97316"/>
<circle cx="521.7" cy="2132.5" r="1.6" fill="#f97316"/>
<circle cx="520.9" cy="2249.1" r="1.6" fill="#f97316"/>
<circle cx="520.1" cy="2353.8" r="1.6" fill="#f97316"/>
<circle cx="519.4" cy="2455.7" r="1.6" fill="#f97316"/>
<circle cx="518.7" cy="2557.2" r="1.6" fill="#f97316"/>
<circle cx="518.2" cy="2672.5" r="1.6" fill="#f97316"/>
<circle cx="518.1" cy="2779.0" r="1.6" fill="#f97316"/>
<circle cx="518.4" cy="2873.2" r="1.6" fill="#f97316"/>
<circle cx="519.1" cy="2978.8" r="1.6" fill="#f97316"/>
<circle cx="520.1" cy="3083.8" r="1.6" fill="#f97316"/>
<circle cx="521.7" cy="3190.1" r="1.6" fill="#f97316"/>
<circle cx="523.7" cy="3295.7" r="1.6" fill="#f97316"/>
<circle cx="526.0" cy="3401.5" r="1.6" fill="#f97316"/>
<circle cx="528.5" cy="3507.4" r="1.6" fill="#f97316"/>
<circle cx="531.3" cy="3613.1" r="1.6" fill="#f97316"/>
<circle cx="561.4" cy="4658.3" r="1.6" fill="#f97316"/>
<circle cx="564.3" cy="4768.0" r="1.6" fill="#f97316"/>
<circle cx="567.1" cy="4879.0" r="1.6" fill="#f97316"/>
<circle cx="570.0" cy="4989.5" r="1.6" fill="#f97316"/>
<circle cx="572.7" cy="5097.5" r="1.6" fill="#f97316"/>
<circle cx="575.8" cy="5216.4" r="1.6" fill="#f97316"/>
<circle cx="578.6" cy="5326.4" r="1.6" fill="#f97316"/>
<circle cx="581.3" cy="5430.7" r="1.6" fill="#f97316"/>
<circle cx="583.9" cy="5533.2" r="1.6" fill="#f97316"/>
<circle cx="586.4" cy="5634.3" r="1.6" fill="#f97316"/>
<circle cx="589.0" cy="5734.7" r="1.6" fill="#f97316"/>
<circle cx="591.6" cy="5838.5" r="1.6" fill="#f97316"/>
<circle cx="594.2" cy="5943.6" r="1.6" fill="#f97316"/>
<circle cx="596.9" cy="6049.6" r="1.6" fill="#f97316"/>
<circle cx="599.6" cy="6156.3" r="1.6" fill="#f97316"/>
<circle cx="602.3" cy="6262.9" r="1.6" fill="#f97316"/>
<circle cx="605.0" cy="6369.3" r="1.6" fill="#f97316"/>
<circle cx="607.7" cy="6473.9" r="1.6" fill="#f97316"/>
<circle cx="610.3" cy="6578.4" r="1.6" fill="#f97316"/>
<circle cx="338.5" cy="1169.0" r="1.6" fill="#f97316"/>
<circle cx="337.6" cy="1281.9" r="1.6" fill="#f97316"/>
<circle cx="337.6" cy="1388.8" r="1.6" fill="#f97316"/>
<circle cx="337.9" cy="1495.8" r="1.6" fill="#f97316"/>
<circle cx="337.8" cy="1601.6" r="1.6" fill="#f97316"/>
<circle cx="337.1" cy="1706.4" r="1.6" fill="#f97316"/>
<circle cx="336.3" cy="1813.0" r="1.6" fill="#f97316"/>
<circle cx="335.5" cy="1920.0" r="1.6" fill="#f97316"/>
<circle cx="334.6" cy="2026.4" r="1.6" fill="#f97316"/>
<circle cx="333.8" cy="2131.1" r="1.6" fill="#f97316"/>
<circle cx="333.0" cy="2247.8" r="1.6" fill="#f97316"/>
<circle cx="332.2" cy="2352.4" r="1.6" fill="#f97316"/>
<circle cx="331.5" cy="2454.3" r="1.6" fill="#f97316"/>
<circle cx="330.8" cy="2556.1" r="1.6" fill="#f97316"/>
<circle cx="330.3" cy="2672.0" r="1.6" fill="#f97316"/>
<circle cx="330.2" cy="2779.3" r="1.6" fill="#f97316"/>
<circle cx="330.5" cy="2874.1" r="1.6" fill="#f97316"/>
<circle cx="331.2" cy="2980.3" r="1.6" fill="#f97316"/>
<circle cx="332.2" cy="3086.1" r="1.6" fill="#f97316"/>
<circle cx="333.8" cy="3193.2" r="1.6" fill="#f97316"/>
<circle cx="335.8" cy="3299.6" r="1.6" fill="#f97316"/>
<circle cx="338.1" cy="3405.9" r="1.6" fill="#f97316"/>
<circle cx="340.7" cy="3512.0" r="1.6" fill="#f97316"/>
<circle cx="343.5" cy="3618.3" r="1.6" fill="#f97316"/>
<circle cx="346.5" cy="3724.5" r="1.6" fill="#f97316"/>
<circle cx="349.7" cy="3832.9" r="1.6" fill="#f97316"/>
<circle cx="352.9" cy="3940.4" r="1.6" fill="#f97316"/>
<circle cx="356.0" cy="4037.9" r="1.6" fill="#f97316"/>
<circle cx="358.6" cy="4121.5" r="1.6" fill="#f97316"/>
<circle cx="361.4" cy="4213.6" r="1.6" fill="#f97316"/>
<circle cx="365.3" cy="4351.8" r="1.6" fill="#f97316"/>
<circle cx="368.1" cy="4455.7" r="1.6" fill="#f97316"/>
<circle cx="370.8" cy="4556.8" r="1.6" fill="#f97316"/>
<circle cx="373.6" cy="4663.2" r="1.6" fill="#f97316"/>
<circle cx="376.4" cy="4772.8" r="1.6" fill="#f97316"/>
<circle cx="379.3" cy="4883.9" r="1.6" fill="#f97316"/>
<circle cx="382.1" cy="4994.3" r="1.6" fill="#f97316"/>
<circle cx="384.9" cy="5102.3" r="1.6" fill="#f97316"/>
<circle cx="387.9" cy="5221.2" r="1.6" fill="#f97316"/>
<circle cx="390.8" cy="5331.2" r="1.6" fill="#f97316"/>
<circle cx="393.4" cy="5435.5" r="1.6" fill="#f97316"/>
<circle cx="396.0" cy="5537.9" r="1.6" fill="#f97316"/>
<circle cx="398.6" cy="5639.1" r="1.6" fill="#f97316"/>
<circle cx="401.1" cy="5739.4" r="1.6" fill="#f97316"/>
<circle cx="403.7" cy="5843.2" r="1.6" fill="#f97316"/>
<circle cx="406.4" cy="5948.3" r="1.6" fill="#f97316"/>
<circle cx="409.1" cy="6054.4" r="1.6" fill="#f97316"/>
<circle cx="411.8" cy="6161.0" r="1.6" fill="#f97316"/>
<circle cx="414.5" cy="6267.7" r="1.6" fill="#f97316"/>
<circle cx="417.2" cy="6374.0" r="1.6" fill="#f97316"/>
<circle cx="419.8" cy="6478.6" r="1.6" fill="#f97316"/>
<circle cx="422.5" cy="6583.2" r="1.6" fill="#f97316"/>
<circle cx="570.3" cy="1053.3" r="1.6" fill="#f43f5e"/>
<circle cx="584.7" cy="1156.9" r="1.6" fill="#f43f5e"/>
<circle cx="601.6" cy="1260.8" r="1.6" fill="#f43f5e"/>
<circle cx="619.4" cy="1365.3" r="1.6" fill="#f43f5e"/>
<circle cx="636.9" cy="1470.5" r="1.6" fill="#f43f5e"/>
<circle cx="652.4" cy="1576.7" r="1.6" fill="#f43f5e"/>
<circle cx="664.6" cy="1683.4" r="1.6" fill="#f43f5e"/>
<circle cx="675.2" cy="1789.2" r="1.6" fill="#f43f5e"/>
<circle cx="685.0" cy="1895.2" r="1.6" fill="#f43f5e"/>
<circle cx="693.9" cy="2001.3" r="1.6" fill="#f43f5e"/>
<circle cx="701.8" cy="2107.6" r="1.6" fill="#f43f5e"/>
<circle cx="708.5" cy="2214.0" r="1.6" fill="#f43f5e"/>
<circle cx="713.9" cy="2320.5" r="1.6" fill="#f43f5e"/>
<circle cx="718.0" cy="2427.0" r="1.6" fill="#f43f5e"/>
<circle cx="721.2" cy="2533.3" r="1.6" fill="#f43f5e"/>
<circle cx="723.6" cy="2639.8" r="1.6" fill="#f43f5e"/>
<circle cx="724.7" cy="2746.5" r="1.6" fill="#f43f5e"/>
<circle cx="724.3" cy="2853.3" r="1.6" fill="#f43f5e"/>
<circle cx="722.1" cy="2960.2" r="1.6" fill="#f43f5e"/>
<circle cx="717.7" cy="3067.2" r="1.6" fill="#f43f5e"/>
<circle cx="710.6" cy="3174.6" r="1.6" fill="#f43f5e"/>
<circle cx="699.8" cy="3281.7" r="1.6" fill="#f43f5e"/>
<circle cx="686.0" cy="3387.9" r="1.6" fill="#f43f5e"/>
<circle cx="670.5" cy="3493.4" r="1.6" fill="#f43f5e"/>
<circle cx="654.4" cy="3598.3" r="1.6" fill="#f43f5e"/>
<circle cx="639.0" cy="3702.7" r="1.6" fill="#f43f5e"/>
<circle cx="625.2" cy="3806.8" r="1.6" fill="#f43f5e"/>
<circle cx="613.5" cy="3911.6" r="1.6" fill="#f43f5e"/>
<circle cx="602.1" cy="4017.0" r="1.6" fill="#f43f5e"/>
<circle cx="591.0" cy="4122.2" r="1.6" fill="#f43f5e"/>
<circle cx="567.3" cy="1693.4" r="1.6" fill="#f43f5e"/>
<circle cx="577.9" cy="1798.6" r="1.6" fill="#f43f5e"/>
<circle cx="587.6" cy="1903.8" r="1.6" fill="#f43f5e"/>
<circle cx="596.5" cy="2009.0" r="1.6" fill="#f43f5e"/>
<circle cx="604.3" cy="2114.3" r="1.6" fill="#f43f5e"/>
<circle cx="610.9" cy="2219.5" r="1.6" fill="#f43f5e"/>
<circle cx="616.3" cy="2324.8" r="1.6" fill="#f43f5e"/>
<circle cx="620.3" cy="2430.3" r="1.6" fill="#f43f5e"/>
<circle cx="623.5" cy="2535.9" r="1.6" fill="#f43f5e"/>
<circle cx="625.8" cy="2641.5" r="1.6" fill="#f43f5e"/>
<circle cx="626.9" cy="2746.9" r="1.6" fill="#f43f5e"/>
<circle cx="626.5" cy="2852.1" r="1.6" fill="#f43f5e"/>
<circle cx="624.4" cy="2957.2" r="1.6" fill="#f43f5e"/>
<circle cx="620.0" cy="3062.1" r="1.6" fill="#f43f5e"/>
<circle cx="613.2" cy="3166.4" r="1.6" fill="#f43f5e"/>
<circle cx="602.7" cy="3270.3" r="1.6" fill="#f43f5e"/>
<circle cx="589.2" cy="3374.4" r="1.6" fill="#f43f5e"/>
<circle cx="573.8" cy="3478.7" r="1.6" fill="#f43f5e"/>
<text x="12" y="20" fill="#cbd5e1" font-size="14">left-merge-k1_0-ramp_42 — blue=host, green=branch, yellow-dash=outer lane centre (merge target), white=host edge line, orange/red=rail present</text>
</svg>