<svg xmlns="http://www.w3.org/2000/svg" width="1100" height="2780" viewBox="0 0 1100 2780" style="background:#0b0d12">
<polygon points="972.4,309.9 964.5,335.6 956.6,361.1 948.8,386.6 941.0,412.1 933.1,437.6 925.3,463.1 917.3,489.2 909.2,515.5 901.0,542.1 892.9,568.4 885.0,594.2 877.3,619.1 869.7,643.8 860.4,674.1 852.9,698.5 845.7,721.6 838.0,746.6 829.5,774.4 822.2,797.9 815.4,820.0 808.4,842.8 800.1,869.7 791.9,896.8 784.5,921.3 776.7,947.2 768.6,973.9 760.4,1000.8 752.2,1027.4 743.5,1054.9 735.4,1079.6 726.9,1104.7 718.1,1130.3 709.4,1155.3 695.4,1195.0 685.6,1222.8 683.0,1230.0 677.3,1246.6 669.1,1270.4 658.8,1300.0 647.8,1331.9 638.6,1358.5 630.0,1383.2 621.5,1407.9 612.9,1433.0 604.1,1458.7 595.1,1485.0 586.0,1511.0 576.9,1536.4 568.3,1559.8 558.8,1585.3 549.3,1610.4 539.8,1635.2 530.4,1660.1 520.9,1685.1 511.5,1710.2 502.1,1735.2 492.6,1760.3 483.2,1785.4 473.7,1810.5 464.4,1835.5 455.2,1860.6 445.9,1885.7 436.4,1911.0 426.5,1936.3 416.2,1961.6 405.7,1986.4 395.0,2011.0 384.1,2035.6 373.6,2059.4 363.6,2082.5 352.8,2107.4 341.9,2132.8 330.8,2158.4 319.9,2183.6 309.1,2208.7 298.4,2233.5 288.0,2257.3 277.3,2281.2 266.5,2305.3 256.0,2329.4 245.7,2353.8 236.3,2377.3 227.5,2401.1 218.5,2426.4 209.6,2452.5 200.9,2478.6 191.9,2506.0 179.4,2543.5 172.3,2564.4 166.9,2580.1 158.9,2603.2 149.4,2630.8 140.7,2655.7 131.8,2681.3 82.7,2664.2 91.6,2638.6 100.3,2613.7 109.8,2586.2 117.7,2563.3 123.1,2547.5 130.1,2526.8 142.5,2489.7 151.5,2462.2 160.3,2435.9 169.4,2409.4 178.6,2383.3 187.8,2358.7 197.6,2334.1 208.2,2308.8 219.0,2284.2 229.8,2260.0 240.4,2236.2 250.7,2212.8 261.4,2188.0 272.2,2163.0 283.1,2137.7 294.1,2112.2 305.1,2086.8 315.9,2061.9 326.0,2038.6 336.5,2014.6 347.3,1990.1 357.9,1965.8 368.2,1941.5 378.2,1917.0 387.8,1892.4 397.2,1867.6 406.4,1842.6 415.6,1817.5 425.0,1792.3 434.5,1767.1 443.9,1742.0 453.4,1716.9 462.8,1691.8 472.3,1666.7 481.7,1641.6 491.2,1616.7 500.7,1591.8 510.1,1566.9 519.6,1541.8 528.0,1518.7 536.9,1493.7 545.9,1468.0 554.9,1441.9 563.7,1416.1 572.3,1391.0 580.9,1366.2 589.4,1341.5 598.6,1314.9 609.7,1282.9 619.9,1253.4 628.1,1229.6 633.9,1212.9 636.4,1205.7 646.3,1177.6 660.3,1138.1 669.0,1113.2 677.7,1087.8 686.1,1063.2 694.0,1038.9 702.6,1011.9 710.7,985.5 718.9,958.8 726.9,932.2 734.7,906.3 742.1,881.8 750.4,854.5 758.7,827.5 765.7,804.6 772.5,782.6 779.8,759.0 788.3,731.3 796.0,706.3 803.2,683.2 810.7,658.8 820.0,628.5 827.6,603.8 835.3,578.9 843.2,553.1 851.3,526.8 859.5,500.3 867.6,473.9 875.6,447.8 883.4,422.3 891.3,396.8 899.1,371.3 906.9,345.8 914.8,320.3 922.7,294.6" fill="#3b82f6" fill-opacity="0.25"/>
<polygon points="1006.7,112.2 999.0,137.8 991.3,163.4 983.5,189.0 975.8,214.6 968.0,240.2 960.2,265.8 952.5,291.4 944.7,317.0 936.9,342.7 929.2,368.3 921.4,393.9 913.6,419.6 905.9,445.2 898.1,470.9 890.3,496.5 882.5,522.2 874.7,547.8 867.0,573.4 859.3,599.1 851.6,624.7 843.9,650.4 836.3,676.1 828.6,701.7 820.8,727.4 812.8,753.0 804.6,778.6 796.1,804.2 787.3,829.5 778.6,854.8 769.9,880.0 761.2,905.3 752.5,930.6 743.9,955.6 735.2,981.1 726.5,1006.5 717.8,1031.8 709.2,1057.2 700.5,1082.5 691.8,1107.9 683.2,1133.2 674.5,1158.5 665.9,1183.8 657.3,1209.1 648.6,1234.4 639.9,1259.7 631.3,1285.0 622.6,1310.3 614.2,1334.8 605.4,1360.9 596.9,1386.2 588.4,1411.6 579.8,1437.0 571.2,1462.4 562.4,1487.8 553.6,1513.2 544.5,1538.4 535.2,1563.6 525.7,1588.7 516.1,1613.7 506.5,1638.7 496.9,1663.7 487.4,1688.6 478.1,1713.7 468.8,1738.8 459.5,1763.9 450.2,1789.1 440.9,1814.3 431.5,1839.4 422.0,1864.6 412.4,1889.6 402.6,1914.7 392.9,1939.6 383.0,1964.6 373.0,1989.5 363.0,2014.4 352.8,2039.2 342.5,2064.0 332.1,2088.7 321.6,2113.4 311.1,2138.1 300.5,2162.7 289.9,2187.2 279.3,2211.8 268.6,2236.5 257.8,2261.0 246.9,2285.5 236.1,2309.9 225.5,2334.3 215.3,2358.8 205.5,2383.4 196.3,2408.2 187.5,2433.2 179.1,2458.4 170.8,2483.8 162.5,2509.2 154.1,2534.7 126.4,2525.5 134.7,2500.2 143.0,2474.7 151.3,2449.2 159.9,2423.7 168.8,2398.3 178.3,2372.9 188.3,2347.7 198.7,2322.8 209.4,2298.2 220.2,2273.6 231.1,2249.2 241.9,2224.8 252.4,2200.3 263.0,2175.7 273.6,2151.1 284.2,2126.5 294.8,2101.9 305.2,2077.4 315.6,2052.7 325.8,2028.1 335.9,2003.4 345.9,1978.6 355.8,1953.8 365.7,1928.9 375.4,1904.0 385.1,1879.1 394.7,1854.1 404.2,1829.2 413.5,1804.1 422.8,1779.0 432.1,1753.8 441.3,1728.7 450.7,1703.5 460.1,1678.3 469.6,1653.2 479.2,1628.2 488.8,1603.3 498.4,1578.3 507.8,1553.4 517.0,1528.4 526.0,1503.4 534.8,1478.2 543.5,1453.0 552.1,1427.7 560.7,1402.3 569.2,1376.9 577.7,1351.5 586.6,1325.4 595.0,1300.9 603.6,1275.6 612.3,1250.3 620.9,1224.9 629.6,1199.6 638.2,1174.3 646.9,1149.0 655.5,1123.8 664.2,1098.5 672.9,1073.1 681.5,1047.7 690.2,1022.4 698.8,997.0 707.5,971.6 716.3,946.1 724.8,921.1 733.5,895.8 742.2,870.6 750.9,845.2 759.7,819.9 768.4,794.7 776.9,769.5 785.0,744.2 792.8,718.8 800.6,693.2 808.3,667.7 815.9,642.0 823.6,616.4 831.3,590.7 839.0,565.0 846.8,539.4 854.5,513.7 862.3,488.1 870.1,462.4 877.9,436.7 885.7,411.1 893.4,385.4 901.2,359.8 909.0,334.2 916.7,308.6 924.5,283.0 932.3,257.4 940.0,231.8 947.8,206.2 955.5,180.6 963.3,155.0 971.0,129.4 978.8,103.8" fill="#22c55e" fill-opacity="0.25"/>
<path d="M947.5,302.3 L939.6,327.9 L931.8,353.5 L923.9,379.0 L916.1,404.5 L908.3,430.0 L900.4,455.5 L892.4,481.5 L884.3,507.9 L876.2,534.4 L868.1,560.7 L860.1,586.5 L852.5,611.4 L844.9,636.1 L835.5,666.5 L828.0,690.9 L820.9,714.0 L813.2,738.9 L804.6,766.7 L797.4,790.2 L790.6,812.3 L783.5,835.2 L775.3,862.1 L767.0,889.3 L759.6,913.8 L751.8,939.7 L743.8,966.4 L735.6,993.2 L727.4,1019.7 L718.8,1046.9 L710.7,1071.4 L702.3,1096.2 L693.5,1121.7 L684.8,1146.7 L670.8,1186.3 L661.0,1214.2 L658.5,1221.4 L652.7,1238.1 L644.5,1261.9 L634.2,1291.4 L623.2,1323.4 L614.0,1350.0 L605.4,1374.7 L596.9,1399.4 L588.3,1424.5 L579.5,1450.3 L570.5,1476.5 L561.5,1502.3 L552.5,1527.5 L543.9,1550.8 L534.5,1576.1 L525.0,1601.1 L515.5,1625.9 L506.1,1650.8 L496.6,1675.9 L487.2,1701.0 L477.7,1726.1 L468.3,1751.2 L458.8,1776.3 L449.4,1801.4 L440.0,1826.5 L430.8,1851.6 L421.6,1876.7 L412.1,1901.7 L402.4,1926.7 L392.2,1951.5 L381.8,1976.1 L371.2,2000.5 L360.3,2025.1 L349.8,2049.0 L339.7,2072.2 L329.0,2097.1 L318.0,2122.5 L307.0,2148.1 L296.1,2173.3 L285.2,2198.3 L274.5,2223.1 L264.2,2246.7 L253.6,2270.6 L242.8,2294.7 L232.1,2319.1 L221.6,2343.9 L212.1,2368.0 L203.0,2392.2 L193.9,2417.9 L184.9,2444.2 L176.2,2470.4 L167.2,2497.9 L154.8,2535.1 L147.7,2556.0 L142.3,2571.7 L134.4,2594.7 L124.8,2622.3 L116.2,2647.1 L107.2,2672.8" stroke="#3b82f6" stroke-width="2" fill="none"/>
<path d="M992.8,108.0 L985.0,133.6 L977.3,159.2 L969.5,184.8 L961.8,210.4 L954.0,236.0 L946.3,261.6 L938.5,287.2 L930.7,312.8 L923.0,338.4 L915.2,364.0 L907.4,389.7 L899.6,415.3 L891.9,441.0 L884.1,466.6 L876.3,492.3 L868.5,518.0 L860.8,543.6 L853.0,569.2 L845.3,594.9 L837.6,620.6 L829.9,646.2 L822.3,671.9 L814.6,697.5 L806.8,723.1 L798.9,748.6 L790.7,774.1 L782.3,799.4 L773.5,824.7 L764.7,850.0 L756.1,875.3 L747.4,900.6 L738.7,925.9 L730.1,950.9 L721.3,976.4 L712.7,1001.8 L704.0,1027.1 L695.3,1052.5 L686.7,1077.8 L678.0,1103.2 L669.4,1128.5 L660.7,1153.8 L652.1,1179.1 L643.4,1204.3 L634.8,1229.7 L626.1,1255.0 L617.4,1280.3 L608.8,1305.6 L600.4,1330.1 L591.6,1356.2 L583.0,1381.6 L574.5,1407.0 L566.0,1432.3 L557.4,1457.7 L548.6,1483.0 L539.8,1508.3 L530.7,1533.4 L521.5,1558.5 L512.0,1583.5 L502.5,1608.5 L492.9,1633.5 L483.3,1658.4 L473.8,1683.5 L464.4,1708.6 L455.1,1733.7 L445.8,1758.9 L436.5,1784.0 L427.2,1809.2 L417.9,1834.3 L408.4,1859.4 L398.7,1884.4 L389.0,1909.3 L379.3,1934.3 L369.4,1959.2 L359.5,1984.0 L349.4,2008.9 L339.3,2033.6 L329.1,2058.4 L318.7,2083.1 L308.2,2107.7 L297.6,2132.3 L287.0,2156.9 L276.4,2181.4 L265.9,2206.0 L255.3,2230.6 L244.5,2255.1 L233.6,2279.6 L222.8,2304.0 L212.1,2328.6 L201.8,2353.3 L191.9,2378.2 L182.6,2403.2 L173.7,2428.5 L165.2,2453.8 L156.9,2479.3 L148.6,2504.7 L140.2,2530.1" stroke="#22c55e" stroke-width="2" fill="none"/>
<path d="M938.4,299.5 L930.5,325.1 L922.7,350.7 L914.9,376.2 L907.0,401.7 L899.2,427.2 L891.3,452.7 L883.3,478.7 L875.2,505.1 L867.1,531.6 L859.0,557.9 L851.0,583.7 L843.4,608.6 L835.8,633.3 L826.4,663.6 L818.9,688.1 L811.8,711.2 L804.1,736.1 L795.5,763.9 L788.3,787.4 L781.5,809.5 L774.4,832.4 L766.2,859.3 L757.9,886.5 L750.5,911.1 L742.7,937.0 L734.7,963.6 L726.5,990.4 L718.3,1016.8 L709.7,1044.0 L701.7,1068.4 L693.3,1093.2 L684.6,1118.6 L675.9,1143.5 L661.9,1183.1 L652.0,1211.1 L649.5,1218.3 L643.7,1235.0 L635.5,1258.8 L625.3,1288.3 L614.2,1320.3 L605.0,1346.9 L596.5,1371.6 L587.9,1396.3 L579.3,1421.5 L570.5,1447.2 L561.5,1473.4 L552.5,1499.2 L543.5,1524.3 L535.0,1547.5 L525.6,1572.8 L516.1,1597.7 L506.6,1622.6 L497.2,1647.5 L487.7,1672.6 L478.3,1697.6 L468.8,1722.7 L459.4,1747.8 L449.9,1772.9 L440.5,1798.0 L431.1,1823.2 L421.9,1848.3 L412.6,1873.3 L403.2,1898.3 L393.5,1923.1 L383.4,1947.9 L373.1,1972.3 L362.4,1996.7 L351.6,2021.3 L341.1,2045.2 L331.0,2068.4 L320.2,2093.4 L309.3,2118.7 L298.2,2144.3 L287.3,2169.5 L276.5,2194.6 L265.8,2219.3 L255.5,2242.9 L244.9,2266.7 L234.1,2290.9 L223.4,2315.3 L212.8,2340.3 L203.2,2364.6 L194.1,2389.0 L185.0,2414.8 L175.9,2441.2 L167.2,2467.4 L158.1,2494.9 L145.8,2532.1 L138.7,2552.9 L133.3,2568.6 L125.4,2591.6 L115.8,2619.1 L107.2,2644.0 L98.3,2669.6" stroke="#eab308" stroke-width="1.6" stroke-dasharray="8 5" fill="none"/>
<path d="M926.5,295.8 L918.6,321.5 L910.8,347.0 L902.9,372.5 L895.1,398.0 L887.3,423.5 L879.4,449.0 L871.4,475.1 L863.3,501.4 L855.2,527.9 L847.1,554.3 L839.1,580.1 L831.5,605.0 L823.9,629.6 L814.5,660.0 L807.0,684.4 L799.9,707.5 L792.2,732.5 L783.6,760.2 L776.4,783.8 L769.6,805.8 L762.5,828.7 L754.2,855.6 L745.9,882.9 L738.5,907.5 L730.8,933.4 L722.7,960.0 L714.6,986.7 L706.4,1013.1 L697.8,1040.2 L689.9,1064.4 L681.5,1089.1 L672.8,1114.5 L664.1,1139.4 L650.1,1179.0 L640.2,1207.0 L637.7,1214.2 L631.9,1230.9 L623.7,1254.7 L613.5,1284.3 L602.4,1316.2 L593.2,1342.8 L584.7,1367.5 L576.1,1392.3 L567.5,1417.4 L558.7,1443.2 L549.7,1469.3 L540.7,1495.0 L531.8,1520.1 L523.3,1543.2 L513.9,1568.4 L504.5,1593.3 L495.0,1618.1 L485.5,1643.1 L476.0,1668.2 L466.6,1693.2 L457.1,1718.3 L447.7,1743.4 L438.2,1768.5 L428.8,1793.7 L419.4,1818.9 L410.2,1844.0 L401.0,1869.0 L391.6,1893.8 L381.9,1918.5 L371.9,1943.1 L361.6,1967.4 L351.0,1991.7 L340.2,2016.2 L329.7,2040.2 L319.5,2063.5 L308.8,2088.4 L297.8,2113.8 L286.8,2139.3 L275.9,2164.5 L265.1,2189.6 L254.4,2214.4 L244.1,2237.8 L233.5,2261.6 L222.7,2285.8 L211.9,2310.4 L201.3,2335.6 L191.5,2360.1 L182.4,2384.7 L173.2,2410.7 L164.1,2437.2 L155.3,2463.5 L146.3,2491.0 L134.0,2528.1 L126.9,2548.8 L121.5,2564.6 L113.6,2587.5 L104.1,2615.0 L95.4,2639.9 L86.5,2665.5" stroke="#e2e8f0" stroke-width="1.2" fill="none"/>
<circle cx="924.8" cy="295.3" r="1.6" fill="#f97316"/>
<circle cx="916.9" cy="321.0" r="1.6" fill="#f97316"/>
<circle cx="909.1" cy="346.5" r="1.6" fill="#f97316"/>
<circle cx="901.2" cy="372.0" r="1.6" fill="#f97316"/>
<circle cx="893.4" cy="397.5" r="1.6" fill="#f97316"/>
<circle cx="885.6" cy="423.0" r="1.6" fill="#f97316"/>
<circle cx="877.7" cy="448.5" r="1.6" fill="#f97316"/>
<circle cx="869.7" cy="474.5" r="1.6" fill="#f97316"/>
<circle cx="861.6" cy="500.9" r="1.6" fill="#f97316"/>
<circle cx="853.5" cy="527.4" r="1.6" fill="#f97316"/>
<circle cx="119.8" cy="2564.0" r="1.6" fill="#f97316"/>
<circle cx="111.9" cy="2587.0" r="1.6" fill="#f97316"/>
<circle cx="102.4" cy="2614.5" r="1.6" fill="#f97316"/>
<circle cx="93.7" cy="2639.3" r="1.6" fill="#f97316"/>
<circle cx="84.8" cy="2665.0" r="1.6" fill="#f97316"/>
<circle cx="970.2" cy="309.2" r="1.6" fill="#f97316"/>
<circle cx="962.3" cy="334.9" r="1.6" fill="#f97316"/>
<circle cx="954.5" cy="360.5" r="1.6" fill="#f97316"/>
<circle cx="946.7" cy="386.0" r="1.6" fill="#f97316"/>
<circle cx="938.8" cy="411.4" r="1.6" fill="#f97316"/>
<circle cx="931.0" cy="436.9" r="1.6" fill="#f97316"/>
<circle cx="923.1" cy="462.4" r="1.6" fill="#f97316"/>
<circle cx="915.1" cy="488.5" r="1.6" fill="#f97316"/>
<circle cx="907.0" cy="514.9" r="1.6" fill="#f97316"/>
<circle cx="898.9" cy="541.4" r="1.6" fill="#f97316"/>
<circle cx="890.8" cy="567.7" r="1.6" fill="#f97316"/>
<circle cx="882.8" cy="593.5" r="1.6" fill="#f97316"/>
<circle cx="875.2" cy="618.4" r="1.6" fill="#f97316"/>
<circle cx="867.6" cy="643.1" r="1.6" fill="#f97316"/>
<circle cx="858.2" cy="673.4" r="1.6" fill="#f97316"/>
<circle cx="850.7" cy="697.9" r="1.6" fill="#f97316"/>
<circle cx="843.6" cy="721.0" r="1.6" fill="#f97316"/>
<circle cx="835.9" cy="745.9" r="1.6" fill="#f97316"/>
<circle cx="827.3" cy="773.7" r="1.6" fill="#f97316"/>
<circle cx="820.1" cy="797.3" r="1.6" fill="#f97316"/>
<circle cx="813.3" cy="819.3" r="1.6" fill="#f97316"/>
<circle cx="806.2" cy="842.2" r="1.6" fill="#f97316"/>
<circle cx="798.0" cy="869.0" r="1.6" fill="#f97316"/>
<circle cx="789.7" cy="896.1" r="1.6" fill="#f97316"/>
<circle cx="782.3" cy="920.6" r="1.6" fill="#f97316"/>
<circle cx="774.6" cy="946.6" r="1.6" fill="#f97316"/>
<circle cx="766.5" cy="973.3" r="1.6" fill="#f97316"/>
<circle cx="758.3" cy="1000.1" r="1.6" fill="#f97316"/>
<circle cx="750.1" cy="1026.7" r="1.6" fill="#f97316"/>
<circle cx="741.4" cy="1054.2" r="1.6" fill="#f97316"/>
<circle cx="733.3" cy="1078.9" r="1.6" fill="#f97316"/>
<circle cx="724.8" cy="1103.9" r="1.6" fill="#f97316"/>
<circle cx="716.0" cy="1129.5" r="1.6" fill="#f97316"/>
<circle cx="707.2" cy="1154.5" r="1.6" fill="#f97316"/>
<circle cx="693.2" cy="1194.2" r="1.6" fill="#f97316"/>
<circle cx="683.4" cy="1222.0" r="1.6" fill="#f97316"/>
<circle cx="680.9" cy="1229.3" r="1.6" fill="#f97316"/>
<circle cx="675.2" cy="1245.9" r="1.6" fill="#f97316"/>
<circle cx="666.9" cy="1269.6" r="1.6" fill="#f97316"/>
<circle cx="656.7" cy="1299.2" r="1.6" fill="#f97316"/>
<circle cx="645.6" cy="1331.1" r="1.6" fill="#f97316"/>
<circle cx="636.4" cy="1357.8" r="1.6" fill="#f97316"/>
<circle cx="627.9" cy="1382.4" r="1.6" fill="#f97316"/>
<circle cx="619.4" cy="1407.1" r="1.6" fill="#f97316"/>
<circle cx="610.8" cy="1432.2" r="1.6" fill="#f97316"/>
<circle cx="602.0" cy="1458.0" r="1.6" fill="#f97316"/>
<circle cx="592.9" cy="1484.3" r="1.6" fill="#f97316"/>
<circle cx="583.9" cy="1510.2" r="1.6" fill="#f97316"/>
<circle cx="574.8" cy="1535.6" r="1.6" fill="#f97316"/>
<circle cx="566.2" cy="1559.0" r="1.6" fill="#f97316"/>
<circle cx="556.7" cy="1584.5" r="1.6" fill="#f97316"/>
<circle cx="547.2" cy="1609.6" r="1.6" fill="#f97316"/>
<circle cx="537.7" cy="1634.4" r="1.6" fill="#f97316"/>
<circle cx="528.3" cy="1659.3" r="1.6" fill="#f97316"/>
<circle cx="518.8" cy="1684.3" r="1.6" fill="#f97316"/>
<circle cx="509.4" cy="1709.4" r="1.6" fill="#f97316"/>
<circle cx="500.0" cy="1734.4" r="1.6" fill="#f97316"/>
<circle cx="490.5" cy="1759.5" r="1.6" fill="#f97316"/>
<circle cx="481.1" cy="1784.6" r="1.6" fill="#f97316"/>
<circle cx="471.6" cy="1809.7" r="1.6" fill="#f97316"/>
<circle cx="462.3" cy="1834.7" r="1.6" fill="#f97316"/>
<circle cx="453.1" cy="1859.8" r="1.6" fill="#f97316"/>
<circle cx="443.8" cy="1885.0" r="1.6" fill="#f97316"/>
<circle cx="434.3" cy="1910.2" r="1.6" fill="#f97316"/>
<circle cx="424.4" cy="1935.5" r="1.6" fill="#f97316"/>
<circle cx="414.1" cy="1960.7" r="1.6" fill="#f97316"/>
<circle cx="403.6" cy="1985.5" r="1.6" fill="#f97316"/>
<circle cx="392.9" cy="2010.1" r="1.6" fill="#f97316"/>
<circle cx="382.1" cy="2034.7" r="1.6" fill="#f97316"/>
<circle cx="371.6" cy="2058.5" r="1.6" fill="#f97316"/>
<circle cx="361.5" cy="2081.6" r="1.6" fill="#f97316"/>
<circle cx="350.8" cy="2106.6" r="1.6" fill="#f97316"/>
<circle cx="339.8" cy="2131.9" r="1.6" fill="#f97316"/>
<circle cx="328.8" cy="2157.5" r="1.6" fill="#f97316"/>
<circle cx="317.9" cy="2182.7" r="1.6" fill="#f97316"/>
<circle cx="307.0" cy="2207.8" r="1.6" fill="#f97316"/>
<circle cx="296.3" cy="2232.6" r="1.6" fill="#f97316"/>
<circle cx="285.9" cy="2256.3" r="1.6" fill="#f97316"/>
<circle cx="275.2" cy="2280.3" r="1.6" fill="#f97316"/>
<circle cx="264.5" cy="2304.4" r="1.6" fill="#f97316"/>
<circle cx="253.9" cy="2328.5" r="1.6" fill="#f97316"/>
<circle cx="243.6" cy="2352.9" r="1.6" fill="#f97316"/>
<circle cx="234.2" cy="2376.5" r="1.6" fill="#f97316"/>
<circle cx="225.4" cy="2400.3" r="1.6" fill="#f97316"/>
<circle cx="216.4" cy="2425.7" r="1.6" fill="#f97316"/>
<circle cx="207.5" cy="2451.8" r="1.6" fill="#f97316"/>
<circle cx="198.8" cy="2477.9" r="1.6" fill="#f97316"/>
<circle cx="189.7" cy="2505.3" r="1.6" fill="#f97316"/>
<circle cx="177.3" cy="2542.7" r="1.6" fill="#f97316"/>
<circle cx="170.1" cy="2563.7" r="1.6" fill="#f97316"/>
<circle cx="164.7" cy="2579.4" r="1.6" fill="#f97316"/>
<circle cx="156.8" cy="2602.4" r="1.6" fill="#f97316"/>
<circle cx="147.3" cy="2630.1" r="1.6" fill="#f97316"/>
<circle cx="138.6" cy="2655.0" r="1.6" fill="#f97316"/>
<circle cx="129.7" cy="2680.6" r="1.6" fill="#f97316"/>
<circle cx="965.8" cy="239.6" r="1.6" fill="#f43f5e"/>
<circle cx="958.1" cy="265.2" r="1.6" fill="#f43f5e"/>
<circle cx="950.3" cy="290.8" r="1.6" fill="#f43f5e"/>
<circle cx="942.6" cy="316.4" r="1.6" fill="#f43f5e"/>
<circle cx="934.8" cy="342.0" r="1.6" fill="#f43f5e"/>
<circle cx="927.0" cy="367.6" r="1.6" fill="#f43f5e"/>
<circle cx="919.2" cy="393.3" r="1.6" fill="#f43f5e"/>
<circle cx="911.5" cy="418.9" r="1.6" fill="#f43f5e"/>
<circle cx="903.7" cy="444.6" r="1.6" fill="#f43f5e"/>
<circle cx="895.9" cy="470.2" r="1.6" fill="#f43f5e"/>
<circle cx="888.1" cy="495.9" r="1.6" fill="#f43f5e"/>
<circle cx="880.4" cy="521.5" r="1.6" fill="#f43f5e"/>
<circle cx="949.9" cy="206.8" r="1.6" fill="#f43f5e"/>
<circle cx="942.2" cy="232.4" r="1.6" fill="#f43f5e"/>
<circle cx="934.4" cy="258.0" r="1.6" fill="#f43f5e"/>
<circle cx="926.7" cy="283.6" r="1.6" fill="#f43f5e"/>
<circle cx="918.9" cy="309.2" r="1.6" fill="#f43f5e"/>
<circle cx="911.1" cy="334.8" r="1.6" fill="#f43f5e"/>
<circle cx="903.4" cy="360.5" r="1.6" fill="#f43f5e"/>
<circle cx="895.6" cy="386.1" r="1.6" fill="#f43f5e"/>
<circle cx="887.8" cy="411.7" r="1.6" fill="#f43f5e"/>
<circle cx="880.0" cy="437.4" r="1.6" fill="#f43f5e"/>
<circle cx="872.3" cy="463.1" r="1.6" fill="#f43f5e"/>
<circle cx="864.5" cy="488.7" r="1.6" fill="#f43f5e"/>
<circle cx="856.7" cy="514.4" r="1.6" fill="#f43f5e"/>
<circle cx="683.6" cy="1048.5" r="1.6" fill="#f43f5e"/>
<circle cx="675.0" cy="1073.8" r="1.6" fill="#f43f5e"/>
<circle cx="666.3" cy="1099.2" r="1.6" fill="#f43f5e"/>
<circle cx="657.7" cy="1124.5" r="1.6" fill="#f43f5e"/>
<circle cx="649.0" cy="1149.8" r="1.6" fill="#f43f5e"/>
<circle cx="640.4" cy="1175.1" r="1.6" fill="#f43f5e"/>
<text x="12" y="20" fill="#cbd5e1" font-size="14">right-merge-r1_3-ramp_12 — blue=host, green=branch, yellow-dash=outer lane centre (merge target), white=host edge line, orange/red=rail present</text>
</svg>