<svg xmlns="http://www.w3.org/2000/svg" width="1100" height="1541" viewBox="0 0 1100 1541" style="background:#0b0d12">
<polygon points="80.7,1426.8 92.2,1403.6 103.6,1380.8 115.0,1358.0 125.0,1337.9 132.9,1322.1 144.2,1299.3 157.8,1272.0 172.4,1242.8 184.0,1219.4 195.6,1196.2 207.1,1173.1 218.4,1150.4 229.6,1128.0 241.5,1104.1 254.3,1078.5 267.1,1052.9 279.4,1028.1 290.8,1005.2 300.9,985.1 313.1,960.5 320.8,945.0 325.4,935.8 340.5,905.4 356.0,874.4 367.3,851.7 378.9,828.4 390.4,805.4 401.8,782.6 413.7,758.8 425.1,735.9 436.7,712.7 448.4,689.5 459.9,666.3 471.3,643.4 483.3,619.2 494.8,595.9 506.4,573.0 517.9,550.2 529.0,528.0 541.6,502.2 554.2,474.8 563.4,453.2 570.6,435.4 578.9,413.2 586.2,390.2 592.6,366.2 597.9,342.0 601.9,318.0 604.2,294.2 604.7,270.1 603.7,246.2 600.7,222.5 595.5,200.1 587.9,178.2 578.2,157.0 566.5,137.7 552.5,120.4 589.5,86.7 607.4,109.1 622.3,133.6 634.4,159.7 643.4,186.1 649.9,213.8 653.5,242.2 654.7,269.7 654.1,297.0 651.4,324.7 646.9,351.6 641.1,377.9 634.2,404.2 626.0,429.7 617.1,453.7 609.6,472.3 600.0,495.0 586.7,523.7 573.8,550.2 562.5,572.7 551.0,595.5 539.5,618.3 528.0,641.4 516.1,665.6 504.6,688.5 493.1,711.8 481.4,735.1 469.8,758.3 458.4,781.1 446.5,804.9 435.2,827.7 423.7,850.7 412.0,874.0 400.7,896.7 385.3,927.7 370.1,958.1 365.6,967.2 357.8,982.7 345.6,1007.4 335.5,1027.5 324.1,1050.4 311.8,1075.2 299.0,1100.8 286.3,1126.4 274.3,1150.3 263.1,1172.7 251.8,1195.4 240.3,1218.5 228.8,1241.7 217.1,1265.1 202.6,1294.3 188.9,1321.6 177.6,1344.4 169.7,1360.2 159.7,1380.3 148.3,1403.1 136.9,1425.9 125.4,1449.1" fill="#3b82f6" fill-opacity="0.25"/>
<polygon points="159.1,1306.5 170.5,1283.5 182.0,1260.5 193.5,1237.4 205.0,1214.4 216.5,1191.4 227.9,1168.4 239.3,1145.4 250.7,1122.3 262.0,1099.2 273.3,1076.1 284.7,1052.9 296.2,1029.8 307.8,1006.6 319.5,983.6 331.3,960.6 343.1,937.7 355.0,914.8 367.0,891.9 379.2,869.0 391.7,846.2 404.3,823.6 417.1,801.0 430.0,778.6 443.2,756.3 456.4,734.0 469.8,711.9 483.3,689.8 497.0,667.8 510.7,646.0 524.5,624.1 538.5,602.3 552.6,580.6 567.0,558.9 581.6,537.4 596.6,515.8 611.9,494.8 627.6,474.0 643.6,453.5 659.5,433.3 675.3,413.1 690.9,393.0 705.8,373.0 720.1,352.4 734.3,331.1 748.7,309.6 763.9,287.9 780.4,266.4 799.4,245.3 819.3,226.9 840.8,209.9 863.6,194.5 887.7,180.9 913.3,169.4 940.6,160.8 968.3,155.6 996.4,153.5 997.5,199.8 974.4,201.6 951.6,205.8 930.0,212.6 908.8,222.2 888.1,233.9 868.2,247.3 849.4,262.2 832.1,278.1 816.3,295.7 801.4,315.1 787.1,335.6 772.9,356.8 758.5,378.3 743.5,400.0 727.7,421.1 711.8,441.7 695.9,462.0 680.0,482.1 664.4,502.2 649.1,522.4 634.5,542.7 619.8,563.7 605.5,584.8 591.4,606.0 577.4,627.4 563.6,649.0 549.9,670.6 536.3,692.4 522.8,714.1 509.4,736.0 496.2,757.9 483.1,779.9 470.1,801.9 457.3,824.1 444.7,846.3 432.3,868.6 420.0,891.0 408.0,913.6 396.1,936.2 384.3,959.0 372.5,981.8 360.8,1004.7 349.2,1027.5 337.7,1050.4 326.3,1073.4 315.0,1096.5 303.6,1119.6 292.3,1142.7 280.9,1165.9 269.4,1189.0 258.0,1212.0 246.5,1235.1 235.0,1258.1 223.5,1281.1 212.0,1304.2 200.5,1327.2" fill="#22c55e" fill-opacity="0.25"/>
<path d="M103.0,1438.0 L114.6,1414.8 L126.0,1392.0 L137.3,1369.2 L147.3,1349.1 L155.2,1333.2 L166.6,1310.5 L180.2,1283.1 L194.8,1253.9 L206.4,1230.6 L218.0,1207.4 L229.5,1184.2 L240.8,1161.6 L252.0,1139.2 L263.9,1115.2 L276.7,1089.6 L289.4,1064.0 L301.8,1039.3 L313.2,1016.4 L323.2,996.2 L335.5,971.6 L343.2,956.1 L347.8,946.9 L362.9,916.6 L378.4,885.6 L389.7,862.9 L401.3,839.6 L412.8,816.5 L424.1,793.8 L436.1,769.9 L447.5,747.1 L459.1,723.9 L470.7,700.6 L482.3,677.4 L493.7,654.5 L505.6,630.3 L517.2,607.1 L528.7,584.2 L540.2,561.5 L551.4,539.1 L564.2,512.9 L577.1,484.9 L586.5,462.8 L593.8,444.6 L602.5,421.4 L610.2,397.2 L616.9,372.0 L622.4,346.8 L626.7,321.3 L629.2,295.6 L629.7,269.9 L628.6,244.2 L625.3,218.1 L619.4,193.1 L611.1,169.0 L600.2,145.3 L586.9,123.4 L571.0,103.5" stroke="#3b82f6" stroke-width="2" fill="none"/>
<path d="M179.8,1316.9 L191.3,1293.8 L202.8,1270.8 L214.3,1247.8 L225.7,1224.7 L237.2,1201.7 L248.7,1178.7 L260.1,1155.6 L271.5,1132.5 L282.8,1109.4 L294.1,1086.3 L305.5,1063.2 L316.9,1040.1 L328.5,1017.1 L340.1,994.1 L351.9,971.2 L363.7,948.3 L375.5,925.5 L387.5,902.7 L399.6,880.0 L412.0,857.4 L424.5,834.9 L437.2,812.6 L450.1,790.3 L463.1,768.1 L476.3,746.0 L489.6,723.9 L503.0,702.0 L516.6,680.1 L530.3,658.3 L544.1,636.5 L557.9,614.9 L572.0,593.3 L586.2,571.8 L600.7,550.5 L615.6,529.3 L630.5,508.6 L646.0,488.1 L661.8,467.8 L677.7,447.6 L693.6,427.4 L709.3,407.1 L724.7,386.5 L739.3,365.4 L753.6,344.0 L767.9,322.6 L782.7,301.5 L798.3,281.0 L815.8,261.7 L834.4,244.6 L854.5,228.6 L875.8,214.2 L898.2,201.5 L921.6,191.0 L946.1,183.3 L971.4,178.6 L997.0,176.7" stroke="#22c55e" stroke-width="2" fill="none"/>
<path d="M111.2,1442.1 L122.8,1418.9 L134.1,1396.0 L145.5,1373.3 L155.5,1353.1 L163.4,1337.3 L174.8,1314.5 L188.4,1287.2 L202.9,1258.0 L214.6,1234.7 L226.2,1211.4 L237.7,1188.3 L249.0,1165.7 L260.1,1143.2 L272.1,1119.3 L284.8,1093.7 L297.6,1068.1 L309.9,1043.4 L321.4,1020.5 L331.4,1000.3 L343.7,975.7 L351.4,960.2 L356.0,951.0 L371.1,920.7 L386.6,889.6 L397.9,866.9 L409.5,843.7 L421.0,820.6 L432.3,797.9 L444.2,774.0 L455.7,751.2 L467.3,728.0 L478.9,704.7 L490.5,681.5 L501.9,658.5 L513.8,634.3 L525.3,611.2 L536.9,588.3 L548.4,565.6 L559.6,543.1 L572.4,516.9 L585.5,488.6 L594.9,466.3 L602.3,447.9 L611.1,424.4 L619.0,399.8 L625.7,374.2 L631.4,348.5 L635.7,322.6 L638.3,296.1 L638.9,269.8 L637.7,243.5 L634.3,216.5 L628.2,190.6 L619.6,165.6 L608.3,141.0 L594.4,118.1 L577.8,97.4" stroke="#eab308" stroke-width="1.6" stroke-dasharray="8 5" fill="none"/>
<path d="M121.9,1447.4 L133.5,1424.2 L144.9,1401.4 L156.2,1378.6 L166.2,1358.5 L174.1,1342.6 L185.5,1319.9 L199.1,1292.6 L213.7,1263.4 L225.3,1240.0 L236.9,1216.8 L248.4,1193.7 L259.7,1171.0 L270.9,1148.6 L282.8,1124.6 L295.6,1099.1 L308.3,1073.4 L320.7,1048.7 L332.1,1025.8 L342.1,1005.6 L354.4,981.0 L362.1,965.5 L366.7,956.3 L381.8,926.0 L397.3,895.0 L408.6,872.3 L420.2,849.0 L431.7,826.0 L443.0,803.2 L454.9,779.4 L466.4,756.5 L478.0,733.4 L489.6,710.1 L501.2,686.8 L512.6,663.9 L524.6,639.7 L536.0,616.6 L547.5,593.8 L559.1,571.0 L570.3,548.5 L583.2,522.0 L596.4,493.4 L606.0,470.8 L613.5,452.3 L622.4,428.4 L630.5,403.1 L637.4,377.0 L643.1,350.8 L647.6,324.2 L650.2,296.8 L650.8,269.7 L649.7,242.5 L646.1,214.5 L639.7,187.2 L630.8,161.2 L618.9,135.4 L604.2,111.3 L586.6,89.3" stroke="#e2e8f0" stroke-width="1.2" fill="none"/>
<circle cx="123.4" cy="1448.2" r="1.6" fill="#f97316"/>
<circle cx="135.0" cy="1425.0" r="1.6" fill="#f97316"/>
<circle cx="146.4" cy="1402.1" r="1.6" fill="#f97316"/>
<circle cx="157.7" cy="1379.4" r="1.6" fill="#f97316"/>
<circle cx="167.8" cy="1359.2" r="1.6" fill="#f97316"/>
<circle cx="175.7" cy="1343.4" r="1.6" fill="#f97316"/>
<circle cx="571.9" cy="549.2" r="1.6" fill="#f97316"/>
<circle cx="584.8" cy="522.7" r="1.6" fill="#f97316"/>
<circle cx="598.0" cy="494.1" r="1.6" fill="#f97316"/>
<circle cx="607.6" cy="471.5" r="1.6" fill="#f97316"/>
<circle cx="615.1" cy="452.9" r="1.6" fill="#f97316"/>
<circle cx="624.0" cy="428.9" r="1.6" fill="#f97316"/>
<circle cx="632.1" cy="403.6" r="1.6" fill="#f97316"/>
<circle cx="639.0" cy="377.4" r="1.6" fill="#f97316"/>
<circle cx="644.8" cy="351.2" r="1.6" fill="#f97316"/>
<circle cx="649.3" cy="324.4" r="1.6" fill="#f97316"/>
<circle cx="651.9" cy="296.9" r="1.6" fill="#f97316"/>
<circle cx="652.5" cy="269.7" r="1.6" fill="#f97316"/>
<circle cx="651.3" cy="242.4" r="1.6" fill="#f97316"/>
<circle cx="647.8" cy="214.2" r="1.6" fill="#f97316"/>
<circle cx="641.3" cy="186.7" r="1.6" fill="#f97316"/>
<circle cx="632.3" cy="160.5" r="1.6" fill="#f97316"/>
<circle cx="620.4" cy="134.6" r="1.6" fill="#f97316"/>
<circle cx="605.6" cy="110.3" r="1.6" fill="#f97316"/>
<circle cx="587.9" cy="88.2" r="1.6" fill="#f97316"/>
<circle cx="82.6" cy="1427.8" r="1.6" fill="#f97316"/>
<circle cx="94.2" cy="1404.6" r="1.6" fill="#f97316"/>
<circle cx="105.5" cy="1381.8" r="1.6" fill="#f97316"/>
<circle cx="116.9" cy="1359.0" r="1.6" fill="#f97316"/>
<circle cx="126.9" cy="1338.9" r="1.6" fill="#f97316"/>
<circle cx="134.8" cy="1323.0" r="1.6" fill="#f97316"/>
<circle cx="146.2" cy="1300.3" r="1.6" fill="#f97316"/>
<circle cx="159.8" cy="1273.0" r="1.6" fill="#f97316"/>
<circle cx="174.3" cy="1243.8" r="1.6" fill="#f97316"/>
<circle cx="186.0" cy="1220.4" r="1.6" fill="#f97316"/>
<circle cx="197.5" cy="1197.2" r="1.6" fill="#f97316"/>
<circle cx="209.1" cy="1174.1" r="1.6" fill="#f97316"/>
<circle cx="220.4" cy="1151.4" r="1.6" fill="#f97316"/>
<circle cx="231.5" cy="1129.0" r="1.6" fill="#f97316"/>
<circle cx="243.5" cy="1105.0" r="1.6" fill="#f97316"/>
<circle cx="256.2" cy="1079.4" r="1.6" fill="#f97316"/>
<circle cx="269.0" cy="1053.8" r="1.6" fill="#f97316"/>
<circle cx="281.3" cy="1029.1" r="1.6" fill="#f97316"/>
<circle cx="292.8" cy="1006.2" r="1.6" fill="#f97316"/>
<circle cx="302.8" cy="986.0" r="1.6" fill="#f97316"/>
<circle cx="315.1" cy="961.5" r="1.6" fill="#f97316"/>
<circle cx="322.8" cy="946.0" r="1.6" fill="#f97316"/>
<circle cx="327.3" cy="936.7" r="1.6" fill="#f97316"/>
<circle cx="342.5" cy="906.4" r="1.6" fill="#f97316"/>
<circle cx="358.0" cy="875.4" r="1.6" fill="#f97316"/>
<circle cx="369.3" cy="852.7" r="1.6" fill="#f97316"/>
<circle cx="380.9" cy="829.4" r="1.6" fill="#f97316"/>
<circle cx="392.4" cy="806.4" r="1.6" fill="#f97316"/>
<circle cx="403.7" cy="783.6" r="1.6" fill="#f97316"/>
<circle cx="415.6" cy="759.7" r="1.6" fill="#f97316"/>
<circle cx="427.1" cy="736.9" r="1.6" fill="#f97316"/>
<circle cx="438.7" cy="713.7" r="1.6" fill="#f97316"/>
<circle cx="450.3" cy="690.4" r="1.6" fill="#f97316"/>
<circle cx="461.9" cy="667.2" r="1.6" fill="#f97316"/>
<circle cx="473.2" cy="644.3" r="1.6" fill="#f97316"/>
<circle cx="485.2" cy="620.2" r="1.6" fill="#f97316"/>
<circle cx="496.8" cy="596.9" r="1.6" fill="#f97316"/>
<circle cx="508.3" cy="573.9" r="1.6" fill="#f97316"/>
<circle cx="519.8" cy="551.2" r="1.6" fill="#f97316"/>
<circle cx="531.0" cy="528.9" r="1.6" fill="#f97316"/>
<circle cx="543.6" cy="503.1" r="1.6" fill="#f97316"/>
<circle cx="556.2" cy="475.7" r="1.6" fill="#f97316"/>
<circle cx="565.4" cy="454.1" r="1.6" fill="#f97316"/>
<circle cx="572.6" cy="436.2" r="1.6" fill="#f97316"/>
<circle cx="580.9" cy="413.9" r="1.6" fill="#f97316"/>
<circle cx="588.3" cy="390.9" r="1.6" fill="#f97316"/>
<circle cx="594.7" cy="366.7" r="1.6" fill="#f97316"/>
<circle cx="600.0" cy="342.4" r="1.6" fill="#f97316"/>
<circle cx="604.0" cy="318.3" r="1.6" fill="#f97316"/>
<circle cx="606.4" cy="294.3" r="1.6" fill="#f97316"/>
<circle cx="606.9" cy="270.1" r="1.6" fill="#f97316"/>
<circle cx="605.9" cy="246.0" r="1.6" fill="#f97316"/>
<circle cx="602.8" cy="222.1" r="1.6" fill="#f97316"/>
<circle cx="597.5" cy="199.5" r="1.6" fill="#f97316"/>
<circle cx="589.9" cy="177.4" r="1.6" fill="#f97316"/>
<circle cx="580.1" cy="155.9" r="1.6" fill="#f97316"/>
<circle cx="568.2" cy="136.5" r="1.6" fill="#f97316"/>
<circle cx="554.1" cy="118.9" r="1.6" fill="#f97316"/>
<circle cx="598.4" cy="517.1" r="1.6" fill="#f43f5e"/>
<circle cx="613.7" cy="496.1" r="1.6" fill="#f43f5e"/>
<circle cx="629.4" cy="475.3" r="1.6" fill="#f43f5e"/>
<circle cx="645.3" cy="454.8" r="1.6" fill="#f43f5e"/>
<circle cx="661.2" cy="434.6" r="1.6" fill="#f43f5e"/>
<circle cx="677.0" cy="414.5" r="1.6" fill="#f43f5e"/>
<circle cx="692.6" cy="394.3" r="1.6" fill="#f43f5e"/>
<circle cx="707.6" cy="374.2" r="1.6" fill="#f43f5e"/>
<circle cx="721.9" cy="353.6" r="1.6" fill="#f43f5e"/>
<circle cx="736.1" cy="332.3" r="1.6" fill="#f43f5e"/>
<circle cx="750.5" cy="310.8" r="1.6" fill="#f43f5e"/>
<circle cx="765.7" cy="289.1" r="1.6" fill="#f43f5e"/>
<circle cx="782.1" cy="267.7" r="1.6" fill="#f43f5e"/>
<circle cx="800.9" cy="246.8" r="1.6" fill="#f43f5e"/>
<circle cx="820.7" cy="228.6" r="1.6" fill="#f43f5e"/>
<circle cx="842.1" cy="211.7" r="1.6" fill="#f43f5e"/>
<circle cx="864.8" cy="196.4" r="1.6" fill="#f43f5e"/>
<circle cx="888.7" cy="182.8" r="1.6" fill="#f43f5e"/>
<circle cx="914.0" cy="171.4" r="1.6" fill="#f43f5e"/>
<circle cx="941.1" cy="162.9" r="1.6" fill="#f43f5e"/>
<circle cx="968.6" cy="157.8" r="1.6" fill="#f43f5e"/>
<circle cx="996.5" cy="155.6" r="1.6" fill="#f43f5e"/>
<circle cx="198.6" cy="1326.2" r="1.6" fill="#f43f5e"/>
<circle cx="210.1" cy="1303.2" r="1.6" fill="#f43f5e"/>
<circle cx="221.6" cy="1280.2" r="1.6" fill="#f43f5e"/>
<circle cx="233.1" cy="1257.2" r="1.6" fill="#f43f5e"/>
<circle cx="244.6" cy="1234.1" r="1.6" fill="#f43f5e"/>
<circle cx="256.0" cy="1211.1" r="1.6" fill="#f43f5e"/>
<circle cx="267.5" cy="1188.1" r="1.6" fill="#f43f5e"/>
<circle cx="279.0" cy="1164.9" r="1.6" fill="#f43f5e"/>
<circle cx="290.4" cy="1141.8" r="1.6" fill="#f43f5e"/>
<circle cx="301.7" cy="1118.6" r="1.6" fill="#f43f5e"/>
<circle cx="313.0" cy="1095.5" r="1.6" fill="#f43f5e"/>
<circle cx="324.4" cy="1072.5" r="1.6" fill="#f43f5e"/>
<circle cx="335.8" cy="1049.5" r="1.6" fill="#f43f5e"/>
<circle cx="347.2" cy="1026.6" r="1.6" fill="#f43f5e"/>
<circle cx="358.9" cy="1003.7" r="1.6" fill="#f43f5e"/>
<circle cx="370.6" cy="980.8" r="1.6" fill="#f43f5e"/>
<circle cx="382.3" cy="958.0" r="1.6" fill="#f43f5e"/>
<circle cx="394.1" cy="935.2" r="1.6" fill="#f43f5e"/>
<circle cx="406.1" cy="912.6" r="1.6" fill="#f43f5e"/>
<circle cx="418.1" cy="890.0" r="1.6" fill="#f43f5e"/>
<circle cx="430.4" cy="867.6" r="1.6" fill="#f43f5e"/>
<circle cx="442.8" cy="845.3" r="1.6" fill="#f43f5e"/>
<circle cx="455.4" cy="823.0" r="1.6" fill="#f43f5e"/>
<circle cx="468.2" cy="800.8" r="1.6" fill="#f43f5e"/>
<circle cx="481.2" cy="778.8" r="1.6" fill="#f43f5e"/>
<circle cx="494.3" cy="756.8" r="1.6" fill="#f43f5e"/>
<circle cx="507.5" cy="734.9" r="1.6" fill="#f43f5e"/>
<circle cx="520.9" cy="713.0" r="1.6" fill="#f43f5e"/>
<circle cx="534.4" cy="691.2" r="1.6" fill="#f43f5e"/>
<circle cx="548.1" cy="669.5" r="1.6" fill="#f43f5e"/>
<circle cx="561.8" cy="647.8" r="1.6" fill="#f43f5e"/>
<circle cx="575.6" cy="626.3" r="1.6" fill="#f43f5e"/>
<circle cx="589.6" cy="604.8" r="1.6" fill="#f43f5e"/>
<circle cx="603.7" cy="583.5" r="1.6" fill="#f43f5e"/>
<circle cx="618.0" cy="562.5" r="1.6" fill="#f43f5e"/>
<circle cx="632.7" cy="541.4" r="1.6" fill="#f43f5e"/>
<circle cx="647.4" cy="521.1" r="1.6" fill="#f43f5e"/>
<circle cx="662.7" cy="500.9" r="1.6" fill="#f43f5e"/>
<circle cx="678.3" cy="480.8" r="1.6" fill="#f43f5e"/>
<circle cx="694.2" cy="460.6" r="1.6" fill="#f43f5e"/>
<circle cx="710.1" cy="440.4" r="1.6" fill="#f43f5e"/>
<circle cx="726.0" cy="419.8" r="1.6" fill="#f43f5e"/>
<circle cx="741.7" cy="398.7" r="1.6" fill="#f43f5e"/>
<circle cx="756.7" cy="377.1" r="1.6" fill="#f43f5e"/>
<circle cx="771.1" cy="355.6" r="1.6" fill="#f43f5e"/>
<circle cx="785.3" cy="334.4" r="1.6" fill="#f43f5e"/>
<circle cx="799.7" cy="313.8" r="1.6" fill="#f43f5e"/>
<circle cx="814.6" cy="294.4" r="1.6" fill="#f43f5e"/>
<circle cx="830.6" cy="276.6" r="1.6" fill="#f43f5e"/>
<circle cx="848.0" cy="260.6" r="1.6" fill="#f43f5e"/>
<circle cx="866.9" cy="245.6" r="1.6" fill="#f43f5e"/>
<circle cx="886.9" cy="232.1" r="1.6" fill="#f43f5e"/>
<circle cx="907.8" cy="220.2" r="1.6" fill="#f43f5e"/>
<circle cx="929.2" cy="210.6" r="1.6" fill="#f43f5e"/>
<circle cx="951.1" cy="203.7" r="1.6" fill="#f43f5e"/>
<circle cx="974.1" cy="199.4" r="1.6" fill="#f43f5e"/>
<circle cx="997.5" cy="197.7" r="1.6" fill="#f43f5e"/>
<text x="12" y="20" fill="#cbd5e1" font-size="14">right-diverge-c1_0-ramp_22 — blue=host, green=branch, yellow-dash=outer lane centre (merge target), white=host edge line, orange/red=rail present</text>
</svg>