<svg xmlns="http://www.w3.org/2000/svg" width="1100" height="2779" viewBox="0 0 1100 2779" style="background:#0b0d12">
<polygon points="972.2,309.4 964.3,335.1 956.5,360.6 948.6,386.1 940.8,411.7 932.9,437.2 925.1,462.8 917.1,488.8 909.0,515.0 900.9,541.3 892.9,567.4 885.0,593.0 877.4,617.8 868.5,646.8 859.8,675.0 852.6,698.4 845.7,720.6 837.8,746.3 829.4,773.6 822.2,796.8 815.2,819.7 807.7,843.9 798.9,872.4 792.1,895.1 784.6,919.8 776.7,946.0 768.6,973.0 760.3,1000.2 751.8,1027.6 743.2,1054.8 735.2,1079.2 726.8,1104.1 718.0,1129.4 708.7,1156.0 694.6,1196.1 685.6,1221.5 682.9,1229.4 678.0,1243.4 669.4,1268.2 658.5,1299.7 647.5,1331.6 638.3,1358.1 629.8,1382.6 621.4,1407.2 612.8,1432.2 604.0,1458.1 595.0,1484.2 586.0,1510.0 576.9,1535.2 568.2,1559.2 558.7,1584.6 549.2,1609.6 539.7,1634.4 530.3,1659.2 520.8,1684.3 511.4,1709.3 502.0,1734.4 492.5,1759.5 483.1,1784.6 473.6,1809.7 464.3,1834.7 455.1,1859.8 445.8,1884.9 436.3,1910.2 426.4,1935.5 416.1,1960.7 405.6,1985.5 394.9,2010.1 384.0,2034.8 373.7,2058.3 363.6,2081.5 352.7,2106.6 341.7,2132.0 330.7,2157.6 319.9,2182.7 309.1,2207.7 298.4,2232.4 288.0,2256.1 277.2,2280.3 266.4,2304.4 255.9,2328.5 245.6,2353.0 236.5,2375.7 227.7,2399.5 218.6,2425.0 209.7,2451.2 200.9,2477.4 190.9,2507.9 179.1,2543.4 172.3,2563.1 166.9,2579.1 158.8,2602.4 149.4,2629.7 140.7,2654.7 131.8,2680.3 82.7,2663.2 91.6,2637.5 100.3,2612.6 109.7,2585.5 117.7,2562.2 123.2,2546.2 129.8,2526.7 141.5,2491.6 151.6,2461.1 160.4,2434.6 169.5,2407.9 178.8,2381.8 188.0,2357.0 197.5,2333.3 208.1,2308.0 218.9,2283.3 229.7,2259.0 240.5,2235.1 250.7,2211.7 261.3,2187.1 272.1,2162.1 283.0,2137.0 294.0,2111.4 305.0,2085.9 315.8,2060.8 326.0,2037.4 336.4,2013.8 347.2,1989.3 357.8,1964.9 368.1,1940.7 378.1,1916.2 387.7,1891.6 397.1,1866.8 406.3,1841.8 415.6,1816.7 424.9,1791.4 434.4,1766.3 443.8,1741.2 453.3,1716.1 462.7,1691.0 472.2,1665.9 481.6,1640.8 491.1,1615.9 500.6,1591.1 510.0,1566.2 519.4,1541.1 528.0,1517.5 536.9,1492.7 545.8,1467.1 554.8,1441.2 563.6,1415.4 572.2,1390.4 580.7,1365.7 589.2,1341.1 598.3,1314.6 609.4,1282.7 620.3,1251.2 628.9,1226.4 633.8,1212.3 636.5,1204.4 645.6,1178.7 659.7,1138.8 668.9,1112.4 677.6,1087.2 685.8,1062.8 693.7,1038.8 702.2,1012.1 710.6,984.9 718.8,957.9 727.0,931.0 734.8,904.8 742.3,880.0 749.2,857.2 758.0,828.6 765.5,804.4 772.5,781.5 779.7,758.3 788.1,730.9 796.0,705.2 802.9,683.1 810.1,659.7 818.8,631.5 827.7,602.5 835.3,577.7 843.2,552.1 851.2,526.0 859.3,499.7 867.4,473.5 875.4,447.5 883.2,421.9 891.1,396.4 898.9,370.9 906.8,345.3 914.6,319.8 922.5,294.1" fill="#3b82f6" fill-opacity="0.25"/>
<polygon points="1006.7,111.9 998.9,137.4 991.1,163.0 983.3,188.6 975.5,214.2 967.7,239.7 960.0,265.3 952.2,290.9 944.5,316.5 936.8,342.1 929.0,367.8 921.2,393.4 913.5,419.1 905.7,444.7 897.9,470.4 890.1,496.0 882.3,521.7 874.6,547.3 866.8,572.9 859.1,598.5 851.4,624.2 843.8,649.8 836.1,675.5 828.4,701.2 820.6,726.8 812.7,752.4 804.5,778.0 795.9,803.6 787.2,828.9 778.4,854.2 769.7,879.4 761.0,904.7 752.3,930.0 743.6,955.3 735.0,980.4 726.3,1005.8 717.7,1031.2 709.0,1056.6 700.3,1081.9 691.7,1107.3 683.0,1132.6 674.4,1157.9 665.8,1183.1 657.1,1208.4 648.5,1233.7 639.8,1259.0 631.1,1284.3 622.5,1309.6 613.8,1334.9 605.3,1360.1 596.8,1385.6 588.3,1410.9 579.8,1436.3 571.2,1461.7 562.6,1487.1 553.8,1512.5 544.9,1537.8 535.9,1563.0 526.7,1588.2 517.5,1613.3 508.2,1638.4 499.0,1663.5 489.8,1688.6 480.8,1713.7 471.8,1738.9 463.0,1764.2 454.2,1789.5 445.3,1814.9 436.2,1840.2 427.0,1865.5 417.5,1890.7 407.9,1915.8 398.1,1940.8 388.2,1965.7 378.1,1990.6 368.0,2015.5 357.8,2040.2 347.5,2065.0 337.1,2089.8 326.6,2114.4 315.9,2139.1 305.3,2163.6 294.7,2188.2 284.1,2212.7 273.5,2237.3 262.9,2261.9 252.2,2286.5 241.5,2311.0 231.0,2335.5 220.7,2360.1 210.9,2384.5 201.8,2409.2 193.3,2434.2 184.8,2459.7 176.3,2485.0 167.9,2510.4 159.4,2535.8 131.7,2526.6 140.1,2501.2 148.6,2475.7 157.1,2450.3 165.5,2425.1 174.2,2399.5 183.6,2374.0 193.6,2348.9 204.1,2324.1 214.7,2299.4 225.4,2274.8 236.1,2250.2 246.7,2225.7 257.2,2201.2 267.9,2176.6 278.5,2152.0 289.1,2127.5 299.7,2102.9 310.2,2078.4 320.6,2053.8 330.8,2029.1 341.0,2004.4 351.1,1979.7 361.0,1954.9 370.9,1930.1 380.6,1905.2 390.2,1880.3 399.6,1855.3 408.8,1830.3 417.7,1805.1 426.6,1779.9 435.4,1754.6 444.3,1729.3 453.2,1703.9 462.3,1678.6 471.5,1653.4 480.8,1628.3 490.1,1603.2 499.3,1578.2 508.4,1553.1 517.4,1528.0 526.2,1502.9 534.9,1477.6 543.6,1452.4 552.1,1427.0 560.6,1401.7 569.1,1376.3 577.6,1350.8 586.2,1325.5 594.8,1300.2 603.5,1274.9 612.1,1249.6 620.8,1224.3 629.5,1198.9 638.1,1173.7 646.7,1148.4 655.4,1123.2 664.0,1097.8 672.7,1072.5 681.4,1047.1 690.0,1021.8 698.7,996.4 707.4,971.0 716.0,945.8 724.7,920.5 733.4,895.2 742.1,870.0 750.8,844.6 759.6,819.3 768.3,794.2 776.7,768.9 784.8,743.7 792.7,718.3 800.4,692.7 808.1,667.1 815.8,641.5 823.4,615.8 831.1,590.1 838.9,564.5 846.6,538.8 854.4,513.2 862.2,487.5 869.9,461.9 877.7,436.2 885.5,410.6 893.3,384.9 901.0,359.3 908.8,333.7 916.5,308.1 924.3,282.5 932.0,256.9 939.8,231.3 947.5,205.7 955.3,180.1 963.2,154.5 971.0,128.9 978.8,103.3" fill="#22c55e" fill-opacity="0.25"/>
<path d="M947.3,301.8 L939.5,327.4 L931.6,353.0 L923.8,378.5 L915.9,404.0 L908.1,429.6 L900.2,455.2 L892.2,481.1 L884.2,507.3 L876.1,533.6 L868.0,559.8 L860.2,585.4 L852.5,610.1 L843.6,639.2 L834.9,667.3 L827.7,690.7 L820.9,712.9 L813.0,738.6 L804.5,765.9 L797.4,789.1 L790.3,812.0 L782.9,836.3 L774.1,864.8 L767.2,887.6 L759.7,912.3 L751.9,938.5 L743.7,965.5 L735.4,992.6 L727.0,1019.9 L718.4,1046.8 L710.5,1071.0 L702.2,1095.7 L693.5,1120.9 L684.2,1147.4 L670.1,1187.4 L661.1,1213.0 L658.3,1220.9 L653.4,1234.9 L644.9,1259.7 L634.0,1291.2 L622.9,1323.1 L613.8,1349.6 L605.3,1374.1 L596.8,1398.8 L588.2,1423.8 L579.4,1449.7 L570.4,1475.7 L561.4,1501.3 L552.5,1526.4 L543.8,1550.1 L534.3,1575.4 L524.9,1600.4 L515.4,1625.2 L506.0,1650.0 L496.5,1675.1 L487.1,1700.2 L477.6,1725.3 L468.2,1750.4 L458.7,1775.5 L449.3,1800.6 L440.0,1825.7 L430.7,1850.8 L421.5,1875.8 L412.0,1900.9 L402.3,1925.9 L392.1,1950.7 L381.7,1975.2 L371.0,1999.7 L360.2,2024.3 L349.8,2047.8 L339.7,2071.2 L328.9,2096.2 L317.9,2121.7 L306.8,2147.3 L296.0,2172.4 L285.2,2197.4 L274.5,2222.1 L264.2,2245.6 L253.5,2269.7 L242.7,2293.9 L232.0,2318.2 L221.5,2343.1 L212.3,2366.4 L203.2,2390.6 L194.1,2416.5 L185.0,2442.9 L176.3,2469.2 L166.2,2499.7 L154.4,2535.1 L147.7,2554.6 L142.3,2570.6 L134.3,2594.0 L124.8,2621.2 L116.2,2646.1 L107.2,2671.8" stroke="#3b82f6" stroke-width="2" fill="none"/>
<path d="M992.8,107.6 L985.0,133.2 L977.1,158.8 L969.3,184.3 L961.5,209.9 L953.8,235.5 L946.0,261.1 L938.3,286.7 L930.5,312.3 L922.8,337.9 L915.0,363.5 L907.2,389.2 L899.5,414.8 L891.7,440.5 L883.9,466.1 L876.1,491.8 L868.4,517.4 L860.6,543.1 L852.8,568.7 L845.1,594.3 L837.4,620.0 L829.8,645.7 L822.1,671.3 L814.4,697.0 L806.6,722.6 L798.7,748.0 L790.6,773.5 L782.1,798.9 L773.4,824.1 L764.6,849.4 L755.9,874.7 L747.2,900.0 L738.5,925.2 L729.8,950.5 L721.2,975.7 L712.5,1001.1 L703.8,1026.5 L695.2,1051.8 L686.5,1077.2 L677.9,1102.6 L669.2,1127.9 L660.6,1153.1 L651.9,1178.4 L643.3,1203.7 L634.6,1229.0 L626.0,1254.3 L617.3,1279.6 L608.6,1304.9 L600.0,1330.2 L591.5,1355.5 L582.9,1380.9 L574.5,1406.3 L565.9,1431.7 L557.4,1457.0 L548.8,1482.4 L540.0,1507.7 L531.2,1532.9 L522.1,1558.1 L513.0,1583.2 L503.8,1608.3 L494.5,1633.4 L485.3,1658.5 L476.1,1683.6 L467.0,1708.8 L458.1,1734.1 L449.2,1759.4 L440.4,1784.7 L431.5,1810.0 L422.5,1835.2 L413.3,1860.4 L403.9,1885.5 L394.3,1910.5 L384.5,1935.4 L374.6,1960.3 L364.6,1985.1 L354.5,2009.9 L344.3,2034.7 L334.1,2059.4 L323.7,2084.1 L313.1,2108.7 L302.5,2133.3 L291.9,2157.8 L281.3,2182.4 L270.7,2206.9 L260.1,2231.5 L249.5,2256.1 L238.8,2280.6 L228.1,2305.2 L217.5,2329.8 L207.2,2354.5 L197.3,2379.3 L188.0,2404.3 L179.4,2429.6 L171.0,2455.0 L162.4,2480.4 L154.0,2505.8 L145.6,2531.2" stroke="#22c55e" stroke-width="2" fill="none"/>
<path d="M938.2,299.0 L930.4,324.6 L922.5,350.2 L914.7,375.7 L906.8,401.2 L899.0,426.8 L891.1,452.4 L883.1,478.3 L875.1,504.5 L867.0,530.8 L858.9,557.0 L851.1,582.6 L843.5,607.3 L834.5,636.4 L825.8,664.5 L818.6,687.9 L811.8,710.1 L803.9,735.8 L795.4,763.1 L788.3,786.3 L781.2,809.2 L773.8,833.5 L765.0,862.0 L758.1,884.8 L750.6,909.6 L742.7,935.8 L734.6,962.7 L726.3,989.8 L717.9,1017.0 L709.4,1043.9 L701.5,1068.0 L693.2,1092.6 L684.5,1117.8 L675.2,1144.2 L661.1,1184.2 L652.1,1209.8 L649.3,1217.8 L644.5,1231.8 L635.9,1256.6 L625.0,1288.1 L613.9,1320.0 L604.8,1346.5 L596.3,1371.0 L587.8,1395.7 L579.2,1420.7 L570.4,1446.6 L561.4,1472.5 L552.5,1498.2 L543.5,1523.1 L534.9,1546.8 L525.4,1572.1 L516.0,1597.0 L506.5,1621.8 L497.1,1646.7 L487.6,1671.7 L478.2,1696.8 L468.7,1721.9 L459.3,1747.0 L449.8,1772.1 L440.4,1797.2 L431.0,1822.4 L421.8,1847.5 L412.5,1872.5 L403.1,1897.5 L393.4,1922.4 L383.3,1947.0 L373.0,1971.5 L362.3,1995.9 L351.5,2020.5 L341.1,2044.0 L331.0,2067.4 L320.1,2092.5 L309.1,2118.0 L298.1,2143.5 L287.2,2168.6 L276.5,2193.6 L265.8,2218.3 L255.5,2241.7 L244.8,2265.8 L234.0,2290.0 L223.3,2314.5 L212.7,2339.5 L203.4,2362.9 L194.3,2387.4 L185.1,2413.3 L176.0,2439.9 L167.2,2466.3 L157.2,2496.7 L145.4,2532.0 L138.7,2551.6 L133.3,2567.5 L125.3,2590.9 L115.9,2618.0 L107.2,2643.0 L98.2,2668.7" stroke="#eab308" stroke-width="1.6" stroke-dasharray="8 5" fill="none"/>
<path d="M926.3,295.3 L918.4,321.0 L910.6,346.5 L902.8,372.0 L894.9,397.6 L887.1,423.1 L879.2,448.7 L871.2,474.7 L863.2,500.9 L855.1,527.2 L847.0,553.3 L839.2,578.9 L831.5,603.7 L822.6,632.7 L813.9,660.8 L806.7,684.3 L799.9,706.4 L792.0,732.1 L783.5,759.5 L776.4,782.6 L769.3,805.6 L761.9,829.8 L753.1,858.4 L746.1,881.2 L738.7,906.0 L730.8,932.2 L722.7,959.1 L714.4,986.1 L706.0,1013.3 L697.5,1040.1 L689.7,1064.0 L681.4,1088.5 L672.7,1113.7 L663.5,1140.1 L649.4,1180.0 L640.3,1205.7 L637.6,1213.7 L632.7,1227.7 L624.1,1252.5 L613.2,1284.1 L602.1,1316.0 L593.0,1342.4 L584.5,1367.0 L576.0,1391.7 L567.4,1416.7 L558.6,1442.5 L549.6,1468.5 L540.7,1494.0 L531.8,1518.9 L523.2,1542.5 L513.8,1567.7 L504.3,1592.5 L494.9,1617.3 L485.4,1642.3 L475.9,1667.4 L466.5,1692.4 L457.1,1717.5 L447.6,1742.6 L438.2,1767.7 L428.7,1792.8 L419.3,1818.1 L410.1,1843.2 L400.9,1868.2 L391.5,1893.0 L381.8,1917.7 L371.8,1942.2 L361.5,1966.5 L350.9,1990.9 L340.1,2015.4 L329.7,2039.0 L319.5,2062.4 L308.7,2087.5 L297.7,2113.0 L286.7,2138.6 L275.8,2163.7 L265.0,2188.7 L254.4,2213.3 L244.1,2236.7 L233.4,2260.7 L222.6,2285.0 L211.8,2309.6 L201.2,2334.8 L191.8,2358.5 L182.6,2383.2 L173.3,2409.2 L164.2,2435.9 L155.4,2462.3 L145.3,2492.8 L133.6,2528.0 L127.0,2547.5 L121.5,2563.5 L113.5,2586.8 L104.1,2614.0 L95.4,2638.9 L86.5,2664.6" stroke="#e2e8f0" stroke-width="1.2" fill="none"/>
<circle cx="924.6" cy="294.8" r="1.6" fill="#f97316"/>
<circle cx="916.8" cy="320.5" r="1.6" fill="#f97316"/>
<circle cx="908.9" cy="346.0" r="1.6" fill="#f97316"/>
<circle cx="901.1" cy="371.5" r="1.6" fill="#f97316"/>
<circle cx="893.2" cy="397.1" r="1.6" fill="#f97316"/>
<circle cx="885.4" cy="422.6" r="1.6" fill="#f97316"/>
<circle cx="877.5" cy="448.2" r="1.6" fill="#f97316"/>
<circle cx="869.5" cy="474.2" r="1.6" fill="#f97316"/>
<circle cx="861.5" cy="500.3" r="1.6" fill="#f97316"/>
<circle cx="853.4" cy="526.7" r="1.6" fill="#f97316"/>
<circle cx="328.1" cy="2038.3" r="1.6" fill="#f97316"/>
<circle cx="317.9" cy="2061.7" r="1.6" fill="#f97316"/>
<circle cx="307.1" cy="2086.8" r="1.6" fill="#f97316"/>
<circle cx="296.1" cy="2112.3" r="1.6" fill="#f97316"/>
<circle cx="285.0" cy="2137.9" r="1.6" fill="#f97316"/>
<circle cx="274.2" cy="2163.0" r="1.6" fill="#f97316"/>
<circle cx="263.4" cy="2188.0" r="1.6" fill="#f97316"/>
<circle cx="252.7" cy="2212.6" r="1.6" fill="#f97316"/>
<circle cx="242.5" cy="2236.0" r="1.6" fill="#f97316"/>
<circle cx="231.8" cy="2260.0" r="1.6" fill="#f97316"/>
<circle cx="221.0" cy="2284.2" r="1.6" fill="#f97316"/>
<circle cx="210.2" cy="2308.9" r="1.6" fill="#f97316"/>
<circle cx="199.6" cy="2334.1" r="1.6" fill="#f97316"/>
<circle cx="190.1" cy="2357.8" r="1.6" fill="#f97316"/>
<circle cx="180.9" cy="2382.5" r="1.6" fill="#f97316"/>
<circle cx="171.6" cy="2408.7" r="1.6" fill="#f97316"/>
<circle cx="162.5" cy="2435.4" r="1.6" fill="#f97316"/>
<circle cx="153.7" cy="2461.8" r="1.6" fill="#f97316"/>
<circle cx="143.7" cy="2492.3" r="1.6" fill="#f97316"/>
<circle cx="132.0" cy="2527.5" r="1.6" fill="#f97316"/>
<circle cx="125.3" cy="2546.9" r="1.6" fill="#f97316"/>
<circle cx="119.8" cy="2562.9" r="1.6" fill="#f97316"/>
<circle cx="111.8" cy="2586.2" r="1.6" fill="#f97316"/>
<circle cx="102.4" cy="2613.4" r="1.6" fill="#f97316"/>
<circle cx="93.7" cy="2638.3" r="1.6" fill="#f97316"/>
<circle cx="84.8" cy="2664.0" r="1.6" fill="#f97316"/>
<circle cx="970.0" cy="308.7" r="1.6" fill="#f97316"/>
<circle cx="962.2" cy="334.4" r="1.6" fill="#f97316"/>
<circle cx="954.3" cy="359.9" r="1.6" fill="#f97316"/>
<circle cx="946.5" cy="385.5" r="1.6" fill="#f97316"/>
<circle cx="938.6" cy="411.0" r="1.6" fill="#f97316"/>
<circle cx="930.8" cy="436.6" r="1.6" fill="#f97316"/>
<circle cx="922.9" cy="462.1" r="1.6" fill="#f97316"/>
<circle cx="914.9" cy="488.1" r="1.6" fill="#f97316"/>
<circle cx="906.9" cy="514.3" r="1.6" fill="#f97316"/>
<circle cx="898.8" cy="540.6" r="1.6" fill="#f97316"/>
<circle cx="890.7" cy="566.7" r="1.6" fill="#f97316"/>
<circle cx="882.9" cy="592.4" r="1.6" fill="#f97316"/>
<circle cx="875.2" cy="617.1" r="1.6" fill="#f97316"/>
<circle cx="866.3" cy="646.2" r="1.6" fill="#f97316"/>
<circle cx="857.6" cy="674.3" r="1.6" fill="#f97316"/>
<circle cx="850.4" cy="697.7" r="1.6" fill="#f97316"/>
<circle cx="843.6" cy="719.9" r="1.6" fill="#f97316"/>
<circle cx="835.7" cy="745.6" r="1.6" fill="#f97316"/>
<circle cx="827.2" cy="772.9" r="1.6" fill="#f97316"/>
<circle cx="820.1" cy="796.1" r="1.6" fill="#f97316"/>
<circle cx="813.0" cy="819.0" r="1.6" fill="#f97316"/>
<circle cx="805.6" cy="843.2" r="1.6" fill="#f97316"/>
<circle cx="796.8" cy="871.8" r="1.6" fill="#f97316"/>
<circle cx="789.9" cy="894.4" r="1.6" fill="#f97316"/>
<circle cx="782.5" cy="919.2" r="1.6" fill="#f97316"/>
<circle cx="774.6" cy="945.4" r="1.6" fill="#f97316"/>
<circle cx="766.4" cy="972.4" r="1.6" fill="#f97316"/>
<circle cx="758.1" cy="999.5" r="1.6" fill="#f97316"/>
<circle cx="749.6" cy="1027.0" r="1.6" fill="#f97316"/>
<circle cx="741.0" cy="1054.1" r="1.6" fill="#f97316"/>
<circle cx="733.0" cy="1078.5" r="1.6" fill="#f97316"/>
<circle cx="724.6" cy="1103.3" r="1.6" fill="#f97316"/>
<circle cx="715.9" cy="1128.7" r="1.6" fill="#f97316"/>
<circle cx="706.6" cy="1155.2" r="1.6" fill="#f97316"/>
<circle cx="692.5" cy="1195.3" r="1.6" fill="#f97316"/>
<circle cx="683.5" cy="1220.8" r="1.6" fill="#f97316"/>
<circle cx="680.7" cy="1228.7" r="1.6" fill="#f97316"/>
<circle cx="675.9" cy="1242.7" r="1.6" fill="#f97316"/>
<circle cx="667.3" cy="1267.4" r="1.6" fill="#f97316"/>
<circle cx="656.4" cy="1299.0" r="1.6" fill="#f97316"/>
<circle cx="645.4" cy="1330.9" r="1.6" fill="#f97316"/>
<circle cx="636.2" cy="1357.4" r="1.6" fill="#f97316"/>
<circle cx="627.7" cy="1381.9" r="1.6" fill="#f97316"/>
<circle cx="619.2" cy="1406.5" r="1.6" fill="#f97316"/>
<circle cx="610.7" cy="1431.5" r="1.6" fill="#f97316"/>
<circle cx="601.8" cy="1457.4" r="1.6" fill="#f97316"/>
<circle cx="592.8" cy="1483.5" r="1.6" fill="#f97316"/>
<circle cx="583.8" cy="1509.2" r="1.6" fill="#f97316"/>
<circle cx="574.8" cy="1534.4" r="1.6" fill="#f97316"/>
<circle cx="566.1" cy="1558.4" r="1.6" fill="#f97316"/>
<circle cx="556.6" cy="1583.8" r="1.6" fill="#f97316"/>
<circle cx="547.1" cy="1608.8" r="1.6" fill="#f97316"/>
<circle cx="537.6" cy="1633.6" r="1.6" fill="#f97316"/>
<circle cx="528.2" cy="1658.4" r="1.6" fill="#f97316"/>
<circle cx="518.7" cy="1683.5" r="1.6" fill="#f97316"/>
<circle cx="509.3" cy="1708.6" r="1.6" fill="#f97316"/>
<circle cx="499.8" cy="1733.6" r="1.6" fill="#f97316"/>
<circle cx="490.4" cy="1758.7" r="1.6" fill="#f97316"/>
<circle cx="481.0" cy="1783.8" r="1.6" fill="#f97316"/>
<circle cx="471.5" cy="1808.9" r="1.6" fill="#f97316"/>
<circle cx="462.2" cy="1833.9" r="1.6" fill="#f97316"/>
<circle cx="453.0" cy="1859.0" r="1.6" fill="#f97316"/>
<circle cx="443.7" cy="1884.1" r="1.6" fill="#f97316"/>
<circle cx="434.2" cy="1909.4" r="1.6" fill="#f97316"/>
<circle cx="424.3" cy="1934.7" r="1.6" fill="#f97316"/>
<circle cx="414.0" cy="1959.8" r="1.6" fill="#f97316"/>
<circle cx="403.5" cy="1984.6" r="1.6" fill="#f97316"/>
<circle cx="392.8" cy="2009.2" r="1.6" fill="#f97316"/>
<circle cx="381.9" cy="2033.9" r="1.6" fill="#f97316"/>
<circle cx="371.6" cy="2057.4" r="1.6" fill="#f97316"/>
<circle cx="361.5" cy="2080.6" r="1.6" fill="#f97316"/>
<circle cx="350.7" cy="2105.7" r="1.6" fill="#f97316"/>
<circle cx="339.7" cy="2131.1" r="1.6" fill="#f97316"/>
<circle cx="328.6" cy="2156.7" r="1.6" fill="#f97316"/>
<circle cx="317.8" cy="2181.8" r="1.6" fill="#f97316"/>
<circle cx="307.0" cy="2206.8" r="1.6" fill="#f97316"/>
<circle cx="296.3" cy="2231.5" r="1.6" fill="#f97316"/>
<circle cx="285.9" cy="2255.2" r="1.6" fill="#f97316"/>
<circle cx="275.2" cy="2279.4" r="1.6" fill="#f97316"/>
<circle cx="264.4" cy="2303.5" r="1.6" fill="#f97316"/>
<circle cx="253.8" cy="2327.6" r="1.6" fill="#f97316"/>
<circle cx="243.5" cy="2352.1" r="1.6" fill="#f97316"/>
<circle cx="234.4" cy="2374.9" r="1.6" fill="#f97316"/>
<circle cx="225.5" cy="2398.7" r="1.6" fill="#f97316"/>
<circle cx="216.5" cy="2424.2" r="1.6" fill="#f97316"/>
<circle cx="207.5" cy="2450.5" r="1.6" fill="#f97316"/>
<circle cx="198.8" cy="2476.7" r="1.6" fill="#f97316"/>
<circle cx="188.8" cy="2507.1" r="1.6" fill="#f97316"/>
<circle cx="176.9" cy="2542.7" r="1.6" fill="#f97316"/>
<circle cx="170.2" cy="2562.3" r="1.6" fill="#f97316"/>
<circle cx="164.7" cy="2578.3" r="1.6" fill="#f97316"/>
<circle cx="156.7" cy="2601.7" r="1.6" fill="#f97316"/>
<circle cx="147.3" cy="2629.0" r="1.6" fill="#f97316"/>
<circle cx="138.6" cy="2653.9" r="1.6" fill="#f97316"/>
<circle cx="129.6" cy="2679.6" r="1.6" fill="#f97316"/>
<circle cx="973.3" cy="213.5" r="1.6" fill="#f43f5e"/>
<circle cx="965.6" cy="239.1" r="1.6" fill="#f43f5e"/>
<circle cx="957.8" cy="264.7" r="1.6" fill="#f43f5e"/>
<circle cx="950.1" cy="290.3" r="1.6" fill="#f43f5e"/>
<circle cx="942.4" cy="315.9" r="1.6" fill="#f43f5e"/>
<circle cx="934.6" cy="341.5" r="1.6" fill="#f43f5e"/>
<circle cx="926.8" cy="367.1" r="1.6" fill="#f43f5e"/>
<circle cx="919.1" cy="392.8" r="1.6" fill="#f43f5e"/>
<circle cx="911.3" cy="418.4" r="1.6" fill="#f43f5e"/>
<circle cx="903.5" cy="444.1" r="1.6" fill="#f43f5e"/>
<circle cx="895.7" cy="469.7" r="1.6" fill="#f43f5e"/>
<circle cx="888.0" cy="495.4" r="1.6" fill="#f43f5e"/>
<circle cx="880.2" cy="521.0" r="1.6" fill="#f43f5e"/>
<circle cx="941.9" cy="231.9" r="1.6" fill="#f43f5e"/>
<circle cx="934.2" cy="257.5" r="1.6" fill="#f43f5e"/>
<circle cx="926.4" cy="283.1" r="1.6" fill="#f43f5e"/>
<circle cx="918.7" cy="308.7" r="1.6" fill="#f43f5e"/>
<circle cx="911.0" cy="334.3" r="1.6" fill="#f43f5e"/>
<circle cx="903.2" cy="360.0" r="1.6" fill="#f43f5e"/>
<circle cx="895.4" cy="385.6" r="1.6" fill="#f43f5e"/>
<circle cx="887.6" cy="411.2" r="1.6" fill="#f43f5e"/>
<circle cx="879.9" cy="436.9" r="1.6" fill="#f43f5e"/>
<circle cx="872.1" cy="462.5" r="1.6" fill="#f43f5e"/>
<circle cx="864.3" cy="488.2" r="1.6" fill="#f43f5e"/>
<circle cx="856.5" cy="513.8" r="1.6" fill="#f43f5e"/>
<circle cx="692.1" cy="1022.5" r="1.6" fill="#f43f5e"/>
<circle cx="683.5" cy="1047.8" r="1.6" fill="#f43f5e"/>
<circle cx="674.8" cy="1073.2" r="1.6" fill="#f43f5e"/>
<circle cx="666.2" cy="1098.6" r="1.6" fill="#f43f5e"/>
<circle cx="657.5" cy="1123.9" r="1.6" fill="#f43f5e"/>
<circle cx="648.9" cy="1149.1" r="1.6" fill="#f43f5e"/>
<circle cx="640.2" cy="1174.4" r="1.6" fill="#f43f5e"/>
<text x="12" y="20" fill="#cbd5e1" font-size="14">right-merge-r1_3-ramp_12 — blue=host, green=branch, yellow-dash=outer lane centre (merge target), white=host edge line, orange/red=rail present</text>
</svg>