<svg xmlns="http://www.w3.org/2000/svg" width="1100" height="1510" viewBox="0 0 1100 1510" style="background:#0b0d12">
<polygon points="79.0,1398.2 90.3,1375.4 101.5,1353.1 112.6,1330.8 122.4,1311.1 130.2,1295.5 141.3,1273.2 154.6,1246.5 168.9,1217.9 180.3,1195.0 191.6,1172.2 202.9,1149.6 214.0,1127.4 224.9,1105.4 236.6,1082.0 249.1,1056.9 261.6,1031.8 273.7,1007.6 284.9,985.1 294.7,965.4 306.7,941.3 314.3,926.1 318.8,917.1 333.6,887.4 348.8,857.0 359.9,834.7 371.2,811.9 382.5,789.4 393.6,767.1 405.3,743.7 416.5,721.3 427.8,698.6 439.2,675.8 450.6,653.1 461.7,630.6 473.4,607.0 484.8,584.2 496.1,561.7 507.3,539.4 518.3,517.6 530.6,492.3 543.0,465.5 551.9,444.4 559.0,426.9 567.1,405.1 574.3,382.7 580.5,359.1 585.7,335.4 589.6,311.9 591.9,288.6 592.4,265.0 591.4,241.6 588.5,218.3 583.3,196.4 576.0,175.0 566.4,154.1 554.9,135.3 541.3,118.3 577.5,85.3 595.0,107.2 609.7,131.3 621.4,156.9 630.3,182.7 636.7,209.8 640.2,237.6 641.4,264.6 640.8,291.3 638.2,318.4 633.8,344.8 628.1,370.6 621.3,396.4 613.3,421.3 604.5,444.8 597.2,463.1 587.7,485.3 574.8,513.4 562.1,539.4 551.1,561.4 539.8,583.7 528.5,606.1 517.3,628.7 505.6,652.4 494.4,674.9 483.0,697.7 471.6,720.5 460.3,743.2 449.1,765.6 437.4,788.9 426.3,811.2 415.0,833.8 403.7,856.6 392.6,878.8 377.4,909.2 362.6,938.9 358.1,947.9 350.6,963.1 338.6,987.2 328.7,1007.0 317.5,1029.4 305.4,1053.6 292.9,1078.7 280.4,1103.8 268.7,1127.3 257.8,1149.2 246.7,1171.4 235.4,1194.1 224.1,1216.8 212.7,1239.7 198.4,1268.3 185.1,1295.1 174.0,1317.4 166.2,1332.9 156.4,1352.6 145.3,1374.9 134.1,1397.3 122.8,1420.0" fill="#3b82f6" fill-opacity="0.25"/>
<polygon points="142.9,1273.9 154.2,1251.3 165.4,1228.8 176.7,1206.2 187.9,1183.6 199.2,1161.0 210.4,1138.5 221.7,1116.0 232.9,1093.4 244.1,1070.8 255.3,1048.2 266.6,1025.6 277.9,1003.0 289.2,980.4 300.6,957.9 312.0,935.4 323.3,912.9 334.7,890.3 346.3,867.7 358.0,845.2 370.0,822.7 382.2,800.4 394.5,778.3 407.0,756.2 419.6,734.2 432.5,712.2 445.6,690.4 459.0,668.7 472.7,647.1 486.6,625.8 500.7,604.6 515.1,583.6 529.7,562.7 544.5,542.0 559.7,521.4 575.2,500.9 591.2,480.8 607.6,461.1 624.3,441.9 641.0,422.9 657.4,404.1 673.4,385.3 688.6,366.3 703.0,346.7 717.2,326.3 731.5,305.4 746.4,284.4 762.6,263.4 780.7,243.1 800.5,224.7 821.3,207.9 843.5,192.6 866.9,179.0 891.8,167.4 918.4,158.6 945.6,153.2 973.1,150.8 1000.0,151.0 998.2,196.3 974.6,196.2 952.0,198.2 929.8,202.6 908.7,209.6 888.0,219.2 867.8,230.9 848.5,244.3 830.1,259.1 813.0,275.0 797.7,292.1 783.1,311.2 768.9,331.3 754.7,352.0 740.1,372.9 724.6,393.9 708.3,414.2 691.8,433.8 675.1,452.9 658.5,471.8 642.2,490.6 626.3,509.5 611.2,528.6 596.1,548.6 581.3,568.7 566.8,588.9 552.4,609.4 538.4,630.0 524.5,650.8 510.8,671.7 497.5,692.8 484.4,714.0 471.6,735.4 458.9,756.9 446.5,778.6 434.1,800.5 422.0,822.4 409.9,844.3 398.2,866.4 386.6,888.6 375.2,910.9 363.8,933.3 352.5,955.8 341.1,978.4 329.8,1000.8 318.5,1023.3 307.2,1045.8 296.0,1068.4 284.8,1091.0 273.5,1113.6 262.3,1136.2 251.0,1158.8 239.8,1181.3 228.6,1203.9 217.3,1226.4 206.1,1249.0 194.8,1271.6 183.6,1294.1" fill="#22c55e" fill-opacity="0.25"/>
<path d="M100.9,1409.1 L112.2,1386.4 L123.4,1364.0 L134.5,1341.7 L144.3,1322.0 L152.1,1306.4 L163.2,1284.2 L176.5,1257.4 L190.8,1228.8 L202.2,1205.9 L213.5,1183.2 L224.8,1160.5 L235.9,1138.3 L246.8,1116.3 L258.5,1092.9 L271.0,1067.8 L283.5,1042.7 L295.6,1018.5 L306.8,996.1 L316.7,976.3 L328.7,952.2 L336.2,937.0 L340.7,928.0 L355.5,898.3 L370.7,867.9 L381.8,845.7 L393.1,822.9 L404.4,800.3 L415.5,778.0 L427.2,754.6 L438.4,732.2 L449.7,709.5 L461.1,686.7 L472.5,664.0 L483.6,641.5 L495.4,617.8 L506.6,595.1 L517.9,572.7 L529.2,550.4 L540.2,528.5 L552.7,502.8 L565.3,475.4 L574.5,453.7 L581.7,435.9 L590.2,413.2 L597.8,389.5 L604.3,364.8 L609.7,340.1 L613.9,315.2 L616.4,289.9 L616.9,264.8 L615.8,239.6 L612.6,214.1 L606.8,189.6 L598.7,165.9 L588.0,142.7 L575.0,121.3 L559.4,101.8" stroke="#3b82f6" stroke-width="2" fill="none"/>
<path d="M163.3,1284.0 L174.5,1261.4 L185.8,1238.9 L197.0,1216.3 L208.2,1193.8 L219.5,1171.2 L230.7,1148.7 L242.0,1126.1 L253.2,1103.5 L264.4,1080.9 L275.6,1058.3 L286.9,1035.7 L298.2,1013.1 L309.5,990.6 L320.9,968.1 L332.2,945.6 L343.6,923.1 L355.0,900.6 L366.5,878.2 L378.1,855.8 L390.0,833.5 L402.1,811.4 L414.3,789.4 L426.7,767.4 L439.3,745.5 L452.0,723.8 L465.0,702.2 L478.2,680.7 L491.8,659.4 L505.5,638.3 L519.5,617.3 L533.8,596.5 L548.2,575.8 L562.9,555.3 L577.9,535.0 L593.2,514.7 L608.7,495.2 L624.9,475.9 L641.4,456.8 L658.0,437.9 L674.6,419.0 L690.9,399.7 L706.6,380.1 L721.5,359.8 L735.9,339.1 L750.2,318.3 L764.8,297.8 L780.1,277.8 L796.8,259.0 L815.3,241.9 L834.9,226.1 L855.6,211.8 L877.4,199.1 L900.2,188.5 L924.1,180.6 L948.8,175.7 L973.8,173.5 L999.1,173.6" stroke="#22c55e" stroke-width="2" fill="none"/>
<path d="M108.9,1413.1 L120.3,1390.4 L131.4,1368.0 L142.5,1345.7 L152.4,1326.0 L160.1,1310.4 L171.2,1288.2 L184.6,1261.4 L198.8,1232.8 L210.2,1209.9 L221.5,1187.1 L232.8,1164.5 L243.9,1142.3 L254.9,1120.3 L266.5,1096.9 L279.0,1071.8 L291.6,1046.7 L303.6,1022.5 L314.8,1000.1 L324.7,980.3 L336.7,956.2 L344.2,941.0 L348.7,932.0 L363.5,902.3 L378.7,871.9 L389.8,849.7 L401.1,826.9 L412.4,804.3 L423.5,782.0 L435.2,758.6 L446.4,736.3 L457.7,713.6 L469.1,690.7 L480.5,668.0 L491.7,645.5 L503.4,621.8 L514.6,599.1 L525.9,576.7 L537.2,554.4 L548.2,532.5 L560.8,506.7 L573.5,479.0 L582.8,457.1 L590.1,439.2 L598.7,416.2 L606.4,392.0 L613.0,366.9 L618.5,341.8 L622.8,316.4 L625.3,290.4 L625.9,264.7 L624.7,238.9 L621.4,212.5 L615.4,187.0 L607.0,162.6 L595.9,138.5 L582.3,116.1 L566.0,95.8" stroke="#eab308" stroke-width="1.6" stroke-dasharray="8 5" fill="none"/>
<path d="M119.4,1418.3 L130.8,1395.6 L141.9,1373.2 L153.0,1350.9 L162.9,1331.2 L170.6,1315.7 L181.7,1293.4 L195.1,1266.6 L209.3,1238.0 L220.7,1215.1 L232.0,1192.4 L243.3,1169.7 L254.4,1147.5 L265.4,1125.6 L277.0,1102.1 L289.5,1077.0 L302.1,1052.0 L314.1,1027.7 L325.3,1005.3 L335.2,985.5 L347.2,961.4 L354.7,946.2 L359.2,937.2 L374.0,907.5 L389.2,877.1 L400.3,854.9 L411.6,832.1 L422.9,809.5 L434.0,787.2 L445.7,763.9 L456.9,741.5 L468.2,718.8 L479.6,696.0 L491.0,673.2 L502.2,650.7 L513.9,627.0 L525.1,604.4 L536.4,582.0 L547.7,559.7 L558.7,537.7 L571.4,511.8 L584.3,483.7 L593.7,461.6 L601.0,443.5 L609.7,420.0 L617.7,395.3 L624.4,369.7 L630.0,344.1 L634.4,317.9 L637.0,291.1 L637.6,264.6 L636.4,237.9 L633.0,210.5 L626.7,183.8 L617.9,158.3 L606.3,133.0 L591.9,109.4 L574.7,87.9" stroke="#e2e8f0" stroke-width="1.2" fill="none"/>
<circle cx="120.9" cy="1419.1" r="1.6" fill="#f97316"/>
<circle cx="132.3" cy="1396.3" r="1.6" fill="#f97316"/>
<circle cx="143.4" cy="1374.0" r="1.6" fill="#f97316"/>
<circle cx="154.5" cy="1351.7" r="1.6" fill="#f97316"/>
<circle cx="164.3" cy="1331.9" r="1.6" fill="#f97316"/>
<circle cx="172.1" cy="1316.4" r="1.6" fill="#f97316"/>
<circle cx="183.2" cy="1294.1" r="1.6" fill="#f97316"/>
<circle cx="196.5" cy="1267.4" r="1.6" fill="#f97316"/>
<circle cx="210.8" cy="1238.7" r="1.6" fill="#f97316"/>
<circle cx="222.2" cy="1215.9" r="1.6" fill="#f97316"/>
<circle cx="233.5" cy="1193.1" r="1.6" fill="#f97316"/>
<circle cx="244.8" cy="1170.5" r="1.6" fill="#f97316"/>
<circle cx="255.9" cy="1148.3" r="1.6" fill="#f97316"/>
<circle cx="266.8" cy="1126.3" r="1.6" fill="#f97316"/>
<circle cx="278.5" cy="1102.9" r="1.6" fill="#f97316"/>
<circle cx="291.0" cy="1077.8" r="1.6" fill="#f97316"/>
<circle cx="303.5" cy="1052.7" r="1.6" fill="#f97316"/>
<circle cx="315.6" cy="1028.5" r="1.6" fill="#f97316"/>
<circle cx="326.8" cy="1006.0" r="1.6" fill="#f97316"/>
<circle cx="336.7" cy="986.3" r="1.6" fill="#f97316"/>
<circle cx="348.7" cy="962.2" r="1.6" fill="#f97316"/>
<circle cx="356.2" cy="947.0" r="1.6" fill="#f97316"/>
<circle cx="360.7" cy="938.0" r="1.6" fill="#f97316"/>
<circle cx="375.5" cy="908.3" r="1.6" fill="#f97316"/>
<circle cx="585.8" cy="484.4" r="1.6" fill="#f97316"/>
<circle cx="595.2" cy="462.3" r="1.6" fill="#f97316"/>
<circle cx="602.5" cy="444.1" r="1.6" fill="#f97316"/>
<circle cx="611.3" cy="420.6" r="1.6" fill="#f97316"/>
<circle cx="619.3" cy="395.8" r="1.6" fill="#f97316"/>
<circle cx="626.0" cy="370.1" r="1.6" fill="#f97316"/>
<circle cx="631.7" cy="344.4" r="1.6" fill="#f97316"/>
<circle cx="636.1" cy="318.1" r="1.6" fill="#f97316"/>
<circle cx="638.7" cy="291.2" r="1.6" fill="#f97316"/>
<circle cx="639.2" cy="264.6" r="1.6" fill="#f97316"/>
<circle cx="638.1" cy="237.8" r="1.6" fill="#f97316"/>
<circle cx="634.6" cy="210.2" r="1.6" fill="#f97316"/>
<circle cx="628.3" cy="183.3" r="1.6" fill="#f97316"/>
<circle cx="619.5" cy="157.6" r="1.6" fill="#f97316"/>
<circle cx="607.8" cy="132.3" r="1.6" fill="#f97316"/>
<circle cx="593.3" cy="108.4" r="1.6" fill="#f97316"/>
<circle cx="575.9" cy="86.8" r="1.6" fill="#f97316"/>
<circle cx="80.9" cy="1399.1" r="1.6" fill="#f97316"/>
<circle cx="92.2" cy="1376.4" r="1.6" fill="#f97316"/>
<circle cx="103.4" cy="1354.0" r="1.6" fill="#f97316"/>
<circle cx="114.5" cy="1331.7" r="1.6" fill="#f97316"/>
<circle cx="124.3" cy="1312.0" r="1.6" fill="#f97316"/>
<circle cx="132.1" cy="1296.5" r="1.6" fill="#f97316"/>
<circle cx="143.2" cy="1274.2" r="1.6" fill="#f97316"/>
<circle cx="156.5" cy="1247.4" r="1.6" fill="#f97316"/>
<circle cx="170.8" cy="1218.8" r="1.6" fill="#f97316"/>
<circle cx="182.2" cy="1195.9" r="1.6" fill="#f97316"/>
<circle cx="193.5" cy="1173.2" r="1.6" fill="#f97316"/>
<circle cx="204.8" cy="1150.5" r="1.6" fill="#f97316"/>
<circle cx="215.9" cy="1128.3" r="1.6" fill="#f97316"/>
<circle cx="226.8" cy="1106.4" r="1.6" fill="#f97316"/>
<circle cx="238.5" cy="1082.9" r="1.6" fill="#f97316"/>
<circle cx="251.0" cy="1057.8" r="1.6" fill="#f97316"/>
<circle cx="263.5" cy="1032.7" r="1.6" fill="#f97316"/>
<circle cx="275.6" cy="1008.5" r="1.6" fill="#f97316"/>
<circle cx="286.8" cy="986.1" r="1.6" fill="#f97316"/>
<circle cx="296.6" cy="966.3" r="1.6" fill="#f97316"/>
<circle cx="308.6" cy="942.2" r="1.6" fill="#f97316"/>
<circle cx="316.2" cy="927.1" r="1.6" fill="#f97316"/>
<circle cx="320.7" cy="918.1" r="1.6" fill="#f97316"/>
<circle cx="335.5" cy="888.3" r="1.6" fill="#f97316"/>
<circle cx="350.7" cy="857.9" r="1.6" fill="#f97316"/>
<circle cx="361.8" cy="835.7" r="1.6" fill="#f97316"/>
<circle cx="373.1" cy="812.9" r="1.6" fill="#f97316"/>
<circle cx="384.4" cy="790.3" r="1.6" fill="#f97316"/>
<circle cx="395.5" cy="768.0" r="1.6" fill="#f97316"/>
<circle cx="407.2" cy="744.6" r="1.6" fill="#f97316"/>
<circle cx="418.4" cy="722.2" r="1.6" fill="#f97316"/>
<circle cx="429.7" cy="699.6" r="1.6" fill="#f97316"/>
<circle cx="441.1" cy="676.8" r="1.6" fill="#f97316"/>
<circle cx="452.5" cy="654.0" r="1.6" fill="#f97316"/>
<circle cx="463.6" cy="631.6" r="1.6" fill="#f97316"/>
<circle cx="475.3" cy="607.9" r="1.6" fill="#f97316"/>
<circle cx="486.7" cy="585.1" r="1.6" fill="#f97316"/>
<circle cx="498.0" cy="562.6" r="1.6" fill="#f97316"/>
<circle cx="509.2" cy="540.4" r="1.6" fill="#f97316"/>
<circle cx="520.2" cy="518.5" r="1.6" fill="#f97316"/>
<circle cx="532.5" cy="493.2" r="1.6" fill="#f97316"/>
<circle cx="544.9" cy="466.4" r="1.6" fill="#f97316"/>
<circle cx="553.9" cy="445.2" r="1.6" fill="#f97316"/>
<circle cx="560.9" cy="427.7" r="1.6" fill="#f97316"/>
<circle cx="569.1" cy="405.8" r="1.6" fill="#f97316"/>
<circle cx="576.3" cy="383.3" r="1.6" fill="#f97316"/>
<circle cx="582.6" cy="359.6" r="1.6" fill="#f97316"/>
<circle cx="587.8" cy="335.8" r="1.6" fill="#f97316"/>
<circle cx="591.7" cy="312.2" r="1.6" fill="#f97316"/>
<circle cx="594.0" cy="288.7" r="1.6" fill="#f97316"/>
<circle cx="594.5" cy="265.0" r="1.6" fill="#f97316"/>
<circle cx="593.5" cy="241.4" r="1.6" fill="#f97316"/>
<circle cx="590.6" cy="217.9" r="1.6" fill="#f97316"/>
<circle cx="585.4" cy="195.8" r="1.6" fill="#f97316"/>
<circle cx="577.9" cy="174.2" r="1.6" fill="#f97316"/>
<circle cx="568.3" cy="153.1" r="1.6" fill="#f97316"/>
<circle cx="556.7" cy="134.1" r="1.6" fill="#f97316"/>
<circle cx="542.8" cy="116.8" r="1.6" fill="#f97316"/>
<circle cx="609.3" cy="462.5" r="1.6" fill="#f43f5e"/>
<circle cx="625.9" cy="443.3" r="1.6" fill="#f43f5e"/>
<circle cx="642.6" cy="424.3" r="1.6" fill="#f43f5e"/>
<circle cx="659.0" cy="405.5" r="1.6" fill="#f43f5e"/>
<circle cx="675.0" cy="386.6" r="1.6" fill="#f43f5e"/>
<circle cx="690.3" cy="367.6" r="1.6" fill="#f43f5e"/>
<circle cx="704.8" cy="347.9" r="1.6" fill="#f43f5e"/>
<circle cx="718.9" cy="327.5" r="1.6" fill="#f43f5e"/>
<circle cx="733.3" cy="306.6" r="1.6" fill="#f43f5e"/>
<circle cx="748.1" cy="285.6" r="1.6" fill="#f43f5e"/>
<circle cx="764.2" cy="264.7" r="1.6" fill="#f43f5e"/>
<circle cx="782.2" cy="244.6" r="1.6" fill="#f43f5e"/>
<circle cx="801.8" cy="226.3" r="1.6" fill="#f43f5e"/>
<circle cx="822.6" cy="209.6" r="1.6" fill="#f43f5e"/>
<circle cx="844.6" cy="194.4" r="1.6" fill="#f43f5e"/>
<circle cx="867.8" cy="180.9" r="1.6" fill="#f43f5e"/>
<circle cx="892.6" cy="169.4" r="1.6" fill="#f43f5e"/>
<circle cx="918.9" cy="160.7" r="1.6" fill="#f43f5e"/>
<circle cx="945.9" cy="155.3" r="1.6" fill="#f43f5e"/>
<circle cx="973.1" cy="152.9" r="1.6" fill="#f43f5e"/>
<circle cx="999.9" cy="153.1" r="1.6" fill="#f43f5e"/>
<circle cx="482.6" cy="712.9" r="1.6" fill="#f43f5e"/>
<circle cx="495.7" cy="691.6" r="1.6" fill="#f43f5e"/>
<circle cx="509.1" cy="670.6" r="1.6" fill="#f43f5e"/>
<circle cx="522.7" cy="649.6" r="1.6" fill="#f43f5e"/>
<circle cx="536.6" cy="628.8" r="1.6" fill="#f43f5e"/>
<circle cx="550.7" cy="608.2" r="1.6" fill="#f43f5e"/>
<circle cx="565.0" cy="587.7" r="1.6" fill="#f43f5e"/>
<circle cx="579.6" cy="567.4" r="1.6" fill="#f43f5e"/>
<circle cx="594.4" cy="547.3" r="1.6" fill="#f43f5e"/>
<circle cx="609.5" cy="527.3" r="1.6" fill="#f43f5e"/>
<circle cx="624.7" cy="508.2" r="1.6" fill="#f43f5e"/>
<circle cx="640.5" cy="489.2" r="1.6" fill="#f43f5e"/>
<circle cx="656.9" cy="470.4" r="1.6" fill="#f43f5e"/>
<circle cx="673.5" cy="451.5" r="1.6" fill="#f43f5e"/>
<circle cx="690.2" cy="432.4" r="1.6" fill="#f43f5e"/>
<circle cx="706.7" cy="412.9" r="1.6" fill="#f43f5e"/>
<circle cx="723.0" cy="392.6" r="1.6" fill="#f43f5e"/>
<circle cx="738.3" cy="371.7" r="1.6" fill="#f43f5e"/>
<circle cx="752.9" cy="350.8" r="1.6" fill="#f43f5e"/>
<circle cx="767.1" cy="330.0" r="1.6" fill="#f43f5e"/>
<circle cx="781.4" cy="309.9" r="1.6" fill="#f43f5e"/>
<circle cx="796.1" cy="290.8" r="1.6" fill="#f43f5e"/>
<circle cx="811.5" cy="273.5" r="1.6" fill="#f43f5e"/>
<circle cx="828.8" cy="257.5" r="1.6" fill="#f43f5e"/>
<circle cx="847.3" cy="242.6" r="1.6" fill="#f43f5e"/>
<circle cx="866.7" cy="229.1" r="1.6" fill="#f43f5e"/>
<circle cx="887.0" cy="217.3" r="1.6" fill="#f43f5e"/>
<circle cx="907.9" cy="207.6" r="1.6" fill="#f43f5e"/>
<circle cx="929.3" cy="200.5" r="1.6" fill="#f43f5e"/>
<circle cx="951.7" cy="196.1" r="1.6" fill="#f43f5e"/>
<circle cx="974.5" cy="194.1" r="1.6" fill="#f43f5e"/>
<circle cx="998.3" cy="194.2" r="1.6" fill="#f43f5e"/>
<text x="12" y="20" fill="#cbd5e1" font-size="14">right-diverge-c1_0-ramp_22 — blue=host, green=branch, yellow-dash=outer lane centre (merge target), white=host edge line, orange/red=rail present</text>
</svg>