<svg xmlns="http://www.w3.org/2000/svg" width="1100" height="2779" viewBox="0 0 1100 2779" style="background:#0b0d12">
<polygon points="972.2,309.4 964.3,335.1 956.4,360.6 948.6,386.1 940.8,411.6 932.9,437.1 925.1,462.6 917.1,488.6 909.0,515.0 900.8,541.5 892.7,567.8 884.8,593.6 877.1,618.5 869.6,643.2 860.2,673.5 852.7,698.0 845.6,721.1 837.9,746.0 829.3,773.8 822.0,797.3 815.2,819.4 808.2,842.2 800.0,869.0 791.7,896.2 784.3,920.7 776.5,946.6 768.5,973.3 760.3,1000.2 752.1,1026.8 743.4,1054.2 735.3,1079.0 726.8,1104.0 718.0,1129.6 709.2,1154.6 695.2,1194.3 685.4,1222.2 682.9,1229.3 677.1,1245.9 668.9,1269.7 658.7,1299.2 647.6,1331.2 638.4,1357.8 629.9,1382.5 621.4,1407.1 612.8,1432.2 604.0,1458.0 594.9,1484.3 585.9,1510.2 576.8,1535.6 568.2,1559.1 558.7,1584.5 549.2,1609.6 539.7,1634.5 530.3,1659.3 520.8,1684.3 511.4,1709.4 502.0,1734.5 492.5,1759.5 483.1,1784.6 473.6,1809.7 464.3,1834.7 455.1,1859.8 445.8,1884.9 436.3,1910.2 426.4,1935.5 416.1,1960.7 405.6,1985.5 394.9,2010.1 384.1,2034.8 373.6,2058.6 363.5,2081.7 352.8,2106.6 341.8,2131.9 330.8,2157.5 319.9,2182.7 309.1,2207.8 298.4,2232.6 287.9,2256.4 277.2,2280.3 266.5,2304.4 255.9,2328.5 245.7,2352.9 236.3,2376.4 227.4,2400.1 218.5,2425.5 209.5,2451.6 200.9,2477.6 191.8,2505.0 179.4,2542.5 172.2,2563.5 166.8,2579.2 158.9,2602.2 149.4,2629.8 140.7,2654.7 131.8,2680.3 82.7,2663.2 91.6,2637.6 100.2,2612.8 109.7,2585.3 117.6,2562.3 123.0,2546.6 130.1,2525.8 142.4,2488.8 151.5,2461.3 160.3,2435.0 169.3,2408.4 178.5,2382.4 187.7,2357.8 197.6,2333.1 208.2,2307.9 218.9,2283.3 229.8,2259.1 240.4,2235.3 250.6,2211.9 261.3,2187.2 272.1,2162.1 283.0,2136.9 294.1,2111.3 305.0,2086.0 315.8,2061.0 325.9,2037.7 336.5,2013.8 347.3,1989.2 357.8,1965.0 368.1,1940.7 378.1,1916.2 387.7,1891.6 397.1,1866.8 406.3,1841.8 415.6,1816.7 424.9,1791.5 434.4,1766.3 443.8,1741.2 453.3,1716.1 462.7,1691.1 472.2,1666.0 481.6,1640.9 491.1,1615.9 500.6,1591.1 510.0,1566.2 519.4,1541.0 527.9,1518.0 536.8,1492.9 545.8,1467.2 554.8,1441.1 563.6,1415.4 572.2,1390.3 580.7,1365.5 589.3,1340.8 598.5,1314.2 609.6,1282.2 619.8,1252.7 628.0,1228.9 633.8,1212.2 636.3,1205.0 646.2,1176.9 660.2,1137.4 668.8,1112.6 677.6,1087.2 685.9,1062.5 693.9,1038.3 702.4,1011.3 710.6,984.9 718.7,958.2 726.8,931.6 734.5,905.7 741.9,881.2 750.2,853.8 758.5,826.9 765.6,804.1 772.4,782.0 779.6,758.4 788.2,730.7 795.9,705.7 803.0,682.7 810.5,658.2 819.9,627.9 827.4,603.3 835.1,578.3 843.0,552.5 851.1,526.2 859.3,499.7 867.4,473.3 875.4,447.3 883.2,421.8 891.1,396.3 898.9,370.8 906.7,345.4 914.6,319.8 922.5,294.1" fill="#3b82f6" fill-opacity="0.25"/>
<polygon points="1006.8,111.8 998.9,137.4 991.1,163.0 983.3,188.5 975.5,214.1 967.7,239.7 960.0,265.3 952.2,290.9 944.5,316.5 936.8,342.1 929.0,367.7 921.2,393.4 913.5,419.0 905.7,444.6 897.9,470.3 890.1,495.9 882.4,521.6 874.6,547.2 866.8,572.8 859.1,598.4 851.4,624.1 843.8,649.8 836.1,675.4 828.4,701.1 820.6,726.8 812.7,752.3 804.5,777.9 796.0,803.5 787.2,828.9 778.4,854.1 769.7,879.4 761.0,904.7 752.3,930.0 743.8,954.9 735.0,980.4 726.4,1005.8 717.7,1031.1 709.0,1056.5 700.4,1081.8 691.7,1107.2 683.1,1132.5 674.4,1157.8 665.8,1183.1 657.1,1208.3 648.5,1233.7 639.8,1259.0 631.1,1284.3 622.5,1309.5 614.1,1334.1 605.3,1360.1 596.8,1385.5 588.3,1410.9 579.8,1436.2 571.2,1461.6 562.6,1487.0 553.9,1512.4 545.0,1537.7 535.9,1562.9 526.7,1588.1 517.5,1613.2 508.2,1638.3 499.0,1663.4 489.8,1688.5 480.8,1713.7 471.9,1738.8 463.0,1764.1 454.2,1789.4 445.3,1814.8 436.3,1840.1 427.0,1865.4 417.6,1890.6 407.9,1915.7 398.1,1940.7 388.2,1965.7 378.2,1990.5 368.1,2015.4 357.9,2040.2 347.6,2065.0 337.2,2089.7 326.6,2114.4 316.0,2139.0 305.4,2163.5 294.7,2188.1 284.2,2212.6 273.6,2237.3 262.8,2261.8 252.0,2286.3 241.3,2310.8 230.8,2335.2 220.7,2359.8 210.9,2384.4 201.8,2409.2 193.0,2434.2 184.5,2459.4 176.2,2484.8 167.9,2510.2 159.5,2535.7 131.8,2526.5 140.1,2501.2 148.4,2475.7 156.8,2450.2 165.3,2424.8 174.3,2399.3 183.7,2373.9 193.6,2348.8 203.9,2323.9 214.5,2299.1 225.3,2274.6 236.1,2250.1 246.8,2225.6 257.3,2201.1 267.9,2176.5 278.6,2151.9 289.2,2127.4 299.8,2102.8 310.3,2078.3 320.7,2053.7 330.9,2029.0 341.0,2004.3 351.1,1979.6 361.1,1954.8 370.9,1930.0 380.7,1905.1 390.3,1880.2 399.6,1855.3 408.8,1830.2 417.8,1805.0 426.6,1779.8 435.5,1754.5 444.3,1729.2 453.3,1703.8 462.4,1678.6 471.6,1653.4 480.8,1628.2 490.1,1603.1 499.3,1578.1 508.4,1553.0 517.4,1527.9 526.3,1502.8 535.0,1477.6 543.6,1452.3 552.1,1426.9 560.6,1401.6 569.1,1376.2 577.6,1350.8 586.5,1324.6 594.8,1300.1 603.5,1274.8 612.2,1249.5 620.8,1224.2 629.5,1198.9 638.1,1173.6 646.8,1148.3 655.4,1123.0 664.1,1097.8 672.7,1072.4 681.4,1047.0 690.0,1021.7 698.7,996.3 707.4,970.9 716.1,945.5 724.7,920.5 733.4,895.2 742.1,869.9 750.8,844.5 759.6,819.3 768.3,794.1 776.7,768.9 784.8,743.6 792.7,718.2 800.5,692.6 808.1,667.0 815.8,641.4 823.4,615.8 831.1,590.1 838.9,564.4 846.6,538.8 854.4,513.1 862.2,487.5 869.9,461.8 877.7,436.2 885.5,410.5 893.3,384.9 901.0,359.2 908.8,333.6 916.5,308.0 924.3,282.4 932.0,256.8 939.8,231.2 947.5,205.6 955.3,180.0 963.2,154.4 971.0,128.8 978.8,103.3" fill="#22c55e" fill-opacity="0.25"/>
<path d="M947.3,301.8 L939.4,327.4 L931.6,353.0 L923.8,378.5 L915.9,404.0 L908.1,429.4 L900.2,455.0 L892.2,481.0 L884.1,507.4 L876.0,533.9 L867.9,560.2 L860.0,586.0 L852.3,610.9 L844.7,635.5 L835.4,665.9 L827.8,690.3 L820.7,713.4 L813.0,738.3 L804.5,766.1 L797.2,789.7 L790.4,811.7 L783.4,834.6 L775.1,861.4 L766.8,888.7 L759.4,913.2 L751.7,939.1 L743.6,965.7 L735.4,992.5 L727.2,1019.0 L718.6,1046.3 L710.6,1070.7 L702.2,1095.6 L693.4,1121.1 L684.7,1146.0 L670.7,1185.6 L660.8,1213.6 L658.3,1220.8 L652.6,1237.4 L644.3,1261.2 L634.1,1290.7 L623.1,1322.7 L613.9,1349.3 L605.3,1374.0 L596.8,1398.7 L588.2,1423.8 L579.4,1449.6 L570.4,1475.7 L561.3,1501.6 L552.3,1526.8 L543.8,1550.1 L534.4,1575.4 L524.9,1600.3 L515.4,1625.2 L506.0,1650.1 L496.5,1675.1 L487.1,1700.2 L477.6,1725.3 L468.2,1750.4 L458.7,1775.5 L449.3,1800.6 L440.0,1825.7 L430.7,1850.8 L421.5,1875.8 L412.0,1900.9 L402.3,1925.8 L392.1,1950.7 L381.7,1975.2 L371.1,1999.7 L360.3,2024.3 L349.7,2048.2 L339.7,2071.3 L328.9,2096.3 L317.9,2121.6 L306.9,2147.2 L296.0,2172.4 L285.2,2197.5 L274.5,2222.2 L264.2,2245.8 L253.5,2269.7 L242.7,2293.8 L232.1,2318.2 L221.6,2343.0 L212.0,2367.1 L203.0,2391.3 L193.9,2417.0 L184.9,2443.3 L176.2,2469.5 L167.1,2496.9 L154.8,2534.2 L147.6,2555.0 L142.2,2570.8 L134.3,2593.7 L124.8,2621.3 L116.1,2646.2 L107.2,2671.8" stroke="#3b82f6" stroke-width="2" fill="none"/>
<path d="M992.8,107.5 L985.0,133.1 L977.1,158.7 L969.3,184.3 L961.5,209.9 L953.8,235.4 L946.0,261.0 L938.3,286.6 L930.5,312.2 L922.8,337.8 L915.0,363.5 L907.2,389.1 L899.5,414.8 L891.7,440.4 L883.9,466.0 L876.1,491.7 L868.4,517.4 L860.6,543.0 L852.8,568.6 L845.1,594.3 L837.4,619.9 L829.8,645.6 L822.1,671.2 L814.4,696.8 L806.6,722.5 L798.8,748.0 L790.6,773.4 L782.1,798.8 L773.4,824.1 L764.6,849.3 L755.9,874.6 L747.2,899.9 L738.5,925.2 L729.9,950.2 L721.2,975.7 L712.5,1001.1 L703.9,1026.4 L695.2,1051.8 L686.6,1077.1 L677.9,1102.5 L669.2,1127.8 L660.6,1153.0 L652.0,1178.3 L643.3,1203.6 L634.7,1228.9 L626.0,1254.2 L617.3,1279.5 L608.7,1304.8 L600.3,1329.3 L591.5,1355.4 L583.0,1380.8 L574.5,1406.2 L566.0,1431.6 L557.4,1456.9 L548.8,1482.3 L540.1,1507.6 L531.2,1532.8 L522.2,1558.0 L513.0,1583.1 L503.8,1608.2 L494.5,1633.3 L485.3,1658.4 L476.1,1683.5 L467.0,1708.7 L458.1,1734.0 L449.3,1759.3 L440.4,1784.6 L431.5,1809.9 L422.5,1835.2 L413.3,1860.3 L403.9,1885.4 L394.3,1910.4 L384.5,1935.4 L374.6,1960.2 L364.6,1985.1 L354.6,2009.8 L344.4,2034.6 L334.1,2059.3 L323.7,2084.0 L313.2,2108.6 L302.6,2133.2 L292.0,2157.7 L281.3,2182.3 L270.7,2206.9 L260.2,2231.4 L249.4,2256.0 L238.7,2280.5 L227.9,2305.0 L217.4,2329.5 L207.1,2354.3 L197.3,2379.2 L188.0,2404.2 L179.2,2429.5 L170.6,2454.8 L162.3,2480.3 L154.0,2505.7 L145.7,2531.1" stroke="#22c55e" stroke-width="2" fill="none"/>
<path d="M938.2,299.0 L930.3,324.6 L922.5,350.2 L914.7,375.7 L906.8,401.2 L899.0,426.6 L891.2,452.2 L883.1,478.2 L875.0,504.6 L866.9,531.1 L858.8,557.4 L850.9,583.2 L843.2,608.1 L835.6,632.7 L826.3,663.1 L818.7,687.5 L811.6,710.6 L803.9,735.5 L795.4,763.3 L788.1,786.9 L781.3,808.9 L774.3,831.8 L766.0,858.6 L757.7,885.9 L750.3,910.5 L742.5,936.3 L734.5,963.0 L726.3,989.8 L718.2,1016.2 L709.5,1043.3 L701.6,1067.7 L693.2,1092.5 L684.4,1118.0 L675.7,1142.9 L661.7,1182.4 L651.9,1210.5 L649.4,1217.7 L643.6,1234.3 L635.4,1258.1 L625.1,1287.6 L614.1,1319.6 L604.9,1346.2 L596.3,1370.9 L587.8,1395.6 L579.2,1420.8 L570.4,1446.5 L561.4,1472.6 L552.4,1498.4 L543.4,1523.6 L534.9,1546.8 L525.5,1572.0 L516.0,1597.0 L506.5,1621.8 L497.1,1646.7 L487.6,1671.8 L478.2,1696.9 L468.7,1721.9 L459.3,1747.0 L449.8,1772.1 L440.4,1797.2 L431.0,1822.4 L421.8,1847.5 L412.5,1872.5 L403.1,1897.5 L393.4,1922.3 L383.3,1947.1 L373.0,1971.5 L362.4,1995.9 L351.6,2020.4 L341.0,2044.3 L330.9,2067.6 L320.2,2092.5 L309.2,2117.9 L298.2,2143.4 L287.3,2168.6 L276.5,2193.7 L265.8,2218.4 L255.5,2242.0 L244.8,2265.8 L234.0,2290.0 L223.3,2314.4 L212.8,2339.4 L203.1,2363.7 L194.0,2388.0 L184.9,2413.8 L175.9,2440.3 L167.1,2466.5 L158.1,2493.9 L145.7,2531.1 L138.6,2551.9 L133.2,2567.7 L125.3,2590.6 L115.8,2618.2 L107.2,2643.0 L98.2,2668.7" stroke="#eab308" stroke-width="1.6" stroke-dasharray="8 5" fill="none"/>
<path d="M926.3,295.3 L918.4,321.0 L910.6,346.5 L902.7,372.0 L894.9,397.5 L887.1,423.0 L879.2,448.5 L871.2,474.5 L863.1,500.9 L855.0,527.4 L846.9,553.7 L839.0,579.5 L831.3,604.4 L823.7,629.1 L814.4,659.4 L806.8,683.9 L799.7,706.9 L792.0,731.9 L783.5,759.6 L776.2,783.2 L769.4,805.2 L762.4,828.1 L754.1,855.0 L745.8,882.3 L738.4,906.9 L730.6,932.8 L722.6,959.4 L714.4,986.1 L706.3,1012.5 L697.7,1039.5 L689.7,1063.8 L681.4,1088.5 L672.6,1113.9 L664.0,1138.7 L650.0,1178.3 L640.1,1206.4 L637.6,1213.6 L631.8,1230.2 L623.6,1254.0 L613.3,1283.6 L602.3,1315.5 L593.1,1342.1 L584.5,1366.8 L576.0,1391.6 L567.4,1416.7 L558.6,1442.4 L549.6,1468.5 L540.6,1494.3 L531.7,1519.3 L523.2,1542.4 L513.8,1567.6 L504.4,1592.5 L494.9,1617.4 L485.4,1642.3 L475.9,1667.4 L466.5,1692.5 L457.1,1717.6 L447.6,1742.6 L438.2,1767.7 L428.7,1792.9 L419.3,1818.1 L410.1,1843.2 L400.9,1868.2 L391.5,1893.0 L381.9,1917.7 L371.8,1942.3 L361.5,1966.5 L351.0,1990.9 L340.2,2015.4 L329.6,2039.3 L319.5,2062.6 L308.7,2087.6 L297.8,2112.9 L286.7,2138.5 L275.8,2163.7 L265.0,2188.8 L254.3,2213.5 L244.1,2236.9 L233.4,2260.7 L222.6,2284.9 L211.9,2309.5 L201.3,2334.7 L191.5,2359.2 L182.3,2383.8 L173.1,2409.8 L164.1,2436.3 L155.3,2462.6 L146.3,2490.0 L133.9,2527.1 L126.8,2547.9 L121.4,2563.6 L113.5,2586.6 L104.0,2614.1 L95.4,2638.9 L86.5,2664.6" stroke="#e2e8f0" stroke-width="1.2" fill="none"/>
<circle cx="924.6" cy="294.8" r="1.6" fill="#f97316"/>
<circle cx="916.7" cy="320.5" r="1.6" fill="#f97316"/>
<circle cx="908.9" cy="346.0" r="1.6" fill="#f97316"/>
<circle cx="901.1" cy="371.5" r="1.6" fill="#f97316"/>
<circle cx="893.2" cy="397.0" r="1.6" fill="#f97316"/>
<circle cx="885.4" cy="422.5" r="1.6" fill="#f97316"/>
<circle cx="877.5" cy="448.0" r="1.6" fill="#f97316"/>
<circle cx="869.5" cy="474.0" r="1.6" fill="#f97316"/>
<circle cx="861.4" cy="500.4" r="1.6" fill="#f97316"/>
<circle cx="853.3" cy="526.9" r="1.6" fill="#f97316"/>
<circle cx="328.0" cy="2038.6" r="1.6" fill="#f97316"/>
<circle cx="317.9" cy="2061.9" r="1.6" fill="#f97316"/>
<circle cx="307.1" cy="2086.9" r="1.6" fill="#f97316"/>
<circle cx="296.1" cy="2112.2" r="1.6" fill="#f97316"/>
<circle cx="285.1" cy="2137.8" r="1.6" fill="#f97316"/>
<circle cx="274.2" cy="2163.0" r="1.6" fill="#f97316"/>
<circle cx="263.4" cy="2188.1" r="1.6" fill="#f97316"/>
<circle cx="252.7" cy="2212.8" r="1.6" fill="#f97316"/>
<circle cx="242.4" cy="2236.2" r="1.6" fill="#f97316"/>
<circle cx="231.8" cy="2260.0" r="1.6" fill="#f97316"/>
<circle cx="221.0" cy="2284.2" r="1.6" fill="#f97316"/>
<circle cx="210.2" cy="2308.8" r="1.6" fill="#f97316"/>
<circle cx="199.6" cy="2334.0" r="1.6" fill="#f97316"/>
<circle cx="189.8" cy="2358.6" r="1.6" fill="#f97316"/>
<circle cx="180.7" cy="2383.2" r="1.6" fill="#f97316"/>
<circle cx="171.5" cy="2409.2" r="1.6" fill="#f97316"/>
<circle cx="162.4" cy="2435.7" r="1.6" fill="#f97316"/>
<circle cx="153.6" cy="2462.0" r="1.6" fill="#f97316"/>
<circle cx="144.6" cy="2489.5" r="1.6" fill="#f97316"/>
<circle cx="132.3" cy="2526.5" r="1.6" fill="#f97316"/>
<circle cx="125.1" cy="2547.3" r="1.6" fill="#f97316"/>
<circle cx="119.8" cy="2563.1" r="1.6" fill="#f97316"/>
<circle cx="111.9" cy="2586.0" r="1.6" fill="#f97316"/>
<circle cx="102.4" cy="2613.5" r="1.6" fill="#f97316"/>
<circle cx="93.7" cy="2638.3" r="1.6" fill="#f97316"/>
<circle cx="84.8" cy="2664.0" r="1.6" fill="#f97316"/>
<circle cx="970.0" cy="308.8" r="1.6" fill="#f97316"/>
<circle cx="962.1" cy="334.4" r="1.6" fill="#f97316"/>
<circle cx="954.3" cy="360.0" r="1.6" fill="#f97316"/>
<circle cx="946.5" cy="385.4" r="1.6" fill="#f97316"/>
<circle cx="938.6" cy="410.9" r="1.6" fill="#f97316"/>
<circle cx="930.8" cy="436.4" r="1.6" fill="#f97316"/>
<circle cx="922.9" cy="461.9" r="1.6" fill="#f97316"/>
<circle cx="914.9" cy="488.0" r="1.6" fill="#f97316"/>
<circle cx="906.8" cy="514.3" r="1.6" fill="#f97316"/>
<circle cx="898.7" cy="540.9" r="1.6" fill="#f97316"/>
<circle cx="890.6" cy="567.2" r="1.6" fill="#f97316"/>
<circle cx="882.7" cy="593.0" r="1.6" fill="#f97316"/>
<circle cx="875.0" cy="617.9" r="1.6" fill="#f97316"/>
<circle cx="867.4" cy="642.5" r="1.6" fill="#f97316"/>
<circle cx="858.1" cy="672.9" r="1.6" fill="#f97316"/>
<circle cx="850.5" cy="697.3" r="1.6" fill="#f97316"/>
<circle cx="843.4" cy="720.4" r="1.6" fill="#f97316"/>
<circle cx="835.7" cy="745.3" r="1.6" fill="#f97316"/>
<circle cx="827.2" cy="773.1" r="1.6" fill="#f97316"/>
<circle cx="819.9" cy="796.7" r="1.6" fill="#f97316"/>
<circle cx="813.1" cy="818.7" r="1.6" fill="#f97316"/>
<circle cx="806.1" cy="841.6" r="1.6" fill="#f97316"/>
<circle cx="797.8" cy="868.4" r="1.6" fill="#f97316"/>
<circle cx="789.6" cy="895.5" r="1.6" fill="#f97316"/>
<circle cx="782.2" cy="920.0" r="1.6" fill="#f97316"/>
<circle cx="774.4" cy="945.9" r="1.6" fill="#f97316"/>
<circle cx="766.3" cy="972.6" r="1.6" fill="#f97316"/>
<circle cx="758.1" cy="999.5" r="1.6" fill="#f97316"/>
<circle cx="749.9" cy="1026.1" r="1.6" fill="#f97316"/>
<circle cx="741.2" cy="1053.5" r="1.6" fill="#f97316"/>
<circle cx="733.1" cy="1078.3" r="1.6" fill="#f97316"/>
<circle cx="724.7" cy="1103.3" r="1.6" fill="#f97316"/>
<circle cx="715.8" cy="1128.9" r="1.6" fill="#f97316"/>
<circle cx="707.1" cy="1153.9" r="1.6" fill="#f97316"/>
<circle cx="693.1" cy="1193.5" r="1.6" fill="#f97316"/>
<circle cx="683.3" cy="1221.4" r="1.6" fill="#f97316"/>
<circle cx="680.8" cy="1228.6" r="1.6" fill="#f97316"/>
<circle cx="675.0" cy="1245.2" r="1.6" fill="#f97316"/>
<circle cx="666.8" cy="1269.0" r="1.6" fill="#f97316"/>
<circle cx="656.6" cy="1298.5" r="1.6" fill="#f97316"/>
<circle cx="645.5" cy="1330.4" r="1.6" fill="#f97316"/>
<circle cx="636.3" cy="1357.1" r="1.6" fill="#f97316"/>
<circle cx="627.8" cy="1381.7" r="1.6" fill="#f97316"/>
<circle cx="619.3" cy="1406.4" r="1.6" fill="#f97316"/>
<circle cx="610.7" cy="1431.5" r="1.6" fill="#f97316"/>
<circle cx="601.9" cy="1457.3" r="1.6" fill="#f97316"/>
<circle cx="592.8" cy="1483.5" r="1.6" fill="#f97316"/>
<circle cx="583.7" cy="1509.5" r="1.6" fill="#f97316"/>
<circle cx="574.7" cy="1534.9" r="1.6" fill="#f97316"/>
<circle cx="566.1" cy="1558.3" r="1.6" fill="#f97316"/>
<circle cx="556.6" cy="1583.7" r="1.6" fill="#f97316"/>
<circle cx="547.1" cy="1608.8" r="1.6" fill="#f97316"/>
<circle cx="537.6" cy="1633.6" r="1.6" fill="#f97316"/>
<circle cx="528.2" cy="1658.5" r="1.6" fill="#f97316"/>
<circle cx="518.7" cy="1683.5" r="1.6" fill="#f97316"/>
<circle cx="509.3" cy="1708.6" r="1.6" fill="#f97316"/>
<circle cx="499.8" cy="1733.7" r="1.6" fill="#f97316"/>
<circle cx="490.4" cy="1758.8" r="1.6" fill="#f97316"/>
<circle cx="481.0" cy="1783.9" r="1.6" fill="#f97316"/>
<circle cx="471.5" cy="1808.9" r="1.6" fill="#f97316"/>
<circle cx="462.2" cy="1833.9" r="1.6" fill="#f97316"/>
<circle cx="453.0" cy="1859.0" r="1.6" fill="#f97316"/>
<circle cx="443.7" cy="1884.1" r="1.6" fill="#f97316"/>
<circle cx="434.2" cy="1909.4" r="1.6" fill="#f97316"/>
<circle cx="424.3" cy="1934.6" r="1.6" fill="#f97316"/>
<circle cx="414.1" cy="1959.9" r="1.6" fill="#f97316"/>
<circle cx="403.5" cy="1984.6" r="1.6" fill="#f97316"/>
<circle cx="392.8" cy="2009.2" r="1.6" fill="#f97316"/>
<circle cx="382.0" cy="2033.8" r="1.6" fill="#f97316"/>
<circle cx="371.5" cy="2057.7" r="1.6" fill="#f97316"/>
<circle cx="361.5" cy="2080.8" r="1.6" fill="#f97316"/>
<circle cx="350.7" cy="2105.7" r="1.6" fill="#f97316"/>
<circle cx="339.7" cy="2131.0" r="1.6" fill="#f97316"/>
<circle cx="328.7" cy="2156.6" r="1.6" fill="#f97316"/>
<circle cx="317.8" cy="2181.8" r="1.6" fill="#f97316"/>
<circle cx="307.0" cy="2206.9" r="1.6" fill="#f97316"/>
<circle cx="296.3" cy="2231.7" r="1.6" fill="#f97316"/>
<circle cx="285.9" cy="2255.5" r="1.6" fill="#f97316"/>
<circle cx="275.2" cy="2279.4" r="1.6" fill="#f97316"/>
<circle cx="264.4" cy="2303.5" r="1.6" fill="#f97316"/>
<circle cx="253.9" cy="2327.6" r="1.6" fill="#f97316"/>
<circle cx="243.6" cy="2352.0" r="1.6" fill="#f97316"/>
<circle cx="234.2" cy="2375.6" r="1.6" fill="#f97316"/>
<circle cx="225.3" cy="2399.4" r="1.6" fill="#f97316"/>
<circle cx="216.3" cy="2424.7" r="1.6" fill="#f97316"/>
<circle cx="207.4" cy="2450.9" r="1.6" fill="#f97316"/>
<circle cx="198.7" cy="2476.9" r="1.6" fill="#f97316"/>
<circle cx="189.7" cy="2504.3" r="1.6" fill="#f97316"/>
<circle cx="177.3" cy="2541.8" r="1.6" fill="#f97316"/>
<circle cx="170.1" cy="2562.7" r="1.6" fill="#f97316"/>
<circle cx="164.7" cy="2578.5" r="1.6" fill="#f97316"/>
<circle cx="156.8" cy="2601.5" r="1.6" fill="#f97316"/>
<circle cx="147.2" cy="2629.1" r="1.6" fill="#f97316"/>
<circle cx="138.6" cy="2654.0" r="1.6" fill="#f97316"/>
<circle cx="129.6" cy="2679.6" r="1.6" fill="#f97316"/>
<circle cx="973.3" cy="213.4" r="1.6" fill="#f43f5e"/>
<circle cx="965.6" cy="239.0" r="1.6" fill="#f43f5e"/>
<circle cx="957.8" cy="264.6" r="1.6" fill="#f43f5e"/>
<circle cx="950.1" cy="290.2" r="1.6" fill="#f43f5e"/>
<circle cx="942.4" cy="315.8" r="1.6" fill="#f43f5e"/>
<circle cx="934.6" cy="341.4" r="1.6" fill="#f43f5e"/>
<circle cx="926.8" cy="367.1" r="1.6" fill="#f43f5e"/>
<circle cx="919.1" cy="392.7" r="1.6" fill="#f43f5e"/>
<circle cx="911.3" cy="418.3" r="1.6" fill="#f43f5e"/>
<circle cx="903.5" cy="444.0" r="1.6" fill="#f43f5e"/>
<circle cx="895.7" cy="469.6" r="1.6" fill="#f43f5e"/>
<circle cx="888.0" cy="495.3" r="1.6" fill="#f43f5e"/>
<circle cx="880.2" cy="520.9" r="1.6" fill="#f43f5e"/>
<circle cx="941.9" cy="231.9" r="1.6" fill="#f43f5e"/>
<circle cx="934.2" cy="257.4" r="1.6" fill="#f43f5e"/>
<circle cx="926.4" cy="283.0" r="1.6" fill="#f43f5e"/>
<circle cx="918.7" cy="308.7" r="1.6" fill="#f43f5e"/>
<circle cx="911.0" cy="334.3" r="1.6" fill="#f43f5e"/>
<circle cx="903.2" cy="359.9" r="1.6" fill="#f43f5e"/>
<circle cx="895.4" cy="385.5" r="1.6" fill="#f43f5e"/>
<circle cx="887.7" cy="411.2" r="1.6" fill="#f43f5e"/>
<circle cx="879.9" cy="436.8" r="1.6" fill="#f43f5e"/>
<circle cx="872.1" cy="462.5" r="1.6" fill="#f43f5e"/>
<circle cx="864.3" cy="488.1" r="1.6" fill="#f43f5e"/>
<circle cx="856.5" cy="513.8" r="1.6" fill="#f43f5e"/>
<circle cx="683.5" cy="1047.8" r="1.6" fill="#f43f5e"/>
<circle cx="674.9" cy="1073.1" r="1.6" fill="#f43f5e"/>
<circle cx="666.2" cy="1098.5" r="1.6" fill="#f43f5e"/>
<circle cx="657.5" cy="1123.8" r="1.6" fill="#f43f5e"/>
<circle cx="648.9" cy="1149.0" r="1.6" fill="#f43f5e"/>
<circle cx="640.3" cy="1174.3" r="1.6" fill="#f43f5e"/>
<text x="12" y="20" fill="#cbd5e1" font-size="14">right-merge-r1_3-ramp_12 — blue=host, green=branch, yellow-dash=outer lane centre (merge target), white=host edge line, orange/red=rail present</text>
</svg>