<svg xmlns="http://www.w3.org/2000/svg" width="1200" height="1835" style="background:#0a0d18">
<path d="M857.7,173.9L858.5,170.9L858.8,165.1L859.5,162.4L864.4,152.2L874.9,131.9L888.2,104.6L893.1,95.4L893.5,94.0L893.5,92.5L893.0,90.9L892.0,89.9L890.9,89.4L889.0,89.2L875.2,91.7L870.4,92.0L866.6,91.5L854.8,88.8L851.6,87.7L849.7,86.3L848.2,84.2L844.9,75.3L843.8,73.1L838.6,65.7L836.3,62.8L834.7,61.4L832.6,60.0L826.3,56.9L818.0,54.2L809.5,52.4L807.1,51.6L805.1,50.2L801.7,46.8L799.6,45.2L793.1,42.2L788.0,38.8L785.0,37.8L773.0,37.6L760.4,35.6L757.6,35.8L755.7,36.3L739.2,43.4L723.9,51.6L722.0,52.0L720.1,52.1L709.9,51.0L707.2,50.9L697.7,52.8L694.8,53.9L693.5,54.7L692.4,56.0L691.7,57.5L691.1,59.9L686.3,85.4L684.1,95.2L683.1,102.8L683.0,106.2L683.1,108.0L683.8,110.5L684.9,113.0L688.1,119.6L689.8,121.9L691.7,123.7L693.2,124.7L702.4,129.5L705.0,131.9L707.0,134.5L713.3,143.2L714.3,145.0L715.1,147.8L714.8,151.9L714.3,153.8L713.1,156.5L705.8,170.3L704.4,172.2L699.8,177.6L697.6,179.7L695.8,180.8L692.6,182.0L683.5,184.4L681.2,185.3L679.7,186.4L677.2,189.1L665.6,202.8L654.2,218.2L652.3,223.2L650.3,237.6L645.1,263.0L643.7,266.8L639.1,274.3L638.2,276.3L637.3,279.2L636.2,285.6L636.0,288.4L636.6,290.8L637.7,293.6L641.4,301.2L642.7,303.3L644.0,304.8L645.6,305.9L647.6,306.5L661.0,308.5L670.6,311.3L688.3,313.2L691.4,313.8L693.2,314.7L694.8,316.0L696.2,317.6L698.8,321.2L700.2,322.5L702.8,324.1L705.9,324.9L712.2,325.9L715.4,325.9L718.2,325.1L724.0,322.1L725.5,321.8L727.1,321.7L745.4,325.3L758.3,326.9L765.0,327.6L774.9,327.8L777.1,327.6L778.4,327.1L780.2,325.5L780.9,324.1L781.2,322.7L781.6,311.3L781.6,303.6L781.6,293.0L781.4,290.9L780.6,288.3L778.1,283.6L777.6,281.7L777.6,279.7L778.5,277.3L796.2,250.5L797.7,248.5L798.8,247.4L801.1,246.0L805.8,244.4L807.5,243.7L809.4,242.3L811.0,240.7L816.9,232.8L826.3,223.4L827.1,221.5L827.9,216.6L829.3,214.2L831.6,211.6L848.2,195.0L853.2,188.3L854.4,185.8" fill="none" stroke="#ffb454" stroke-width="2.2" opacity="1"/>
<path d="M638.6,230.9L642.1,228.2L649.5,221.9L652.7,218.7L657.1,213.1L665.0,202.3L677.6,187.7L679.3,186.0L682.5,184.1L692.4,181.0L695.3,179.5L697.7,177.4L703.6,170.6L705.0,168.5L714.0,151.1L714.2,150.0L714.3,148.3L713.6,145.1L709.5,139.2L707.5,135.6L704.9,132.2L703.0,130.4L700.6,128.9L694.9,126.4L693.2,125.2L691.7,123.9L690.0,121.5L689.0,119.6L684.4,109.8L683.4,106.6L683.0,102.6L683.3,98.2L690.7,58.4L691.2,56.8L692.0,55.4L693.4,54.1L694.4,53.4L697.3,52.4L708.0,50.2L718.8,51.5L720.7,51.4L722.9,51.1L725.2,50.3L736.7,44.0L752.4,36.5L756.6,35.1L760.2,34.9L769.1,36.1L784.6,36.8L786.2,37.2L788.1,38.0L793.5,41.5L800.5,44.8L802.2,46.2L806.0,49.9L807.9,51.0L816.7,53.3L823.8,54.3L825.9,54.7L828.5,55.6L830.7,57.0L835.4,60.8L839.1,65.1L845.1,73.9L848.6,83.2L849.8,84.7L851.6,86.1L854.2,87.0L869.2,90.4L871.9,90.8L873.5,90.9L877.6,90.5L886.3,88.6L888.1,88.5L889.6,88.6L890.9,89.1L891.8,89.7L892.9,91.0L893.4,92.9L893.2,94.8L888.8,104.9L868.4,147.4L859.9,163.4L859.5,165.0L859.1,172.4L858.3,175.7L856.0,184.1L853.7,189.0L851.8,191.9L847.5,196.5L832.1,212.1L830.0,214.5L828.7,216.9L827.9,221.7L826.9,223.7L825.7,225.1L817.3,233.2L810.9,241.7L809.0,243.4L807.5,244.4L800.3,247.3L798.8,248.3L797.5,249.6L789.1,262.3L779.3,277.7L778.5,280.2L778.7,282.4L779.3,284.2L781.7,288.6L782.3,290.8L782.4,311.3L782.4,320.1L782.1,323.5L781.1,326.0L780.0,327.2L779.0,327.9L776.9,328.8L774.0,329.1L758.2,327.6L745.2,326.1L729.5,322.9L727.1,322.5L724.9,322.7L723.5,323.1L719.0,325.6L716.9,326.4L715.5,326.7L712.2,326.6L705.8,325.6L702.6,324.9L700.3,323.7L698.2,321.7L694.4,316.7L692.8,315.4L691.1,314.6L688.2,314.0L669.5,311.8L659.8,308.6L647.5,306.7L645.5,306.1L644.5,305.4L643.4,304.5L642.1,303.0L640.7,300.3L636.9,292.6L636.3,290.9L635.8,288.5L635.9,285.6L637.1,279.2L638.0,276.2L638.8,274.3L643.0,267.6L644.5,264.3L650.0,237.4L650.9,232.3L651.5,226.0L652.4,221.9L653.9,218.1L657.1,213.1L657.8,211.7L656.8,212.2L654.5,214.0L647.8,220.2L639.7,228.5L637.8,230.7L637.3,231.7Z" fill="none" stroke="#ffb454" stroke-width="2.2" opacity="1"/>
<path d="M777.4,338.8L779.2,335.2L781.2,330.2L781.5,328.7L781.8,323.2L781.6,311.3" fill="none" stroke="#ffb454" stroke-width="2.2" opacity="1"/>
<path d="M854.4,185.8L856.1,178.5L857.7,173.9" fill="none" stroke="#ffb454" stroke-width="2.2" opacity="1"/>
<path d="M854.4,185.8L857.7,173.9" fill="none" stroke="#ffb454" stroke-width="2.2" opacity="1"/>
<path d="M777.4,338.8L778.1,335.6L778.1,334.0L777.3,331.9L776.0,330.7L774.6,329.9L773.5,329.7L768.9,329.1L763.6,328.1" fill="none" stroke="#ffb454" stroke-width="2.2" opacity="1"/>
<path d="M771.7,352.6L777.4,338.8" fill="none" stroke="#ffb454" stroke-width="2.2" opacity="1"/>
<path d="M912.1,472.9L906.2,464.3L902.0,459.7L899.9,458.0L896.4,455.8L892.8,454.2L889.3,453.1L885.6,452.4L882.1,452.3L878.1,452.5L873.5,453.4L868.7,454.6L865.5,455.7L849.7,462.6L846.1,463.9L843.1,464.7L841.3,464.9L836.2,464.9L831.6,463.8L825.1,461.4L778.4,443.2L774.7,441.5L771.9,439.6L770.0,437.6L768.8,435.8L767.9,433.7L767.3,431.3L767.1,427.4L766.8,387.4L766.2,384.5L763.8,377.6L763.4,375.8L763.3,373.9L764.1,370.5L769.7,356.2L771.4,352.5" fill="none" stroke="#ffe667" stroke-width="2.2" opacity="1"/>
<path d="M766.9,368.1L764.7,373.8L764.3,376.8L764.6,379.3L766.9,385.8L767.5,389.3L767.7,392.4L767.9,430.5L768.5,433.2L769.8,436.0L771.2,437.9L773.3,439.7L776.1,441.4L778.6,442.5L825.4,460.7L832.8,463.3L837.1,464.2L841.9,464.1L846.0,463.2L850.5,461.5L865.3,455.0L868.4,453.9L873.5,452.6L878.1,451.8L882.2,451.5L885.7,451.6L889.3,452.3L893.1,453.4L896.7,455.1L900.3,457.3L902.5,459.2L905.7,462.5L913.8,474.1" fill="none" stroke="#ffe667" stroke-width="2.2" opacity="1"/>
<path d="M269.3,1796.6L273.0,1789.9L278.1,1781.6L282.6,1775.4L286.7,1770.5L291.0,1766.1L297.9,1759.9L303.8,1755.4L308.9,1752.1L315.1,1748.4L367.1,1719.8L491.7,1651.9L572.0,1608.4L667.2,1557.3L827.6,1469.7L829.3,1469.0L850.9,1456.5L858.0,1452.3L874.9,1441.7L889.9,1431.6L920.5,1410.0L940.6,1395.0L948.6,1387.9L954.8,1381.2L960.4,1374.2L965.1,1367.2L969.8,1358.9L973.3,1351.4L974.7,1347.7L977.1,1340.3L979.8,1328.9L994.8,1259.3L996.3,1251.1L997.2,1244.2L998.3,1231.1L998.3,1221.9L998.0,1217.7L997.4,1213.4L995.7,1206.5L993.7,1200.1L991.5,1194.4L989.5,1189.8L984.7,1180.5L920.5,1069.1L913.0,1057.2L907.8,1050.3L900.5,1042.4L895.4,1037.8L892.5,1035.4L882.8,1028.6L849.3,1007.5L804.9,980.9L796.0,975.3L792.5,972.8L790.3,970.9L788.3,968.9L785.2,965.2L782.9,961.7L780.4,956.8L779.1,953.4L778.1,949.9L755.2,860.4L752.6,848.2L751.7,841.3L751.4,836.6L751.2,774.1L751.6,747.6L752.4,723.0L751.7,699.6L751.8,666.2L752.2,656.6L752.9,651.5L754.2,647.0L755.8,642.8L757.9,638.9L762.1,633.1L768.6,626.1L858.2,541.3L864.2,536.1L867.5,533.5L1021.9,430.4L1034.6,422.2L1037.3,420.7L1048.2,415.4L1061.8,409.7L1127.7,383.7L1131.9,382.4L1137.1,381.3L1156.1,378.9" fill="none" stroke="#4fc9ff" stroke-width="2.2" opacity="1"/>
<path d="M1160.5,379.6L1136.0,382.5L1130.4,383.9L1048.9,416.3L1041.8,419.7L1030.8,426.0L1022.6,431.4L868.2,534.4L862.8,538.8L859.2,542.1L838.2,562.2L772.3,624.1L767.0,629.5L762.2,634.5L760.7,636.5L758.6,639.8L756.3,644.3L754.9,648.4L753.9,652.4L753.0,659.4L752.9,672.4L752.8,704.2L753.4,722.7L753.3,734.7L752.7,747.6L752.4,774.3L752.4,826.8L752.7,841.9L753.8,849.7L756.2,860.1L778.6,947.5L780.2,953.2L781.5,956.5L783.9,961.2L787.3,966.2L791.1,970.1L793.3,972.0L796.4,974.3L805.3,980.0L858.3,1012.0L883.4,1027.8L893.0,1034.6L895.9,1037.0L901.1,1041.7L907.2,1048.1L913.8,1056.7L921.3,1068.6L985.5,1180.0L989.2,1186.9L992.0,1192.9L994.6,1199.9L996.6,1206.3L998.3,1213.3L999.0,1217.4L999.4,1224.8L999.4,1231.2L998.3,1244.4L997.4,1251.3L994.5,1266.8L980.9,1329.2L978.1,1340.6L975.6,1348.1L970.8,1359.3L963.1,1372.6L958.6,1378.6L949.3,1388.7L944.5,1393.1L941.2,1395.8L932.7,1402.3L921.2,1410.8L883.6,1437.2L867.7,1447.4L851.4,1457.4L838.4,1465.0L762.2,1506.3L667.7,1558.1L492.1,1652.8L338.4,1736.6L315.6,1749.3L309.1,1753.1L303.6,1756.8L298.5,1760.7L291.8,1766.7L288.3,1770.3L283.0,1776.5L278.9,1782.1L275.7,1787.2L271.0,1795.4" fill="none" stroke="#4fc9ff" stroke-width="2.2" opacity="1"/>
<path d="M1102.2,364.4L1096.2,314.2L1095.4,309.1L1094.8,306.8L1093.4,303.6L1091.3,300.3L1076.2,281.3L1073.4,277.5L1067.2,264.1L1061.9,253.8L1060.7,250.3L1059.8,244.5L1059.2,237.2L1059.7,212.2L1059.3,208.9L1057.0,202.5L1056.4,199.9L1056.4,196.9L1057.7,188.6L1057.4,186.2L1056.3,183.7L1054.3,181.5L1052.5,180.4L1050.9,179.8L1035.4,176.9L1016.8,172.9L1006.2,170.0L1002.5,168.2L1000.4,166.5L998.9,164.6L998.2,163.2L997.5,161.3L995.4,152.5L993.7,149.2L992.5,147.9L989.1,145.5L976.2,138.5L956.2,128.4L954.4,127.0L952.8,125.3L951.3,123.3L949.0,119.3" fill="none" stroke="#79e690" stroke-width="2.2" opacity="1"/>
<path d="M952.2,123.2L954.3,125.7L957.6,128.4L974.1,136.6L986.1,142.2L991.4,145.1L993.7,146.7L995.4,148.8L996.5,151.0L999.4,161.2L1000.4,163.5L1002.1,166.0L1004.4,167.8L1008.0,169.4L1019.6,172.8L1050.9,179.7L1052.7,180.4L1054.4,181.5L1056.3,183.7L1057.5,186.2L1057.7,188.5L1056.4,196.6L1056.5,199.9L1057.1,202.5L1059.6,209.6L1060.1,211.5L1060.4,213.6L1060.3,237.2L1061.3,247.1L1061.9,250.6L1062.6,252.9L1064.3,256.7L1067.8,263.7L1072.9,275.0L1074.6,277.9L1092.5,300.7L1094.1,303.3L1095.3,306.0L1095.9,308.2L1096.6,311.9L1102.9,364.3L1103.9,370.9" fill="none" stroke="#79e690" stroke-width="2.2" opacity="1"/>
<path d="M765.0,327.7L771.5,328.4L773.4,328.8L775.4,329.6L776.8,330.6L778.0,331.9L778.7,333.6L779.1,335.8L778.9,337.8L778.2,340.4L767.1,368.1" fill="none" stroke="#8b98ab" stroke-width="2.2" opacity="1"/>
<path d="M678.7,1141.1L680.0,1128.5L681.1,1123.7L684.0,1114.7L688.3,1103.8L690.3,1098.0L695.7,1080.2L696.9,1077.4L697.7,1076.2L699.1,1074.9L702.3,1072.7L716.2,1064.9L737.0,1054.4L740.3,1052.0L741.8,1050.2L742.9,1048.1L744.4,1043.2L746.0,1036.6L746.7,1032.7L747.0,1029.6L746.8,1026.2L746.3,1023.7L745.4,1021.3L742.3,1015.8L726.1,993.5L719.4,985.1L716.4,981.0L714.4,977.7L713.6,975.9L712.4,972.4L711.5,969.2L711.0,965.6L710.8,962.5L711.0,958.8L711.5,955.5L714.1,941.6L714.6,937.8L714.6,934.6L714.2,931.7L712.6,926.3L677.1,841.3L675.5,838.3L671.9,833.0L652.8,813.1L651.0,810.9L649.8,808.5L649.0,805.8L648.8,803.9L649.0,801.3L649.6,799.0L651.1,795.9L665.1,771.4L667.0,767.8L669.2,762.9L670.5,758.8L674.4,740.4L675.0,738.6L676.0,736.6L678.2,733.7L688.1,726.1L705.8,709.7L708.1,707.2L710.4,703.9L713.7,696.0L719.3,686.9L721.3,682.3L722.0,678.5L722.4,671.4L729.3,586.4L730.8,576.5L730.4,573.2L729.5,570.3L719.5,551.5L718.5,548.8L718.2,546.9L718.7,536.8L723.1,472.6L724.1,469.2L729.8,455.0L749.8,406.3L754.7,395.0L765.7,367.5L772.0,352.8" fill="none" stroke="#8b98ab" stroke-width="2.2" opacity="1"/>
<path d="M782.4,311.3L782.8,324.9L782.5,327.7L781.4,331.3L773.7,350.0L771.6,356.0L765.1,370.8L753.0,401.1L751.8,404.4L730.8,455.3L725.1,468.2L724.5,470.3L723.7,474.0L719.4,536.8L718.9,544.1L719.0,546.9L719.5,549.4L720.6,552.0L730.2,570.0L731.3,573.8L731.8,577.9L723.6,678.5L722.9,682.4L721.3,686.2L712.3,702.6L710.0,705.9L706.9,709.3L696.4,719.4L686.2,728.9L679.9,733.7L678.3,735.3L677.3,736.7L676.1,739.0L675.6,740.8L671.7,758.1L670.8,761.1L666.7,770.4L664.7,774.2L660.1,782.6L651.2,797.2L650.3,799.2L649.8,801.4L649.6,803.8L650.0,806.6L650.5,808.2L651.8,810.5L653.4,812.6L670.9,830.6L673.6,833.9L676.2,837.9L679.2,844.4L713.3,925.8L714.2,928.8L714.8,931.6L715.2,934.6L715.0,939.6L712.2,954.8L711.4,962.9L711.6,965.6L712.1,969.0L713.6,973.9L715.9,979.0L718.0,982.3L726.6,993.2L742.9,1015.5L745.6,1019.9L746.6,1022.2L747.3,1024.9L747.7,1027.9L747.4,1032.9L744.4,1045.5L743.1,1049.1L742.3,1050.5L740.8,1052.4L739.0,1053.9L736.2,1055.6L718.7,1064.4L704.0,1072.6L700.1,1075.1L699.1,1076.2L698.0,1077.8L696.9,1080.5L691.3,1098.3L689.3,1104.3L683.3,1119.1L681.7,1123.9L680.7,1128.6L679.5,1141.2" fill="none" stroke="#8b98ab" stroke-width="2.2" opacity="1"/>
<path d="M875.2,90.7L887.6,87.7L891.1,87.4L892.3,87.6L893.7,88.2L898.8,91.4L901.3,93.6L902.6,95.6L903.4,97.7L905.4,106.2L906.5,109.1L907.5,110.8L912.7,116.6L915.6,119.5L916.9,120.3L918.4,120.9L921.0,121.2L922.2,120.9L923.7,120.2L934.0,114.3L945.9,108.0L956.2,102.0L959.6,99.4L966.4,93.2L975.4,84.5L977.3,82.2L978.1,80.1" fill="none" stroke="#8b98ab" stroke-width="2.2" opacity="1"/>
<path d="M978.1,82.0L976.8,84.1L973.9,87.1L960.6,99.4L956.5,102.8L937.2,113.7L926.8,119.8L923.8,121.5L920.9,122.3L918.3,122.1L916.6,121.4L915.5,120.7L913.4,118.8L906.9,111.3L905.6,109.0L905.0,107.4L902.2,96.5L901.1,94.7L898.7,92.4L894.2,89.3L892.9,88.7L891.7,88.5L888.6,88.9L879.9,90.9" fill="none" stroke="#8b98ab" stroke-width="2.2" opacity="1"/>
<path d="M679.4,1141.2L679.0,1144.2L677.9,1148.5L667.8,1176.0L667.2,1177.9L666.6,1181.1L666.4,1183.7L666.4,1189.6L667.2,1225.4L667.0,1228.1L666.5,1230.6L664.6,1235.5L641.0,1281.0L637.7,1286.1L634.0,1290.0L574.6,1341.6L568.2,1347.7L563.9,1352.9L549.6,1374.3L547.6,1376.5L545.7,1378.3L543.3,1379.9L540.6,1381.2L503.1,1396.8L498.5,1399.2L494.9,1402.3L484.5,1413.4L481.6,1416.1L479.1,1417.9L466.6,1425.0L463.6,1427.0L435.4,1448.7L427.9,1454.2L425.8,1455.5L419.9,1458.4L415.7,1460.9L398.3,1475.3L391.0,1479.7L361.1,1496.1L356.5,1498.3L353.1,1499.5L331.5,1505.9L319.4,1511.0L265.0,1535.8L240.1,1547.6L237.0,1549.3L231.1,1553.4L228.5,1554.9L200.9,1568.5L193.8,1571.1L190.8,1571.8L186.9,1572.0L179.6,1571.5L176.9,1571.9L174.4,1572.8L172.2,1574.1L169.2,1576.6L157.0,1587.7L152.9,1590.1L119.3,1602.4L114.8,1604.4L103.9,1610.2L86.1,1616.5L75.9,1621.2L70.3,1624.1L58.8,1631.8L49.9,1639.2L47.0,1641.8L42.1,1647.1L37.8,1652.8" fill="none" stroke="#e87bff" stroke-width="2.2" opacity="1"/>
<path d="M37.2,1652.4L40.0,1648.5L43.2,1644.7L47.9,1639.9L58.3,1631.2L69.9,1623.4L75.6,1620.5L85.8,1615.8L103.6,1609.5L112.7,1604.6L117.5,1602.3L147.8,1591.2L153.7,1588.9L157.4,1586.4L170.8,1574.2L174.1,1572.1L176.7,1571.2L179.3,1570.8L181.6,1570.8L185.8,1571.1L190.1,1571.1L193.3,1570.5L196.3,1569.5L228.7,1553.5L239.5,1547.1L264.7,1535.1L326.6,1507.2L333.2,1504.8L351.2,1499.3L354.5,1498.1L357.5,1496.6L393.9,1476.4L399.1,1472.9L414.3,1460.1L419.0,1457.4L425.3,1454.4L430.3,1451.7L464.8,1425.2L476.9,1418.0L478.9,1416.4L492.7,1401.8L494.7,1399.9L496.9,1398.4L502.7,1395.7L541.2,1379.6L544.3,1378.0L546.3,1376.6L548.1,1374.9L550.5,1371.9L563.3,1352.5L566.2,1348.7L569.0,1345.7L633.5,1289.4L637.0,1285.6L640.3,1280.8L663.9,1235.3L665.6,1231.1L666.2,1228.0L666.4,1225.1L665.6,1184.4L665.8,1181.0L666.1,1179.1L667.3,1175.1L677.2,1148.2L677.9,1145.4L678.7,1141.1" fill="none" stroke="#e87bff" stroke-width="2.2" opacity="1"/>
<path d="M237.5,1561.0L248.6,1582.9L254.8,1594.3L260.0,1604.4L261.1,1606.9L261.7,1609.0L262.0,1611.5L261.9,1615.5L257.1,1654.1L257.1,1659.4L258.3,1680.2L260.9,1696.4L262.2,1700.5L264.3,1706.2L265.6,1710.8L274.2,1760.4L275.3,1765.4L276.7,1769.7L278.5,1773.4L280.7,1776.4L283.4,1779.2L287.4,1782.1L290.3,1783.7L293.4,1784.6L296.4,1784.6" fill="none" stroke="#8b98ab" stroke-width="2.2" opacity="1"/>
<path d="M296.4,1784.9L293.4,1784.8L290.3,1783.8L287.3,1782.3L283.2,1779.2L280.6,1776.5L278.4,1773.5L276.6,1769.9L275.1,1765.5L274.0,1760.3L265.8,1712.5L265.0,1708.8L262.0,1700.7L260.8,1696.4L260.2,1694.2L258.1,1680.1L256.9,1659.4L256.9,1654.1L261.6,1615.5L261.8,1611.6L261.5,1609.0L260.4,1605.7L254.6,1594.4L249.7,1585.8L242.0,1570.5L236.9,1561.3" fill="none" stroke="#8b98ab" stroke-width="2.2" opacity="1"/>
<path d="M769.3,360.9L766.6,367.9" fill="none" stroke="#8b98ab" stroke-width="1" opacity="0.75"/>
<path d="M767.0,402.7L766.5,399.8L766.4,386.9L766.2,384.5" fill="none" stroke="#8b98ab" stroke-width="1" opacity="0.75"/>
<path d="M886.4,520.8L895.3,514.0L919.4,497.9L921.3,495.9L922.2,494.4L922.8,493.1L923.1,490.8L923.0,489.3L922.3,487.1L921.0,484.8L915.8,478.6L911.8,473.1" fill="none" stroke="#8b98ab" stroke-width="1" opacity="0.75"/>
<path d="M913.8,474.1L917.2,478.6L923.5,485.7L924.9,487.7L925.7,489.8L925.9,491.8L925.7,494.0L924.9,496.0L923.1,498.4L921.0,500.1L903.1,512.0L896.7,516.1L887.0,521.8" fill="none" stroke="#8b98ab" stroke-width="1" opacity="0.75"/>
<path d="M744.7,418.3L746.5,415.6L751.1,404.6L752.3,401.5L752.3,400.7" fill="none" stroke="#8b98ab" stroke-width="1" opacity="0.75"/>
<path d="M747.6,414.4L745.0,419.6L740.6,430.1L740.1,432.0L740.0,434.1" fill="none" stroke="#8b98ab" stroke-width="1" opacity="0.75"/>
<path d="M638.6,230.9L642.4,228.8L643.7,228.3L646.5,228.0L648.1,228.4L649.7,229.6L650.5,231.2L650.7,232.9L650.5,236.0" fill="none" stroke="#8b98ab" stroke-width="1" opacity="0.75"/>
<path d="M641.8,321.7L643.0,315.0L643.7,312.4L644.7,310.6L646.1,309.1L647.7,308.1L650.5,307.5L652.7,307.5L658.6,308.1" fill="none" stroke="#8b98ab" stroke-width="1" opacity="0.75"/>
<path d="M1054.4,412.8L1056.3,411.6L1071.3,404.9L1098.2,394.4L1100.2,393.3L1101.8,392.1L1102.6,391.1L1103.7,389.2L1104.2,387.7L1104.4,386.3L1104.1,380.1L1102.2,364.4" fill="none" stroke="#8b98ab" stroke-width="1" opacity="0.75"/>
<path d="M1103.9,370.9L1105.0,381.0L1105.0,388.0L1104.6,389.9L1103.8,391.9L1102.3,394.1L1100.6,395.8L1098.9,396.9L1094.7,398.8L1071.5,408.1L1052.0,415.5L1048.9,416.3" fill="none" stroke="#8b98ab" stroke-width="1" opacity="0.75"/>
<path d="M752.5,836.6L753.7,845.4L754.7,850.6L759.3,869.0L759.7,871.3L760.0,873.9L760.1,878.8L759.8,881.7L758.7,886.6L757.3,890.2L755.6,893.4L751.8,898.7L717.5,939.2L716.0,941.6L715.0,944.1L711.8,958.0" fill="none" stroke="#8b98ab" stroke-width="1" opacity="0.75"/>
<path d="M684.0,1114.7L686.6,1109.1L688.6,1103.9L690.6,1098.0L696.7,1078.5L697.5,1076.9L699.2,1074.9" fill="none" stroke="#8b98ab" stroke-width="1" opacity="0.75"/>
<path d="M699.7,1075.4L698.4,1076.7L696.8,1079.6L691.0,1098.3L684.9,1115.0" fill="none" stroke="#8b98ab" stroke-width="1" opacity="0.75"/>
<path d="M328.3,1742.2L314.1,1751.1L310.3,1754.3L308.4,1756.5L307.2,1759.0L306.4,1761.7L306.1,1764.7L306.0,1773.9L305.6,1776.7L304.6,1779.3L303.2,1781.6L301.3,1783.2L299.1,1784.3L296.4,1784.9" fill="none" stroke="#8b98ab" stroke-width="1" opacity="0.75"/>
<path d="M963.4,470.9L962.2,472.0L953.8,478.1L938.0,488.7L934.8,490.2L932.3,490.6L930.2,490.4L928.1,489.8L926.0,488.7L924.4,487.4L921.2,483.9L916.3,478.1L912.3,472.7" fill="none" stroke="#8b98ab" stroke-width="1" opacity="0.75"/>
<path d="M273.0,1789.9L275.0,1785.9L280.4,1777.0L285.5,1770.4L287.9,1767.8L289.4,1766.7L291.2,1765.8L293.1,1765.2L295.0,1765.1L296.9,1765.3L298.8,1765.9L300.4,1766.8L301.8,1767.9L303.0,1769.3L304.2,1771.5L304.6,1773.0L304.7,1775.5L304.5,1777.2L303.7,1779.6L302.8,1781.2L301.8,1782.3L300.5,1783.3L298.2,1784.4L296.4,1784.9" fill="none" stroke="#8b98ab" stroke-width="1" opacity="0.75"/>
<path d="M300.9,1756.5L304.5,1758.7L306.9,1760.9L308.0,1762.9L308.2,1764.6L307.8,1765.7L306.7,1767.1L301.4,1770.6L297.1,1775.1" fill="none" stroke="#8b98ab" stroke-width="1" opacity="0.75"/>
<path d="M296.3,1775.0L302.5,1768.0L303.7,1765.9L303.9,1764.3L303.5,1762.4L302.4,1760.7L300.3,1758.9" fill="none" stroke="#8b98ab" stroke-width="1" opacity="0.75"/>
<path d="M286.1,1781.5L282.0,1777.5L280.9,1776.2L279.1,1773.3L278.3,1771.6L277.8,1769.6L277.7,1767.8L278.4,1765.1L279.5,1763.6L281.7,1761.8L284.7,1760.2L292.6,1756.7L295.7,1756.0L298.9,1756.1L301.8,1756.8L304.5,1758.2L307.3,1760.5L308.9,1762.7L309.6,1764.7L309.6,1766.7L309.2,1768.1L308.4,1769.3L307.2,1770.5L302.2,1774.4L296.4,1779.5L287.9,1787.3" fill="none" stroke="#8b98ab" stroke-width="1" opacity="0.75"/>
<path d="M287.1,1786.6L297.5,1776.3L302.9,1770.0L304.0,1768.4L304.6,1766.0L304.3,1763.5L303.2,1761.2L301.2,1759.4L299.6,1758.5L296.9,1757.8L293.7,1757.8L291.0,1758.2L287.1,1759.3L283.7,1760.9L280.9,1762.6L279.0,1764.5L278.2,1766.1L277.9,1767.8L278.1,1770.4L278.9,1772.5L280.2,1774.8L282.1,1777.4L286.2,1781.3" fill="none" stroke="#8b98ab" stroke-width="1" opacity="0.75"/>
<path d="M296.5,1784.7L299.2,1784.0L301.8,1782.3L303.4,1780.5L304.5,1778.2L305.1,1775.8L305.3,1773.2L305.3,1763.6L305.6,1758.6L306.4,1755.2L307.4,1753.2L308.7,1751.4L310.2,1750.1L314.6,1747.4L333.3,1737.8L338.0,1735.8" fill="none" stroke="#8b98ab" stroke-width="1" opacity="0.75"/>
<path d="M242.0,1570.5L236.7,1559.8L235.8,1557.3L235.3,1554.8L235.4,1553.1L235.7,1551.6L236.6,1549.6L238.4,1547.6L241.0,1545.9L256.5,1538.7L264.7,1535.1" fill="none" stroke="#8b98ab" stroke-width="1" opacity="0.75"/>
<path d="M917.5,120.6L919.9,121.0L921.7,120.8L923.4,119.9L933.8,113.9L938.1,112.4L940.4,112.1L941.8,112.1L944.0,112.8L946.0,114.2L952.5,123.0" fill="none" stroke="#8b98ab" stroke-width="1" opacity="0.75"/>
<path d="M949.1,119.2L946.5,114.3L945.7,112.4L945.7,110.5L946.4,108.3L947.9,106.7L955.7,101.9L962.8,96.5" fill="none" stroke="#8b98ab" stroke-width="1" opacity="0.75"/>
<path d="M958.2,101.4L956.9,102.7L954.8,104.3L948.7,108.0L947.5,109.4L947.0,110.5L946.8,112.0L947.1,113.8L952.0,123.3" fill="none" stroke="#8b98ab" stroke-width="1" opacity="0.75"/>
<path d="M917.5,120.6L920.2,121.4L922.4,121.2L924.6,120.3L937.4,113.0L940.5,112.3L942.4,112.3L943.5,112.5" fill="none" stroke="#8b98ab" stroke-width="1" opacity="0.75"/>
<path d="M888.2,104.6L893.2,96.3L895.4,93.5L896.2,92.8L897.5,92.3L898.9,92.2L900.1,92.5L901.7,93.5L902.9,95.1L904.0,98.3L905.2,103.8L906.4,108.0L907.7,110.6L909.7,113.4" fill="none" stroke="#8b98ab" stroke-width="1" opacity="0.75"/>
<path d="M296.0,1757.7L294.2,1757.5L292.7,1757.6L286.3,1758.7L282.3,1759.0L279.6,1758.6L277.2,1757.4L275.8,1756.3L274.7,1755.0L273.4,1752.6L270.3,1739.0" fill="none" stroke="#8b98ab" stroke-width="1" opacity="0.75"/>
<path d="M271.9,1746.8L273.0,1752.2L273.9,1754.4L275.8,1757.1L278.1,1758.8L281.0,1759.8L283.9,1759.8L287.0,1758.9L291.6,1757.1" fill="none" stroke="#8b98ab" stroke-width="1" opacity="0.75"/>
<path d="M1034.0,176.0L1035.6,175.8L1037.6,176.2L1046.9,178.2L1057.8,181.2L1066.1,182.4L1066.8,183.0L1065.9,183.3L1057.9,182.0L1054.7,181.1L1027.6,175.5L1026.2,175.0" fill="none" stroke="#8b98ab" stroke-width="1" opacity="0.75"/>
<path d="M913.8,474.1L924.9,486.0L926.2,487.0L927.8,487.8L929.4,488.2L931.3,488.3L933.9,487.7L936.4,486.5L952.4,476.1L954.5,474.9L957.2,473.7" fill="none" stroke="#8b98ab" stroke-width="1" opacity="0.75"/>
<path d="M678.3,848.2L678.1,846.4L676.5,842.5L675.9,840.1" fill="none" stroke="#8b98ab" stroke-width="1" opacity="0.75"/>
<path d="M249.7,1585.8L242.5,1573.4L233.2,1555.9L232.1,1554.6L231.0,1554.0L229.4,1553.8L228.0,1554.2L224.2,1556.4L218.4,1559.5L203.9,1566.7L196.5,1570.1" fill="none" stroke="#8b98ab" stroke-width="1" opacity="0.75"/>
<path d="M254.8,1540.5L247.2,1544.8L241.6,1547.6L239.3,1549.1L238.2,1550.2L236.8,1552.5L236.2,1555.1L236.5,1557.8L237.5,1561.0" fill="none" stroke="#8b98ab" stroke-width="1" opacity="0.75"/>
<path d="M678.6,844.8L675.0,838.6L674.6,836.8" fill="none" stroke="#8b98ab" stroke-width="1" opacity="0.75"/>
<path d="M669.1,828.8L669.9,829.2L672.9,832.1L675.2,834.7L677.4,837.8L680.3,842.6" fill="none" stroke="#8b98ab" stroke-width="1" opacity="0.75"/>
<path d="M1103.9,370.9L1105.4,379.6L1106.5,382.2L1107.9,384.4L1109.1,385.5L1110.9,386.6L1113.0,387.2L1115.6,387.2L1117.2,386.8L1130.4,381.9L1135.5,380.7L1149.9,378.9L1152.1,378.7L1156.1,378.9" fill="none" stroke="#8b98ab" stroke-width="1" opacity="0.75"/>
<path d="M949.1,119.2L947.1,116.5L945.3,114.8L943.3,113.7L941.0,113.3L939.2,113.6L937.2,114.3L929.4,118.4" fill="none" stroke="#8b98ab" stroke-width="1" opacity="0.75"/>
<path d="M296.4,1784.6L299.0,1783.7L300.5,1782.8L301.8,1781.6L303.2,1779.3L303.7,1777.7L303.9,1776.1L303.5,1773.3L302.9,1771.9L302.0,1770.7L300.6,1769.4L299.6,1768.8L297.2,1767.9L294.3,1767.9L292.9,1768.2L290.5,1769.4L289.4,1770.2L285.6,1774.1L278.9,1782.1" fill="none" stroke="#8b98ab" stroke-width="1" opacity="0.75"/>
<path d="M666.9,1179.0L666.8,1180.7L667.2,1185.7L667.4,1192.9L666.5,1197.9" fill="none" stroke="#8b98ab" stroke-width="1" opacity="0.75"/>
<path d="M774.4,349.8L771.3,356.0" fill="none" stroke="#8b98ab" stroke-width="1" opacity="0.75"/>
<path d="M1160.5,379.6L1159.3,380.0L1154.6,380.9L1137.4,383.1L1134.0,383.8L1128.4,385.4L1117.2,389.8L1114.1,390.3L1112.0,390.0L1109.4,389.0L1107.7,387.5L1106.5,385.7L1105.6,383.6L1104.8,380.8L1102.2,364.4" fill="none" stroke="#8b98ab" stroke-width="1" opacity="0.75"/>
<path d="M710.8,961.8L710.7,959.1L710.8,956.6L713.2,941.1L713.8,938.6L714.9,936.4L715.7,935.4L717.8,933.5L723.8,929.9L726.4,927.5L751.2,898.3L753.9,894.1L756.1,889.1L757.0,886.1L757.6,882.9L757.8,879.5L757.7,876.2L756.6,869.1L753.7,857.5L751.9,847.3L751.3,841.5L751.4,836.6" fill="none" stroke="#8b98ab" stroke-width="1" opacity="0.75"/>
<path d="M1156.1,378.9L1157.4,378.7L1158.6,378.6L1159.8,378.5L1160.8,378.4L1161.8,378.3L1162.7,378.3L1163.5,378.3L1164.1,378.2L1164.7,378.2L1165.2,378.3L1165.5,378.3L1165.8,378.4L1165.9,378.4L1165.9,378.5L1165.7,378.6L1165.4,378.7L1165.0,378.9L1164.4,379.0L1163.7,379.1L1162.8,379.3L1161.7,379.4L1160.5,379.6" fill="none" stroke="#4fc9ff" stroke-width="1" opacity="0.75"/>
<path d="M271.0,1795.4L270.5,1796.3L270.0,1797.0L269.6,1797.8L269.2,1798.4L268.8,1799.0L268.5,1799.5L268.2,1799.9L267.9,1800.3L267.7,1800.5L267.5,1800.7L267.4,1800.9L267.3,1800.9L267.2,1800.9L267.2,1800.7L267.3,1800.5L267.4,1800.2L267.6,1799.8L267.8,1799.4L268.1,1798.8L268.4,1798.1L268.9,1797.4L269.3,1796.6" fill="none" stroke="#4fc9ff" stroke-width="1" opacity="0.75"/>
<path d="M978.1,80.1L978.4,79.2L978.7,78.4L979.0,77.7L979.3,77.1L979.5,76.7L979.7,76.3L979.9,76.0L980.0,75.8L980.1,75.7L980.1,75.7L980.1,75.8L980.1,76.0L980.1,76.3L980.0,76.6L979.9,77.0L979.7,77.5L979.5,78.1L979.3,78.8L979.1,79.5L978.8,80.3L978.5,81.1L978.1,82.0" fill="none" stroke="#8b98ab" stroke-width="1" opacity="0.75"/>
<path d="M37.8,1652.8L37.2,1653.6L36.7,1654.3L36.2,1654.9L35.7,1655.4L35.3,1655.9L35.0,1656.3L34.7,1656.6L34.5,1656.8L34.3,1657.0L34.2,1657.1L34.1,1657.1L34.1,1657.0L34.1,1656.9L34.3,1656.7L34.4,1656.4L34.6,1656.0L34.9,1655.6L35.3,1655.1L35.7,1654.5L36.1,1653.9L36.6,1653.2L37.2,1652.4" fill="none" stroke="#e87bff" stroke-width="1" opacity="0.75"/>
<path d="M236.9,1561.3L236.4,1560.4L236.0,1559.7L235.6,1559.0L235.3,1558.3L235.1,1557.8L234.8,1557.3L234.7,1556.9L234.6,1556.6L234.5,1556.4L234.5,1556.3L234.5,1556.2L234.6,1556.2L234.7,1556.3L234.8,1556.5L235.0,1556.8L235.2,1557.1L235.5,1557.6L235.8,1558.1L236.2,1558.7L236.6,1559.4L237.0,1560.2L237.5,1561.0" fill="none" stroke="#8b98ab" stroke-width="1" opacity="0.75"/>
<circle cx="766.1" cy="395.5" r="6" fill="none" stroke="#6fe3ff" stroke-width="1.6"/>
<text x="775.1" y="395.5" fill="#9fc" font-size="11" font-family="monospace">Shibaura PA</text>
<circle cx="1089.4" cy="399.5" r="6" fill="none" stroke="#6fe3ff" stroke-width="1.6"/>
<text x="1098.4" y="399.5" fill="#9fc" font-size="11" font-family="monospace">Tatsumi PA</text>
<circle cx="671.7" cy="833.1" r="6" fill="none" stroke="#6fe3ff" stroke-width="1.6"/>
<text x="680.7" y="833.1" fill="#9fc" font-size="11" font-family="monospace">Heiwajima PA</text>
<circle cx="290.9" cy="1776.8" r="6" fill="none" stroke="#6fe3ff" stroke-width="1.6"/>
<text x="299.9" y="1776.8" fill="#9fc" font-size="11" font-family="monospace">Daikoku PA</text>
<circle cx="769.8" cy="361.6" r="3" fill="#f66"/>
<circle cx="913.0" cy="473.5" r="3" fill="#f66"/>
<circle cx="950.4" cy="114.5" r="3" fill="#f66"/>
<circle cx="1103.1" cy="367.7" r="3" fill="#f66"/>
<circle cx="773.7" cy="319.5" r="3" fill="#f66"/>
<circle cx="681.8" cy="1128.0" r="3" fill="#f66"/>
<circle cx="881.1" cy="95.4" r="3" fill="#f66"/>
<circle cx="285.0" cy="1786.6" r="3" fill="#f66"/>
<circle cx="755.6" cy="405.9" r="3" fill="#f66"/>
<circle cx="886.7" cy="521.3" r="3" fill="#f66"/>
<circle cx="1051.6" cy="414.6" r="3" fill="#f66"/>
<circle cx="711.3" cy="959.9" r="3" fill="#f66"/>
<circle cx="751.9" cy="836.6" r="3" fill="#f66"/>
<circle cx="699.4" cy="1075.2" r="3" fill="#f66"/>
<circle cx="333.1" cy="1739.0" r="3" fill="#f66"/>
<circle cx="960.3" cy="472.3" r="3" fill="#f66"/>
<circle cx="259.8" cy="1537.8" r="3" fill="#f66"/>
<circle cx="240.7" cy="1567.9" r="3" fill="#f66"/>
<circle cx="914.9" cy="118.2" r="3" fill="#f66"/>
<circle cx="271.1" cy="1742.9" r="3" fill="#f66"/>
<circle cx="1030.1" cy="175.5" r="3" fill="#f66"/>
<circle cx="674.1" cy="836.8" r="3" fill="#f66"/>
<circle cx="666.7" cy="1188.5" r="3" fill="#f66"/>
<circle cx="1158.3" cy="379.2" r="3" fill="#f66"/>
<circle cx="978.1" cy="81.1" r="3" fill="#f66"/>
<circle cx="37.5" cy="1652.6" r="3" fill="#f66"/>
</svg>