<svg xmlns="http://www.w3.org/2000/svg" width="1200" height="1844" style="background:#0a0d18">
<path d="M873.7,165.3L874.0,163.8L874.4,162.4L874.4,160.6L874.5,158.7L874.6,156.9L875.1,154.7L876.1,152.6L877.1,150.6L878.1,148.6L879.1,146.5L880.1,144.5L881.1,142.5L882.1,140.6L883.1,138.6L884.2,136.7L885.2,134.7L886.3,132.5L887.4,130.3L888.5,128.0L889.6,125.8L890.7,123.6L891.8,121.4L892.9,119.2L894.0,116.9L895.1,114.7L896.2,112.5L897.3,110.3L898.4,108.1L899.5,105.8L900.7,103.6L901.8,101.4L902.9,99.2L904.0,97.0L905.1,94.7L906.2,92.5L907.3,90.3L907.7,89.0L907.7,87.6L907.3,86.2L906.4,85.3L905.1,84.8L903.0,84.7L900.5,85.2L898.0,85.6L895.4,86.1L892.9,86.5L890.4,86.9L888.1,87.0L885.8,87.1L883.5,86.8L881.1,86.5L879.1,86.0L877.0,85.5L875.0,85.1L873.0,84.6L870.9,84.2L869.4,83.6L867.8,83.1L866.0,81.8L864.5,79.8L863.7,77.7L862.9,75.6L862.1,73.4L861.3,71.3L860.3,69.2L859.1,67.4L857.9,65.7L856.6,63.9L855.4,62.1L854.3,60.7L853.2,59.4L851.7,58.0L849.7,56.7L847.8,55.7L845.8,54.7L843.8,53.7L841.8,53.1L839.8,52.5L837.8,51.9L835.9,51.3L833.8,50.8L831.8,50.4L829.8,50.0L827.7,49.6L825.4,48.8L823.5,47.5L821.8,45.8L820.2,44.2L818.2,42.7L816.2,41.7L814.1,40.8L812.0,39.8L810.4,38.7L808.8,37.6L807.2,36.5L805.8,36.0L804.4,35.5L802.1,35.5L799.8,35.5L797.6,35.5L795.3,35.4L793.0,35.4L790.6,35.0L788.2,34.7L785.8,34.3L783.4,33.9L781.0,33.5L779.6,33.6L778.3,33.6L776.4,34.1L774.2,35.1L772.0,36.0L769.7,37.0L767.5,38.0L765.2,38.9L763.0,39.9L760.8,40.8L758.7,42.0L756.6,43.1L754.5,44.2L752.4,45.4L750.3,46.5L748.2,47.6L746.2,48.8L744.3,49.1L742.5,49.2L740.1,49.0L737.6,48.8L735.2,48.6L732.7,48.3L730.3,48.1L728.0,48.6L725.7,49.0L723.5,49.4L721.2,49.8L719.8,50.3L718.4,50.8L717.2,51.6L716.1,52.9L715.4,54.3L714.9,56.5L714.4,59.0L714.0,61.4L713.5,63.8L713.1,66.2L712.6,68.7L712.1,71.1L711.7,73.5L711.2,76.0L710.8,78.4L710.3,80.8L709.8,83.2L709.3,85.5L708.7,87.9L708.2,90.2L707.9,92.4L707.6,94.6L707.3,96.7L707.0,98.9L707.0,100.7L707.1,102.5L707.8,104.8L708.7,106.7L709.6,108.6L710.5,110.5L711.4,112.3L712.5,114.3L713.6,115.7L715.5,117.4L716.8,118.3L718.9,119.4L720.9,120.4L722.9,121.4L724.9,122.4L726.8,123.8L727.8,124.9L728.8,126.0L730.3,128.0L731.7,129.9L733.2,131.9L734.7,133.9L736.1,135.9L737.1,137.6L737.8,139.7L737.9,141.5L737.7,142.9L737.5,144.3L737.0,146.1L736.4,147.3L735.9,148.6L734.7,150.8L733.6,153.0L732.4,155.2L731.2,157.4L730.0,159.6L728.9,161.8L727.6,163.6L726.1,165.3L724.6,167.0L723.2,168.8L722.2,169.8L721.1,170.8L719.4,171.8L717.8,172.4L716.3,173.0L714.1,173.5L712.0,174.1L709.8,174.6L707.7,175.2L705.5,176.1L704.0,177.1L702.8,178.4L701.6,179.7L700.0,181.6L698.5,183.4L696.9,185.3L695.4,187.2L693.8,189.1L692.3,191.0L690.7,192.8L689.3,194.7L687.9,196.5L686.5,198.3L685.1,200.1L683.7,201.9L682.3,203.8L680.9,205.6L679.7,207.4L679.0,209.2L678.2,211.0L677.6,213.5L677.3,216.0L677.1,218.4L676.8,220.9L676.4,223.4L676.0,226.0L675.5,228.4L675.0,230.8L674.5,233.2L674.0,235.6L673.5,238.1L673.0,240.5L672.5,242.9L672.0,245.3L671.5,247.7L671.0,250.1L670.3,252.0L669.7,253.8L668.6,255.6L667.5,257.4L666.4,259.2L665.3,260.9L664.4,262.8L664.0,264.2L663.6,265.6L663.3,267.7L662.9,269.7L662.5,271.8L662.5,273.1L662.4,274.4L662.9,276.6L663.4,278.0L663.9,279.4L664.8,281.2L665.7,283.0L666.6,284.8L667.5,286.6L668.7,288.6L670.0,290.0L671.5,291.0L673.4,291.7L676.0,292.0L678.5,292.4L681.1,292.8L683.6,293.2L686.2,293.5L688.2,294.1L690.3,294.6L692.4,295.2L694.4,295.7L696.5,296.3L698.7,296.5L701.0,296.7L703.3,297.0L705.5,297.2L707.8,297.4L710.0,297.6L712.3,297.9L713.8,298.2L715.2,298.4L717.0,299.3L718.5,300.5L719.9,302.1L721.1,303.8L722.3,305.5L723.6,306.7L724.9,307.5L726.1,308.2L727.5,308.7L729.0,309.1L731.0,309.4L733.0,309.6L735.0,309.9L736.5,309.9L738.0,309.9L739.3,309.5L740.6,309.1L742.7,308.0L744.7,306.9L746.2,306.3L747.6,306.0L749.2,306.0L751.7,306.5L754.1,307.0L756.6,307.5L759.1,308.0L761.6,308.4L764.1,308.9L766.6,309.4L768.9,309.8L771.2,310.1L773.1,310.3L775.1,310.6L777.0,310.8L779.0,311.0L781.1,311.2L783.2,311.4L785.4,311.6L787.7,311.7L790.1,311.8L792.4,311.9L794.7,312.0L796.9,311.7L798.1,311.2L798.9,310.6L799.7,309.8L800.3,308.4L800.5,307.1L800.6,304.9L800.8,302.7L800.9,300.6L801.0,298.4L801.1,296.2L801.1,293.8L801.1,291.3L801.1,288.9L801.1,286.3L801.1,283.8L801.1,281.3L801.1,278.7L800.9,276.8L800.2,274.3L799.0,272.0L797.8,269.8L797.3,268.0L797.4,266.1L798.2,263.8L799.6,261.7L801.0,259.6L802.4,257.5L803.8,255.3L805.2,253.2L806.6,251.1L808.0,249.0L809.4,246.8L810.8,244.7L812.2,242.6L813.6,240.5L815.0,238.3L816.4,236.2L817.5,235.1L819.6,233.9L821.9,233.1L824.2,232.4L825.8,231.7L827.7,230.4L829.2,228.9L830.6,227.1L832.0,225.2L833.4,223.3L834.8,221.4L836.5,219.6L838.3,217.8L840.1,216.0L841.9,214.1L843.6,212.3L844.4,210.5L844.8,208.2L845.2,205.9L845.8,204.7L846.5,203.6L848.3,201.8L850.1,199.9L851.9,198.1L853.7,196.3L855.5,194.4L857.3,192.6L859.1,190.8L860.9,188.9L862.7,187.1L864.5,185.2L865.7,183.7L866.9,182.1L868.1,180.5L869.4,178.9L870.0,177.7L870.6,176.6" fill="none" stroke="#ffb454" stroke-width="2.2" opacity="1"/>
<path d="M664.8,219.6L666.5,218.3L668.2,217.0L669.9,215.5L671.7,214.0L673.4,212.5L675.2,211.0L676.8,209.4L678.3,207.9L679.7,206.1L681.1,204.4L682.5,202.6L683.9,200.5L685.4,198.4L686.9,196.3L688.4,194.3L689.9,192.2L691.4,190.5L692.9,188.7L694.4,187.0L695.9,185.3L697.5,183.6L699.0,181.9L700.5,180.1L702.0,178.4L703.7,176.7L705.2,175.8L706.7,174.9L709.0,174.2L711.4,173.5L713.7,172.8L716.1,172.0L717.5,171.3L718.9,170.6L720.0,169.6L721.2,168.6L722.6,167.0L724.0,165.3L725.4,163.7L726.8,162.0L728.2,160.1L729.2,158.0L730.3,155.9L731.3,153.9L732.4,151.8L733.5,149.7L734.5,147.6L735.6,145.5L736.6,143.5L736.9,142.4L736.9,140.8L736.5,139.3L736.2,137.8L734.9,135.9L733.7,134.1L732.4,132.2L731.2,130.1L730.0,128.0L728.7,126.4L727.4,124.9L726.2,123.7L725.1,123.0L723.9,122.4L722.1,121.6L720.3,120.8L718.5,120.0L716.9,118.8L715.5,117.5L714.4,115.9L713.4,114.4L712.5,112.5L711.6,110.6L710.7,108.7L709.8,106.8L709.2,105.4L708.6,104.1L708.2,102.6L707.7,101.0L707.5,98.6L707.2,96.2L707.3,94.6L707.5,93.0L708.0,90.5L708.4,88.0L708.9,85.4L709.4,82.9L709.8,80.4L710.3,77.9L710.8,75.3L711.2,72.8L711.7,70.3L712.2,67.7L712.6,65.2L713.1,62.7L713.6,60.1L714.0,57.6L714.5,55.1L714.9,53.6L715.8,52.3L717.0,51.0L718.0,50.4L719.4,49.9L720.8,49.4L723.4,48.8L725.9,48.3L728.4,47.7L731.0,47.2L732.5,47.3L734.1,47.4L736.5,47.7L738.9,48.1L741.3,48.5L743.0,48.5L745.1,48.1L747.3,47.3L748.9,46.5L750.4,45.7L752.4,44.6L754.4,43.5L756.3,42.5L758.3,41.4L760.4,40.4L762.6,39.3L764.7,38.3L766.9,37.3L769.0,36.3L771.1,35.2L773.3,34.2L775.3,33.5L777.3,32.8L779.1,32.7L780.8,32.6L782.9,32.9L785.0,33.2L787.1,33.4L789.2,33.7L791.7,33.8L794.2,33.9L796.6,34.1L799.1,34.2L801.6,34.3L804.0,34.5L805.6,34.9L807.4,35.6L809.1,36.7L810.9,37.8L812.6,38.9L814.8,39.9L817.0,41.0L819.2,42.0L820.9,43.3L822.7,45.1L824.5,46.8L826.3,47.9L828.4,48.5L830.5,49.0L832.5,49.6L834.6,50.2L836.9,50.5L839.1,50.8L841.4,51.1L843.4,51.6L844.6,52.1L845.9,52.5L848.0,53.8L849.7,55.2L851.4,56.6L853.2,58.0L854.6,59.7L856.1,61.5L857.5,63.6L858.9,65.7L860.3,67.8L861.8,69.9L862.4,71.5L863.1,73.1L863.9,75.3L864.6,77.6L865.4,79.1L866.6,80.5L868.5,81.8L870.7,82.3L872.8,82.9L875.0,83.4L877.2,83.9L879.4,84.5L881.4,84.9L883.3,85.2L885.3,85.6L887.2,86.0L888.8,86.1L890.7,85.9L892.7,85.7L894.8,85.3L896.8,84.8L898.9,84.4L900.9,84.0L902.7,83.8L904.1,83.9L905.3,84.3L906.2,84.9L907.2,86.2L907.7,88.0L907.5,89.8L906.7,91.6L905.9,93.4L905.0,95.2L904.2,97.4L903.3,99.5L902.2,101.8L901.1,104.2L899.9,106.5L898.8,108.9L897.7,111.2L896.6,113.5L895.4,115.9L894.3,118.2L893.2,120.6L892.1,122.9L890.9,125.2L889.8,127.6L888.7,129.9L887.6,132.3L886.6,134.2L885.7,136.1L884.8,138.0L883.8,139.9L882.9,141.8L881.7,144.0L880.6,146.3L879.4,148.5L878.2,150.8L877.1,153.0L875.9,155.3L875.5,156.8L875.4,159.1L875.3,161.5L875.2,163.8L874.6,166.1L874.0,168.3L873.4,170.5L872.7,172.8L872.1,175.0L871.1,177.4L870.0,179.7L869.1,181.1L868.1,182.5L866.8,184.0L865.5,185.4L864.2,186.9L862.5,188.6L860.9,190.2L859.2,191.9L857.6,193.5L856.0,195.2L854.3,196.8L852.7,198.5L851.0,200.1L849.4,201.8L848.4,202.9L847.5,204.0L846.2,206.3L845.8,208.6L845.4,210.8L844.5,212.8L843.4,214.2L841.7,215.7L840.1,217.2L838.5,218.7L836.8,220.2L835.2,221.7L833.7,223.8L832.2,225.8L830.6,227.8L829.1,229.8L827.3,231.5L825.9,232.4L824.4,233.2L822.6,233.9L820.8,234.6L819.0,235.3L817.6,236.3L816.3,237.5L815.5,238.6L814.8,239.6L813.5,241.6L812.2,243.6L810.9,245.5L809.6,247.5L808.3,249.5L807.0,251.6L805.6,253.7L804.3,255.8L802.9,257.9L801.6,260.0L800.3,262.1L798.9,264.2L798.2,266.6L798.4,268.7L799.0,270.4L800.1,272.5L801.3,274.6L801.7,276.0L802.0,277.5L802.0,279.8L802.0,282.2L802.0,284.5L802.0,286.9L802.0,289.2L802.0,291.6L802.0,293.9L802.0,296.2L801.9,298.6L801.8,300.9L801.6,303.2L801.5,305.6L801.4,307.9L800.6,310.2L799.6,311.3L798.8,311.9L796.8,312.7L795.0,312.9L792.8,312.8L790.6,312.7L788.4,312.6L786.2,312.5L784.0,312.4L781.5,312.2L779.0,311.9L776.5,311.6L774.0,311.3L771.5,311.1L769.0,310.8L766.5,310.5L764.0,310.0L761.5,309.5L759.0,308.9L756.5,308.4L754.0,307.9L751.5,307.3L749.2,307.1L747.1,307.3L745.9,307.7L743.7,308.8L741.5,310.0L739.5,310.8L738.1,311.1L736.0,311.1L733.6,310.7L731.3,310.4L728.9,310.0L727.3,309.6L725.7,309.3L723.5,308.2L722.5,307.2L721.5,306.3L720.3,304.7L719.1,303.1L717.9,301.5L716.4,300.3L714.9,299.6L712.9,299.2L710.9,298.9L708.9,298.5L706.9,298.2L704.4,297.9L701.9,297.6L699.3,297.4L696.8,297.1L694.3,296.9L692.4,296.3L690.6,295.7L688.7,295.0L686.9,294.3L685.1,293.6L682.7,293.3L680.4,292.9L678.0,292.6L675.7,292.2L673.4,291.8L671.4,291.2L670.4,290.6L669.4,289.7L668.2,288.2L667.5,287.0L666.8,285.8L665.9,283.9L665.0,282.1L664.1,280.3L663.3,278.4L662.6,276.7L662.1,274.4L662.2,273.1L662.3,271.7L662.6,269.7L663.0,267.6L663.4,265.6L663.8,264.2L664.3,262.7L665.1,260.9L666.4,258.8L667.7,256.7L669.0,254.6L669.7,253.0L670.4,251.4L670.9,249.0L671.4,246.6L671.9,244.2L672.4,241.7L672.9,239.3L673.4,236.9L673.9,234.5L674.5,232.1L675.0,229.7L675.5,227.3L675.8,225.2L676.2,223.0L676.5,220.9L676.7,218.9L676.9,216.9L677.1,214.9L677.4,213.5L677.6,212.2L678.4,209.8L678.9,208.6L679.4,207.4L680.5,205.8L681.5,204.2L682.5,202.6L683.1,201.3L682.2,201.7L681.1,202.6L680.0,203.4L678.4,204.9L676.8,206.4L675.2,207.9L673.6,209.4L672.1,211.0L670.5,212.5L669.0,214.1L667.4,215.7L665.8,217.3L664.9,218.4L664.0,219.4L663.6,220.3Z" fill="none" stroke="#ffb454" stroke-width="2.2" opacity="1"/>
<path d="M797.3,322.5L798.2,320.3L799.1,318.2L800.1,316.0L800.6,314.4L801.1,312.7L801.3,311.0L801.4,309.3L801.6,307.6L801.5,305.3L801.4,303.0L801.3,300.7L801.2,298.5L801.2,296.2" fill="none" stroke="#ffb454" stroke-width="2.2" opacity="1"/>
<path d="M870.5,176.5L871.1,174.2L871.6,171.9L872.2,169.6L872.9,167.4L873.6,165.2" fill="none" stroke="#ffb454" stroke-width="2.2" opacity="1"/>
<path d="M870.7,176.6L871.3,174.3L871.9,172.1L872.5,169.8L873.2,167.6L873.8,165.3" fill="none" stroke="#ffb454" stroke-width="2.2" opacity="1"/>
<path d="M797.1,322.4L797.4,320.9L797.8,319.4L797.8,317.9L797.0,315.9L795.9,314.7L794.5,314.0L793.4,313.7L791.2,313.5L789.0,313.2L786.5,312.7L784.0,312.2" fill="none" stroke="#ffb454" stroke-width="2.2" opacity="1"/>
<path d="M791.8,335.6L792.7,333.4L793.6,331.2L794.5,329.0L795.4,326.8L796.3,324.6L797.2,322.4" fill="none" stroke="#ffb454" stroke-width="2.2" opacity="1"/>
<path d="M925.5,450.3L924.1,448.2L922.7,446.2L921.2,444.2L919.8,442.2L918.7,440.9L917.6,439.7L916.3,438.4L914.9,437.0L913.3,435.9L911.7,434.8L910.5,434.2L909.3,433.5L907.7,432.9L906.1,432.2L903.7,431.5L902.0,431.2L900.3,430.9L898.7,430.8L897.0,430.8L895.1,430.9L893.2,431.0L891.0,431.4L888.8,431.8L886.5,432.4L884.2,433.0L881.8,433.9L879.4,434.7L877.2,435.7L875.0,436.7L872.8,437.7L870.6,438.7L868.3,439.6L866.1,440.6L864.4,441.2L862.7,441.8L861.3,442.2L859.8,442.6L858.0,442.8L855.6,442.8L853.2,442.7L851.4,442.3L849.7,441.9L847.3,441.1L844.9,440.2L842.6,439.3L840.2,438.4L837.7,437.5L835.3,436.5L832.9,435.6L830.5,434.7L828.1,433.7L825.6,432.8L823.2,431.8L820.8,430.9L818.4,430.0L816.0,429.0L813.5,428.1L811.1,427.1L808.7,426.2L806.3,425.3L803.9,424.3L801.5,423.4L799.0,422.4L796.6,421.5L794.5,420.5L793.1,419.6L791.8,418.6L790.9,417.7L790.0,416.7L788.8,415.0L788.0,413.0L787.4,410.6L787.4,408.2L787.3,405.7L787.3,403.3L787.3,400.8L787.3,398.3L787.3,395.9L787.2,393.4L787.2,390.9L787.2,388.5L787.2,386.0L787.1,383.5L787.1,381.1L787.1,378.6L787.1,376.2L787.1,373.7L787.0,371.2L787.0,368.8L786.8,367.4L786.5,366.0L785.7,363.8L784.9,361.6L784.2,359.4L783.8,357.7L783.7,355.9L784.1,354.3L784.5,352.7L785.4,350.4L786.3,348.2L787.2,345.9L788.1,343.7L789.0,341.5L789.9,339.5L790.8,337.5L791.7,335.6" fill="none" stroke="#ffe667" stroke-width="2.2" opacity="1"/>
<path d="M787.0,350.3L786.4,352.1L785.7,354.0L785.1,355.8L784.9,357.3L784.8,358.7L785.0,361.0L785.6,362.8L786.3,364.6L787.0,366.4L787.3,368.5L787.7,370.6L787.8,373.0L787.8,375.5L787.8,377.9L787.9,380.4L787.9,382.8L787.9,385.3L788.0,387.7L788.0,390.2L788.0,392.6L788.1,395.1L788.1,397.5L788.2,400.0L788.2,402.4L788.2,404.9L788.3,407.3L788.3,409.8L788.6,411.1L788.9,412.4L789.4,413.7L790.0,415.0L791.4,416.8L792.3,417.6L793.3,418.5L794.6,419.3L796.0,420.1L797.2,420.6L798.4,421.1L800.7,422.0L803.1,423.0L805.4,423.9L807.8,424.8L810.1,425.7L812.5,426.6L814.8,427.5L817.1,428.5L819.5,429.4L821.8,430.3L824.2,431.2L826.5,432.1L828.9,433.0L831.2,433.9L833.5,434.9L835.9,435.8L838.2,436.7L840.6,437.6L842.9,438.5L845.3,439.4L847.6,440.2L850.0,441.0L852.0,441.4L854.1,441.8L856.3,441.8L858.6,441.7L860.5,441.3L862.5,440.8L864.2,440.2L866.0,439.5L867.7,438.8L869.9,437.9L872.1,436.9L874.3,435.9L876.5,435.0L878.7,434.0L880.9,433.1L882.3,432.5L883.8,432.0L886.3,431.4L888.7,430.7L890.9,430.3L893.1,429.9L895.1,429.8L897.1,429.7L898.7,429.7L900.4,429.8L902.2,430.1L903.9,430.4L905.7,431.0L907.5,431.5L909.3,432.3L911.0,433.1L912.7,434.2L914.4,435.2L915.5,436.1L916.6,437.0L918.1,438.6L919.6,440.2L920.9,442.1L922.1,443.9L923.4,445.8L924.7,447.7L925.9,449.5L927.2,451.4" fill="none" stroke="#ffe667" stroke-width="2.2" opacity="1"/>
<path d="M261.9,1806.3L263.2,1804.0L264.4,1801.7L265.6,1799.5L266.8,1797.2L268.0,1795.0L269.2,1792.7L270.4,1790.5L271.7,1788.2L272.9,1786.0L274.1,1783.7L275.3,1781.4L276.5,1779.2L277.7,1776.9L278.9,1774.7L280.1,1772.4L281.4,1770.2L282.6,1767.9L283.8,1765.7L285.0,1763.4L286.2,1761.2L287.4,1758.9L288.6,1756.6L289.9,1754.4L291.1,1752.1L292.3,1749.9L293.5,1747.6L294.7,1745.4L295.9,1743.1L297.1,1740.9L298.4,1738.6L299.6,1736.3L300.8,1734.1L302.0,1731.8L303.2,1729.6L304.4,1727.3L305.6,1725.1L306.8,1722.8L308.1,1720.6L309.3,1718.3L310.5,1716.1L311.7,1713.8L312.9,1711.5L314.1,1709.3L315.2,1707.4L316.3,1705.6L317.3,1703.7L318.4,1701.9L319.5,1700.0L320.8,1698.2L322.1,1696.4L323.4,1694.6L324.7,1692.8L326.0,1691.0L327.3,1689.2L328.2,1688.1L329.2,1687.0L330.9,1685.4L332.6,1683.8L334.3,1682.2L336.0,1680.6L337.7,1679.0L339.6,1677.4L341.6,1675.8L343.6,1674.2L345.5,1672.6L347.7,1671.3L349.9,1670.0L352.0,1668.6L354.2,1667.3L356.4,1666.0L358.3,1665.0L360.3,1664.0L362.2,1663.0L364.1,1661.9L366.1,1660.9L368.1,1659.8L370.1,1658.6L372.1,1657.5L374.2,1656.3L376.2,1655.2L378.2,1654.0L380.5,1652.8L382.7,1651.6L385.0,1650.3L387.2,1649.1L389.5,1647.9L391.8,1646.6L394.0,1645.4L396.3,1644.2L398.5,1642.9L400.8,1641.7L403.0,1640.5L405.3,1639.3L407.5,1638.0L409.8,1636.8L412.0,1635.6L414.3,1634.3L416.5,1633.1L418.8,1631.9L421.0,1630.6L423.3,1629.4L425.6,1628.2L427.8,1627.0L430.1,1625.7L432.3,1624.5L434.6,1623.3L436.8,1622.0L439.1,1620.8L441.3,1619.6L443.6,1618.4L445.8,1617.1L448.1,1615.9L450.3,1614.7L452.6,1613.4L454.8,1612.2L457.1,1611.0L459.4,1609.7L461.6,1608.5L463.9,1607.3L466.1,1606.1L468.4,1604.8L470.6,1603.6L472.9,1602.4L475.1,1601.1L477.4,1599.9L479.6,1598.7L481.9,1597.4L484.1,1596.2L486.4,1595.0L488.6,1593.8L490.9,1592.5L493.2,1591.3L495.4,1590.1L497.7,1588.8L499.9,1587.6L502.2,1586.4L504.4,1585.1L506.7,1583.9L508.9,1582.7L511.2,1581.5L513.4,1580.2L515.7,1579.0L517.9,1577.8L520.2,1576.5L522.5,1575.3L524.7,1574.1L527.0,1572.9L529.2,1571.6L531.5,1570.4L533.7,1569.2L536.0,1568.0L538.2,1566.8L540.5,1565.6L542.7,1564.3L545.0,1563.1L547.2,1561.9L549.5,1560.7L551.8,1559.5L554.0,1558.2L556.3,1557.0L558.5,1555.8L560.8,1554.6L563.0,1553.4L565.3,1552.2L567.5,1550.9L569.8,1549.7L572.0,1548.5L574.3,1547.3L576.5,1546.1L578.8,1544.9L581.1,1543.6L583.3,1542.4L585.6,1541.2L587.8,1540.0L590.1,1538.8L592.3,1537.5L594.6,1536.3L596.8,1535.1L599.1,1533.9L601.3,1532.7L603.6,1531.5L605.9,1530.2L608.2,1529.0L610.4,1527.8L612.7,1526.6L615.0,1525.4L617.2,1524.2L619.5,1522.9L621.8,1521.7L624.0,1520.5L626.3,1519.3L628.6,1518.1L630.9,1516.9L633.1,1515.6L635.4,1514.4L637.7,1513.2L639.9,1512.0L642.2,1510.8L644.5,1509.5L646.7,1508.3L649.0,1507.1L651.3,1505.9L653.6,1504.7L655.8,1503.5L658.1,1502.2L660.4,1501.0L662.6,1499.8L664.9,1498.6L667.2,1497.4L669.4,1496.2L671.7,1494.9L674.0,1493.7L676.3,1492.5L678.5,1491.3L680.8,1490.1L683.1,1488.9L685.3,1487.6L687.6,1486.4L689.9,1485.2L692.1,1484.0L694.4,1482.8L696.7,1481.5L698.9,1480.3L701.2,1479.1L703.4,1477.8L705.7,1476.6L708.0,1475.3L710.2,1474.1L712.5,1472.9L714.7,1471.6L717.0,1470.4L719.2,1469.2L721.5,1467.9L723.8,1466.7L726.0,1465.5L728.3,1464.2L730.5,1463.0L732.8,1461.8L735.1,1460.5L737.3,1459.3L739.6,1458.1L741.8,1456.8L744.1,1455.6L746.3,1454.4L748.6,1453.1L750.9,1451.9L753.1,1450.7L755.4,1449.4L757.6,1448.2L759.9,1447.0L762.2,1445.7L764.4,1444.5L766.7,1443.3L768.9,1442.0L771.2,1440.8L773.4,1439.6L775.7,1438.3L778.0,1437.1L780.2,1435.9L782.5,1434.6L784.7,1433.4L787.0,1432.2L789.3,1430.9L791.5,1429.7L793.8,1428.5L796.0,1427.2L798.3,1426.0L800.5,1424.8L802.8,1423.5L805.1,1422.3L807.3,1421.1L809.5,1419.8L811.7,1418.6L813.9,1417.4L816.1,1416.2L818.3,1415.0L820.6,1413.7L822.8,1412.5L825.0,1411.3L827.2,1410.1L829.4,1408.9L831.6,1407.6L833.8,1406.4L836.1,1405.2L838.3,1404.0L840.5,1402.8L842.7,1401.5L844.9,1400.3L846.5,1399.6L848.7,1398.4L850.9,1397.2L853.0,1396.0L855.2,1394.8L857.2,1393.7L859.2,1392.5L861.2,1391.3L863.2,1390.2L865.2,1389.0L867.1,1387.9L868.8,1386.9L870.5,1385.8L872.2,1384.8L873.9,1383.8L875.9,1382.6L877.9,1381.3L880.0,1380.0L882.0,1378.8L884.0,1377.5L886.0,1376.2L888.0,1374.9L890.1,1373.7L892.1,1372.3L894.1,1370.9L896.2,1369.5L898.2,1368.2L900.3,1366.8L902.3,1365.4L904.4,1364.0L906.5,1362.6L908.5,1361.1L910.6,1359.6L912.7,1358.2L914.8,1356.7L916.9,1355.2L919.0,1353.8L921.0,1352.3L923.1,1350.8L925.2,1349.4L927.3,1347.9L929.4,1346.4L931.4,1345.0L933.5,1343.5L935.4,1342.1L937.3,1340.6L939.3,1339.2L941.2,1337.8L943.1,1336.3L945.0,1334.9L946.9,1333.5L948.8,1332.1L950.7,1330.6L952.6,1329.2L954.5,1327.5L956.4,1325.8L958.4,1324.1L960.3,1322.5L961.8,1320.9L963.3,1319.3L964.8,1317.7L966.2,1316.1L967.6,1314.4L968.9,1312.8L970.3,1311.1L971.6,1309.5L972.7,1307.8L973.8,1306.1L974.9,1304.4L976.0,1302.8L977.2,1300.8L978.3,1298.8L979.4,1296.8L980.5,1294.8L981.3,1293.0L982.1,1291.2L982.9,1289.4L983.7,1287.6L984.4,1285.9L985.1,1284.2L985.9,1281.8L986.7,1279.4L987.4,1277.1L988.0,1274.9L988.5,1272.7L989.0,1270.6L989.6,1268.4L990.1,1266.2L990.6,1263.8L991.2,1261.3L991.7,1258.9L992.2,1256.4L992.7,1254.0L993.3,1251.5L993.8,1249.0L994.3,1246.6L994.9,1244.1L995.4,1241.7L995.9,1239.2L996.4,1236.8L997.0,1234.3L997.5,1231.8L998.0,1229.4L998.6,1226.9L999.1,1224.5L999.6,1222.0L1000.2,1219.6L1000.7,1217.1L1001.2,1214.6L1001.7,1212.2L1002.3,1209.7L1002.8,1207.3L1003.3,1204.8L1003.9,1202.3L1004.4,1199.9L1004.7,1197.9L1005.1,1196.0L1005.4,1194.0L1005.8,1192.1L1006.1,1189.9L1006.4,1187.7L1006.7,1185.5L1006.9,1183.0L1007.1,1180.5L1007.3,1178.0L1007.5,1175.5L1007.7,1173.0L1007.7,1170.8L1007.7,1168.6L1007.6,1166.4L1007.6,1164.2L1007.5,1162.2L1007.3,1160.2L1007.0,1158.2L1006.7,1156.2L1006.2,1154.0L1005.6,1151.8L1005.1,1149.6L1004.5,1147.6L1003.8,1145.5L1003.2,1143.5L1002.5,1141.7L1001.8,1139.9L1001.1,1138.1L1000.2,1135.9L999.2,1133.7L998.1,1131.4L996.9,1129.2L995.8,1127.0L994.6,1124.8L993.4,1122.6L992.1,1120.4L990.8,1118.2L989.5,1116.0L988.3,1113.7L987.0,1111.5L985.7,1109.3L984.4,1107.1L983.2,1104.9L981.9,1102.7L980.6,1100.5L979.3,1098.3L978.1,1096.0L976.8,1093.8L975.5,1091.6L974.2,1089.4L973.0,1087.2L971.7,1085.0L970.4,1082.8L969.1,1080.6L967.9,1078.3L966.6,1076.1L965.3,1073.9L964.0,1071.7L962.8,1069.5L961.5,1067.3L960.2,1065.1L958.9,1062.9L957.7,1060.7L956.4,1058.4L955.1,1056.2L953.8,1054.0L952.6,1051.8L951.3,1049.6L950.0,1047.4L948.7,1045.2L947.5,1043.0L946.2,1040.7L944.9,1038.5L943.6,1036.3L942.4,1034.1L941.1,1031.9L939.8,1029.7L938.5,1027.5L937.2,1025.3L936.0,1023.0L934.7,1020.8L933.4,1018.6L932.2,1016.6L931.0,1014.6L929.8,1012.7L928.6,1010.7L927.4,1009.0L926.3,1007.4L925.1,1005.7L923.8,1004.1L922.6,1002.4L921.3,1000.7L919.6,998.9L917.8,997.0L916.1,995.1L914.4,993.3L912.8,991.8L911.2,990.4L909.6,988.9L907.8,987.5L906.1,986.2L904.4,984.8L902.7,983.6L901.0,982.4L899.3,981.2L897.6,980.0L895.4,978.7L893.3,977.4L891.2,976.0L889.0,974.7L886.9,973.4L884.8,972.0L882.6,970.7L880.5,969.3L878.4,968.0L876.2,966.7L874.1,965.3L872.0,964.0L869.9,962.7L867.7,961.3L865.6,960.0L863.4,958.7L861.1,957.3L858.9,956.0L856.7,954.7L854.5,953.3L852.2,952.0L850.0,950.7L847.8,949.3L845.6,948.0L843.3,946.6L841.1,945.3L838.9,944.0L836.7,942.6L834.4,941.3L832.2,940.0L830.0,938.6L827.8,937.3L825.5,936.0L823.3,934.6L821.2,933.3L819.1,931.9L816.9,930.6L814.8,929.2L813.0,927.8L811.2,926.4L809.4,925.0L808.1,923.7L806.9,922.4L805.7,921.2L804.6,919.5L803.5,917.9L802.3,916.3L801.6,914.7L800.8,913.1L800.0,911.5L799.4,909.9L798.8,908.3L798.2,906.7L797.7,905.0L797.2,902.9L796.6,900.7L796.1,898.6L795.5,896.4L794.9,893.9L794.2,891.4L793.6,888.9L793.0,886.4L792.3,883.9L791.7,881.4L791.0,878.9L790.4,876.3L789.7,873.8L789.1,871.3L788.5,868.8L787.8,866.3L787.2,863.8L786.5,861.3L785.9,858.8L785.3,856.4L784.7,853.9L784.0,851.5L783.4,849.0L782.8,846.6L782.2,844.1L781.5,841.7L780.9,839.2L780.3,836.8L779.7,834.3L779.1,831.9L778.4,829.4L777.8,827.0L777.2,824.5L776.6,822.1L775.9,819.6L775.5,817.7L775.0,815.8L774.6,813.8L774.1,811.9L773.8,809.8L773.5,807.7L773.2,805.6L772.9,803.5L772.5,801.4L772.5,799.1L772.4,796.7L772.4,794.3L772.4,792.0L772.3,789.6L772.3,787.3L772.3,784.8L772.3,782.3L772.3,779.8L772.3,777.3L772.2,774.8L772.2,772.3L772.2,769.8L772.2,767.3L772.2,764.8L772.2,762.3L772.2,759.8L772.2,757.3L772.2,754.8L772.2,752.3L772.2,749.8L772.2,747.4L772.2,744.9L772.2,742.4L772.2,739.9L772.2,737.4L772.2,734.8L772.3,732.3L772.3,729.8L772.3,727.3L772.3,724.7L772.4,722.2L772.4,719.7L772.4,717.2L772.4,714.6L772.5,712.1L772.6,709.7L772.7,707.3L772.8,704.9L772.9,702.5L773.0,700.0L773.1,697.6L773.2,695.2L773.3,692.8L773.2,690.5L773.1,688.2L773.1,685.9L773.0,683.5L772.9,681.2L772.9,678.9L772.8,676.6L772.7,674.3L772.7,671.9L772.7,669.5L772.7,667.0L772.7,664.5L772.7,662.0L772.7,659.5L772.7,657.0L772.7,654.5L772.7,652.0L772.7,649.5L772.7,647.0L772.7,644.5L772.7,642.0L772.7,639.5L772.7,637.0L772.7,634.5L772.8,632.2L772.8,629.9L772.9,627.5L773.2,625.2L773.5,622.9L773.8,620.5L774.4,618.4L774.9,616.2L775.7,614.2L776.5,612.2L777.5,610.3L778.5,608.5L779.7,606.6L781.0,604.8L782.5,603.0L784.0,601.3L785.6,599.6L787.2,598.0L788.7,596.3L790.6,594.6L792.4,592.8L794.3,591.0L796.2,589.3L798.0,587.5L799.9,585.8L801.7,584.0L803.6,582.3L805.4,580.5L807.3,578.7L809.2,577.0L811.0,575.2L812.9,573.5L814.7,571.7L816.6,570.0L818.4,568.2L820.3,566.4L822.2,564.7L824.0,562.9L825.9,561.2L827.7,559.4L829.6,557.7L831.4,555.9L833.3,554.1L835.2,552.4L837.0,550.6L838.9,548.9L840.7,547.1L842.6,545.4L844.5,543.6L846.3,541.8L848.2,540.1L850.0,538.3L851.9,536.6L853.7,534.8L855.6,533.1L857.5,531.3L859.3,529.5L861.2,527.8L863.0,526.0L864.9,524.3L866.7,522.5L868.6,520.8L870.5,519.0L872.3,517.2L874.2,515.5L876.1,513.8L878.0,512.1L879.9,510.5L881.5,509.2L883.0,508.0L885.2,506.6L887.3,505.2L889.5,503.7L891.6,502.3L893.7,500.9L895.9,499.4L898.0,498.0L900.2,496.6L902.3,495.2L904.4,493.7L906.6,492.3L908.7,490.9L910.8,489.5L913.0,488.0L915.1,486.6L917.3,485.2L919.4,483.7L921.5,482.3L923.7,480.9L925.8,479.5L928.0,478.0L930.1,476.6L932.2,475.2L934.4,473.8L936.5,472.3L938.7,470.9L940.8,469.5L942.9,468.0L945.1,466.6L947.2,465.2L949.4,463.8L951.5,462.3L953.6,460.9L955.8,459.5L957.9,458.1L960.0,456.6L962.2,455.2L964.3,453.8L966.5,452.4L968.6,450.9L970.7,449.5L972.8,448.1L975.0,446.7L977.1,445.3L979.2,443.8L981.3,442.4L983.5,441.0L985.6,439.6L987.7,438.1L989.8,436.7L992.0,435.3L994.1,433.9L996.2,432.5L998.3,431.0L1000.5,429.6L1002.6,428.2L1004.7,426.8L1006.8,425.4L1009.0,423.9L1011.1,422.5L1013.2,421.1L1015.4,419.7L1017.5,418.3L1019.6,416.8L1021.7,415.4L1023.9,414.0L1026.0,412.6L1028.1,411.2L1030.2,409.7L1032.3,408.4L1034.3,407.1L1036.3,405.8L1038.3,404.5L1040.3,403.2L1042.3,401.9L1044.3,400.9L1046.2,399.8L1048.2,398.7L1049.9,397.9L1051.7,397.1L1053.5,396.2L1055.2,395.4L1057.4,394.5L1059.6,393.6L1061.8,392.7L1063.9,391.8L1066.1,390.9L1068.3,390.0L1070.7,389.0L1073.1,388.1L1075.5,387.1L1077.9,386.2L1080.3,385.2L1082.8,384.3L1085.2,383.3L1087.6,382.4L1090.0,381.4L1092.4,380.4L1094.8,379.5L1097.2,378.5L1099.7,377.6L1102.1,376.6L1104.5,375.7L1106.9,374.7L1109.3,373.8L1111.7,372.8L1114.1,371.8L1116.5,370.9L1119.0,369.9L1121.4,369.0L1123.8,368.0L1126.2,367.1L1128.6,366.1L1131.0,365.1L1133.0,364.5L1135.0,363.9L1137.5,363.4L1140.0,362.9L1142.3,362.6L1144.6,362.3L1146.8,362.0L1149.1,361.8L1151.4,361.5L1153.6,361.2L1155.9,360.9L1158.2,360.6" fill="none" stroke="#4fc9ff" stroke-width="2.2" opacity="1"/>
<path d="M1162.3,361.3L1159.9,361.6L1157.5,361.9L1155.0,362.2L1152.6,362.5L1150.2,362.8L1147.7,363.1L1145.3,363.4L1142.9,363.7L1140.5,364.0L1139.1,364.2L1137.8,364.5L1135.7,365.0L1133.7,365.5L1131.3,366.5L1128.9,367.4L1126.5,368.4L1124.1,369.3L1121.7,370.3L1119.3,371.2L1116.8,372.2L1114.4,373.1L1112.0,374.0L1109.6,375.0L1107.2,375.9L1104.8,376.9L1102.4,377.8L1100.0,378.8L1097.6,379.7L1095.2,380.6L1092.8,381.6L1090.4,382.5L1088.0,383.5L1085.6,384.4L1083.2,385.4L1080.8,386.3L1078.3,387.2L1075.9,388.2L1073.5,389.1L1071.1,390.1L1068.7,391.0L1066.6,391.9L1064.5,392.8L1062.3,393.7L1060.2,394.6L1058.1,395.5L1056.0,396.3L1053.7,397.4L1051.5,398.5L1049.2,399.6L1047.1,400.8L1045.0,402.0L1042.9,403.2L1040.8,404.4L1038.7,405.6L1036.8,406.8L1034.8,408.1L1032.9,409.4L1030.9,410.7L1028.8,412.1L1026.6,413.6L1024.5,415.0L1022.4,416.4L1020.2,417.8L1018.1,419.3L1016.0,420.7L1013.8,422.1L1011.7,423.5L1009.6,424.9L1007.4,426.4L1005.3,427.8L1003.2,429.2L1001.0,430.6L998.9,432.1L996.8,433.5L994.6,434.9L992.5,436.3L990.4,437.8L988.2,439.2L986.1,440.6L984.0,442.0L981.8,443.4L979.7,444.9L977.6,446.3L975.4,447.7L973.3,449.1L971.2,450.6L969.0,452.0L966.9,453.4L964.8,454.8L962.6,456.3L960.5,457.7L958.4,459.1L956.2,460.5L954.1,462.0L952.0,463.4L949.8,464.8L947.7,466.2L945.6,467.6L943.4,469.1L941.3,470.5L939.2,471.9L937.0,473.3L934.9,474.8L932.8,476.2L930.6,477.6L928.5,479.0L926.4,480.5L924.2,481.9L922.1,483.3L920.0,484.7L917.8,486.2L915.7,487.6L913.6,489.0L911.4,490.4L909.3,491.8L907.2,493.3L905.0,494.7L902.9,496.1L900.8,497.5L898.6,499.0L896.5,500.4L894.4,501.8L892.2,503.2L890.1,504.7L888.0,506.1L885.8,507.5L883.7,508.9L882.0,510.3L880.3,511.7L878.5,513.0L876.8,514.6L875.1,516.2L873.3,518.0L871.5,519.7L869.7,521.5L867.8,523.2L866.0,524.9L864.2,526.7L862.4,528.4L860.6,530.1L858.7,531.9L856.9,533.6L855.1,535.4L853.3,537.1L851.4,538.8L849.6,540.6L847.7,542.3L845.9,544.0L844.0,545.8L842.2,547.5L840.3,549.3L838.5,551.0L836.6,552.7L834.8,554.5L832.9,556.2L831.1,557.9L829.3,559.7L827.4,561.4L825.6,563.2L823.7,564.9L821.9,566.6L820.0,568.4L818.2,570.1L816.3,571.8L814.5,573.6L812.6,575.3L810.8,577.1L808.9,578.8L807.1,580.5L805.2,582.3L803.4,584.0L801.6,585.7L799.7,587.5L797.9,589.2L796.0,591.0L794.2,592.7L792.3,594.4L790.6,596.1L788.9,597.8L787.2,599.5L785.7,601.1L784.2,602.8L782.7,604.4L781.6,606.0L780.4,607.7L779.3,609.4L778.2,611.5L777.1,613.7L776.4,615.6L775.7,617.5L775.3,619.4L774.8,621.3L774.5,623.6L774.3,625.8L774.0,628.0L774.0,630.5L773.9,633.0L773.9,635.5L773.8,638.0L773.8,640.4L773.8,643.0L773.8,645.5L773.8,648.0L773.8,650.5L773.8,653.1L773.8,655.6L773.8,658.1L773.8,660.7L773.8,663.2L773.8,665.7L773.8,668.2L773.8,670.8L773.9,673.3L773.9,675.8L774.0,678.3L774.1,680.8L774.2,683.3L774.3,685.9L774.4,688.4L774.4,690.4L774.4,692.5L774.4,694.6L774.4,696.7L774.2,699.3L774.1,701.8L774.0,704.4L773.8,707.0L773.7,709.6L773.6,712.1L773.6,714.7L773.5,717.2L773.5,719.8L773.5,722.3L773.5,724.9L773.4,727.4L773.4,729.9L773.4,732.5L773.4,735.0L773.3,737.6L773.3,740.1L773.3,742.6L773.3,745.1L773.4,747.6L773.4,750.1L773.4,752.6L773.4,755.1L773.4,757.6L773.4,760.1L773.4,762.6L773.4,765.1L773.4,767.6L773.4,770.1L773.4,772.6L773.4,775.1L773.4,777.6L773.4,780.1L773.4,782.6L773.4,785.1L773.4,787.6L773.4,790.0L773.4,792.5L773.5,794.9L773.5,797.4L773.5,799.8L773.9,802.2L774.2,804.6L774.5,807.0L774.8,809.4L775.4,811.9L775.9,814.4L776.5,816.9L777.0,819.4L777.7,821.8L778.3,824.3L778.9,826.7L779.5,829.2L780.2,831.6L780.8,834.1L781.4,836.5L782.0,839.0L782.7,841.4L783.3,843.8L783.9,846.3L784.5,848.7L785.2,851.2L785.8,853.6L786.4,856.1L787.0,858.5L787.7,861.0L788.3,863.3L788.9,865.6L789.4,868.0L790.0,870.3L790.6,872.6L791.2,874.9L791.8,877.3L792.4,879.6L793.0,881.9L793.6,884.2L794.2,886.6L794.7,888.9L795.3,891.2L795.9,893.4L796.5,895.7L797.1,897.9L797.6,900.1L798.2,902.3L798.8,904.6L799.6,906.8L800.3,909.0L801.1,911.2L802.2,913.4L803.4,915.7L804.5,917.3L805.5,918.9L806.6,920.5L807.9,921.7L809.1,923.0L810.3,924.2L811.3,925.1L812.3,926.0L813.8,927.1L815.3,928.2L817.4,929.5L819.5,930.9L821.7,932.2L823.8,933.5L825.9,934.8L828.0,936.1L830.1,937.4L832.2,938.6L834.4,939.9L836.5,941.2L838.6,942.5L840.7,943.7L842.9,945.0L845.0,946.3L847.1,947.6L849.2,948.9L851.3,950.1L853.5,951.4L855.6,952.7L857.7,954.0L859.8,955.2L861.9,956.5L864.1,957.8L866.2,959.1L868.2,960.3L870.2,961.5L872.3,962.8L874.3,964.0L876.5,965.4L878.6,966.8L880.8,968.1L883.0,969.5L885.2,970.9L887.3,972.3L889.5,973.6L891.7,975.0L893.9,976.4L896.0,977.7L898.2,979.1L900.1,980.4L901.9,981.7L903.8,983.0L905.6,984.3L907.5,985.5L908.9,986.7L910.2,987.9L911.9,989.4L913.5,990.9L915.2,992.4L916.6,993.9L918.1,995.4L919.5,996.9L921.0,998.5L922.3,1000.1L923.6,1001.7L924.9,1003.3L926.1,1005.0L927.3,1006.6L928.6,1008.7L930.0,1010.8L931.3,1012.8L932.6,1014.9L933.9,1017.1L935.2,1019.3L936.5,1021.6L937.7,1023.8L939.0,1026.0L940.3,1028.3L941.6,1030.5L942.9,1032.7L944.2,1035.0L945.5,1037.2L946.7,1039.4L948.0,1041.7L949.3,1043.9L950.6,1046.1L951.9,1048.4L953.2,1050.6L954.5,1052.8L955.7,1055.1L957.0,1057.3L958.3,1059.5L959.6,1061.8L960.9,1064.0L962.2,1066.2L963.5,1068.5L964.7,1070.7L966.0,1072.9L967.3,1075.1L968.6,1077.4L969.9,1079.6L971.2,1081.8L972.5,1084.1L973.7,1086.3L975.0,1088.5L976.3,1090.8L977.6,1093.0L978.9,1095.2L980.2,1097.5L981.5,1099.7L982.8,1101.9L984.0,1104.2L985.3,1106.4L986.6,1108.6L987.9,1110.9L989.2,1113.1L990.5,1115.3L991.8,1117.6L993.0,1119.8L994.3,1122.0L995.6,1124.3L996.8,1126.5L997.9,1128.6L999.1,1130.8L1000.0,1132.8L1000.9,1134.7L1001.8,1136.6L1002.7,1138.8L1003.5,1141.0L1004.3,1143.2L1005.0,1145.2L1005.6,1147.3L1006.3,1149.3L1006.8,1151.5L1007.3,1153.8L1007.9,1156.0L1008.2,1157.9L1008.5,1159.9L1008.6,1161.9L1008.8,1164.0L1008.8,1166.3L1008.8,1168.5L1008.8,1170.8L1008.8,1173.1L1008.6,1175.6L1008.4,1178.1L1008.2,1180.7L1008.0,1183.2L1007.8,1185.7L1007.5,1187.9L1007.2,1190.1L1006.9,1192.3L1006.4,1194.8L1006.0,1197.2L1005.5,1199.7L1005.0,1202.2L1004.5,1204.6L1004.1,1207.1L1003.5,1209.6L1003.0,1212.0L1002.5,1214.5L1001.9,1217.0L1001.4,1219.5L1000.9,1221.9L1000.3,1224.4L999.8,1226.9L999.2,1229.4L998.7,1231.8L998.2,1234.3L997.6,1236.8L997.1,1239.3L996.6,1241.7L996.0,1244.2L995.5,1246.7L994.9,1249.2L994.4,1251.6L993.9,1254.1L993.3,1256.6L992.8,1259.1L992.3,1261.5L991.7,1264.0L991.2,1266.5L990.7,1268.7L990.1,1270.9L989.6,1273.1L989.0,1275.3L988.5,1277.4L987.7,1279.8L987.0,1282.2L986.2,1284.6L985.3,1286.8L984.4,1289.0L983.5,1291.2L982.5,1293.2L981.5,1295.3L980.4,1297.4L979.2,1299.5L978.0,1301.6L976.7,1303.7L975.5,1305.8L974.2,1307.9L972.8,1309.8L971.3,1311.7L969.9,1313.6L968.4,1315.2L967.0,1316.9L965.5,1318.5L964.0,1320.1L962.5,1321.7L961.0,1323.3L959.5,1324.7L958.0,1326.1L956.5,1327.5L954.9,1328.8L953.3,1330.1L951.3,1331.6L949.3,1333.2L947.3,1334.7L945.3,1336.2L943.4,1337.6L941.6,1338.9L939.8,1340.3L937.9,1341.7L936.1,1343.0L934.2,1344.4L932.1,1345.8L930.0,1347.3L927.9,1348.8L925.8,1350.3L923.7,1351.8L921.6,1353.2L919.5,1354.7L917.4,1356.2L915.3,1357.7L913.2,1359.1L911.0,1360.6L908.9,1362.1L906.8,1363.6L904.7,1365.1L902.6,1366.5L900.5,1368.0L898.4,1369.5L896.2,1370.9L894.1,1372.3L891.9,1373.7L889.8,1375.1L887.6,1376.5L885.5,1377.9L883.3,1379.3L881.4,1380.5L879.4,1381.7L877.5,1382.9L875.5,1384.1L873.6,1385.2L871.6,1386.4L869.7,1387.6L867.7,1388.8L865.7,1390.0L863.7,1391.1L861.7,1392.3L859.7,1393.5L857.8,1394.6L855.8,1395.8L853.8,1396.9L851.8,1398.0L849.8,1399.1L847.8,1400.2L845.8,1401.3L843.6,1402.5L841.3,1403.7L839.0,1404.9L836.8,1406.1L834.5,1407.3L832.3,1408.6L830.0,1409.8L827.8,1411.0L825.5,1412.2L823.3,1413.4L821.0,1414.6L818.8,1415.9L816.5,1417.1L814.2,1418.3L812.0,1419.5L809.7,1420.7L807.5,1421.9L805.2,1423.2L803.0,1424.4L800.7,1425.6L798.5,1426.8L796.2,1428.0L794.0,1429.2L791.7,1430.5L789.4,1431.7L787.2,1432.9L784.9,1434.1L782.7,1435.3L780.4,1436.6L778.2,1437.8L775.9,1439.0L773.7,1440.3L771.4,1441.5L769.2,1442.7L766.9,1444.0L764.7,1445.2L762.4,1446.5L760.2,1447.7L757.9,1448.9L755.7,1450.2L753.4,1451.4L751.2,1452.6L748.9,1453.9L746.6,1455.1L744.4,1456.3L742.1,1457.6L739.9,1458.8L737.6,1460.0L735.4,1461.3L733.1,1462.5L730.9,1463.8L728.6,1465.0L726.4,1466.2L724.1,1467.5L721.9,1468.7L719.6,1469.9L717.4,1471.2L715.1,1472.4L712.9,1473.6L710.6,1474.9L708.4,1476.1L706.1,1477.3L703.9,1478.6L701.6,1479.8L699.4,1481.1L697.1,1482.3L694.8,1483.5L692.6,1484.8L690.3,1486.0L688.1,1487.2L685.8,1488.4L683.5,1489.6L681.2,1490.9L679.0,1492.1L676.7,1493.3L674.4,1494.5L672.2,1495.8L669.9,1497.0L667.6,1498.2L665.4,1499.4L663.1,1500.6L660.8,1501.9L658.5,1503.1L656.3,1504.3L654.0,1505.5L651.7,1506.7L649.5,1508.0L647.2,1509.2L644.9,1510.4L642.7,1511.6L640.4,1512.8L638.1,1514.1L635.9,1515.3L633.6,1516.5L631.3,1517.7L629.0,1518.9L626.8,1520.2L624.5,1521.4L622.2,1522.6L620.0,1523.8L617.7,1525.0L615.4,1526.3L613.2,1527.5L610.9,1528.7L608.6,1529.9L606.3,1531.2L604.1,1532.4L601.8,1533.6L599.6,1534.8L597.3,1536.0L595.0,1537.3L592.8,1538.5L590.5,1539.7L588.3,1540.9L586.0,1542.1L583.8,1543.4L581.5,1544.6L579.3,1545.8L577.0,1547.0L574.8,1548.2L572.5,1549.5L570.3,1550.7L568.0,1551.9L565.8,1553.1L563.5,1554.3L561.3,1555.6L559.0,1556.8L556.7,1558.0L554.5,1559.2L552.2,1560.4L550.0,1561.7L547.7,1562.9L545.5,1564.1L543.2,1565.3L541.0,1566.5L538.7,1567.8L536.5,1569.0L534.2,1570.2L532.0,1571.4L529.7,1572.6L527.5,1573.9L525.2,1575.1L522.9,1576.3L520.6,1577.6L518.4,1578.8L516.1,1580.1L513.8,1581.3L511.5,1582.5L509.2,1583.8L507.0,1585.0L504.7,1586.3L502.4,1587.5L500.1,1588.8L497.8,1590.0L495.5,1591.3L493.3,1592.5L491.0,1593.8L488.7,1595.0L486.4,1596.2L484.1,1597.5L481.9,1598.7L479.6,1600.0L477.3,1601.2L475.0,1602.5L472.7,1603.7L470.4,1605.0L468.2,1606.2L465.9,1607.4L463.6,1608.7L461.3,1609.9L459.0,1611.2L456.8,1612.4L454.5,1613.7L452.2,1614.9L449.9,1616.2L447.6,1617.4L445.4,1618.7L443.1,1619.9L440.8,1621.1L438.5,1622.4L436.2,1623.6L433.9,1624.9L431.7,1626.1L429.4,1627.4L427.1,1628.6L424.8,1629.9L422.5,1631.1L420.3,1632.3L418.0,1633.6L415.7,1634.8L413.4,1636.1L411.1,1637.3L408.8,1638.6L406.6,1639.8L404.4,1641.0L402.3,1642.2L400.1,1643.3L398.0,1644.5L395.9,1645.7L393.7,1646.8L391.6,1648.0L389.5,1649.2L387.3,1650.4L385.2,1651.5L383.0,1652.7L380.9,1653.9L378.8,1655.0L376.9,1656.1L374.9,1657.2L373.0,1658.3L371.1,1659.4L369.2,1660.5L367.1,1661.6L365.1,1662.7L363.1,1663.7L361.0,1664.8L359.0,1665.9L356.9,1667.0L355.0,1668.2L353.1,1669.4L351.1,1670.6L349.2,1671.8L347.2,1673.0L345.3,1674.3L343.6,1675.7L341.9,1677.1L340.1,1678.5L338.4,1679.9L336.9,1681.3L335.3,1682.7L333.7,1684.2L332.1,1685.6L330.8,1687.0L329.5,1688.3L328.0,1690.3L326.6,1692.3L325.1,1694.4L323.6,1696.4L322.2,1698.4L321.1,1700.0L320.1,1701.6L319.0,1703.3L317.9,1705.2L316.8,1707.1L315.7,1709.1L314.6,1711.0L313.3,1713.3L312.1,1715.6L310.9,1717.9L309.6,1720.2L308.4,1722.4L307.2,1724.7L305.9,1727.0L304.7,1729.3L303.5,1731.6L302.2,1733.9L301.0,1736.1L299.8,1738.4L298.5,1740.7L297.3,1743.0L296.1,1745.3L294.8,1747.6L293.6,1749.8L292.4,1752.1L291.1,1754.4L289.9,1756.7L288.7,1759.0L287.4,1761.3L286.2,1763.5L285.0,1765.8L283.8,1768.1L282.5,1770.4L281.3,1772.7L280.1,1775.0L278.8,1777.2L277.6,1779.5L276.4,1781.8L275.1,1784.1L273.9,1786.4L272.7,1788.7L271.4,1790.9L270.2,1793.2L269.0,1795.5L267.7,1797.8L266.5,1800.1L265.3,1802.4L264.5,1803.9L263.7,1805.5L262.9,1807.1" fill="none" stroke="#4fc9ff" stroke-width="2.2" opacity="1"/>
<path d="M1106.8,346.8L1106.5,344.3L1106.2,341.8L1105.9,339.3L1105.6,336.8L1105.2,334.2L1104.9,331.7L1104.6,329.2L1104.3,326.7L1104.0,324.2L1103.7,321.7L1103.4,319.1L1103.1,316.6L1102.7,314.1L1102.4,311.6L1102.1,309.1L1101.8,306.5L1101.5,304.0L1101.2,301.5L1100.9,299.0L1100.5,296.6L1100.1,294.1L1099.5,292.0L1098.9,290.5L1098.2,289.0L1097.3,287.4L1096.3,285.8L1094.7,283.8L1093.1,281.8L1091.5,279.8L1089.9,277.8L1088.3,275.7L1086.7,273.7L1085.1,271.7L1083.5,269.7L1081.9,267.7L1080.5,265.9L1079.2,264.0L1078.2,261.9L1077.2,259.8L1076.2,257.6L1075.2,255.5L1074.3,253.4L1073.3,251.3L1072.3,249.3L1071.3,247.3L1070.3,245.3L1069.3,243.4L1068.3,241.4L1067.8,239.7L1067.2,238.0L1066.9,236.2L1066.6,234.3L1066.4,232.5L1066.2,230.2L1066.0,227.9L1065.8,225.6L1065.8,223.2L1065.9,220.8L1065.9,218.4L1066.0,216.1L1066.0,213.7L1066.1,211.3L1066.1,208.9L1066.2,206.5L1066.2,204.2L1066.3,201.8L1066.1,200.2L1065.9,198.6L1065.1,196.6L1064.4,194.5L1063.7,192.5L1063.1,190.0L1063.1,188.6L1063.1,187.2L1063.4,185.2L1063.7,183.2L1064.0,181.3L1064.3,179.3L1064.1,177.0L1063.6,175.8L1063.0,174.6L1062.1,173.5L1061.1,172.5L1059.4,171.5L1057.9,170.9L1056.1,170.5L1054.3,170.1L1052.0,169.7L1049.8,169.3L1047.5,168.9L1045.3,168.6L1043.0,168.2L1040.9,167.7L1038.8,167.3L1036.6,166.9L1034.5,166.4L1032.4,166.0L1030.0,165.4L1027.7,164.8L1025.3,164.2L1022.9,163.6L1020.6,163.1L1018.8,162.5L1017.1,162.0L1015.3,161.5L1013.5,160.6L1011.8,159.8L1009.8,158.2L1008.3,156.4L1007.6,155.1L1007.0,153.2L1006.5,151.1L1005.9,149.0L1005.4,146.9L1004.9,144.8L1004.1,143.3L1003.4,141.7L1002.2,140.4L1000.6,139.3L998.9,138.2L996.9,137.1L994.8,135.9L992.8,134.8L990.7,133.7L988.7,132.6L986.6,131.4L984.3,130.3L982.0,129.2L979.7,128.1L977.4,127.0L975.1,125.9L973.2,124.9L971.3,123.9L969.4,122.9L967.5,121.9L965.8,120.6L964.2,118.9L962.6,117.2L961.7,115.1L960.8,113.1" fill="none" stroke="#79e690" stroke-width="2.2" opacity="1"/>
<path d="M963.8,116.9L964.8,118.1L965.8,119.3L967.4,120.5L969.0,121.7L971.2,122.9L973.4,124.0L975.7,125.2L977.9,126.3L980.2,127.4L982.4,128.6L984.7,129.7L987.0,130.8L989.2,131.8L991.5,132.9L993.8,134.0L996.1,135.1L997.8,136.0L999.5,136.9L1001.2,137.8L1002.2,138.6L1003.3,139.3L1004.9,141.3L1006.0,143.4L1006.7,145.8L1007.4,148.2L1008.1,150.7L1008.8,153.1L1009.7,155.3L1010.5,156.5L1011.4,157.7L1012.5,158.6L1013.5,159.4L1015.2,160.2L1017.0,160.9L1019.2,161.6L1021.4,162.2L1023.6,162.9L1025.8,163.5L1028.1,164.2L1030.3,164.6L1032.6,165.1L1034.9,165.6L1037.2,166.0L1039.5,166.5L1041.8,167.0L1044.1,167.5L1046.4,168.0L1048.7,168.6L1051.0,169.1L1053.3,169.6L1055.6,170.2L1057.9,170.7L1059.6,171.4L1061.2,172.5L1062.1,173.5L1063.1,174.6L1063.6,175.8L1064.1,177.0L1064.3,179.2L1063.9,181.7L1063.5,184.3L1063.2,186.8L1063.2,188.4L1063.2,190.0L1063.7,192.5L1064.6,194.8L1065.4,197.0L1066.2,199.3L1066.7,201.1L1066.9,203.1L1066.9,205.6L1066.9,208.1L1066.9,210.6L1066.9,213.1L1066.8,215.6L1066.8,218.1L1066.8,220.6L1066.8,223.1L1066.8,225.6L1067.0,227.9L1067.3,230.3L1067.5,232.7L1067.8,235.0L1068.1,236.7L1068.4,238.3L1069.1,240.5L1069.8,242.3L1070.6,244.1L1071.8,246.4L1072.9,248.6L1074.1,250.8L1075.1,253.0L1076.0,255.1L1077.0,257.2L1078.0,259.4L1079.0,261.5L1079.8,262.9L1080.6,264.3L1082.1,266.3L1083.7,268.2L1085.2,270.2L1086.8,272.2L1088.3,274.2L1089.9,276.2L1091.4,278.1L1093.0,280.1L1094.5,282.1L1096.1,284.1L1097.6,286.1L1098.4,287.3L1099.2,288.5L1099.8,289.8L1100.4,291.1L1101.0,293.2L1101.3,295.0L1101.6,296.7L1101.9,299.2L1102.2,301.7L1102.5,304.2L1102.8,306.7L1103.1,309.2L1103.4,311.7L1103.7,314.2L1104.0,316.7L1104.2,319.2L1104.5,321.7L1104.8,324.2L1105.1,326.7L1105.4,329.2L1105.7,331.7L1106.0,334.2L1106.3,336.7L1106.6,339.2L1106.8,341.7L1107.1,344.2L1107.4,346.7L1107.7,348.8L1108.1,350.9L1108.4,353.0" fill="none" stroke="#79e690" stroke-width="2.2" opacity="1"/>
<path d="M785.4,311.8L787.4,312.1L789.4,312.3L791.4,312.6L793.0,313.1L794.6,313.7L796.0,314.5L797.0,315.4L797.7,316.5L797.9,317.7L797.7,319.8L797.2,322.2L796.7,324.6L796.1,326.6L795.5,328.7L794.9,330.8L794.3,332.9L793.4,335.1L792.5,337.2L791.6,339.4L790.7,341.6L789.8,343.8L788.9,345.9L788.0,348.1L787.1,350.3" fill="none" stroke="#8b98ab" stroke-width="2.2" opacity="1"/>
<path d="M703.1,1087.2L702.9,1085.9L702.7,1084.6L703.1,1082.2L703.4,1079.9L703.8,1077.5L704.1,1075.2L704.6,1072.9L705.2,1070.6L705.8,1068.6L706.5,1066.5L707.2,1064.5L708.0,1062.3L708.9,1060.2L709.7,1058.1L710.5,1055.9L711.3,1053.8L712.2,1051.6L712.8,1049.8L713.5,1048.0L714.1,1046.1L714.8,1043.7L715.6,1041.3L716.3,1038.8L717.1,1036.4L717.8,1034.0L718.5,1031.5L719.3,1029.1L719.9,1027.6L720.6,1026.1L721.7,1024.9L722.8,1023.7L724.2,1022.8L725.5,1022.0L727.7,1020.7L730.0,1019.5L732.2,1018.3L734.4,1017.0L736.6,1015.8L738.8,1014.5L740.9,1013.5L743.0,1012.4L745.1,1011.4L747.2,1010.4L749.2,1009.3L751.3,1008.3L753.4,1007.2L755.5,1006.2L757.6,1005.1L759.5,1004.0L760.7,1003.2L761.8,1002.3L763.2,1000.6L764.3,998.6L765.0,996.3L765.7,993.9L766.2,991.8L766.6,989.8L767.1,987.7L767.6,985.6L767.8,984.0L768.0,982.4L767.9,980.9L767.9,979.4L767.7,978.0L767.6,976.6L767.0,974.2L766.1,972.1L764.9,969.9L763.6,967.8L762.2,965.9L760.8,963.9L759.5,962.0L758.1,960.1L756.7,958.1L755.3,956.2L753.9,954.3L752.5,952.3L751.1,950.4L749.7,948.4L748.3,946.5L746.7,944.5L745.2,942.6L743.6,940.6L742.0,938.6L740.5,936.6L738.9,934.7L738.0,933.1L737.0,931.6L736.3,929.9L735.5,928.2L734.9,925.8L734.2,923.4L734.0,921.7L733.8,919.9L733.8,918.1L733.7,916.3L733.9,914.3L734.1,912.3L734.3,910.3L734.8,907.8L735.3,905.2L735.7,902.7L736.2,900.2L736.7,897.6L737.2,895.1L737.2,892.8L737.3,890.4L737.0,888.3L736.6,886.2L736.0,884.4L735.4,882.5L734.4,880.1L733.4,877.7L732.4,875.3L731.4,873.0L730.4,870.6L729.4,868.2L728.4,865.8L727.4,863.4L726.4,861.0L725.4,858.7L724.4,856.3L723.4,853.9L722.4,851.5L721.4,849.1L720.4,846.7L719.4,844.4L718.4,842.0L717.4,839.6L716.4,837.2L715.4,834.8L714.4,832.4L713.4,830.1L712.4,827.7L711.4,825.3L710.4,822.9L709.4,820.5L708.4,818.2L707.4,815.8L706.4,813.4L705.4,811.0L704.4,808.6L703.4,806.2L702.4,803.9L701.4,801.5L700.7,800.1L699.9,798.7L698.7,796.8L697.6,795.0L696.4,793.5L695.2,792.1L693.4,790.3L691.7,788.4L689.9,786.6L688.2,784.8L686.4,783.0L684.7,781.2L682.9,779.4L681.2,777.6L679.4,775.8L677.6,774.0L676.5,772.6L675.9,771.4L675.3,770.3L674.8,768.6L674.6,767.2L674.4,765.8L674.5,764.0L674.9,761.9L675.5,760.5L676.1,759.1L677.4,756.9L678.6,754.7L679.9,752.5L681.2,750.3L682.5,748.0L683.8,745.8L685.0,743.6L686.3,741.4L687.6,739.2L688.9,736.9L689.9,735.1L690.8,733.2L691.8,731.3L692.9,729.0L693.9,726.6L694.6,724.7L695.2,722.7L695.8,720.2L696.3,717.7L696.8,715.2L697.4,712.7L697.9,710.2L698.5,707.7L699.0,705.2L699.5,703.5L700.5,701.6L701.5,700.3L702.6,698.9L704.4,697.4L706.3,695.9L708.2,694.5L710.0,693.0L711.9,691.6L713.6,690.0L715.2,688.4L716.9,686.8L718.6,685.3L720.3,683.7L721.9,682.1L723.6,680.6L725.4,679.0L727.1,677.5L728.9,676.0L730.0,674.8L731.1,673.6L732.2,672.0L733.3,670.5L734.1,668.6L734.8,666.7L735.6,664.8L736.4,663.0L737.8,660.8L739.1,658.6L740.4,656.4L741.8,654.2L742.7,652.0L743.7,649.8L744.0,648.0L744.3,646.2L744.5,644.0L744.6,641.7L744.7,639.5L744.9,636.9L745.1,634.4L745.3,631.9L745.5,629.3L745.7,626.8L745.9,624.3L746.1,621.7L746.3,619.2L746.5,616.7L746.8,614.2L747.0,611.6L747.2,609.1L747.4,606.6L747.6,604.0L747.8,601.5L748.0,599.0L748.2,596.4L748.4,593.9L748.6,591.4L748.8,588.9L749.0,586.3L749.2,583.8L749.4,581.3L749.6,578.7L749.8,576.2L750.0,573.7L750.3,571.1L750.5,568.6L750.7,566.1L750.9,563.6L751.1,561.0L751.3,558.5L751.6,556.1L751.9,553.8L752.2,551.4L752.5,549.1L752.4,547.5L752.2,545.9L751.8,544.5L751.3,543.1L750.1,540.9L749.0,538.7L747.8,536.4L746.6,534.2L745.4,531.9L744.2,529.7L743.0,527.5L741.8,525.2L741.3,524.0L740.8,522.7L740.5,520.8L740.7,518.3L740.9,515.8L741.0,513.2L741.2,510.7L741.4,508.2L741.5,505.6L741.7,503.1L741.9,500.6L742.0,498.1L742.2,495.5L742.4,493.0L742.5,490.5L742.7,487.9L742.9,485.4L743.0,482.9L743.2,480.3L743.4,477.8L743.5,475.3L743.7,472.8L743.9,470.2L744.1,467.7L744.2,465.2L744.4,462.6L744.6,460.1L744.7,457.6L744.9,455.0L745.1,452.5L745.2,450.0L745.7,448.3L746.2,446.7L747.2,444.3L748.2,441.9L749.1,439.6L750.1,437.2L751.1,434.9L752.1,432.5L753.0,430.2L754.0,427.8L755.0,425.5L755.9,423.1L756.9,420.7L757.9,418.4L758.9,416.0L759.8,413.7L760.8,411.3L761.8,409.0L762.8,406.6L763.7,404.2L764.7,401.9L765.7,399.5L766.6,397.2L767.6,394.8L768.6,392.5L769.6,390.1L770.5,387.8L771.5,385.4L772.5,383.0L773.5,380.7L774.4,378.3L775.4,376.0L776.3,373.7L777.2,371.5L778.1,369.3L779.0,367.0L779.9,364.8L780.7,362.6L781.6,360.3L782.4,358.2L783.2,356.0L784.0,353.9L784.8,351.7L785.6,349.6L786.5,347.6L787.5,345.6L788.4,343.6L789.4,341.6L790.2,339.6L791.1,337.7L791.9,335.7" fill="none" stroke="#8b98ab" stroke-width="2.2" opacity="1"/>
<path d="M801.9,296.2L802.1,298.3L802.2,300.3L802.3,302.3L802.4,304.4L802.4,306.8L802.5,309.2L802.3,310.5L802.1,311.8L801.5,313.8L801.0,315.8L800.5,317.8L799.6,320.0L798.6,322.2L797.7,324.4L796.8,326.6L795.8,328.8L794.9,331.0L793.9,333.2L793.2,335.1L792.4,337.0L791.7,338.9L790.6,341.1L789.6,343.3L788.5,345.6L787.4,347.8L786.3,350.0L785.6,352.1L784.8,354.2L784.0,356.4L783.2,358.5L782.5,360.7L781.6,362.9L780.7,365.1L779.8,367.3L779.0,369.5L778.1,371.7L777.2,373.9L776.3,376.1L775.5,378.3L774.6,380.5L773.7,382.7L772.8,385.0L771.8,387.3L770.8,389.7L769.8,392.1L768.7,394.5L767.8,396.8L766.9,399.0L765.9,401.3L765.0,403.6L764.0,405.9L763.1,408.2L762.1,410.5L761.2,412.8L760.3,415.1L759.3,417.4L758.4,419.7L757.4,422.0L756.5,424.3L755.5,426.6L754.6,428.9L753.7,431.2L752.7,433.4L751.9,435.2L751.1,437.0L750.3,438.8L749.5,440.6L748.8,442.3L748.1,444.1L747.4,445.8L747.0,447.6L746.6,449.5L746.1,451.3L746.0,453.8L745.8,456.3L745.6,458.8L745.4,461.3L745.3,463.8L745.1,466.3L744.9,468.8L744.7,471.3L744.6,473.8L744.4,476.3L744.2,478.8L744.0,481.3L743.9,483.8L743.7,486.2L743.5,488.7L743.4,491.2L743.2,493.7L743.0,496.2L742.8,498.7L742.7,501.2L742.5,503.7L742.3,506.2L742.1,508.7L742.0,511.2L741.9,513.4L741.8,515.6L741.7,517.7L741.6,519.9L742.0,522.4L742.6,524.0L743.2,525.6L744.3,527.8L745.4,529.9L746.6,532.1L747.7,534.2L748.8,536.4L750.0,538.5L751.1,540.6L752.2,542.8L752.8,544.2L753.2,545.7L753.5,547.2L753.7,548.8L753.8,550.3L753.6,552.9L753.4,555.5L753.2,558.1L753.0,560.7L752.7,563.3L752.5,565.9L752.3,568.5L752.1,571.1L751.9,573.7L751.7,576.3L751.5,578.8L751.2,581.4L751.0,584.0L750.8,586.6L750.6,589.2L750.4,591.8L750.2,594.4L750.0,597.0L749.7,599.6L749.5,602.2L749.3,604.8L749.1,607.3L748.9,609.9L748.7,612.5L748.5,615.1L748.2,617.7L748.0,620.3L747.8,622.9L747.6,625.5L747.4,628.1L747.2,630.7L747.0,633.3L746.7,635.8L746.5,638.4L746.3,641.0L746.1,643.6L745.9,646.2L745.5,648.1L745.2,650.0L744.4,651.8L743.6,653.6L742.4,655.8L741.2,658.1L740.0,660.3L738.8,662.5L737.5,664.8L736.3,667.0L735.1,669.2L734.0,670.8L732.9,672.4L731.4,674.0L730.0,675.6L728.3,677.2L726.6,678.8L725.0,680.5L723.3,682.1L721.6,683.7L720.0,685.3L718.4,686.8L716.7,688.4L715.1,689.9L713.5,691.4L711.8,692.9L710.2,694.4L708.2,695.9L706.2,697.4L704.2,698.9L702.7,700.4L701.7,701.7L701.0,703.2L700.3,704.7L699.8,707.0L699.3,709.4L698.7,711.7L698.2,714.1L697.7,716.4L697.1,718.8L696.6,721.1L696.1,723.5L695.4,725.3L694.6,727.2L693.7,729.4L692.7,731.7L691.7,733.9L690.8,735.7L689.8,737.5L688.7,739.5L687.6,741.5L686.4,743.5L685.3,745.5L684.1,747.5L682.9,749.5L681.7,751.5L680.5,753.5L679.3,755.4L678.1,757.4L676.9,759.4L676.2,761.3L675.7,763.4L675.6,765.7L675.7,767.0L675.9,768.3L676.7,770.6L678.0,772.7L679.7,774.5L681.4,776.3L683.1,778.1L684.8,780.0L686.5,781.8L688.2,783.6L689.7,785.1L691.2,786.7L692.7,788.2L694.2,789.7L695.7,791.2L696.9,792.8L698.2,794.4L699.4,796.0L700.4,797.7L701.3,799.4L702.2,801.0L703.2,803.3L704.2,805.7L705.1,808.0L706.1,810.3L707.1,812.6L708.0,814.9L709.0,817.2L710.0,819.5L711.0,821.8L711.9,824.1L712.9,826.4L713.9,828.7L714.9,831.0L715.8,833.4L716.8,835.7L717.8,838.0L718.7,840.4L719.7,842.7L720.7,845.0L721.6,847.4L722.6,849.7L723.6,852.0L724.5,854.4L725.5,856.7L726.5,859.0L727.5,861.4L728.4,863.7L729.4,866.1L730.3,868.3L731.3,870.6L732.2,872.9L733.2,875.2L734.2,877.4L735.1,879.7L736.1,882.0L736.5,883.8L737.0,885.7L737.5,887.5L737.7,889.0L737.8,890.4L737.8,891.9L737.8,893.4L737.6,895.3L737.4,897.2L737.0,899.5L736.5,901.8L736.1,904.2L735.6,906.5L735.2,908.9L734.8,911.2L734.6,913.4L734.3,915.5L734.3,917.0L734.3,918.4L734.5,919.9L734.7,921.5L735.1,923.1L735.5,924.8L736.3,926.9L737.1,929.0L737.9,931.1L738.8,932.7L739.7,934.3L740.6,935.8L741.9,937.6L743.3,939.3L744.6,941.0L746.0,942.7L747.4,944.5L748.7,946.2L750.1,948.1L751.5,950.1L752.9,952.0L754.4,953.9L755.8,955.9L757.2,957.8L758.6,959.7L760.0,961.7L761.4,963.6L762.8,965.5L764.2,967.5L765.3,969.2L766.4,970.9L767.4,972.7L768.3,975.1L768.8,977.5L768.9,979.2L769.0,980.8L768.8,982.4L768.6,984.0L768.0,986.5L767.5,988.9L766.9,991.3L766.3,993.7L765.7,996.1L765.1,997.8L764.5,999.5L763.7,1000.8L762.2,1002.7L760.5,1004.1L759.2,1004.9L757.8,1005.7L755.8,1006.7L753.7,1007.8L751.6,1008.9L749.5,1010.0L747.4,1011.0L745.4,1012.1L743.3,1013.2L741.2,1014.2L739.2,1015.3L737.2,1016.4L735.2,1017.5L733.2,1018.6L731.2,1019.7L729.2,1020.8L727.3,1021.9L725.4,1023.2L723.6,1024.4L722.6,1025.7L721.5,1026.9L720.7,1028.6L720.2,1030.1L719.6,1031.7L718.9,1034.2L718.1,1036.6L717.4,1039.1L716.6,1041.6L715.9,1044.0L715.1,1046.5L714.5,1048.4L713.8,1050.3L713.1,1052.2L712.5,1053.8L711.9,1055.5L711.3,1057.1L710.5,1058.8L709.8,1060.6L709.0,1062.4L708.3,1064.5L707.6,1066.6L706.8,1068.7L706.1,1070.8L705.7,1073.1L705.3,1075.3L704.9,1077.6L704.8,1080.0L704.7,1082.4L704.7,1084.8L704.2,1086.0L703.7,1087.3" fill="none" stroke="#8b98ab" stroke-width="2.2" opacity="1"/>
<path d="M890.4,85.9L892.7,85.3L895.1,84.8L897.5,84.2L899.8,83.6L902.2,83.0L903.9,82.8L905.5,82.7L906.7,82.8L908.1,83.4L909.7,84.4L911.3,85.4L913.0,86.4L914.2,87.5L915.4,88.6L916.7,90.5L917.4,92.5L917.8,94.6L918.2,96.6L918.7,98.6L919.1,100.7L919.6,102.0L920.2,103.4L921.2,105.0L922.9,106.9L924.5,108.7L926.1,110.6L927.5,112.0L928.9,113.4L930.1,114.1L931.6,114.7L934.0,114.9L935.2,114.7L936.6,114.1L938.6,112.9L940.7,111.6L942.7,110.4L944.8,109.2L946.5,108.3L948.3,107.4L950.0,106.5L951.8,105.6L953.8,104.5L955.8,103.4L957.8,102.3L959.7,101.2L961.6,100.0L963.6,98.9L965.5,97.7L967.5,96.6L969.1,95.3L970.7,94.1L972.3,92.6L974.0,91.1L975.6,89.7L977.2,88.2L978.8,86.6L980.5,85.0L982.1,83.5L983.7,81.9L985.3,80.2L986.8,78.5L987.7,77.3L988.3,75.7" fill="none" stroke="#8b98ab" stroke-width="2.2" opacity="1"/>
<path d="M988.5,77.7L987.3,79.7L985.9,81.1L984.5,82.5L982.7,84.2L980.9,85.9L979.1,87.6L977.3,89.3L975.5,91.0L973.7,92.7L971.9,94.3L969.9,95.9L968.0,97.6L965.9,98.7L963.9,99.8L961.8,101.0L959.8,102.1L957.7,103.3L955.7,104.4L953.6,105.6L951.6,106.7L949.5,107.9L947.5,109.0L945.6,110.2L943.6,111.4L941.6,112.6L939.6,113.8L938.2,114.5L936.7,115.3L935.3,115.7L933.9,116.0L931.5,115.8L929.9,115.2L928.8,114.5L927.8,113.6L926.8,112.7L925.3,111.1L923.9,109.5L922.5,107.9L921.1,106.3L919.6,104.2L918.5,101.9L918.0,99.7L917.4,97.4L916.9,95.2L916.3,92.9L915.7,91.2L914.9,90.1L913.3,88.6L911.9,87.5L910.4,86.3L908.9,85.2L906.8,83.9L905.1,83.7L903.1,84.0L901.0,84.6L899.0,85.1L896.9,85.6L894.8,86.1" fill="none" stroke="#8b98ab" stroke-width="2.2" opacity="1"/>
<path d="M703.7,1087.3L703.8,1088.8L704.0,1090.3L703.7,1091.6L702.9,1093.5L702.2,1095.4L701.4,1097.2L700.7,1099.1L699.8,1101.5L698.9,1103.9L698.1,1106.3L697.2,1108.6L696.3,1111.0L695.5,1113.4L694.6,1115.8L693.7,1118.2L692.9,1120.5L692.3,1122.4L692.0,1123.9L691.7,1125.3L691.5,1127.9L691.5,1129.8L691.4,1131.6L691.4,1133.5L691.5,1135.9L691.5,1138.4L691.6,1140.8L691.7,1143.2L691.7,1145.7L691.8,1148.1L691.9,1150.6L691.9,1153.0L692.0,1155.4L692.0,1157.9L692.1,1160.3L692.2,1162.7L692.2,1165.2L692.3,1167.6L692.1,1170.2L691.6,1172.6L690.8,1175.0L689.7,1177.2L688.5,1179.5L687.3,1181.8L686.1,1184.1L685.0,1186.4L683.8,1188.6L682.6,1190.9L681.4,1193.2L680.2,1195.5L679.1,1197.8L677.9,1200.1L676.7,1202.4L675.5,1204.7L674.3,1207.0L673.2,1209.2L672.0,1211.5L670.8,1213.8L669.6,1216.1L668.4,1218.4L667.3,1220.7L666.2,1222.3L665.2,1223.9L664.1,1225.5L662.3,1227.4L660.5,1229.2L658.6,1230.9L656.6,1232.6L654.7,1234.3L652.7,1236.0L650.8,1237.7L648.8,1239.4L646.9,1241.1L644.9,1242.8L643.0,1244.5L641.0,1246.2L639.1,1247.9L637.1,1249.6L635.2,1251.3L633.2,1253.0L631.3,1254.7L629.3,1256.4L627.4,1258.1L625.4,1259.8L623.5,1261.5L621.5,1263.2L619.6,1264.9L617.6,1266.6L615.7,1268.3L613.7,1270.0L611.8,1271.7L609.8,1273.4L607.9,1275.1L605.9,1276.8L603.9,1278.5L602.4,1279.9L600.9,1281.4L599.4,1282.8L597.8,1284.2L596.5,1285.9L595.1,1287.5L593.7,1289.2L592.3,1291.2L591.0,1293.3L589.6,1295.3L588.2,1297.3L586.9,1299.4L585.5,1301.4L584.2,1303.4L582.8,1305.5L581.4,1307.5L580.1,1309.6L578.7,1311.0L577.3,1312.5L575.7,1313.7L574.0,1314.8L572.7,1315.5L571.4,1316.1L569.0,1317.1L566.6,1318.1L564.2,1319.1L561.8,1320.1L559.5,1321.1L557.1,1322.1L554.7,1323.1L552.3,1324.0L549.9,1325.0L547.5,1326.0L545.2,1327.0L542.8,1328.0L540.4,1329.0L538.0,1330.0L535.6,1331.0L533.5,1332.1L531.3,1333.2L529.6,1334.7L527.8,1336.2L526.2,1338.0L524.5,1339.7L522.9,1341.5L521.2,1343.3L519.6,1345.0L518.0,1346.8L516.6,1348.1L515.2,1349.4L513.6,1350.5L512.0,1351.5L510.0,1352.7L508.0,1353.9L506.1,1355.1L504.1,1356.3L502.1,1357.5L500.1,1358.6L498.1,1359.8L496.2,1361.3L494.2,1362.8L492.2,1364.3L490.3,1365.8L488.3,1367.3L486.4,1368.8L484.4,1370.4L482.4,1371.9L480.5,1373.4L478.5,1374.9L476.6,1376.4L474.6,1377.9L472.6,1379.4L470.7,1380.9L468.7,1382.4L466.8,1383.9L465.2,1384.9L463.6,1385.9L462.0,1386.9L460.1,1387.8L458.2,1388.8L456.3,1389.7L454.4,1390.9L452.4,1392.0L450.6,1393.6L448.7,1395.1L446.9,1396.6L445.0,1398.2L443.2,1399.7L441.3,1401.2L439.5,1402.8L437.6,1404.3L435.8,1405.8L434.1,1406.9L432.3,1407.9L430.6,1409.0L428.8,1410.0L426.7,1411.2L424.6,1412.4L422.4,1413.5L420.3,1414.7L418.2,1415.9L416.0,1417.0L413.9,1418.2L411.7,1419.4L409.6,1420.5L407.5,1421.7L405.3,1422.9L403.2,1424.0L401.1,1425.2L398.9,1426.4L397.4,1427.1L396.0,1427.8L394.4,1428.4L392.8,1429.0L390.5,1429.7L388.2,1430.3L385.9,1431.0L383.6,1431.7L381.3,1432.3L379.0,1433.0L376.7,1433.7L374.4,1434.3L372.1,1435.0L369.8,1436.0L367.5,1436.9L365.2,1437.9L362.9,1438.9L360.6,1439.9L358.2,1441.0L355.8,1442.0L353.5,1443.1L351.1,1444.2L348.8,1445.3L346.4,1446.3L344.1,1447.4L341.7,1448.5L339.3,1449.6L337.0,1450.6L334.6,1451.7L332.3,1452.8L329.9,1453.9L327.6,1454.9L325.2,1456.0L322.9,1457.1L320.5,1458.2L318.1,1459.2L315.8,1460.3L313.4,1461.4L311.1,1462.5L308.7,1463.6L306.6,1464.6L304.4,1465.6L302.3,1466.6L300.1,1467.7L298.0,1468.7L295.8,1469.7L293.7,1470.8L291.5,1471.8L289.4,1472.8L287.2,1473.9L285.1,1474.9L283.1,1476.0L281.2,1477.0L279.6,1478.1L278.0,1479.2L276.4,1480.2L274.5,1481.3L272.7,1482.4L270.4,1483.5L268.2,1484.7L265.9,1485.8L263.7,1486.9L261.4,1488.1L259.2,1489.2L256.9,1490.4L254.6,1491.5L252.3,1492.6L250.0,1493.6L247.7,1494.7L245.7,1495.5L243.7,1496.3L241.7,1497.1L240.4,1497.4L239.0,1497.8L237.1,1498.0L235.3,1498.1L233.3,1498.0L231.3,1497.9L229.3,1497.8L227.3,1497.7L224.8,1498.1L222.4,1498.9L220.4,1500.2L218.9,1501.3L217.5,1502.5L215.8,1504.0L214.1,1505.5L212.5,1507.0L210.8,1508.5L209.2,1510.0L207.5,1511.6L205.9,1513.1L204.5,1514.0L203.0,1514.8L201.4,1515.6L199.7,1516.3L197.4,1517.1L195.1,1517.9L192.8,1518.8L190.5,1519.6L188.2,1520.4L185.9,1521.3L183.6,1522.1L181.4,1522.9L179.1,1523.8L176.8,1524.6L174.5,1525.4L172.2,1526.3L169.9,1527.1L167.9,1528.0L165.9,1528.9L164.0,1529.8L161.8,1531.0L159.6,1532.2L157.4,1533.4L155.2,1534.6L152.8,1535.4L150.4,1536.3L147.9,1537.1L145.5,1538.0L143.1,1538.9L140.7,1539.7L138.3,1540.6L136.3,1541.5L134.3,1542.4L132.4,1543.3L130.4,1544.2L128.5,1545.1L126.3,1546.2L124.1,1547.4L121.9,1548.6L120.0,1549.9L118.1,1551.1L116.3,1552.4L114.4,1553.7L112.5,1555.0L110.7,1556.3L108.7,1558.0L106.8,1559.7L104.9,1561.3L102.9,1563.0L101.0,1564.7L99.5,1566.4L98.0,1568.0L96.4,1569.7L94.9,1571.4L93.4,1573.5L92.0,1575.6L90.5,1577.7L89.0,1579.8L87.6,1581.9L86.0,1583.7L84.4,1585.5L82.9,1587.3L81.3,1589.1L79.8,1590.9L78.4,1592.0L76.8,1592.8L74.4,1593.7L72.0,1594.6L69.6,1595.5L68.0,1596.5L66.4,1598.0L65.1,1599.4L63.7,1601.4L62.3,1603.4L60.9,1605.3L59.5,1607.3L58.1,1609.2L56.7,1611.2L55.3,1613.1L54.1,1614.7L52.9,1616.4L51.6,1618.0L50.4,1619.6L48.7,1621.6L47.1,1623.5L45.5,1625.5L43.8,1627.5L42.2,1629.4L41.0,1630.8L39.8,1632.1L38.6,1633.4" fill="none" stroke="#e87bff" stroke-width="2.2" opacity="1"/>
<path d="M37.4,1633.9L38.9,1632.3L40.4,1630.3L42.0,1628.3L43.5,1626.3L45.1,1624.4L46.6,1622.4L48.2,1620.4L49.7,1618.4L51.3,1616.4L52.8,1614.3L54.3,1612.3L55.8,1610.2L57.3,1608.2L58.8,1606.2L60.3,1604.1L61.8,1602.1L63.3,1600.0L64.8,1598.0L66.4,1596.5L68.1,1595.3L70.1,1594.4L72.1,1593.5L74.2,1592.7L76.2,1591.9L77.6,1591.0L79.1,1590.0L80.6,1588.3L82.2,1586.5L83.8,1584.8L85.4,1583.1L86.8,1581.0L88.3,1579.0L89.7,1576.9L91.2,1574.9L92.7,1572.8L94.1,1570.8L95.6,1569.0L97.1,1567.2L98.7,1565.5L100.2,1563.9L101.6,1562.6L103.0,1561.4L104.7,1560.0L106.4,1558.5L108.1,1557.1L109.8,1555.7L111.6,1554.3L113.4,1553.0L115.3,1551.8L117.1,1550.6L118.9,1549.3L120.8,1548.1L122.6,1546.9L124.4,1545.9L126.2,1545.0L128.0,1544.1L130.0,1543.2L132.0,1542.3L133.9,1541.4L135.9,1540.5L137.8,1539.6L140.1,1538.8L142.4,1538.0L144.6,1537.2L146.9,1536.4L149.2,1535.7L151.4,1534.9L153.7,1534.1L155.7,1533.0L157.8,1532.0L159.8,1530.9L161.9,1529.8L163.9,1528.8L165.9,1527.7L168.0,1526.7L170.4,1525.8L172.8,1524.9L175.2,1524.1L177.6,1523.2L180.0,1522.3L182.5,1521.4L184.9,1520.6L187.3,1519.7L189.7,1518.8L192.1,1518.0L194.5,1517.1L196.9,1516.2L198.8,1515.4L200.6,1514.7L202.5,1513.9L203.8,1513.1L205.1,1512.2L206.9,1510.8L208.6,1509.3L210.3,1507.7L212.0,1506.2L213.7,1504.6L215.4,1503.1L217.1,1501.5L218.8,1500.0L220.4,1498.8L222.0,1497.9L223.2,1497.5L224.4,1497.0L227.0,1496.6L229.2,1496.6L231.2,1496.8L233.2,1497.0L235.2,1497.0L237.3,1496.9L238.8,1496.6L240.3,1496.3L241.7,1495.9L243.1,1495.4L245.3,1494.4L247.5,1493.3L249.7,1492.3L251.9,1491.3L254.0,1490.2L256.2,1489.2L258.4,1488.2L260.6,1487.1L262.9,1486.0L265.1,1484.8L267.3,1483.7L269.6,1482.6L271.8,1481.5L274.1,1480.4L276.1,1479.1L278.2,1477.9L280.2,1476.6L282.3,1475.4L284.4,1474.1L286.5,1473.1L288.7,1472.1L290.9,1471.0L293.1,1470.0L295.3,1468.9L297.5,1467.9L299.6,1466.9L301.8,1465.8L304.0,1464.8L306.2,1463.7L308.4,1462.7L310.7,1461.6L313.1,1460.6L315.5,1459.5L317.8,1458.5L320.2,1457.4L322.6,1456.3L324.9,1455.3L327.3,1454.2L329.6,1453.2L332.0,1452.1L334.4,1451.1L336.7,1450.0L339.1,1448.9L341.5,1447.9L343.8,1446.8L346.2,1445.8L348.6,1444.7L350.9,1443.6L353.3,1442.6L355.6,1441.5L358.0,1440.5L360.4,1439.4L362.7,1438.3L365.1,1437.3L367.5,1436.2L369.5,1435.5L371.6,1434.7L373.7,1433.9L375.9,1433.2L378.1,1432.6L380.3,1431.9L382.5,1431.2L384.7,1430.5L386.9,1429.9L389.1,1429.2L391.5,1428.3L394.0,1427.4L395.4,1426.7L396.9,1426.1L399.0,1424.9L401.2,1423.7L403.4,1422.5L405.5,1421.3L407.7,1420.1L409.9,1418.9L412.0,1417.7L414.2,1416.5L416.4,1415.3L418.5,1414.1L420.7,1412.9L422.9,1411.7L425.0,1410.5L427.2,1409.3L429.4,1408.1L431.5,1406.9L433.2,1405.7L434.9,1404.6L436.6,1403.5L438.4,1402.0L440.2,1400.5L442.0,1398.9L443.8,1397.4L445.6,1395.9L447.4,1394.4L449.2,1392.9L451.0,1391.3L452.4,1390.5L453.8,1389.6L455.7,1388.7L457.7,1387.7L459.6,1386.8L461.5,1385.9L463.0,1385.0L464.6,1384.1L466.2,1383.2L468.2,1381.6L470.3,1380.0L472.3,1378.5L474.4,1376.9L476.5,1375.3L478.5,1373.7L480.6,1372.2L482.6,1370.6L484.7,1369.0L486.7,1367.4L488.8,1365.8L490.9,1364.3L492.9,1362.7L495.0,1361.1L497.0,1359.5L499.1,1358.0L500.9,1356.8L502.6,1355.7L504.8,1354.5L507.0,1353.4L509.2,1352.2L510.5,1351.2L511.9,1350.3L513.6,1348.5L515.3,1346.7L517.0,1344.8L518.8,1343.0L520.5,1341.2L522.2,1339.4L524.0,1337.6L525.7,1335.8L526.7,1334.9L527.7,1334.0L529.8,1332.5L531.6,1331.7L533.4,1330.8L535.3,1329.9L537.6,1329.0L539.8,1328.0L542.1,1327.0L544.4,1326.1L546.7,1325.1L549.0,1324.2L551.3,1323.2L553.6,1322.2L555.9,1321.3L558.2,1320.3L560.5,1319.4L562.8,1318.4L565.1,1317.5L567.4,1316.5L569.7,1315.5L572.0,1314.6L573.4,1313.8L574.9,1313.1L576.8,1311.7L578.4,1310.1L579.6,1308.6L580.7,1307.2L582.1,1305.1L583.5,1303.1L584.9,1301.0L586.2,1298.9L587.6,1296.9L589.0,1294.8L590.3,1292.7L591.7,1290.7L593.1,1288.6L594.5,1286.6L595.8,1285.1L597.1,1283.6L598.4,1282.1L600.3,1280.4L602.2,1278.8L604.1,1277.1L606.1,1275.4L608.0,1273.7L609.9,1272.1L611.8,1270.4L613.8,1268.7L615.7,1267.0L617.6,1265.4L619.5,1263.7L621.5,1262.0L623.4,1260.3L625.3,1258.7L627.2,1257.0L629.1,1255.3L631.1,1253.7L633.0,1252.0L634.9,1250.3L636.8,1248.6L638.8,1247.0L640.7,1245.3L642.6,1243.6L644.5,1241.9L646.4,1240.3L648.4,1238.6L650.3,1236.9L652.2,1235.2L654.1,1233.6L656.1,1231.9L658.0,1230.2L659.9,1228.5L661.6,1226.7L663.2,1224.9L664.2,1223.3L665.3,1221.8L666.3,1220.3L667.5,1218.0L668.7,1215.7L669.8,1213.4L671.0,1211.1L672.2,1208.9L673.4,1206.6L674.6,1204.3L675.8,1202.0L677.0,1199.7L678.1,1197.5L679.3,1195.2L680.5,1192.9L681.7,1190.6L682.9,1188.3L684.1,1186.1L685.2,1183.8L686.4,1181.5L687.6,1179.2L688.8,1176.9L689.6,1175.0L690.3,1173.0L690.7,1171.5L691.0,1170.0L691.1,1168.7L691.2,1167.3L691.2,1164.9L691.2,1162.6L691.1,1160.2L691.1,1157.8L691.1,1155.5L691.1,1153.1L691.0,1150.6L691.0,1148.2L690.9,1145.7L690.8,1143.3L690.8,1140.8L690.7,1138.3L690.6,1135.9L690.6,1133.4L690.5,1131.0L690.4,1128.5L690.6,1126.4L690.7,1124.3L691.4,1121.9L692.1,1119.6L692.9,1117.2L693.8,1114.9L694.7,1112.6L695.5,1110.2L696.4,1107.9L697.3,1105.6L698.1,1103.2L699.0,1100.9L699.9,1098.6L700.7,1096.2L701.4,1094.0L701.7,1092.0L702.0,1090.0L702.6,1088.6L703.1,1087.2" fill="none" stroke="#e87bff" stroke-width="2.2" opacity="1"/>
<path d="M282.5,1487.5L283.7,1489.8L284.8,1492.1L286.0,1494.5L287.2,1496.8L288.4,1499.1L289.5,1501.4L290.7,1503.7L291.9,1506.1L293.1,1508.4L294.2,1510.5L295.4,1512.7L296.6,1514.9L297.8,1517.0L299.0,1519.2L300.0,1521.1L301.0,1523.1L302.0,1525.0L303.0,1526.9L303.9,1528.9L304.9,1531.2L305.5,1533.2L305.8,1535.7L305.8,1537.6L305.7,1539.5L305.4,1541.9L305.1,1544.4L304.8,1546.8L304.5,1549.3L304.2,1551.7L303.9,1554.2L303.6,1556.7L303.3,1559.1L303.0,1561.6L302.7,1564.0L302.4,1566.5L302.1,1568.9L301.8,1571.4L301.5,1573.8L301.2,1576.3L301.2,1578.8L301.2,1581.3L301.3,1583.7L301.5,1586.2L301.6,1588.7L301.7,1591.2L301.9,1593.7L302.0,1596.2L302.2,1598.6L302.3,1601.1L302.7,1603.3L303.0,1605.5L303.4,1607.7L303.8,1609.9L304.1,1612.2L304.5,1614.4L304.8,1616.6L305.4,1618.5L306.0,1620.5L306.7,1622.3L307.3,1624.1L308.0,1625.9L308.7,1628.1L309.3,1630.3L309.7,1632.8L310.2,1635.2L310.6,1637.7L311.0,1640.2L311.5,1642.7L311.9,1645.2L312.3,1647.7L312.7,1650.2L313.2,1652.7L313.6,1655.2L314.0,1657.7L314.4,1660.2L314.9,1662.6L315.3,1665.1L315.7,1667.6L316.2,1670.1L316.6,1672.6L317.0,1675.1L317.4,1677.6L318.0,1680.0L318.5,1682.4L319.2,1684.4L319.8,1686.4L320.7,1688.2L321.6,1689.9L322.7,1691.4L323.7,1692.9L325.0,1694.2L326.2,1695.5L328.1,1696.9L330.1,1698.3L331.5,1699.0L332.9,1699.8L334.3,1700.2L335.8,1700.7L337.2,1700.7L338.7,1700.7" fill="none" stroke="#8b98ab" stroke-width="2.2" opacity="1"/>
<path d="M338.7,1700.9L337.2,1700.9L335.8,1700.8L334.3,1700.4L332.8,1699.9L331.4,1699.2L329.9,1698.4L328.0,1697.0L326.1,1695.5L324.8,1694.3L323.5,1693.0L322.5,1691.5L321.5,1690.1L320.6,1688.4L319.7,1686.7L319.0,1684.6L318.3,1682.4L317.8,1680.0L317.2,1677.5L316.8,1675.0L316.4,1672.5L315.9,1669.9L315.5,1667.4L315.1,1664.9L314.6,1662.3L314.2,1659.8L313.8,1657.3L313.3,1654.7L312.9,1652.2L312.5,1649.7L312.1,1647.1L311.6,1644.6L311.2,1642.1L310.8,1639.5L310.3,1637.0L309.9,1634.5L309.5,1631.9L309.1,1630.2L308.7,1628.4L308.0,1626.5L307.3,1624.5L306.6,1622.6L305.8,1620.6L305.3,1618.6L304.7,1616.6L304.2,1614.4L303.8,1612.2L303.5,1610.0L303.2,1607.7L302.8,1605.5L302.5,1603.3L302.2,1601.1L302.0,1598.6L301.9,1596.1L301.7,1593.6L301.6,1591.2L301.4,1588.7L301.3,1586.2L301.1,1583.8L301.0,1581.3L301.0,1578.8L300.9,1576.3L301.3,1573.8L301.6,1571.4L301.9,1568.9L302.2,1566.5L302.5,1564.0L302.8,1561.5L303.1,1559.1L303.4,1556.6L303.7,1554.2L304.0,1551.7L304.3,1549.3L304.6,1546.8L304.9,1544.4L305.2,1541.9L305.5,1539.5L305.6,1537.6L305.7,1535.7L305.3,1533.3L304.8,1531.7L304.3,1530.1L303.2,1527.9L302.1,1525.8L301.0,1523.6L299.9,1521.5L298.8,1519.3L297.6,1517.3L296.5,1515.2L295.3,1513.2L294.2,1511.2L293.1,1509.1L292.0,1507.0L291.0,1504.9L289.9,1502.8L288.9,1500.7L287.8,1498.6L286.7,1496.5L285.5,1494.3L284.3,1492.1L283.1,1490.0L281.9,1487.8" fill="none" stroke="#8b98ab" stroke-width="2.2" opacity="1"/>
<path d="M789.4,343.5L788.6,345.8L787.8,348.0L787.0,350.2" fill="none" stroke="#8b98ab" stroke-width="1" opacity="0.75"/>
<path d="M787.2,383.4L787.0,382.0L786.8,380.6L786.8,378.1L786.7,375.7L786.7,373.2L786.7,370.7L786.7,368.2L786.5,366.0" fill="none" stroke="#8b98ab" stroke-width="1" opacity="0.75"/>
<path d="M901.1,495.9L902.8,494.6L904.5,493.3L906.2,492.0L907.9,490.7L909.6,489.4L911.7,488.0L913.7,486.6L915.8,485.2L917.9,483.8L920.0,482.4L922.1,481.0L924.2,479.6L926.3,478.2L928.3,476.8L930.4,475.4L932.5,474.0L933.4,473.1L934.4,472.2L935.2,470.7L935.7,469.5L936.0,467.4L935.9,465.9L935.2,463.8L933.9,461.6L932.3,459.6L930.7,457.6L929.1,455.6L927.9,453.9L926.7,452.1L925.5,450.3" fill="none" stroke="#8b98ab" stroke-width="1" opacity="0.75"/>
<path d="M927.1,451.4L928.2,452.8L929.4,454.3L930.5,455.7L931.9,457.4L933.4,459.1L934.9,460.8L936.4,462.6L937.2,463.8L938.0,465.1L938.6,467.0L938.7,469.0L938.4,471.0L937.8,472.3L936.9,473.4L936.0,474.6L934.0,476.2L931.9,477.6L929.8,479.0L927.6,480.4L925.5,481.9L923.3,483.3L921.2,484.7L919.1,486.1L916.9,487.5L914.9,488.8L912.9,490.1L910.9,491.4L909.0,492.5L907.2,493.6L905.3,494.7L903.5,495.8L901.6,496.9" fill="none" stroke="#8b98ab" stroke-width="1" opacity="0.75"/>
<path d="M868.0,182.4L866.8,184.0L865.6,185.5L864.4,187.1" fill="none" stroke="#8b98ab" stroke-width="1" opacity="0.75"/>
<path d="M772.6,706.8L772.6,704.6L772.5,702.4L772.4,700.2L772.3,698.0L772.3,695.8L772.3,693.4L772.4,691.0L772.4,688.6L772.5,686.3L772.4,683.9L772.3,681.6L772.2,679.2L772.1,676.9L772.1,674.5L772.0,672.2L771.9,669.9L771.8,667.5L771.8,665.3L771.8,663.1L771.9,660.9L771.9,658.7L771.7,656.6L771.4,655.4" fill="none" stroke="#8b98ab" stroke-width="1" opacity="0.75"/>
<path d="M1061.2,393.0L1063.0,391.8L1065.0,390.9L1067.1,390.0L1069.1,389.1L1071.2,388.2L1073.2,387.3L1075.2,386.4L1077.3,385.5L1079.6,384.5L1082.0,383.6L1084.3,382.7L1086.6,381.8L1089.0,380.9L1091.3,380.0L1093.6,379.1L1096.0,378.2L1098.3,377.2L1100.7,376.3L1103.0,375.4L1104.9,374.4L1106.4,373.2L1107.2,372.3L1108.2,370.5L1108.7,369.0L1108.9,367.7L1108.8,365.7L1108.7,363.8L1108.6,361.8L1108.3,359.3L1108.0,356.8L1107.7,354.3L1107.4,351.8L1107.1,349.3L1106.8,346.8" fill="none" stroke="#8b98ab" stroke-width="1" opacity="0.75"/>
<path d="M1108.4,353.0L1108.7,355.5L1108.9,357.9L1109.2,360.3L1109.5,362.7L1109.5,364.9L1109.5,367.1L1109.5,369.3L1109.1,371.1L1108.3,373.1L1106.9,375.1L1105.3,376.7L1103.6,377.8L1101.6,378.7L1099.6,379.6L1097.3,380.6L1094.9,381.5L1092.6,382.5L1090.2,383.4L1087.9,384.4L1085.5,385.3L1083.2,386.3L1080.8,387.2L1078.5,388.1L1076.1,389.1L1073.8,390.0L1071.4,391.0L1069.1,391.9L1067.1,392.7L1065.0,393.4L1063.0,394.1L1060.9,394.8L1058.9,395.6L1057.4,395.9L1055.9,396.3" fill="none" stroke="#8b98ab" stroke-width="1" opacity="0.75"/>
<path d="M773.4,796.9L773.7,799.0L774.0,801.1L774.3,803.2L774.8,805.5L775.4,807.8L776.0,810.2L776.5,812.7L777.1,815.2L777.6,817.6L778.2,820.1L778.7,822.6L779.2,825.1L779.8,827.6L780.3,830.1L780.6,832.5L780.6,834.8L780.7,837.2L780.5,838.6L780.4,839.9L779.8,842.3L779.3,844.7L778.6,846.4L778.0,848.1L777.2,849.6L776.4,851.1L775.5,852.5L774.6,854.0L773.7,855.1L772.8,856.2L771.2,858.1L769.6,860.0L767.9,862.0L766.3,863.9L764.6,865.8L763.0,867.8L761.4,869.7L759.7,871.6L758.1,873.5L756.4,875.5L754.8,877.4L753.1,879.3L751.5,881.2L749.9,883.2L748.2,885.1L746.6,887.0L744.9,889.0L743.3,890.9L741.6,892.8L740.0,894.7L739.3,895.9L738.6,897.0L738.1,898.2L737.7,899.4L737.2,901.6L736.6,903.8L736.1,906.0L735.6,908.3L735.1,910.5L734.6,912.7" fill="none" stroke="#8b98ab" stroke-width="1" opacity="0.75"/>
<path d="M708.1,1062.0L708.9,1060.3L709.7,1058.5L710.5,1056.7L711.3,1054.5L712.0,1052.2L712.8,1050.0L713.6,1047.8L714.4,1045.6L715.2,1043.3L715.9,1040.9L716.7,1038.4L717.4,1036.0L718.2,1033.6L719.0,1031.1L719.7,1028.7L720.3,1027.4L721.0,1026.1L722.6,1024.1" fill="none" stroke="#8b98ab" stroke-width="1" opacity="0.75"/>
<path d="M723.1,1024.6L722.2,1025.6L721.4,1026.6L720.4,1028.6L719.7,1031.0L719.0,1033.4L718.2,1035.7L717.5,1038.1L716.8,1040.5L716.1,1042.9L715.3,1045.2L714.5,1047.5L713.7,1049.8L712.9,1052.1L712.1,1054.1L711.4,1056.2L710.6,1058.2L709.8,1060.3L709.0,1062.3" fill="none" stroke="#8b98ab" stroke-width="1" opacity="0.75"/>
<path d="M369.0,1660.2L366.9,1661.6L364.8,1663.0L362.6,1664.4L360.5,1665.7L358.4,1667.1L356.3,1668.5L354.1,1669.9L353.0,1670.8L351.8,1671.8L351.0,1672.8L350.1,1673.9L348.9,1676.2L348.6,1677.5L348.2,1678.8L348.0,1680.2L347.8,1681.7L347.8,1683.9L347.8,1686.1L347.8,1688.3L347.8,1690.5L347.6,1691.8L347.4,1693.1L346.9,1694.4L346.5,1695.6L345.8,1696.7L345.1,1697.8L343.3,1699.3L341.2,1700.4L338.7,1701.0" fill="none" stroke="#8b98ab" stroke-width="1" opacity="0.75"/>
<path d="M974.5,448.3L973.3,449.4L971.3,450.8L969.3,452.3L967.3,453.7L965.3,455.2L963.1,456.6L961.0,458.1L958.8,459.5L956.7,461.0L954.5,462.4L952.4,463.9L950.2,465.3L948.7,466.0L947.2,466.7L944.8,467.1L942.8,467.0L940.8,466.4L938.9,465.3L937.3,464.0L935.7,462.3L934.2,460.5L932.6,458.8L931.0,457.0L929.5,455.3L928.2,453.6L926.9,451.9L925.6,450.2" fill="none" stroke="#8b98ab" stroke-width="1" opacity="0.75"/>
<path d="M316.3,1705.7L317.4,1703.6L318.5,1701.5L319.6,1699.3L320.7,1697.2L321.9,1695.2L323.1,1693.3L324.4,1691.7L325.7,1690.2L327.0,1688.6L328.2,1687.1L329.4,1685.9L330.5,1684.7L331.7,1683.9L332.8,1683.1L334.1,1682.6L335.4,1682.2L337.3,1682.1L339.1,1682.3L340.9,1682.8L342.5,1683.7L343.8,1684.7L344.9,1686.0L346.0,1688.1L346.4,1689.6L346.5,1692.0L346.3,1693.5L345.5,1695.9L344.8,1697.4L343.8,1698.5L342.5,1699.4L340.3,1700.4L338.7,1700.8" fill="none" stroke="#8b98ab" stroke-width="1" opacity="0.75"/>
<path d="M338.7,1700.8L340.0,1700.4L341.2,1700.0L342.5,1699.2L343.7,1698.4L345.2,1696.7L346.3,1694.5L346.7,1692.8L347.0,1691.0L347.1,1688.4L347.1,1685.8L347.1,1683.3L347.1,1680.7L347.3,1678.9L347.5,1677.1L347.9,1675.3L348.4,1673.4L348.8,1671.6L349.5,1670.2L350.2,1668.8L351.5,1667.5L353.2,1666.5L355.5,1665.4L357.8,1664.2L360.1,1663.0L362.3,1661.9L364.6,1660.7L366.9,1659.6L369.2,1658.4L371.5,1657.2L373.8,1656.1L376.0,1655.1L378.3,1654.1" fill="none" stroke="#8b98ab" stroke-width="1" opacity="0.75"/>
<path d="M286.7,1496.5L285.7,1494.5L284.7,1492.5L283.7,1490.4L282.7,1488.4L281.7,1486.3L280.8,1484.0L280.4,1481.6L280.4,1480.0L280.7,1478.5L281.6,1476.6L283.4,1474.7L284.6,1473.9L285.8,1473.1L287.9,1472.1L290.0,1471.1L292.1,1470.1L294.2,1469.2L296.4,1468.2L298.5,1467.2L300.6,1466.2L302.6,1465.4L304.5,1464.5L306.5,1463.7L308.4,1462.9" fill="none" stroke="#8b98ab" stroke-width="1" opacity="0.75"/>
<path d="M930.7,114.4L933.0,114.8L934.1,114.7L935.2,114.4L937.4,113.0L939.5,111.7L941.7,110.3L943.8,108.9L946.0,107.6L948.0,106.8L949.5,106.5L951.3,106.3L953.2,106.2L954.4,106.4L955.6,106.9L956.9,108.1L958.2,109.3L959.5,110.5L960.9,112.6L962.3,114.8L963.7,116.9" fill="none" stroke="#8b98ab" stroke-width="1" opacity="0.75"/>
<path d="M960.9,113.1L960.3,111.2L959.5,109.6L958.8,108.0L958.0,106.4L957.6,105.3L957.7,103.9L958.3,102.7L959.7,101.2L961.5,100.0L963.4,98.9L965.2,97.7L967.1,96.6L968.8,95.3L970.5,94.0L972.2,92.8L973.9,91.5" fill="none" stroke="#8b98ab" stroke-width="1" opacity="0.75"/>
<path d="M969.5,96.2L968.3,97.4L966.3,98.9L964.4,100.0L962.4,101.2L960.5,102.4L959.8,103.2L959.2,104.6L959.2,106.0L959.6,107.7L960.6,110.0L961.7,112.3L962.8,114.6L963.8,116.8" fill="none" stroke="#8b98ab" stroke-width="1" opacity="0.75"/>
<path d="M930.7,114.4L932.0,114.8L933.3,115.2L935.4,115.0L937.4,114.1L939.6,112.9L941.7,111.7L943.9,110.6L946.0,109.4L948.2,108.2L950.4,107.1L952.6,106.5L954.5,106.5L955.5,106.7" fill="none" stroke="#8b98ab" stroke-width="1" opacity="0.75"/>
<path d="M902.8,99.2L904.0,97.2L905.2,95.3L906.4,93.3L907.6,91.3L908.8,89.6L910.1,87.9L911.2,87.1L912.1,86.9L913.3,86.9L914.1,87.2L915.6,88.3L916.8,90.1L917.4,91.6L917.9,93.1L918.4,95.1L919.0,97.2L919.5,99.2L920.0,101.2L920.5,103.3L921.4,104.9L922.3,106.2L923.3,107.5" fill="none" stroke="#8b98ab" stroke-width="1" opacity="0.75"/>
<path d="M1041.7,167.3L1043.3,167.1L1045.2,167.4L1047.4,167.9L1049.6,168.3L1051.9,168.8L1054.1,169.3L1056.2,169.9L1058.2,170.4L1060.3,171.0L1062.4,171.6L1064.5,172.2L1066.4,172.5L1068.4,172.7L1070.3,173.0L1072.3,173.3L1073.0,173.9L1072.2,174.2L1069.6,173.8L1067.1,173.4L1064.6,173.0L1063.0,172.5L1061.5,172.1L1059.2,171.6L1056.8,171.1L1054.5,170.6L1052.1,170.2L1049.8,169.7L1047.4,169.2L1045.0,168.7L1042.7,168.2L1040.3,167.7L1038.0,167.2L1035.6,166.7L1034.3,166.2" fill="none" stroke="#8b98ab" stroke-width="1" opacity="0.75"/>
<path d="M988.1,78.3L987.3,79.9L986.2,81.3L984.6,82.8L982.9,84.4L981.3,85.9L979.7,87.4L978.1,89.0L976.6,90.3L975.0,91.6L973.5,93.0L972.0,94.3L971.1,96.1L970.2,97.9L969.1,98.7L968.0,99.5" fill="none" stroke="#8b98ab" stroke-width="1" opacity="0.75"/>
<path d="M864.4,187.1L863.0,188.3L861.5,189.5L860.1,190.8" fill="none" stroke="#8b98ab" stroke-width="1" opacity="0.75"/>
<path d="M927.3,451.3L929.0,453.2L930.8,455.1L932.5,457.0L934.3,458.9L936.0,460.8L937.8,462.7L939.1,463.7L940.5,464.4L942.1,464.8L943.9,464.9L946.3,464.4L947.5,463.8L948.7,463.2L950.9,461.8L953.1,460.4L955.3,459.0L957.4,457.6L959.6,456.1L961.8,454.7L963.9,453.3L966.0,452.1L967.3,451.6L968.5,451.0" fill="none" stroke="#8b98ab" stroke-width="1" opacity="0.75"/>
<path d="M968.0,99.5L966.0,100.2L964.1,101.3L962.3,102.4L960.4,103.6L958.0,104.2L955.7,104.9L953.4,105.6" fill="none" stroke="#8b98ab" stroke-width="1" opacity="0.75"/>
<path d="M771.4,655.4L770.1,653.3L768.9,652.0L766.8,650.9L764.7,649.8L762.6,648.7L760.5,647.7L758.5,646.2L756.6,644.8L754.6,643.6L752.7,642.3L750.8,641.0L748.9,639.8L747.1,638.1L746.2,636.1L745.8,634.5L745.7,632.7L745.9,630.5L746.1,628.3L746.3,626.1L746.4,623.9L746.6,621.7L746.6,620.0L746.5,618.3" fill="none" stroke="#8b98ab" stroke-width="1" opacity="0.75"/>
<path d="M294.2,1511.2L293.0,1509.2L291.8,1507.2L290.7,1505.2L289.5,1503.3L288.4,1501.3L287.2,1499.3L286.1,1497.2L285.0,1495.2L283.9,1493.1L282.8,1491.0L281.7,1488.9L280.6,1486.8L279.5,1484.8L278.4,1482.7L277.3,1481.4L276.3,1480.8L274.7,1480.6L273.4,1481.0L271.6,1482.1L269.8,1483.2L268.0,1484.1L266.1,1485.1L264.3,1486.1L261.9,1487.2L259.6,1488.3L257.3,1489.4L255.0,1490.5L252.7,1491.7L250.4,1492.8L248.0,1493.9L245.7,1495.0L243.4,1496.2" fill="none" stroke="#8b98ab" stroke-width="1" opacity="0.75"/>
<path d="M299.0,1468.0L297.2,1469.0L295.4,1470.0L293.6,1471.0L291.7,1472.0L290.0,1472.9L288.2,1473.8L286.4,1474.7L285.3,1475.4L284.2,1476.1L283.2,1477.2L282.5,1478.3L281.8,1479.4L281.2,1481.9L281.5,1484.4L282.0,1486.0L282.5,1487.5" fill="none" stroke="#8b98ab" stroke-width="1" opacity="0.75"/>
<path d="M703.0,804.8L701.8,802.8L700.7,800.9L699.5,798.9L699.1,797.2" fill="none" stroke="#8b98ab" stroke-width="1" opacity="0.75"/>
<path d="M953.4,104.8L955.4,103.5L957.3,102.3L959.3,101.0L961.2,99.8L963.2,98.5L965.1,97.3L967.1,96.6L968.7,95.6" fill="none" stroke="#8b98ab" stroke-width="1" opacity="0.75"/>
<path d="M960.8,113.2L959.7,111.9L958.7,110.7L956.9,109.2L955.0,108.2L953.0,107.6L951.4,107.8L949.5,108.4L947.6,109.4L945.7,110.4L943.9,111.3L942.0,112.3" fill="none" stroke="#8b98ab" stroke-width="1" opacity="0.75"/>
<path d="M338.7,1700.6L340.4,1700.1L341.9,1699.5L343.9,1697.8L345.2,1695.6L345.6,1694.1L345.8,1692.5L345.6,1691.2L345.4,1689.9L344.8,1688.6L343.9,1687.4L342.6,1686.2L341.6,1685.6L339.4,1684.8L338.0,1684.7L336.7,1684.7L335.4,1685.1L333.2,1686.4L331.5,1688.0L329.9,1689.7L328.2,1691.4L326.6,1693.0L325.0,1694.8L323.5,1696.5L322.0,1698.3" fill="none" stroke="#8b98ab" stroke-width="1" opacity="0.75"/>
<path d="M691.8,1123.4L691.7,1125.0L691.9,1127.4L692.1,1129.8L692.2,1132.0L692.2,1134.3L692.3,1136.6L691.9,1139.0L691.4,1141.3" fill="none" stroke="#8b98ab" stroke-width="1" opacity="0.75"/>
<path d="M794.3,332.9L793.3,334.8L792.3,336.8L791.4,338.8" fill="none" stroke="#8b98ab" stroke-width="1" opacity="0.75"/>
<path d="M968.7,95.6L969.4,95.4L970.0,95.7L970.4,96.2L970.5,97.1" fill="none" stroke="#8b98ab" stroke-width="1" opacity="0.75"/>
<path d="M733.7,916.3L733.5,913.7L733.7,911.3L734.0,908.9L734.4,906.4L734.8,903.9L735.2,901.5L735.6,899.0L735.9,896.6L736.6,894.2L737.6,892.1L739.2,890.2L740.9,889.1L742.6,888.0L744.3,886.9L746.0,885.8L747.2,884.7L748.5,883.6L750.0,881.7L751.6,879.9L753.2,878.0L754.8,876.1L756.4,874.3L757.9,872.4L759.5,870.6L761.1,868.7L762.7,866.8L764.3,865.0L765.8,863.1L767.4,861.3L769.0,859.4L770.6,857.5L772.1,855.7L773.4,853.7L774.7,851.7L775.8,849.4L776.8,847.0L777.3,845.6L777.7,844.2L778.0,842.6L778.3,841.1L778.4,839.5L778.5,837.9L778.4,836.3L778.4,834.7L778.0,832.5L777.7,830.2L777.3,828.0L776.7,825.8L776.1,823.6L775.4,821.4L774.8,819.2L774.3,816.8L773.7,814.5L773.2,812.1L772.6,809.8L772.5,807.6L772.3,805.4L772.3,803.3L772.3,801.2L772.4,799.1L772.4,797.0" fill="none" stroke="#8b98ab" stroke-width="1" opacity="0.75"/>
<path d="M1158.2,360.6L1159.4,360.5L1160.5,360.4L1161.6,360.3L1162.6,360.2L1163.6,360.1L1164.4,360.1L1165.2,360.1L1165.8,360.0L1166.4,360.1L1166.8,360.1L1167.2,360.1L1167.4,360.2L1167.5,360.2L1167.5,360.3L1167.3,360.4L1167.1,360.5L1166.6,360.6L1166.1,360.7L1165.4,360.9L1164.5,361.0L1163.5,361.2L1162.3,361.3" fill="none" stroke="#4fc9ff" stroke-width="1" opacity="0.75"/>
<path d="M262.9,1807.1L262.5,1807.9L262.1,1808.7L261.7,1809.3L261.4,1809.9L261.1,1810.4L260.8,1810.8L260.6,1811.1L260.4,1811.3L260.2,1811.4L260.1,1811.5L260.0,1811.5L260.0,1811.4L260.0,1811.2L260.0,1810.9L260.1,1810.6L260.2,1810.2L260.4,1809.7L260.6,1809.2L260.9,1808.6L261.2,1807.9L261.5,1807.1L261.9,1806.3" fill="none" stroke="#4fc9ff" stroke-width="1" opacity="0.75"/>
<path d="M988.3,75.7L988.6,74.9L989.0,74.1L989.3,73.5L989.5,72.9L989.7,72.5L989.9,72.1L990.1,71.9L990.2,71.7L990.3,71.6L990.4,71.6L990.4,71.7L990.4,71.9L990.4,72.1L990.3,72.5L990.2,72.9L990.0,73.4L989.9,73.9L989.7,74.5L989.4,75.2L989.1,76.0L988.8,76.8L988.5,77.7" fill="none" stroke="#8b98ab" stroke-width="1" opacity="0.75"/>
<path d="M38.6,1633.4L37.6,1634.5L36.7,1635.4L35.9,1636.3L35.2,1637.1L34.6,1637.7L34.0,1638.3L33.6,1638.8L33.2,1639.1L32.9,1639.4L32.7,1639.6L32.5,1639.7L32.5,1639.6L32.6,1639.5L32.7,1639.3L33.0,1639.0L33.3,1638.5L33.7,1638.0L34.3,1637.4L34.9,1636.7L35.7,1635.8L36.5,1634.9L37.4,1633.9" fill="none" stroke="#e87bff" stroke-width="1" opacity="0.75"/>
<path d="M281.9,1487.8L279.7,1483.7L277.7,1480.1L275.9,1476.8L274.3,1473.9L273.0,1471.4L271.8,1469.2L270.9,1467.5L270.2,1466.1L269.7,1465.1L269.4,1464.5L269.3,1464.3L269.5,1464.5L269.8,1465.1L270.4,1466.0L271.2,1467.3L272.2,1469.1L273.4,1471.2L274.8,1473.7L276.4,1476.5L278.2,1479.8L280.3,1483.5L282.5,1487.5" fill="none" stroke="#8b98ab" stroke-width="1" opacity="0.75"/>
<circle cx="786.4" cy="376.4" r="6" fill="none" stroke="#6fe3ff" stroke-width="1.6"/>
<text x="795.4" y="376.4" fill="#9fc" font-size="11" font-family="monospace">Shibaura PA</text>
<circle cx="1094.6" cy="380.3" r="6" fill="none" stroke="#6fe3ff" stroke-width="1.6"/>
<text x="1103.6" y="380.3" fill="#9fc" font-size="11" font-family="monospace">Tatsumi PA</text>
<circle cx="696.4" cy="793.6" r="6" fill="none" stroke="#6fe3ff" stroke-width="1.6"/>
<text x="705.4" y="793.6" fill="#9fc" font-size="11" font-family="monospace">Heiwajima PA</text>
<circle cx="333.4" cy="1693.2" r="6" fill="none" stroke="#6fe3ff" stroke-width="1.6"/>
<text x="342.4" y="1693.2" fill="#9fc" font-size="11" font-family="monospace">Daikoku PA</text>
<circle cx="789.9" cy="344.1" r="3" fill="#f66"/>
<circle cx="926.4" cy="450.8" r="3" fill="#f66"/>
<circle cx="960.2" cy="107.8" r="3" fill="#f66"/>
<circle cx="1107.6" cy="349.9" r="3" fill="#f66"/>
<circle cx="793.7" cy="304.0" r="3" fill="#f66"/>
<circle cx="706.0" cy="1074.7" r="3" fill="#f66"/>
<circle cx="896.0" cy="90.4" r="3" fill="#f66"/>
<circle cx="332.2" cy="1701.2" r="3" fill="#f66"/>
<circle cx="901.4" cy="496.4" r="3" fill="#f66"/>
<circle cx="864.0" cy="186.6" r="3" fill="#f66"/>
<circle cx="1058.6" cy="394.6" r="3" fill="#f66"/>
<circle cx="734.1" cy="914.5" r="3" fill="#f66"/>
<circle cx="772.9" cy="797.0" r="3" fill="#f66"/>
<circle cx="722.8" cy="1024.4" r="3" fill="#f66"/>
<circle cx="373.7" cy="1657.2" r="3" fill="#f66"/>
<circle cx="971.5" cy="449.7" r="3" fill="#f66"/>
<circle cx="303.7" cy="1465.4" r="3" fill="#f66"/>
<circle cx="285.6" cy="1494.1" r="3" fill="#f66"/>
<circle cx="928.2" cy="112.1" r="3" fill="#f66"/>
<circle cx="1038.0" cy="166.8" r="3" fill="#f66"/>
<circle cx="988.3" cy="77.2" r="3" fill="#f66"/>
<circle cx="701.1" cy="801.0" r="3" fill="#f66"/>
<circle cx="691.6" cy="1132.4" r="3" fill="#f66"/>
<circle cx="1160.2" cy="361.0" r="3" fill="#f66"/>
<circle cx="262.4" cy="1806.7" r="3" fill="#f66"/>
<circle cx="38.0" cy="1633.6" r="3" fill="#f66"/>
</svg>