<svg xmlns="http://www.w3.org/2000/svg" width="1300" height="7411" viewBox="0 0 1300 7411" style="background:#f6f6f1">
  <text x="12" y="20" font-family="monospace" font-size="14">r11_1 — worst bend window s=0..498 m · black dots: raw OSM points · orange: current centripetal spline · green: candidate faired · halo: curvature (red left / blue right)</text>
  <g transform="translate(0,34)"><circle cx="561.2" cy="6093.6" r="4.2" fill="rgba(40,80,220,0.49)"/><circle cx="535.0" cy="6018.8" r="8.5" fill="rgba(40,80,220,0.85)"/><circle cx="507.6" cy="5943.8" r="8.5" fill="rgba(40,80,220,0.85)"/><circle cx="478.9" cy="5869.4" r="5.4" fill="rgba(220,40,40,0.58)"/><circle cx="450.6" cy="5795.0" r="8.5" fill="rgba(220,40,40,0.85)"/><circle cx="423.8" cy="5718.1" r="8.5" fill="rgba(220,40,40,0.85)"/><circle cx="402.4" cy="5643.4" r="8.5" fill="rgba(220,40,40,0.85)"/><circle cx="387.0" cy="5563.7" r="8.5" fill="rgba(220,40,40,0.85)"/><circle cx="378.3" cy="5486.2" r="8.5" fill="rgba(220,40,40,0.85)"/><circle cx="371.9" cy="5407.1" r="8.5" fill="rgba(40,80,220,0.85)"/><circle cx="363.7" cy="5327.5" r="8.5" fill="rgba(40,80,220,0.85)"/><circle cx="352.0" cy="5249.5" r="2.1" fill="rgba(220,40,40,0.30)"/><circle cx="340.2" cy="5171.1" r="8.5" fill="rgba(220,40,40,0.85)"/><circle cx="333.1" cy="5098.3" r="8.5" fill="rgba(220,40,40,0.85)"/><circle cx="331.6" cy="5013.5" r="8.5" fill="rgba(220,40,40,0.85)"/><circle cx="334.1" cy="4935.4" r="8.5" fill="rgba(220,40,40,0.85)"/><circle cx="339.4" cy="4855.0" r="8.5" fill="rgba(220,40,40,0.85)"/><circle cx="347.4" cy="4773.3" r="8.5" fill="rgba(220,40,40,0.85)"/><circle cx="358.1" cy="4693.0" r="8.5" fill="rgba(220,40,40,0.85)"/><circle cx="371.5" cy="4615.9" r="8.5" fill="rgba(220,40,40,0.85)"/><circle cx="389.8" cy="4537.3" r="8.5" fill="rgba(220,40,40,0.85)"/><circle cx="413.3" cy="4462.7" r="8.5" fill="rgba(220,40,40,0.85)"/><circle cx="441.1" cy="4389.2" r="8.5" fill="rgba(220,40,40,0.85)"/><circle cx="471.0" cy="4315.8" r="4.8" fill="rgba(40,80,220,0.53)"/><circle cx="500.5" cy="4242.3" r="8.5" fill="rgba(40,80,220,0.85)"/><circle cx="527.9" cy="4167.6" r="8.5" fill="rgba(40,80,220,0.85)"/><circle cx="554.9" cy="4092.8" r="2.5" fill="rgba(40,80,220,0.34)"/><circle cx="608.9" cy="3943.5" r="2.8" fill="rgba(220,40,40,0.36)"/><circle cx="635.9" cy="3868.8" r="7.8" fill="rgba(220,40,40,0.79)"/><circle cx="663.3" cy="3794.2" r="8.5" fill="rgba(220,40,40,0.85)"/><circle cx="721.0" cy="3646.3" r="8.5" fill="rgba(40,80,220,0.85)"/><circle cx="748.2" cy="3572.0" r="8.5" fill="rgba(40,80,220,0.85)"/><circle cx="772.5" cy="3496.1" r="8.5" fill="rgba(40,80,220,0.85)"/><circle cx="792.1" cy="3420.5" r="8.5" fill="rgba(40,80,220,0.85)"/><circle cx="808.4" cy="3341.7" r="8.5" fill="rgba(40,80,220,0.85)"/><circle cx="822.1" cy="3263.2" r="8.5" fill="rgba(40,80,220,0.85)"/><circle cx="834.6" cy="3184.6" r="3.1" fill="rgba(220,40,40,0.39)"/><circle cx="847.3" cy="3105.8" r="8.5" fill="rgba(220,40,40,0.85)"/><circle cx="861.4" cy="3027.5" r="8.5" fill="rgba(220,40,40,0.85)"/><circle cx="877.3" cy="2950.1" r="8.0" fill="rgba(220,40,40,0.81)"/><circle cx="893.9" cy="2872.6" r="8.5" fill="rgba(40,80,220,0.85)"/><circle cx="909.8" cy="2794.6" r="8.5" fill="rgba(40,80,220,0.85)"/><circle cx="923.2" cy="2718.1" r="8.5" fill="rgba(40,80,220,0.85)"/><circle cx="933.5" cy="2640.1" r="8.5" fill="rgba(40,80,220,0.85)"/><circle cx="939.8" cy="2559.0" r="8.5" fill="rgba(40,80,220,0.85)"/><circle cx="942.6" cy="2479.8" r="8.5" fill="rgba(40,80,220,0.85)"/><circle cx="943.1" cy="2399.3" r="8.5" fill="rgba(40,80,220,0.85)"/><circle cx="942.5" cy="2319.5" r="3.9" fill="rgba(40,80,220,0.46)"/><circle cx="941.7" cy="2239.8" r="7.6" fill="rgba(220,40,40,0.77)"/><circle cx="941.5" cy="2160.4" r="8.5" fill="rgba(220,40,40,0.85)"/><circle cx="942.6" cy="2080.9" r="5.2" fill="rgba(220,40,40,0.57)"/><polyline fill="none" stroke="#e08020" stroke-width="2.2" points="797.9,6769.2 789.2,6744.2 780.4,6719.1 771.6,6694.1 762.9,6669.1 754.1,6644.1 745.3,6619.0 736.5,6594.0 727.8,6569.0 719.0,6544.0 710.2,6519.0 701.4,6493.9 692.7,6468.9 683.9,6443.9 675.1,6418.9 666.3,6393.8 657.6,6368.8 648.8,6343.8 640.0,6318.8 631.3,6293.7 622.5,6268.7 613.7,6243.7 605.0,6218.7 596.2,6193.6 587.5,6168.6 578.7,6143.6 569.9,6118.6 561.2,6093.6 552.5,6068.7 543.7,6043.7 535.0,6018.8 526.1,5993.8 516.9,5968.6 507.6,5943.8 498.1,5919.1 488.6,5894.2 478.9,5869.4 469.4,5844.6 460.0,5819.9 450.6,5795.0 441.3,5769.1 432.3,5743.5 423.8,5718.1 415.9,5692.9 408.8,5668.0 402.4,5643.4 396.2,5615.9 391.2,5589.6 387.0,5563.7 383.6,5538.2 380.8,5512.7 378.3,5486.2 376.1,5459.8 374.0,5433.5 371.9,5407.1 369.6,5380.7 366.9,5354.1 363.7,5327.5 360.1,5301.3 356.1,5275.4 352.0,5249.5 347.9,5223.6 343.9,5197.5 340.2,5171.1 337.1,5145.2 334.8,5122.1 333.1,5098.3 331.9,5073.9 331.5,5047.3 331.6,5013.5 332.2,4986.8 333.0,4961.4 334.1,4935.4 335.6,4909.0 337.3,4882.2 339.4,4855.0 341.8,4827.7 344.4,4800.3 347.4,4773.3 350.7,4746.3 354.2,4719.5 358.1,4693.0 362.3,4666.8 366.7,4641.1 371.5,4615.9 376.8,4590.4 383.1,4562.9 389.8,4537.3 397.1,4512.0 404.9,4487.2 413.3,4462.7 422.0,4438.5 431.4,4413.9 441.1,4389.2 450.9,4364.7 461.0,4340.2 471.0,4315.8 481.0,4291.3 490.9,4266.8 500.5,4242.3 509.8,4217.5 518.8,4192.6 527.9,4167.6 536.9,4142.7 545.9,4117.7 554.9,4092.8 563.9,4068.0 572.9,4043.1 581.9,4018.2 590.9,3993.3 599.9,3968.4 608.9,3943.5 617.9,3918.6 626.9,3893.7 635.9,3868.8 644.9,3843.9 654.0,3819.0 663.3,3794.2 672.8,3769.5 682.5,3744.9 692.2,3720.3 701.8,3695.6 711.5,3671.0 721.0,3646.3 730.3,3621.7 739.4,3596.9 748.2,3572.0 756.7,3546.9 764.8,3521.6 772.5,3496.1 779.4,3471.9 786.0,3446.3 792.1,3420.5 797.9,3394.4 803.3,3368.1 808.4,3341.7 813.2,3315.3 817.7,3289.3 822.1,3263.2 826.3,3237.0 830.5,3210.8 834.6,3184.6 838.7,3158.4 843.0,3132.2 847.3,3105.8 851.8,3079.6 856.5,3053.5 861.4,3027.5 866.5,3001.6 871.8,2975.9 877.3,2950.1 882.8,2924.3 888.4,2898.4 893.9,2872.6 899.3,2846.7 904.7,2820.7 909.8,2794.6 914.6,2769.1 919.1,2743.7 923.2,2718.1 927.1,2692.4 930.5,2666.4 933.5,2640.1 936.2,2612.1 938.2,2585.0 939.8,2559.0 941.0,2532.7 941.9,2506.3 942.6,2479.8 942.9,2453.1 943.1,2426.2 943.1,2399.3 943.0,2372.6 942.8,2346.1 942.5,2319.5 942.2,2293.0 941.9,2266.4 941.7,2239.8 941.5,2213.4 941.4,2186.9 941.5,2160.4 941.8,2133.9 942.2,2107.4 942.6,2080.9 943.0,2054.4 943.3,2027.9 943.7,2001.4 944.1,1974.9 944.5,1948.4 944.9,1921.9 945.3,1895.4 945.7,1868.9 946.1,1842.4 946.5,1815.9 946.9,1789.4 947.3,1762.9 947.7,1736.4 948.1,1709.9 948.5,1683.4 948.9,1656.8 949.2,1630.3 949.6,1603.8 950.0,1577.3 950.4,1550.8 950.8,1524.3 951.2,1497.8 951.6,1471.3 952.0,1444.8 952.4,1418.3 952.8,1391.8 953.2,1365.3 953.6,1338.8 954.0,1312.2 954.4,1285.7 954.8,1259.2 955.2,1232.7 955.5,1206.2 955.9,1179.7 956.3,1153.2 956.7,1126.7 957.1,1100.2 957.5,1073.7 957.9,1047.2 958.3,1020.7 958.7,994.2 959.1,967.7 959.5,941.1 959.9,914.6 960.3,888.1 960.7,861.6 961.1,835.1 961.4,808.6 961.8,782.1 962.2,755.6 962.6,729.1 963.0,702.6 963.4,676.1 963.8,649.6 964.2,623.1 964.6,596.5 965.0,570.0 965.4,543.5 965.8,517.0 966.2,490.5 966.6,464.0 967.0,437.5 967.4,411.0 967.7,384.5 968.1,358.0 968.5,331.5"/><polyline fill="none" stroke="#1a9c40" stroke-width="2.2" points="797.9,6769.2 789.2,6744.2 780.4,6719.1 771.6,6694.1 762.8,6669.1 754.1,6644.0 745.3,6619.0 736.5,6594.0 727.7,6569.0 719.0,6543.9 710.2,6518.9 701.4,6493.9 692.6,6468.9 683.9,6443.8 675.1,6418.8 666.3,6393.8 657.5,6368.8 648.7,6343.8 639.9,6318.7 631.0,6293.7 622.2,6268.7 613.3,6243.8 604.4,6218.8 595.6,6193.8 586.8,6168.7 578.0,6143.7 569.2,6118.7 560.5,6093.7 551.9,6068.7 543.3,6043.6 534.8,6018.6 526.3,5993.5 517.7,5968.2 509.1,5943.1 500.5,5918.0 491.9,5892.9 483.2,5867.7 474.7,5842.6 466.2,5817.4 457.9,5792.2 449.4,5766.1 441.2,5740.3 433.3,5714.7 425.8,5689.5 418.7,5664.5 412.0,5640.0 405.0,5612.5 398.6,5586.6 392.6,5561.1 387.0,5536.0 381.7,5510.9 376.4,5484.8 371.5,5458.7 367.0,5432.7 362.8,5406.6 358.9,5380.3 355.4,5353.8 352.1,5327.2 349.2,5301.0 346.5,5275.0 344.2,5248.9 342.2,5222.7 340.6,5196.4 339.4,5169.6 338.6,5143.8 338.3,5120.5 338.3,5096.7 338.6,5072.1 339.4,5045.0 341.1,5011.2 342.8,4985.2 344.8,4959.8 347.0,4933.8 349.6,4907.4 352.4,4880.7 355.5,4853.7 358.8,4826.4 362.2,4799.2 365.7,4772.3 369.4,4745.5 373.2,4718.8 377.0,4692.3 380.9,4666.1 384.8,4640.3 388.7,4614.9 392.8,4588.6 396.9,4561.6 400.1,4535.5 402.8,4509.3 405.2,4483.2 407.4,4457.3 409.6,4431.5 412.1,4404.7 415.1,4377.9 418.8,4351.4 423.4,4325.3 429.1,4299.7 436.2,4274.7 444.4,4251.5 453.7,4229.9 464.7,4208.8 478.7,4187.3 497.4,4165.9 519.8,4145.9 545.1,4127.1 567.9,4112.3 590.2,4098.9 613.4,4086.0 637.2,4073.2 661.2,4060.6 685.2,4048.1 709.0,4035.5 732.1,4022.8 754.5,4009.8 781.1,3992.8 805.8,3974.7 827.4,3955.6 845.4,3935.3 859.2,3913.5 868.0,3890.7 872.4,3867.5 873.3,3843.7 871.2,3818.9 866.5,3793.5 859.7,3767.4 851.2,3740.7 841.5,3713.7 831.1,3686.5 821.1,3661.1 811.1,3635.6 801.5,3610.0 792.7,3584.5 784.9,3559.2 778.5,3534.0 773.9,3509.2 771.3,3483.2 771.3,3456.6 772.9,3430.3 775.8,3404.1 780.0,3377.9 785.1,3351.8 791.1,3325.7 797.6,3300.1 804.6,3274.6 812.0,3249.2 819.6,3223.8 827.2,3198.3 834.7,3172.8 842.0,3147.3 848.9,3121.5 855.3,3095.6 861.0,3069.6 865.8,3043.5 870.4,3017.5 874.8,2991.6 879.1,2965.7 883.3,2939.6 887.3,2913.5 891.2,2887.4 895.0,2861.2 898.6,2835.0 902.1,2808.6 905.5,2782.3 908.7,2756.8 911.7,2731.2 914.7,2705.4 917.6,2679.4 920.4,2653.3 923.1,2626.6 925.9,2597.9 928.2,2572.0 930.4,2545.9 932.5,2519.6 934.4,2493.2 936.3,2466.6 938.1,2440.0 939.8,2413.2 941.4,2386.3 942.9,2359.9 944.4,2333.4 945.8,2306.9 947.1,2280.3 948.5,2253.8 949.8,2227.3 951.1,2200.9 952.4,2174.5 953.7,2148.0 955.0,2121.5 956.3,2095.0 957.6,2068.6 959.0,2042.1 960.3,2015.6 961.5,1989.1 962.8,1962.6 964.0,1936.1 965.2,1909.6 966.3,1883.2 967.3,1856.7 968.3,1830.2 969.1,1803.7 969.9,1777.2 970.6,1750.7 971.2,1724.1 971.6,1697.6 972.0,1671.1 972.2,1644.6 972.2,1618.1 972.0,1591.6 971.6,1565.1 971.0,1538.5 970.3,1512.0 969.4,1485.6 968.4,1459.1 967.3,1432.6 966.2,1406.1 965.0,1379.6 963.8,1353.1 962.6,1326.6 961.4,1300.1 960.4,1273.6 959.4,1247.1 958.5,1220.6 957.7,1194.0 957.1,1167.5 956.8,1141.0 956.5,1114.6 956.5,1088.0 956.5,1061.5 956.6,1035.0 956.9,1008.5 957.2,982.0 957.6,955.5 958.0,929.0 958.5,902.5 959.0,875.9 959.6,849.4 960.2,822.9 960.8,796.4 961.4,769.9 962.0,743.4 962.5,716.9 963.1,690.4 963.6,663.9 964.0,637.4 964.4,610.9 964.8,584.3 965.2,557.8 965.6,531.3 966.0,504.8"/><circle cx="797.9" cy="6769.2" r="3.5" fill="#111"/><circle cx="665.2" cy="6390.6" r="3.5" fill="#111"/><circle cx="532.6" cy="6012.1" r="3.5" fill="#111"/><circle cx="400.1" cy="5633.7" r="3.5" fill="#111"/><circle cx="365.7" cy="5343.5" r="3.5" fill="#111"/><circle cx="331.5" cy="5053.4" r="3.5" fill="#111"/><circle cx="379.8" cy="4577.0" r="3.5" fill="#111"/><circle cx="512.9" cy="4209.0" r="3.5" fill="#111"/><circle cx="645.9" cy="3841.1" r="3.5" fill="#111"/><circle cx="779.0" cy="3473.2" r="3.5" fill="#111"/><circle cx="856.7" cy="3052.4" r="3.5" fill="#111"/><circle cx="934.4" cy="2631.7" r="3.5" fill="#111"/><circle cx="941.8" cy="2131.5" r="3.5" fill="#111"/><circle cx="949.2" cy="1631.4" r="3.5" fill="#111"/><circle cx="956.7" cy="1131.3" r="3.5" fill="#111"/><circle cx="964.1" cy="631.2" r="3.5" fill="#111"/><circle cx="971.5" cy="131.1" r="3.5" fill="#111"/></g>
  <text x="12" y="7159" font-family="monospace" font-size="14">lateral residual from local circle fit (the wave signal) vs arc length — same colours; dots = the raw data's own residual</text>
  <g transform="translate(0,7171)"><line x1="40" y1="205" x2="1260" y2="205" stroke="#999"/><line x1="40" y1="150.3125" x2="1260" y2="150.3125" stroke="#ddd"/><text x="4" y="154.3125" font-size="11" font-family="monospace">0.5m</text><line x1="40" y1="95.625" x2="1260" y2="95.625" stroke="#ddd"/><text x="4" y="99.625" font-size="11" font-family="monospace">1.0m</text><line x1="40" y1="40.9375" x2="1260" y2="40.9375" stroke="#ddd"/><text x="4" y="44.9375" font-size="11" font-family="monospace">1.5m</text><path fill="none" stroke="#e08020" stroke-width="1.8" d="M226.2,126.2L236.0,180.7L245.8,178.8L255.6,139.7L265.4,117.0L275.2,116.3L285.0,131.3L294.8,136.5L304.6,114.6L314.4,108.2L324.2,126.3L334.0,164.1L343.8,198.6L353.6,175.3L363.4,152.2L373.2,141.5L383.0,139.0L392.8,138.5L402.6,138.3L412.4,138.0L422.2,39.8L432.0,45.5L441.8,54.6L451.6,68.3L461.4,91.0L471.2,128.6L481.0,179.2L490.8,171.3L500.6,72.3L510.4,30.0L520.2,30.0L530.0,30.0L539.8,30.0L549.6,30.0L559.4,30.0L569.2,30.0L579.0,30.0L588.8,30.0L598.6,30.0L608.4,30.0L618.2,30.0L628.0,30.0L637.8,30.0L647.6,204.6L657.3,173.0L667.1,149.0L676.9,136.7L686.7,137.4L696.5,148.8L706.3,167.2L716.1,191.3L725.9,191.9L735.7,168.3L745.5,151.1L755.3,143.6L765.1,148.2L774.9,163.1L784.7,184.8L794.5,200.3L804.3,128.0L814.1,112.5L823.9,104.4L833.7,106.6L843.5,122.1L853.3,147.1L863.1,179.7L872.9,192.9L882.7,150.8L892.5,191.7L902.3,178.8L912.1,143.1L921.9,113.3L931.7,91.0L941.5,72.0L951.3,55.3L961.1,40.8L970.9,30.0L980.7,58.1L990.5,45.0L1000.3,33.5L1010.1,30.0L1019.9,30.0L1029.7,30.0L1039.5,30.0L1049.3,30.0L1059.1,30.0L1068.9,205.0L1078.7,205.0L1088.5,205.0L1098.3,205.0L1108.1,205.0L1117.9,205.0L1127.7,205.0L1137.5,205.0L1147.3,205.0L1157.1,205.0L1166.9,205.0L1176.7,205.0L1186.5,205.0L1196.3,205.0L1206.1,205.0L1215.9,205.0L1225.7,205.0L1235.5,205.0L1245.3,205.0L1255.1,204.9"/><path fill="none" stroke="#1a9c40" stroke-width="1.8" d="M226.2,71.1L236.0,109.8L245.8,148.8L255.6,184.5L265.4,193.9L275.2,165.4L285.0,140.4L294.8,172.8L304.6,189.1L314.4,202.8L324.2,194.4L334.0,182.0L343.8,184.8L353.6,188.2L363.4,195.4L373.2,202.8L383.0,183.8L392.8,165.8L402.6,148.2L412.4,133.4L422.2,189.3L432.0,199.8L441.8,204.1L451.6,202.8L461.4,201.2L471.2,171.0L481.0,122.2L490.8,66.8L500.6,56.1L510.4,54.1L520.2,92.1L530.0,176.1L539.8,56.5L549.6,30.0L559.4,30.0L569.2,30.0L579.0,30.0L588.8,30.0L598.6,30.0L608.4,38.5L618.2,189.1L628.0,196.9L637.8,96.1L647.6,30.0L657.4,30.0L667.2,30.0L677.0,30.0L686.8,30.0L696.6,103.1L706.4,177.6L716.2,109.9L726.0,84.1L735.8,89.7L745.6,112.0L755.4,143.4L765.2,175.8L775.0,199.5L784.8,204.4L794.6,201.1L804.5,197.5L814.3,193.6L824.1,169.3L833.9,177.9L843.7,186.7L853.5,196.1L863.3,204.3L873.1,193.2L882.9,181.1L892.7,168.4L902.5,155.7L912.3,160.6L922.1,173.2L931.9,184.9L941.7,195.1L951.5,203.1L961.3,201.4L971.1,198.3L980.9,196.9L990.7,196.8L1000.5,197.2L1010.3,174.0L1020.1,179.5L1029.9,186.8L1039.7,196.2L1049.5,201.3L1059.3,183.7L1069.1,161.4L1078.9,136.3L1088.7,109.9L1098.5,119.1L1108.3,144.8L1118.1,168.5L1127.9,188.4L1137.7,203.0L1147.5,198.2L1157.3,193.1L1167.1,191.1L1176.9,191.4L1186.7,193.4L1196.5,196.4L1206.3,199.7L1216.1,202.7L1225.9,204.6L1235.7,205.0L1245.5,205.0L1255.3,205.0"/><circle cx="262.3" cy="122.2" r="3.5" fill="#111"/><circle cx="316.3" cy="109.7" r="3.5" fill="#111"/><circle cx="370.3" cy="141.9" r="3.5" fill="#111"/><circle cx="458.8" cy="83.7" r="3.5" fill="#111"/><circle cx="531.1" cy="30.0" r="3.5" fill="#111"/><circle cx="603.4" cy="30.0" r="3.5" fill="#111"/><circle cx="675.7" cy="136.8" r="3.5" fill="#111"/><circle cx="754.7" cy="143.5" r="3.5" fill="#111"/><circle cx="833.8" cy="108.1" r="3.5" fill="#111"/><circle cx="926.2" cy="100.4" r="3.5" fill="#111"/><circle cx="1018.6" cy="30.0" r="3.5" fill="#111"/><circle cx="1111.0" cy="205.0" r="3.5" fill="#111"/><circle cx="1203.5" cy="205.0" r="3.5" fill="#111"/></g>
</svg>