<svg xmlns="http://www.w3.org/2000/svg" width="1300" height="6962" viewBox="0 0 1300 6962" style="background:#f6f6f1">
  <text x="12" y="20" font-family="monospace" font-size="14">r11_0 — worst bend window s=2940..3438 m · black dots: raw OSM points · orange: current centripetal spline · green: candidate faired · halo: curvature (red left / blue right)</text>
  <g transform="translate(0,34)"><circle cx="954.4" cy="1367.4" r="2.5" fill="rgba(40,80,220,0.34)"/><circle cx="953.7" cy="1442.2" r="6.3" fill="rgba(40,80,220,0.66)"/><circle cx="953.4" cy="1516.3" r="8.5" fill="rgba(40,80,220,0.85)"/><circle cx="954.1" cy="1592.4" r="4.7" fill="rgba(40,80,220,0.53)"/><circle cx="955.1" cy="1669.3" r="5.9" fill="rgba(220,40,40,0.62)"/><circle cx="955.7" cy="1745.4" r="8.5" fill="rgba(220,40,40,0.85)"/><circle cx="955.1" cy="1819.1" r="8.5" fill="rgba(220,40,40,0.85)"/><circle cx="951.7" cy="1904.7" r="8.5" fill="rgba(220,40,40,0.85)"/><circle cx="945.4" cy="1972.6" r="8.5" fill="rgba(220,40,40,0.85)"/><circle cx="934.1" cy="2044.5" r="8.5" fill="rgba(220,40,40,0.85)"/><circle cx="919.6" cy="2116.7" r="3.6" fill="rgba(220,40,40,0.43)"/><circle cx="904.7" cy="2190.3" r="8.5" fill="rgba(40,80,220,0.85)"/><circle cx="892.3" cy="2265.2" r="8.5" fill="rgba(40,80,220,0.85)"/><circle cx="881.7" cy="2338.4" r="8.5" fill="rgba(220,40,40,0.85)"/><circle cx="868.9" cy="2412.9" r="8.5" fill="rgba(220,40,40,0.85)"/><circle cx="854.6" cy="2475.0" r="8.5" fill="rgba(220,40,40,0.85)"/><circle cx="829.6" cy="2557.8" r="8.5" fill="rgba(220,40,40,0.85)"/><circle cx="805.2" cy="2627.4" r="8.5" fill="rgba(220,40,40,0.85)"/><circle cx="778.5" cy="2698.5" r="8.5" fill="rgba(220,40,40,0.85)"/><circle cx="750.9" cy="2770.1" r="3.3" fill="rgba(40,80,220,0.40)"/><circle cx="723.7" cy="2840.9" r="8.5" fill="rgba(40,80,220,0.85)"/><circle cx="698.2" cy="2910.3" r="7.3" fill="rgba(40,80,220,0.75)"/><circle cx="672.7" cy="2981.0" r="3.0" fill="rgba(40,80,220,0.38)"/><circle cx="571.0" cy="3263.8" r="4.1" fill="rgba(220,40,40,0.47)"/><circle cx="545.7" cy="3333.9" r="8.2" fill="rgba(220,40,40,0.82)"/><circle cx="519.3" cy="3404.6" r="7.1" fill="rgba(220,40,40,0.73)"/><circle cx="492.2" cy="3475.4" r="3.0" fill="rgba(40,80,220,0.38)"/><circle cx="465.3" cy="3545.9" r="8.5" fill="rgba(40,80,220,0.85)"/><circle cx="439.4" cy="3616.4" r="8.5" fill="rgba(40,80,220,0.85)"/><circle cx="414.1" cy="3690.9" r="8.5" fill="rgba(40,80,220,0.85)"/><circle cx="393.5" cy="3761.0" r="8.5" fill="rgba(40,80,220,0.85)"/><circle cx="374.9" cy="3832.8" r="8.5" fill="rgba(40,80,220,0.85)"/><circle cx="358.4" cy="3905.3" r="8.5" fill="rgba(40,80,220,0.85)"/><circle cx="344.3" cy="3979.1" r="8.5" fill="rgba(40,80,220,0.85)"/><circle cx="333.0" cy="4053.3" r="8.5" fill="rgba(40,80,220,0.85)"/><circle cx="324.3" cy="4128.0" r="8.5" fill="rgba(40,80,220,0.85)"/><circle cx="317.8" cy="4202.9" r="8.5" fill="rgba(40,80,220,0.85)"/><circle cx="314.1" cy="4278.1" r="8.5" fill="rgba(40,80,220,0.85)"/><circle cx="314.2" cy="4353.6" r="8.5" fill="rgba(40,80,220,0.85)"/><circle cx="319.3" cy="4428.9" r="8.5" fill="rgba(40,80,220,0.85)"/><circle cx="331.1" cy="4502.3" r="8.5" fill="rgba(40,80,220,0.85)"/><circle cx="348.2" cy="4575.5" r="8.5" fill="rgba(40,80,220,0.85)"/><circle cx="367.4" cy="4648.2" r="8.5" fill="rgba(220,40,40,0.85)"/><circle cx="385.7" cy="4721.2" r="8.5" fill="rgba(220,40,40,0.85)"/><circle cx="401.1" cy="4795.2" r="8.5" fill="rgba(220,40,40,0.85)"/><circle cx="415.0" cy="4868.1" r="8.5" fill="rgba(40,80,220,0.85)"/><circle cx="430.2" cy="4941.4" r="8.5" fill="rgba(40,80,220,0.85)"/><circle cx="447.3" cy="5009.0" r="8.5" fill="rgba(40,80,220,0.85)"/><circle cx="470.0" cy="5081.0" r="8.5" fill="rgba(40,80,220,0.85)"/><circle cx="498.0" cy="5155.8" r="8.5" fill="rgba(40,80,220,0.85)"/><circle cx="526.5" cy="5225.0" r="8.5" fill="rgba(40,80,220,0.85)"/><circle cx="556.7" cy="5295.3" r="5.8" fill="rgba(40,80,220,0.61)"/><circle cx="587.1" cy="5364.9" r="5.7" fill="rgba(220,40,40,0.61)"/><circle cx="616.8" cy="5434.1" r="8.5" fill="rgba(220,40,40,0.85)"/><circle cx="645.2" cy="5502.8" r="6.0" fill="rgba(220,40,40,0.64)"/><circle cx="673.6" cy="5572.4" r="2.2" fill="rgba(220,40,40,0.31)"/><polyline fill="none" stroke="#e08020" stroke-width="2.2" points="964.2,313.7 963.9,338.7 963.7,363.8 963.5,388.9 963.2,414.0 963.0,439.1 962.8,464.2 962.5,489.3 962.3,514.4 962.1,539.5 961.8,564.6 961.6,589.7 961.4,614.7 961.1,639.8 960.9,664.9 960.7,690.0 960.4,715.1 960.2,740.2 960.0,765.3 959.8,790.4 959.5,815.5 959.3,840.6 959.1,865.7 958.8,890.7 958.6,915.8 958.4,940.9 958.1,966.0 957.9,991.1 957.7,1016.2 957.4,1041.3 957.2,1066.4 957.0,1091.4 956.7,1116.5 956.5,1141.6 956.3,1166.7 956.0,1191.8 955.8,1216.9 955.6,1242.0 955.3,1267.0 955.1,1292.1 954.9,1317.2 954.7,1342.3 954.4,1367.4 954.2,1392.4 954.0,1417.5 953.7,1442.2 953.5,1466.6 953.4,1491.3 953.4,1516.3 953.6,1541.5 953.8,1566.9 954.1,1592.4 954.4,1618.0 954.8,1643.6 955.1,1669.3 955.4,1694.8 955.6,1720.2 955.7,1745.4 955.7,1770.3 955.5,1794.9 955.1,1819.1 954.4,1847.2 953.3,1876.4 951.7,1904.7 949.7,1931.9 947.6,1953.3 945.4,1972.6 942.5,1994.3 938.5,2019.8 934.1,2044.5 929.5,2068.7 924.7,2092.5 919.6,2116.7 914.5,2141.0 909.5,2165.5 904.7,2190.3 900.1,2215.5 896.0,2240.5 892.3,2265.2 888.8,2289.7 885.3,2314.2 881.7,2338.4 877.9,2362.8 873.7,2387.6 868.9,2412.9 864.4,2434.2 859.8,2454.4 854.6,2475.0 847.3,2501.4 838.9,2529.2 829.6,2557.8 821.7,2581.0 813.6,2604.1 805.2,2627.4 796.5,2650.9 787.6,2674.6 778.5,2698.5 769.3,2722.5 760.0,2746.4 750.9,2770.1 741.7,2793.8 732.7,2817.4 723.7,2840.9 715.0,2864.2 706.4,2887.4 698.2,2910.3 689.7,2933.9 681.2,2957.4 672.7,2981.0 664.2,3004.6 655.8,3028.1 647.3,3051.7 638.8,3075.3 630.3,3098.9 621.8,3122.4 613.4,3146.0 604.9,3169.6 596.4,3193.1 587.9,3216.7 579.4,3240.3 571.0,3263.8 562.6,3287.2 554.2,3310.5 545.7,3333.9 537.1,3357.4 528.3,3381.0 519.3,3404.6 510.3,3428.3 501.2,3451.9 492.2,3475.4 483.1,3498.9 474.1,3522.4 465.3,3545.9 456.5,3569.3 447.9,3592.5 439.4,3616.4 430.6,3641.4 422.2,3666.3 414.1,3690.9 406.6,3715.4 399.5,3739.6 393.5,3761.0 387.4,3783.6 381.0,3808.3 374.9,3832.8 369.1,3857.2 363.6,3881.3 358.4,3905.3 353.5,3929.8 348.7,3954.5 344.3,3979.1 340.3,4003.8 336.5,4028.5 333.0,4053.3 329.9,4078.3 327.0,4103.1 324.3,4128.0 321.9,4152.9 319.7,4177.8 317.8,4202.9 316.2,4228.0 314.9,4253.1 314.1,4278.1 313.7,4303.1 313.7,4328.0 314.2,4353.6 315.3,4378.9 317.0,4404.2 319.3,4428.9 322.5,4453.2 326.4,4477.7 331.1,4502.3 336.4,4526.8 342.1,4551.2 348.2,4575.5 354.6,4599.8 361.0,4624.0 367.4,4648.2 373.8,4672.5 379.9,4696.8 385.7,4721.2 391.2,4746.0 396.2,4770.7 401.1,4795.2 405.7,4819.6 410.4,4843.9 415.0,4868.1 419.8,4892.4 424.8,4916.8 430.2,4941.4 436.1,4966.4 441.5,4987.9 447.3,5009.0 453.5,5030.3 461.0,5054.3 470.0,5081.0 479.8,5108.2 489.1,5133.1 498.0,5155.8 507.2,5178.7 516.7,5201.8 526.5,5225.0 536.4,5248.4 546.5,5271.8 556.7,5295.3 566.9,5318.6 577.0,5341.7 587.1,5364.9 597.1,5388.1 607.1,5411.1 616.8,5434.1 626.4,5457.0 635.7,5479.7 645.2,5502.8 654.7,5526.0 664.1,5549.2 673.6,5572.4 683.1,5595.6 692.6,5618.8 702.0,5642.0 711.5,5665.2 721.0,5688.4 730.5,5711.6 739.9,5734.8 749.4,5758.0 758.9,5781.2 768.4,5804.4 777.8,5827.6 787.3,5850.8 796.8,5874.0 806.3,5897.2 815.7,5920.4 825.2,5943.6 834.7,5966.8 844.2,5990.0 853.6,6013.2 863.1,6036.4 872.6,6059.6 882.1,6082.9 891.6,6106.1 901.0,6129.3 910.5,6152.5 920.0,6175.7 929.5,6198.9 939.0,6222.1 948.4,6245.3 957.9,6268.5 967.4,6291.7 976.9,6315.0 986.3,6338.2"/><polyline fill="none" stroke="#1a9c40" stroke-width="2.2" points="962.7,322.5 962.5,347.6 962.3,372.7 962.1,397.8 962.0,422.9 962.0,448.0 962.0,473.1 962.2,498.1 962.5,523.2 962.9,548.3 963.4,573.4 964.1,598.5 964.9,623.6 965.7,648.7 966.7,673.8 967.7,698.8 968.7,723.9 969.7,749.0 970.7,774.1 971.7,799.1 972.7,824.2 973.6,849.3 974.4,874.4 975.1,899.5 975.6,924.6 976.1,949.7 976.4,974.7 976.5,999.8 976.5,1024.9 976.4,1050.0 976.2,1075.1 976.0,1100.2 975.7,1125.3 975.3,1150.3 974.8,1175.4 974.3,1200.5 973.7,1225.6 973.1,1250.7 972.4,1275.8 971.6,1300.8 970.8,1325.9 970.0,1351.0 969.2,1376.0 968.3,1401.1 967.4,1426.2 966.5,1450.7 965.5,1475.2 964.6,1499.9 963.6,1525.0 962.7,1550.2 961.7,1575.6 960.6,1601.1 959.6,1626.7 958.5,1652.3 957.3,1677.9 956.1,1703.3 954.8,1728.6 953.5,1753.6 952.1,1778.4 950.7,1802.9 949.1,1827.4 947.0,1856.9 944.8,1885.7 942.5,1913.6 940.0,1939.5 938.0,1959.3 935.9,1978.4 933.1,2002.7 930.0,2028.0 926.7,2052.7 923.3,2076.9 919.7,2101.0 915.8,2125.5 911.8,2150.0 907.6,2174.7 903.2,2199.8 898.7,2225.1 894.0,2249.8 889.2,2274.2 884.2,2298.4 879.1,2322.4 873.8,2346.4 868.4,2370.6 862.9,2395.4 857.4,2420.0 853.0,2439.8 848.5,2460.2 843.6,2482.8 837.9,2510.7 832.5,2539.7 827.6,2567.7 823.5,2591.5 819.4,2615.8 815.1,2640.4 810.8,2665.3 806.2,2690.3 801.4,2715.3 796.3,2740.4 790.9,2765.4 785.1,2790.2 778.8,2814.7 772.0,2839.0 764.6,2862.9 756.7,2886.4 748.0,2909.4 738.4,2932.2 727.8,2954.5 716.2,2976.4 703.8,2998.1 690.7,3019.5 677.0,3040.8 662.9,3061.9 648.5,3082.9 634.0,3103.6 619.5,3124.3 605.1,3145.0 590.8,3165.7 576.9,3186.6 563.3,3207.6 550.3,3228.8 538.0,3250.3 526.0,3272.7 515.1,3295.4 505.3,3318.4 496.2,3341.5 487.7,3365.0 479.7,3388.7 472.1,3412.7 465.0,3436.9 458.3,3461.1 451.9,3485.5 445.9,3509.9 440.1,3534.4 434.6,3558.8 429.3,3583.1 424.1,3607.6 418.7,3633.7 413.5,3659.5 408.3,3685.0 403.2,3710.2 398.0,3734.9 393.3,3757.2 388.7,3779.3 383.6,3804.4 378.6,3829.3 373.8,3853.8 369.3,3878.2 364.9,3902.4 360.7,3926.9 356.7,3951.7 353.0,3976.4 349.5,4001.2 346.2,4026.0 343.3,4050.9 340.6,4075.9 338.3,4100.9 336.1,4125.8 334.2,4150.7 332.5,4175.7 331.0,4200.7 329.8,4225.8 328.9,4250.9 328.3,4276.0 327.9,4301.0 327.9,4325.9 328.2,4351.3 328.9,4376.7 330.0,4402.0 331.4,4426.8 333.2,4451.3 335.4,4476.0 338.1,4501.0 341.1,4525.9 344.4,4550.7 348.0,4575.4 352.0,4600.2 356.2,4624.9 360.6,4649.5 365.3,4674.1 370.2,4698.7 375.2,4723.3 380.5,4748.1 386.1,4772.7 391.9,4797.0 398.0,4821.1 404.3,4845.1 410.8,4868.8 417.5,4892.5 424.5,4916.5 431.7,4940.7 439.2,4965.2 445.8,4986.5 452.4,5007.4 459.1,5028.6 466.8,5052.4 475.6,5079.2 484.8,5106.4 493.5,5131.7 501.6,5154.7 509.9,5178.0 518.3,5201.5 526.9,5225.1 535.7,5248.9 544.5,5272.8 553.4,5296.8 562.3,5320.5 571.2,5344.2 580.1,5367.9 589.0,5391.4 597.9,5414.9 606.7,5438.3 615.5,5461.5 624.1,5484.5 633.0,5507.9 641.8,5531.4 650.6,5554.8 659.5,5578.2 668.3,5601.7 677.2,5625.1 686.1,5648.5 695.1,5672.0 704.1,5695.4 713.1,5718.7 722.2,5742.1 731.4,5765.4 740.6,5788.7 749.8,5812.0 759.2,5835.3 768.6,5858.5 778.1,5881.7 787.7,5904.8 797.4,5928.0 807.2,5951.0 817.2,5974.0 827.3,5997.0 837.5,6019.9 847.8,6042.7 858.1,6065.6 868.5,6088.4 879.0,6111.2 889.4,6134.0 899.9,6156.7 910.4,6179.5 920.9,6202.3 931.3,6225.1 941.6,6248.0 951.9,6270.8 962.2,6293.7 972.3,6316.7"/><circle cx="966.7" cy="36.8" r="3.5" fill="#111"/><circle cx="962.3" cy="512.1" r="3.5" fill="#111"/><circle cx="957.9" cy="987.4" r="3.5" fill="#111"/><circle cx="953.5" cy="1462.7" r="3.5" fill="#111"/><circle cx="949.1" cy="1938.0" r="3.5" fill="#111"/><circle cx="901.5" cy="2207.8" r="3.5" fill="#111"/><circle cx="853.9" cy="2477.5" r="3.5" fill="#111"/><circle cx="702.1" cy="2899.3" r="3.5" fill="#111"/><circle cx="550.3" cy="3321.2" r="3.5" fill="#111"/><circle cx="398.5" cy="3743.0" r="3.5" fill="#111"/><circle cx="329.5" cy="4081.5" r="3.5" fill="#111"/><circle cx="318.1" cy="4416.8" r="3.5" fill="#111"/><circle cx="387.5" cy="4729.0" r="3.5" fill="#111"/><circle cx="456.8" cy="5041.3" r="3.5" fill="#111"/><circle cx="633.7" cy="5474.8" r="3.5" fill="#111"/><circle cx="810.8" cy="5908.2" r="3.5" fill="#111"/><circle cx="987.8" cy="6341.7" r="3.5" fill="#111"/></g>
  <text x="12" y="6710" font-family="monospace" font-size="14">lateral residual from local circle fit (the wave signal) vs arc length — same colours; dots = the raw data's own residual</text>
  <g transform="translate(0,6722)"><line x1="40" y1="205" x2="1260" y2="205" stroke="#999"/><line x1="40" y1="150.3125" x2="1260" y2="150.3125" stroke="#ddd"/><text x="4" y="154.3125" font-size="11" font-family="monospace">0.5m</text><line x1="40" y1="95.625" x2="1260" y2="95.625" stroke="#ddd"/><text x="4" y="99.625" font-size="11" font-family="monospace">1.0m</text><line x1="40" y1="40.9375" x2="1260" y2="40.9375" stroke="#ddd"/><text x="4" y="44.9375" font-size="11" font-family="monospace">1.5m</text><path fill="none" stroke="#e08020" stroke-width="1.8" d="M40.0,205.0L49.8,205.0L59.6,205.0L69.4,205.0L79.2,205.0L89.0,205.0L98.8,205.0L108.6,205.0L118.4,205.0L128.2,30.0L138.0,30.0L147.8,32.2L157.6,36.0L167.4,41.1L177.2,47.6L187.0,55.4L196.8,64.6L206.6,75.1L216.4,87.0L226.2,33.4L236.0,46.4L245.8,61.5L255.6,78.9L265.4,98.0L275.2,122.7L285.0,154.2L294.8,190.5L304.6,180.6L314.4,120.0L324.2,163.8L334.0,204.7L343.8,161.1L353.6,129.5L363.4,117.3L373.2,116.1L383.0,126.2L392.8,184.5L402.6,202.7L412.4,202.4L422.2,194.5L432.0,170.9L441.8,126.6L451.6,117.0L461.4,119.6L471.2,137.1L481.0,174.9L490.8,196.1L500.6,153.0L510.4,30.0L520.2,30.0L530.0,30.0L539.8,30.0L549.6,30.0L559.4,30.0L569.2,30.0L579.0,30.0L588.8,30.0L598.6,30.0L608.4,30.0L618.2,30.0L628.0,30.0L637.8,30.0L647.6,30.0L657.3,30.0L667.1,30.0L676.9,30.0L686.7,30.0L696.5,30.0L706.3,81.2L716.1,135.8L725.9,183.4L735.7,188.3L745.5,147.1L755.3,109.0L765.1,187.5L774.9,160.7L784.7,136.4L794.5,114.5L804.3,93.3L814.1,71.3L823.9,50.8L833.7,81.9L843.5,78.7L853.3,83.7L863.1,100.1L872.9,134.7L882.7,185.0L892.5,138.0L902.3,200.1L912.1,155.0L921.9,115.2L931.7,95.7L941.5,91.9L951.3,96.9L961.1,140.5L970.9,136.3L980.7,141.4L990.5,158.4L1000.3,193.7L1010.1,176.1L1019.9,132.9L1029.7,87.7L1039.5,182.8L1049.3,187.3L1059.1,150.4L1068.9,118.8L1078.7,94.6L1088.5,74.8L1098.3,57.3L1108.1,42.0L1117.9,30.0L1127.7,74.2L1137.5,61.5L1147.3,50.3L1157.1,40.7L1166.9,32.5L1176.7,30.0L1186.5,30.0L1196.3,30.0L1206.1,30.0L1215.9,164.4L1225.7,164.6L1235.5,165.0L1245.3,165.8L1255.1,167.0"/><path fill="none" stroke="#1a9c40" stroke-width="1.8" d="M40.4,193.4L50.2,193.2L60.0,195.0L69.8,199.4L79.6,203.0L89.4,190.5L99.2,173.8L109.0,154.0L118.8,132.5L128.6,123.2L138.4,145.4L148.2,166.8L158.0,186.0L167.8,201.7L177.6,196.6L187.4,186.6L197.2,178.1L207.0,170.8L216.8,180.9L226.6,184.5L236.4,188.6L246.2,193.5L256.0,199.6L265.8,203.1L275.6,193.7L285.4,182.2L295.2,169.3L305.0,155.5L314.8,120.6L324.6,140.6L334.4,161.3L344.2,185.7L354.0,204.1L363.8,191.6L373.6,178.3L383.4,204.2L393.2,204.7L403.0,204.5L412.8,204.7L422.6,203.8L432.4,200.4L442.2,194.4L452.0,202.6L461.8,204.8L471.6,198.6L481.4,171.9L491.2,140.4L501.0,104.9L510.8,174.6L520.6,161.6L530.4,158.6L540.2,170.6L550.0,202.5L559.8,145.7L569.6,53.7L579.4,30.0L589.2,30.0L599.0,30.0L608.8,30.0L618.6,30.0L628.4,107.2L638.2,187.3L648.0,173.7L657.8,142.5L667.6,124.4L677.4,116.3L687.2,202.0L697.0,201.5L706.8,196.2L716.6,195.5L726.4,202.9L736.2,193.2L746.0,174.4L755.8,154.4L765.6,162.8L775.4,177.2L785.2,191.1L795.0,203.6L804.8,194.8L814.6,182.2L824.4,169.5L834.2,204.8L844.0,202.8L853.8,202.6L863.6,203.9L873.4,195.8L883.2,183.8L893.0,136.4L902.8,157.3L912.6,179.7L922.4,201.8L932.2,185.7L942.0,160.7L951.8,134.0L961.6,138.3L971.4,165.2L981.2,188.2L991.0,198.6L1000.8,169.8L1010.6,143.5L1020.4,118.7L1030.2,95.3L1040.0,151.5L1049.8,168.1L1059.6,183.1L1069.4,196.0L1079.2,203.9L1089.0,196.3L1098.8,190.6L1108.6,186.6L1118.4,183.8L1128.2,172.6L1138.0,178.5L1147.8,185.2L1157.6,193.1L1167.4,202.6L1177.2,195.4L1187.0,179.8L1196.8,161.8L1206.6,142.6L1216.4,136.5L1226.2,155.3L1236.0,173.0L1245.8,188.4L1255.6,200.2"/><circle cx="77.6" cy="205.0" r="3.5" fill="#111"/><circle cx="170.5" cy="43.7" r="3.5" fill="#111"/><circle cx="263.3" cy="96.4" r="3.5" fill="#111"/><circle cx="356.1" cy="127.0" r="3.5" fill="#111"/><circle cx="409.6" cy="202.0" r="3.5" fill="#111"/><circle cx="463.0" cy="126.2" r="3.5" fill="#111"/><circle cx="550.6" cy="30.0" r="3.5" fill="#111"/><circle cx="638.1" cy="30.0" r="3.5" fill="#111"/><circle cx="725.7" cy="186.4" r="3.5" fill="#111"/><circle cx="793.1" cy="113.1" r="3.5" fill="#111"/><circle cx="858.6" cy="94.6" r="3.5" fill="#111"/><circle cx="921.1" cy="110.8" r="3.5" fill="#111"/><circle cx="983.5" cy="152.2" r="3.5" fill="#111"/><circle cx="1074.9" cy="96.8" r="3.5" fill="#111"/><circle cx="1166.4" cy="30.8" r="3.5" fill="#111"/><circle cx="1257.8" cy="167.8" r="3.5" fill="#111"/></g>
</svg>